<?xml version="1.0" encoding="UTF-8" standalone="no"?>
<!-- Created with Inkscape (http://www.inkscape.org/) -->

<svg
   width="80mm"
   height="80mm"
   viewBox="0 0 80 80"
   version="1.1"
   id="svg1384"
   inkscape:version="1.1.1 (3bf5ae0d25, 2021-09-20)"
   sodipodi:docname="kaffee.svg"
   xmlns:inkscape="http://www.inkscape.org/namespaces/inkscape"
   xmlns:sodipodi="http://sodipodi.sourceforge.net/DTD/sodipodi-0.dtd"
   xmlns="http://www.w3.org/2000/svg"
   xmlns:svg="http://www.w3.org/2000/svg">
  <sodipodi:namedview
     id="namedview1386"
     pagecolor="#505050"
     bordercolor="#ffffff"
     borderopacity="1"
     inkscape:pageshadow="0"
     inkscape:pageopacity="0"
     inkscape:pagecheckerboard="1"
     inkscape:document-units="mm"
     showgrid="false"
     width="80mm"
     inkscape:zoom="1.4823793"
     inkscape:cx="158.19163"
     inkscape:cy="92.756284"
     inkscape:window-width="1920"
     inkscape:window-height="1017"
     inkscape:window-x="1912"
     inkscape:window-y="-8"
     inkscape:window-maximized="1"
     inkscape:current-layer="layer1" />
  <defs
     id="defs1381" />
  <g
     inkscape:label="Ebene 1"
     inkscape:groupmode="layer"
     id="layer1">
    <g
       id="g1609"
       transform="matrix(0.44020112,0,0,0.44020112,-42.716114,12.103987)">
      <path
         style="fill:#b3d7ed;stroke-width:0.264583"
         d="m 149.88683,147.98965 c 0.0127,-0.30823 0.0754,-0.37092 0.15985,-0.15986 0.0764,0.191 0.067,0.4192 -0.0209,0.50712 -0.0879,0.0879 -0.15046,-0.0683 -0.13897,-0.34726 z m 5.27078,-12.30182 c -0.65484,-0.10621 -1.52618,-0.32374 -1.93631,-0.48339 -1.15192,-0.44841 -2.60187,-1.65516 -2.45345,-2.04194 0.0733,-0.19107 10e-4,-0.42914 -0.16059,-0.52905 -0.19036,-0.11764 -0.21849,-0.0596 -0.0799,0.1647 0.14257,0.23069 0.11079,0.28252 -0.0952,0.15522 -0.69185,-0.42758 -1.34934,-2.29355 -1.51349,-4.2953 -0.20714,-2.52591 0.26756,-8.93579 0.96409,-13.01819 1.27447,-7.46978 4.18034,-15.42172 7.45935,-20.412561 l 1.12991,-1.719792 h 21.95321 c 20.56985,0 21.95874,0.02874 22.04104,0.456063 0.0483,0.250833 -0.26423,0.905676 -0.69452,1.455208 -0.43029,0.549529 -1.0407,1.763924 -1.35648,2.698655 -0.63955,1.893127 -0.57309,3.071897 0.28004,4.966707 0.54994,1.22144 0.64849,1.75666 0.20971,1.13899 -0.21709,-0.3056 -0.24542,-0.22954 -0.12319,0.33073 0.092,0.42159 0.0453,0.72761 -0.1109,0.72761 -0.14829,0 -0.26962,0.13364 -0.26962,0.29697 0,0.20519 0.12267,0.19518 0.39687,-0.0324 0.33363,-0.27688 0.39822,-0.22933 0.40529,0.29833 0.005,0.34524 0.18323,0.85883 0.39688,1.1413 0.48921,0.6468 0.48735,0.49469 -0.0113,-0.91847 -0.21983,-0.62308 -0.35228,-1.18028 -0.29434,-1.23823 0.22888,-0.22888 0.90716,2.31192 0.76367,2.86065 -0.11528,0.44085 -0.0664,0.53151 0.19824,0.36793 0.26188,-0.16185 0.30386,-0.0936 0.16501,0.2682 -0.1029,0.26817 -0.0575,0.56484 0.10155,0.66312 0.39111,0.24172 1.09888,3.03906 1.11985,4.42602 0.009,0.61984 0.13112,1.12698 0.27056,1.12698 0.13944,0 0.19741,0.2935 0.12884,0.65223 -0.0686,0.35873 -0.0207,0.68688 0.10636,0.72924 0.12707,0.0424 0.25859,0.99852 0.29227,2.1248 0.0337,1.12628 0.15053,2.04828 0.25967,2.04888 0.10914,5.3e-4 0.19662,0.44759 0.19439,0.99329 -0.003,0.73802 -0.0697,0.89052 -0.26053,0.59531 -0.20635,-0.31929 -0.25727,-0.27744 -0.26053,0.21406 -0.002,0.33601 0.11152,0.53949 0.25277,0.45219 0.44806,-0.27691 0.59339,1.07108 0.49073,4.55164 -0.0748,2.53605 -0.21111,3.57945 -0.54534,4.17482 -0.24509,0.43656 -0.4522,0.61516 -0.46026,0.39688 -0.013,-0.35278 -0.0431,-0.35278 -0.27112,0 -0.33486,0.51815 -0.33486,0.86841 0,0.66145 0.52492,-0.32442 0.24589,0.15146 -0.70772,1.207 -1.2366,1.36877 -2.26247,1.93372 -2.70818,1.49143 -0.2491,-0.24719 -0.28073,-0.21501 -0.14335,0.14584 0.1242,0.32623 0.0461,0.46303 -0.26452,0.46303 -0.27583,0 -0.37092,-0.12378 -0.25407,-0.33073 0.14937,-0.26459 0.11546,-0.26459 -0.1696,0 -0.27889,0.25886 -4.96136,0.33073 -21.54944,0.33073 -11.65622,0 -21.30623,0.0983 -21.44448,0.21848 -0.13824,0.12016 -0.78713,0.13157 -1.44198,0.0254 z m -0.86541,-0.66828 c -0.0879,-0.0879 -0.31612,-0.0973 -0.50712,-0.0209 -0.21106,0.0845 -0.14837,0.14716 0.15986,0.15985 0.27891,0.0115 0.43518,-0.051 0.34726,-0.13896 z m 2.10448,-0.68351 c -0.0845,-0.21106 -0.14715,-0.14837 -0.15985,0.15986 -0.0115,0.27891 0.0511,0.43518 0.13897,0.34726 0.0879,-0.0879 0.0973,-0.31612 0.0209,-0.50712 z m -4.3174,-0.57577 c -0.41697,-0.35888 -0.81766,-0.59244 -0.89042,-0.51902 -0.0728,0.0734 0.22024,0.41522 0.65112,0.75953 1.02059,0.81557 1.22621,0.60892 0.2393,-0.24051 z m 50.17416,0.0679 c 0,-0.38037 -0.45908,-0.27138 -0.61967,0.14712 -0.0983,0.25626 -0.02,0.33461 0.23627,0.23628 0.21087,-0.0809 0.3834,-0.25345 0.3834,-0.3834 z m -35.8081,-0.83159 c -0.0734,-0.1819 -0.13345,-0.0331 -0.13345,0.33073 0,0.3638 0.06,0.51263 0.13345,0.33073 0.0734,-0.1819 0.0734,-0.47956 0,-0.66146 z m -13.79039,0.0838 c -0.0959,-0.1552 -0.30102,-0.28219 -0.45577,-0.28219 -0.17544,0 -0.15537,0.15182 0.0533,0.40327 0.36289,0.43725 0.68721,0.33967 0.40245,-0.12108 z m 50.39224,-0.0488 c 0,-0.14552 -0.11906,-0.191 -0.26458,-0.10107 -0.14552,0.0899 -0.26458,0.28259 -0.26458,0.42811 0,0.14552 0.11906,0.191 0.26458,0.10106 0.14552,-0.0899 0.26458,-0.28258 0.26458,-0.4281 z m -48.66588,-0.58632 c -0.17664,-0.17664 -0.46228,-0.17664 -0.85814,0 -0.54723,0.24418 -0.52664,0.26477 0.26477,0.26477 0.5725,0 0.77001,-0.0881 0.59337,-0.26477 z m 42.99327,0.11415 c -0.18498,-0.2993 1.40148,-0.87412 1.77514,-0.64318 0.16791,0.10378 0.1947,0.04 0.0688,-0.16381 -0.15354,-0.24844 -0.0456,-0.28829 0.42214,-0.15584 0.43006,0.12179 0.51512,0.0994 0.26947,-0.0709 -0.40082,-0.27785 0.0441,-0.72363 0.46355,-0.46441 0.13027,0.0805 0.30802,-0.0391 0.395,-0.26574 0.0946,-0.24653 0.29179,-0.33182 0.49075,-0.21228 0.24813,0.1491 0.24438,0.091 -0.0148,-0.2288 -0.28912,-0.3568 -0.27614,-0.56636 0.0774,-1.25007 0.23362,-0.45177 0.50899,-0.76935 0.61193,-0.70573 0.10295,0.0636 0.20664,-0.14084 0.23043,-0.45437 0.0238,-0.31352 0.14408,-1.77983 0.26731,-3.25845 0.12324,-1.47862 0.12808,-2.62908 0.0108,-2.55656 -0.11733,0.0725 -0.19072,-0.38458 -0.16307,-1.01577 0.078,-1.78128 -0.3003,-5.83083 -0.5964,-6.3841 -0.1464,-0.27355 -0.20882,-0.55473 -0.13871,-0.62484 0.0701,-0.0701 0.0124,-0.54428 -0.12827,-1.05372 -0.16218,-0.58734 -0.16351,-1.04065 -0.004,-1.23892 0.13864,-0.17198 0.30741,-0.78894 0.37504,-1.37102 0.0676,-0.58208 0.0751,-0.86762 0.0166,-0.63454 -0.0634,0.25282 -0.34113,0.40095 -0.68835,0.36715 -0.32585,-0.0317 -0.37824,-0.006 -0.11903,0.0576 0.52947,0.13067 0.63189,0.60664 0.13054,0.60664 -0.18286,0 -0.7484,-0.11523 -1.25677,-0.25606 -0.84315,-0.23358 -0.87921,-0.22197 -0.4107,0.13229 0.28247,0.21359 0.84802,0.38835 1.25677,0.38835 0.73675,0 0.98769,0.34682 0.4786,0.66146 -0.14552,0.0899 -0.26459,0.0176 -0.26459,-0.16078 0,-0.17836 -0.0686,-0.25565 -0.15255,-0.17174 -0.0839,0.0839 -0.64945,-0.0617 -1.25677,-0.32351 -0.8562,-0.36913 -1.87679,-0.48404 -4.5438,-0.51158 -3.39198,-0.035 -3.94126,0.0331 -10.98021,1.3618 -2.37033,0.44744 -4.00742,0.5722 -7.40833,0.56461 -4.16474,-0.009 -4.48035,-0.0477 -6.85864,-0.83472 -1.37115,-0.45374 -2.59154,-0.76408 -2.71197,-0.68964 -0.12044,0.0744 -0.21898,-0.004 -0.21898,-0.17318 0,-0.16967 -0.18361,-0.23804 -0.40803,-0.15193 -0.22442,0.0861 -1.61317,0.0329 -3.08612,-0.11824 -2.99508,-0.30735 -6.14668,-0.0353 -8.79287,0.75912 -1.3361,0.40109 -1.60181,0.58543 -1.77448,1.23109 -0.45537,1.7027 -1.0209,7.65978 -1.03725,10.92597 -0.0193,3.85059 0.29504,5.01417 1.89412,7.012 0.73353,0.91644 0.71257,1.48346 -0.0221,0.59822 -0.32775,-0.39493 -0.79615,-0.31452 -0.79615,0.13669 0,0.13237 0.16655,0.17676 0.37011,0.0986 0.20356,-0.0781 0.45171,-0.01 0.55144,0.15136 0.10044,0.16253 0.42526,0.21596 0.72824,0.1198 0.41124,-0.13053 0.51017,-0.0778 0.39876,0.21251 -0.11253,0.29326 0.021,0.35924 0.55529,0.2744 0.41523,-0.0659 0.57849,-0.0219 0.39846,0.10746 -0.16774,0.12053 9.0596,0.26202 20.50521,0.31441 11.44561,0.0524 20.85981,0.14169 20.92044,0.19844 0.20641,0.19317 0.31837,0.10399 0.17027,-0.13564 z m 3.49827,-0.29633 c 0.30998,-0.49635 0.29542,-0.51091 -0.20094,-0.20093 -0.29432,0.1838 -0.53513,0.42462 -0.53513,0.53513 0,0.382 0.4031,0.19898 0.73607,-0.3342 z m -2.39523,0.11071 c -0.0879,-0.0879 -0.31612,-0.0973 -0.50712,-0.0209 -0.21107,0.0845 -0.14837,0.14716 0.15985,0.15985 0.27892,0.0115 0.43519,-0.0511 0.34727,-0.13896 z M 150.55165,131.279 c -0.0861,-0.0861 -0.15654,-0.003 -0.15654,0.18454 0,0.26954 -0.0923,0.26492 -0.44019,-0.022 -0.40186,-0.33151 -0.4106,-0.30761 -0.10034,0.27449 0.3078,0.57749 0.36408,0.59433 0.59674,0.17859 0.14128,-0.25246 0.18643,-0.52947 0.10033,-0.61557 z m 2.88617,0.7254 c 0.0899,-0.14552 0.0445,-0.26458 -0.10106,-0.26458 -0.14553,0 -0.33817,0.11906 -0.42811,0.26458 -0.0899,0.14552 -0.0445,0.26459 0.10106,0.26459 0.14553,0 0.33817,-0.11907 0.42811,-0.26459 z m 51.29829,-2.51354 c 0.0784,-0.58208 0.0787,-0.84852 5.3e-4,-0.59207 -0.0781,0.25644 -0.22232,0.41664 -0.32044,0.35599 -0.0981,-0.0606 -0.17842,0.28913 -0.17842,0.77728 0,1.15648 0.31577,0.81353 0.4983,-0.5412 z m -2.03734,-1.50482 c -0.0845,-0.21106 -0.14716,-0.14837 -0.15985,0.15986 -0.0115,0.27891 0.051,0.43518 0.13896,0.34726 0.0879,-0.0879 0.0973,-0.31612 0.0209,-0.50712 z m 0.53178,-0.40837 c -0.0671,-0.25744 -0.12638,-0.11087 -0.13178,0.32569 -0.005,0.43656 0.0495,0.64719 0.12197,0.46806 0.0725,-0.17913 0.0769,-0.53632 0.01,-0.79375 z m 0.79712,-0.6665 c -0.0631,-0.32742 -0.11466,-0.0595 -0.11466,0.59532 0,0.65484 0.0516,0.92273 0.11466,0.59531 0.0631,-0.32742 0.0631,-0.8632 0,-1.19063 z m -1.11277,-0.19843 c 0.0899,-0.14553 0.0374,-0.26459 -0.11667,-0.26459 -0.15411,0 -0.2802,0.11906 -0.2802,0.26459 0,0.14552 0.0525,0.26458 0.11667,0.26458 0.0642,0 0.19026,-0.11906 0.2802,-0.26458 z m 1.90652,-1.91823 c -0.0631,-0.32743 -0.11466,-0.0595 -0.11466,0.59531 0,0.65484 0.0516,0.92273 0.11466,0.59531 0.0631,-0.32742 0.0631,-0.8632 0,-1.19062 z m -1.29073,-2.07257 c 0.0251,0.35167 0.11653,0.56855 0.20314,0.48194 0.0866,-0.0866 0.0698,-0.55294 -0.0375,-1.03629 -0.16948,-0.76415 -0.22213,-0.80977 -0.40345,-0.34965 -0.1147,0.29105 -0.19636,1.24355 -0.18147,2.11667 l 0.0271,1.5875 0.17325,-1.71979 c 0.0953,-0.94589 0.1938,-1.43206 0.21891,-1.08038 z m -0.32333,-3.48368 c -0.10368,-0.83449 -0.0791,-1.24808 0.0615,-1.03594 0.14428,0.21764 0.18938,-0.18843 0.11753,-1.05833 -0.15738,-1.90558 -0.28759,-2.18887 -0.3447,-0.75 -0.0384,0.96761 -0.0833,1.06673 -0.23982,0.52916 -0.12158,-0.41762 -0.18901,0.0534 -0.18292,1.27784 0.005,1.07348 0.0948,1.72318 0.20034,1.45521 0.15117,-0.38377 0.19454,-0.33331 0.20929,0.24351 0.0102,0.40019 0.0935,0.72761 0.18497,0.72761 0.0915,0 0.0887,-0.62508 -0.006,-1.38906 z m 0.82031,-2.38125 c -0.0631,-0.32743 -0.11466,-0.0595 -0.11466,0.59531 0,0.65484 0.0516,0.92273 0.11466,0.59531 0.0631,-0.32742 0.0631,-0.8632 0,-1.19062 z m -1.59087,-2.50851 c -0.0671,-0.25743 -0.12638,-0.11087 -0.13178,0.32569 -0.005,0.43657 0.0495,0.64719 0.12197,0.46806 0.0725,-0.17913 0.0769,-0.53632 0.01,-0.79375 z m 0.79113,-0.38537 c -0.0845,-0.21107 -0.14715,-0.14838 -0.15985,0.15985 -0.0115,0.27891 0.0511,0.43518 0.13897,0.34727 0.0879,-0.0879 0.0973,-0.31613 0.0209,-0.50712 z m -0.18878,-2.2655 c -0.007,-0.62414 -0.0466,-0.66146 -0.27891,-0.26249 -0.14897,0.25582 -0.19785,0.58324 -0.10863,0.72761 0.27357,0.44264 0.39595,0.29575 0.38754,-0.46512 z m -0.34038,-1.70325 c -0.0845,-0.21107 -0.14716,-0.14838 -0.15985,0.15985 -0.0115,0.27891 0.051,0.43518 0.13896,0.34727 0.0879,-0.0879 0.0973,-0.31613 0.0209,-0.50712 z m -3.48804,-0.21498 c -0.0899,-0.14552 -0.28258,-0.26458 -0.4281,-0.26458 -0.14552,0 -0.191,0.11906 -0.10106,0.26458 0.0899,0.14552 0.28258,0.26459 0.4281,0.26459 0.14552,0 0.191,-0.11907 0.10106,-0.26459 z m 1.10679,-3.48919 c -0.0845,-0.21107 -0.14716,-0.14837 -0.15985,0.15985 -0.0115,0.27892 0.051,0.43519 0.13896,0.34727 0.0879,-0.0879 0.0973,-0.31613 0.0209,-0.50712 z m -0.0701,-8.659194 c -0.16428,-0.164274 -0.2894,0.03443 -0.48569,0.771303 l -0.17619,0.661458 0.38626,-0.661058 c 0.21244,-0.363583 0.33647,-0.710849 0.27562,-0.771703 z m -1.36741,0.584579 c -0.32743,-0.06307 -0.86321,-0.06307 -1.19063,0 -0.32742,0.06306 -0.0595,0.114662 0.59531,0.114662 0.65485,0 0.92274,-0.0516 0.59532,-0.114662 z m -23.28334,-0.264584 c -0.32742,-0.06307 -0.8632,-0.06307 -1.19062,0 -0.32742,0.06306 -0.0595,0.114663 0.59531,0.114663 0.65484,0 0.92273,-0.0516 0.59531,-0.114663 z m 55.07083,29.555479 c 0,-1.96454 0.0417,-2.76821 0.0926,-1.78594 0.0509,0.98226 0.0509,2.58961 0,3.57187 -0.0509,0.98227 -0.0926,0.1786 -0.0926,-1.78593 z m -11.90918,-36.224 c -0.45393,-0.276796 -0.95994,-0.889431 -1.12448,-1.361408 -0.20771,-0.595855 -0.29915,-5.08471 -0.29915,-14.686405 v -13.82826 l 0.71484,0.191175 c 1.0601,0.283517 1.17344,1.146008 1.08432,8.251807 -0.0688,5.484145 -0.0264,6.328417 0.31751,6.328417 0.34393,0 0.38629,-0.844272 0.31751,-6.328417 -0.0437,-3.480631 0.023,-6.725195 0.14801,-7.210145 0.22067,-0.855665 0.27189,-0.884071 1.73302,-0.961075 l 1.50563,-0.07935 V 75.70837 c 0,15.476905 0.0659,14.827509 -1.59042,15.684003 -1.02069,0.527817 -1.81179,0.496847 -2.80679,-0.109883 z m 12.17377,-10.607254 c 0,-1.964532 0.0417,-2.768203 0.0926,-1.785938 0.0509,0.982266 0.0509,2.58961 0,3.571875 -0.0509,0.982266 -0.0926,0.178594 -0.0926,-1.785937 z m -28.18323,1.653646 c -0.32911,-0.419645 -0.31975,-0.429004 0.0999,-0.0999 0.44073,0.345644 0.58088,0.562917 0.36312,0.562917 -0.0549,0 -0.2633,-0.208359 -0.46302,-0.46302 z m 9.33161,-15.802198 c 0.19931,-0.199316 2.85837,-0.241747 3.05142,-0.04869 0.0959,0.09588 -0.57973,0.174329 -1.50136,0.174329 -0.92163,0 -1.61916,-0.05654 -1.55006,-0.125635 z m 7.10631,-3.843115 c 0,-0.145521 0.11906,-0.264583 0.26458,-0.264583 0.14552,0 0.26458,0.119062 0.26458,0.264583 0,0.145521 -0.11906,0.264583 -0.26458,0.264583 -0.14552,0 -0.26458,-0.119062 -0.26458,-0.264583 z m 0.7276,-21.878218 c -0.25466,-0.06655 -0.46302,-0.235522 -0.46302,-0.375492 0,-0.153363 0.21027,-0.141954 0.52917,0.02871 0.29104,0.15576 0.52916,0.338542 0.52916,0.406183 0,0.06764 -0.0298,0.109172 -0.0661,0.09229 -0.0364,-0.01688 -0.27451,-0.08514 -0.52917,-0.151693 z m 11.28061,-4.315532 c 0,-1.81901 0.0423,-2.563151 0.0939,-1.653646 0.0517,0.909505 0.0517,2.397787 0,3.307292 -0.0517,0.909505 -0.0939,0.165364 -0.0939,-1.653646 z m 1.7919,-7.9375 c 0,-0.363802 0.0601,-0.51263 0.13345,-0.330729 0.0734,0.181901 0.0734,0.479557 0,0.661458 -0.0734,0.181901 -0.13345,0.03307 -0.13345,-0.330729 z m -91.0544,-0.355499 c 0.002,-0.331611 0.0855,-0.448654 0.19844,-0.279486 0.10691,0.160081 0.36991,0.347573 0.58444,0.416649 0.27457,0.08841 0.21582,0.171156 -0.19844,0.279486 -0.47458,0.124105 -0.5877,0.04346 -0.58444,-0.416649 z m 3.36939,-0.102814 c 1.44866,-0.130478 1.46591,-0.60002 0.022,-0.60002 -1.6422,0 -1.13416,-0.179818 0.97014,-0.343381 1.19232,-0.09268 1.5222,-0.06956 0.92604,0.06488 -0.89238,0.201249 -0.87796,0.209871 0.39687,0.237202 0.72761,0.0156 1.84465,-0.09192 2.48232,-0.238932 1.08202,-0.249454 1.6374,-0.17942 1.29472,0.163264 -0.19425,0.194247 -5.70361,0.918972 -6.55516,0.862293 -0.3638,-0.02421 -0.15544,-0.0896 0.46302,-0.145307 z M 142.408,27.313245 c 0.191,-0.07643 0.4192,-0.06703 0.50712,0.02089 0.0879,0.08792 -0.0684,0.150453 -0.34727,0.138964 -0.30822,-0.01269 -0.37092,-0.07539 -0.15985,-0.159852 z m 10.5668,-0.259071 c 0.1819,-0.0734 0.47955,-0.0734 0.66146,0 0.1819,0.0734 0.0331,0.133452 -0.33073,0.133452 -0.36381,0 -0.51263,-0.06005 -0.33073,-0.133452 z m -10.4621,-0.816959 c 0.48946,-1.15502 1.4593,-2.363004 2.3917,-2.978962 l 0.8605,-0.568463 -0.82187,0.748452 c -0.75023,0.683217 -0.81572,0.873298 -0.75136,2.180834 0.0388,0.78781 -0.023,1.281115 -0.13724,1.096232 -0.14688,-0.237655 -0.26079,-0.250348 -0.38874,-0.04332 -0.3266,0.528457 -0.71615,0.327623 -0.42386,-0.218525 0.49478,-0.924511 0.79381,-1.869894 0.59145,-1.869894 -0.10931,0 -0.43378,0.534653 -0.72106,1.188119 -0.28728,0.653465 -0.60906,1.189246 -0.71508,1.190625 -0.10602,0.0014 -0.054,-0.324916 0.11556,-0.725098 z m 14.49699,0.340038 c 0,-0.437329 0.47187,-0.511631 2.91042,-0.458284 l 1.45521,0.03184 -1.19063,-0.360767 -1.19062,-0.360767 1.12448,-0.02597 c 0.61846,-0.01429 1.12448,-0.150433 1.12448,-0.302548 0,-0.340394 1.90667,-0.03147 2.15339,0.348898 0.1011,0.15587 0.79218,0.190769 1.71979,0.08685 1.23093,-0.137901 1.44779,-0.11076 1.05146,0.131586 -0.48221,0.294865 -2.49169,0.206094 -4.19704,-0.18541 -0.45906,-0.105388 -0.7276,-0.058 -0.7276,0.128388 0,0.162486 0.38695,0.30912 0.85989,0.325855 0.83844,0.02967 0.83348,0.03589 -0.19844,0.249335 -0.58208,0.1204 -1.69123,0.225771 -2.46478,0.234157 -0.77356,0.0084 -1.63676,0.138499 -1.91823,0.28914 -0.40268,0.215503 -0.51178,0.187301 -0.51178,-0.132293 z m 0,-1.199934 c 0,-0.145521 0.38696,-0.26276 0.8599,-0.260532 0.65252,0.0031 0.76418,0.06591 0.46302,0.260532 -0.52004,0.336074 -1.32292,0.336074 -1.32292,0 z m 9.92188,-0.26288 c -0.43696,-0.110248 0.21717,-0.139071 1.45521,-0.06412 1.23692,0.07488 2.29856,0.179091 2.3592,0.231576 0.20359,0.176227 -3.01172,0.03508 -3.81441,-0.167453 z m -7.59024,-0.182444 c 0.191,-0.07643 0.4192,-0.06703 0.50712,0.02089 0.0879,0.08792 -0.0684,0.150453 -0.34726,0.138964 -0.30823,-0.01269 -0.37092,-0.07539 -0.15986,-0.159852 z m 5.55625,0 c 0.191,-0.07643 0.4192,-0.06703 0.50712,0.02089 0.0879,0.08792 -0.0683,0.150453 -0.34726,0.138964 -0.30823,-0.01269 -0.37092,-0.07539 -0.15986,-0.159852 z m 7.26454,-0.0026 c 0.25744,-0.06708 0.61462,-0.06267 0.79375,0.0098 0.17914,0.07248 -0.0315,0.127362 -0.46805,0.121969 -0.43656,-0.0054 -0.58313,-0.06469 -0.3257,-0.131773 z m 1.99588,0.0026 c 0.191,-0.07643 0.4192,-0.06703 0.50712,0.02089 0.0879,0.08792 -0.0684,0.150453 -0.34727,0.138964 -0.30822,-0.01269 -0.37092,-0.07539 -0.15985,-0.159852 z m -29.31914,-0.37262 c -0.32804,-0.23199 -0.33377,-0.305865 -0.0331,-0.425897 0.20009,-0.07987 0.59696,-0.378385 0.88194,-0.663364 0.28498,-0.284978 0.58593,-0.450357 0.66878,-0.367507 0.0829,0.08285 -0.1824,0.4126 -0.58944,0.73278 -0.68304,0.537273 -0.70145,0.59731 -0.23883,0.778859 0.3414,0.133985 0.37469,0.201352 0.10437,0.211259 -0.21828,0.008 -0.57547,-0.111759 -0.79375,-0.26613 z m 33.55247,-0.156547 c 0.191,-0.07643 0.4192,-0.06703 0.50712,0.02089 0.0879,0.08792 -0.0684,0.150453 -0.34726,0.138965 -0.30823,-0.01269 -0.37092,-0.07539 -0.15986,-0.159853 z m 1.7069,-0.273702 c 0.40218,-0.06082 0.99749,-0.05919 1.32291,0.0036 0.32543,0.0628 -0.004,0.11256 -0.73124,0.110574 -0.7276,-0.002 -0.99386,-0.05337 -0.59167,-0.114185 z m 2.31146,-0.314288 c 0,-0.135156 -0.92249,-0.176335 -2.11666,-0.09448 -1.45002,0.09939 -2.11667,0.05348 -2.11667,-0.14574 0,-0.392594 4.71649,-0.25787 5.42396,0.154932 0.4815,0.280954 0.45171,0.30949 -0.33073,0.316811 -0.47294,0.0044 -0.8599,-0.09976 -0.8599,-0.231519 z m 2.31511,0.06434 c 0.1819,-0.0734 0.47955,-0.0734 0.66146,0 0.1819,0.0734 0.0331,0.133452 -0.33073,0.133452 -0.36381,0 -0.51263,-0.06005 -0.33073,-0.133452 z m 1.91823,-0.353938 c 0,-0.145521 0.23109,-0.264584 0.51355,-0.264584 0.28245,0 0.58713,0.119063 0.67707,0.264584 0.0927,0.15006 -0.12954,0.264583 -0.51355,0.264583 -0.37239,0 -0.67707,-0.119062 -0.67707,-0.264583 z m 2.11666,0 c 0,-0.145521 0.26789,-0.26276 0.59532,-0.260532 0.48139,0.0033 0.51936,0.05313 0.19843,0.260532 -0.51296,0.331502 -0.79375,0.331502 -0.79375,0 z m 2.31511,-0.175229 c 0.1819,-0.0734 0.47955,-0.0734 0.66146,0 0.1819,0.0734 0.0331,0.133452 -0.33073,0.133452 -0.36381,0 -0.51263,-0.06005 -0.33073,-0.133452 z m -7.60677,-0.353938 -1.19063,-0.185106 1.50574,-0.03974 c 0.82816,-0.02186 1.57932,0.07932 1.66926,0.224844 0.17663,0.285784 -0.14618,0.285784 -1.98437,0 z m 9.86076,0.08123 c 0.25743,-0.06708 0.61462,-0.06267 0.79375,0.0098 0.17913,0.07248 -0.0315,0.127362 -0.46806,0.12197 -0.43656,-0.0054 -0.58312,-0.06469 -0.32569,-0.131774 z m 1.99588,0.0026 c 0.19099,-0.07643 0.4192,-0.06703 0.50712,0.02089 0.0879,0.08792 -0.0684,0.150453 -0.34727,0.138964 -0.30823,-0.01269 -0.37092,-0.07539 -0.15985,-0.159852 z m -8.21862,-0.270574 c 0.32742,-0.06306 0.8632,-0.06306 1.19062,0 0.32742,0.06306 0.0595,0.114662 -0.59531,0.114662 -0.65484,0 -0.92273,-0.0516 -0.59531,-0.114662 z m 2.78316,0.0034 c 0.25743,-0.06708 0.61462,-0.06267 0.79375,0.0098 0.17913,0.07248 -0.0315,0.127362 -0.46806,0.12197 -0.43656,-0.0054 -0.58312,-0.06469 -0.32569,-0.131773 z m 6.74184,-0.0034 c 0.32742,-0.06306 0.8632,-0.06306 1.19062,0 0.32742,0.06306 0.0595,0.114662 -0.59531,0.114662 -0.65484,0 -0.92273,-0.0516 -0.59531,-0.114662 z M 146.2095,22.482267 c 0.51243,-0.329199 64.61763,-0.545624 64.289,-0.217045 -0.10738,0.107356 -14.19901,0.226419 -31.31474,0.264583 -17.11573,0.03816 -30.98201,-0.02993 -30.81397,-0.151324 0.29116,-0.210332 -0.44978,-0.121672 -1.94343,0.232548 -0.54362,0.128918 -0.58225,0.105979 -0.21686,-0.128762 z m 81.39433,-0.460689 c 0.191,-0.07643 0.4192,-0.06703 0.50712,0.02089 0.0879,0.08792 -0.0684,0.150453 -0.34726,0.138965 -0.30823,-0.0127 -0.37092,-0.07539 -0.15986,-0.159853 z m -3.84501,-0.278648 c 0.69562,-0.05468 1.76718,-0.05402 2.38125,0.0015 0.61408,0.05549 0.0449,0.10023 -1.26475,0.09942 -1.30969,-7.94e-4 -1.81211,-0.04621 -1.1165,-0.10089 z"
         id="path1623" />
      <path
         style="fill:#afafb0;stroke-width:0.264583"
         d="m 150.89053,150.06221 c -0.32911,-0.41964 -0.31975,-0.429 0.0999,-0.0999 0.25466,0.19972 0.46302,0.40808 0.46302,0.46302 0,0.21776 -0.21727,0.0776 -0.56291,-0.36313 z m 78.35041,0.36313 c 0,-0.0549 0.20836,-0.2633 0.46302,-0.46302 0.41965,-0.32911 0.42901,-0.31975 0.0999,0.0999 -0.34564,0.44073 -0.56292,0.58089 -0.56292,0.36313 z m -27.56627,-13.04543 c 0.19099,-0.0764 0.4192,-0.067 0.50712,0.0209 0.0879,0.0879 -0.0684,0.15045 -0.34727,0.13896 -0.30823,-0.0127 -0.37092,-0.0754 -0.15985,-0.15985 z m -1.04248,-1.34061 c -0.3291,-0.41965 -0.31975,-0.42901 0.0999,-0.0999 0.44073,0.34565 0.58089,0.56292 0.36312,0.56292 -0.0549,0 -0.2633,-0.20836 -0.46302,-0.46302 z m 4.13479,-0.0661 c 0.2634,-0.29104 0.53843,-0.52916 0.61119,-0.52916 0.0728,0 -0.0832,0.23812 -0.3466,0.52916 -0.26339,0.29104 -0.53842,0.52917 -0.61118,0.52917 -0.0728,0 0.0832,-0.23813 0.34659,-0.52917 z m -45.29551,-0.46216 c 1.57226,-0.0469 4.07257,-0.0467 5.55625,2.6e-4 1.48368,0.0471 0.19729,0.0854 -2.85865,0.0852 -3.05594,-2.2e-4 -4.26986,-0.0387 -2.6976,-0.0856 z m 39.87156,-0.0514 c 0,-0.13693 0.0992,-0.31029 0.22048,-0.38523 0.12127,-0.075 0.22049,0.0371 0.22049,0.24896 0,0.21188 -0.0992,0.38524 -0.22049,0.38524 -0.12126,0 -0.22048,-0.11204 -0.22048,-0.24897 z m -45.55795,-0.46094 c 0.191,-0.0764 0.4192,-0.067 0.50712,0.0209 0.0879,0.0879 -0.0684,0.15045 -0.34726,0.13896 -0.30823,-0.0127 -0.37092,-0.0754 -0.15986,-0.15985 z m 2.45175,-0.50276 c 0.0127,-0.30823 0.0754,-0.37092 0.15985,-0.15986 0.0764,0.191 0.067,0.4192 -0.0209,0.50712 -0.0879,0.0879 -0.15046,-0.0684 -0.13897,-0.34726 z m -4.39685,-0.49512 c -0.43088,-0.34431 -0.72388,-0.6861 -0.65112,-0.75953 0.0728,-0.0734 0.47345,0.16014 0.89042,0.51902 0.98691,0.84943 0.78129,1.05608 -0.2393,0.24051 z m 49.79379,-0.0255 c 0.16059,-0.4185 0.61967,-0.52749 0.61967,-0.14712 0,0.12995 -0.17253,0.30248 -0.3834,0.3834 -0.25625,0.0983 -0.33461,0.02 -0.23627,-0.23628 z m -35.32188,-0.64798 c 0,-0.3638 0.06,-0.51263 0.13345,-0.33073 0.0734,0.1819 0.0734,0.47956 0,0.66146 -0.0734,0.1819 -0.13345,0.0331 -0.13345,-0.33073 z m -14.05939,-0.1259 c -0.20869,-0.25145 -0.22876,-0.40327 -0.0533,-0.40327 0.31976,0 0.69257,0.50197 0.50909,0.68546 -0.0666,0.0666 -0.27169,-0.0604 -0.45577,-0.28219 z m 50.26553,0.15713 c 0,-0.14552 0.11906,-0.33817 0.26458,-0.42811 0.14552,-0.0899 0.26458,-0.0445 0.26458,0.10107 0,0.14552 -0.11906,0.33816 -0.26458,0.4281 -0.14552,0.0899 -0.26458,0.0445 -0.26458,-0.10106 z m -48.99486,-0.91336 c 0.39586,-0.17664 0.6815,-0.17664 0.85814,0 0.17664,0.17664 -0.0209,0.26477 -0.59337,0.26477 -0.79141,0 -0.812,-0.0206 -0.26477,-0.26477 z m 27.96048,0.0884 -15.875,-0.13854 15.79324,-0.063 c 10.31194,-0.0411 15.84999,0.0288 15.95676,0.20157 0.0899,0.14552 0.12673,0.23622 0.0818,0.20156 -0.045,-0.0347 -7.22551,-0.12536 -15.95676,-0.20156 z m 18.65313,0.0636 c 0,-0.11051 0.24081,-0.35133 0.53513,-0.53513 0.49636,-0.30998 0.51092,-0.29542 0.20094,0.20093 -0.33297,0.53318 -0.73607,0.7162 -0.73607,0.3342 z m -44.45,-0.35299 c 0.31204,-0.22113 0.24651,-0.25737 -0.30658,-0.16955 -0.48084,0.0763 -0.6639,0.009 -0.57849,-0.21394 0.0948,-0.24717 0.34564,-0.25791 1.04082,-0.0445 0.89362,0.27426 0.79809,0.70928 -0.15575,0.70928 -0.35278,0 -0.35278,-0.0312 0,-0.28124 z m 41.95171,0.0494 c -0.0815,-0.13195 0.09,-0.17759 0.38125,-0.10143 0.6178,0.16155 0.6959,0.34134 0.14828,0.34134 -0.2097,0 -0.44798,-0.10796 -0.52953,-0.23991 z m -47.78391,-0.57768 c -0.31026,-0.5821 -0.30152,-0.606 0.10034,-0.27449 0.34787,0.28697 0.44019,0.29159 0.44019,0.022 0,-0.1876 0.0705,-0.27064 0.15654,-0.18454 0.0861,0.0861 0.041,0.36311 -0.10033,0.61557 -0.23266,0.41574 -0.28894,0.39889 -0.59674,-0.17859 z m 3.05407,0.28842 c 0.0899,-0.14552 0.28258,-0.26458 0.42811,-0.26458 0.14552,0 0.191,0.11906 0.10106,0.26458 -0.0899,0.14552 -0.28258,0.26459 -0.42811,0.26459 -0.14552,0 -0.191,-0.11907 -0.10106,-0.26459 z m 50.67176,0.0818 c 0.002,-0.11773 0.11947,-0.39264 0.26053,-0.61092 0.22104,-0.34203 0.25704,-0.33504 0.26054,0.0505 0.002,0.24607 -0.11502,0.52099 -0.26054,0.61092 -0.14552,0.0899 -0.26276,0.0672 -0.26053,-0.0505 z m -4.5882,-0.2802 c -0.0646,-0.10914 0.41339,-0.70729 1.06223,-1.32922 0.64884,-0.62194 1.10114,-1.00368 1.00512,-0.84831 -0.096,0.15537 -0.0155,0.47872 0.17892,0.71856 0.2558,0.31555 0.26158,0.38084 0.0209,0.23622 -0.19895,-0.11954 -0.39615,-0.0343 -0.49075,0.21228 -0.087,0.22667 -0.26473,0.34625 -0.395,0.26574 -0.41942,-0.25922 -0.86437,0.18656 -0.46355,0.46441 0.24566,0.17029 0.16059,0.19266 -0.26947,0.0709 -0.42745,-0.12105 -0.57054,-0.0843 -0.4474,0.11496 0.0996,0.16111 0.12151,0.29293 0.0488,0.29293 -0.0728,0 -0.18515,-0.0893 -0.24976,-0.19844 z m -45.30096,-0.34876 c -0.0961,-0.15544 -0.34122,-0.21871 -0.54478,-0.1406 -0.20356,0.0781 -0.37011,0.0337 -0.37011,-0.0986 0,-0.45121 0.4684,-0.53162 0.79617,-0.13669 0.17982,0.21668 0.4522,0.39397 0.60526,0.39397 0.15307,0 -0.0103,-0.32743 -0.36312,-0.72761 l -0.64144,-0.7276 0.71945,0.63377 c 0.3957,0.34858 0.65657,0.73553 0.5797,0.8599 -0.19218,0.31095 -0.57096,0.28355 -0.78113,-0.0565 z m 50.54657,-1.42514 c 0,-0.48815 0.0803,-0.83792 0.17841,-0.77728 0.0981,0.0606 0.24233,-0.0996 0.32044,-0.35599 0.0781,-0.25645 0.0779,0.01 -5.2e-4,0.59207 -0.18254,1.35473 -0.4983,1.69768 -0.4983,0.5412 z m -2.50515,-2.23894 c 0.11808,-0.37593 0.27387,-0.8621 0.34619,-1.08038 0.0723,-0.21829 0.11142,0.0888 0.0869,0.68237 -0.025,0.60454 -0.17726,1.07975 -0.34619,1.08039 -0.20337,7.9e-4 -0.23167,-0.22148 -0.0869,-0.68238 z m 0.80625,0.35278 c 0.0127,-0.30823 0.0754,-0.37092 0.15985,-0.15986 0.0764,0.191 0.067,0.4192 -0.0209,0.50712 -0.0879,0.0879 -0.15045,-0.0683 -0.13896,-0.34726 z m 0.55985,-0.24254 c 0.005,-0.43656 0.0647,-0.58313 0.13178,-0.32569 0.0671,0.25743 0.0627,0.61462 -0.01,0.79375 -0.0725,0.17913 -0.12736,-0.0315 -0.12197,-0.46806 z m 0.81424,-0.39687 c 0,-0.65485 0.0516,-0.92274 0.11466,-0.59532 0.0631,0.32743 0.0631,0.86321 0,1.19063 -0.0631,0.32742 -0.11466,0.0595 -0.11466,-0.59531 z m -62.39389,-0.8599 -1.04589,-1.12448 1.12448,1.04589 c 1.04576,0.97266 1.24607,1.20307 1.04589,1.20307 -0.0432,0 -0.54924,-0.50602 -1.12448,-1.12448 z m 60.99891,0.0661 c 0,-0.14553 0.12609,-0.26459 0.2802,-0.26459 0.1541,0 0.20661,0.11906 0.11667,0.26459 -0.0899,0.14552 -0.21603,0.26458 -0.2802,0.26458 -0.0642,0 -0.11667,-0.11906 -0.11667,-0.26458 z m 2.18873,-1.32292 c 0,-0.65484 0.0516,-0.92274 0.11466,-0.59531 0.0631,0.32742 0.0631,0.8632 0,1.19062 -0.0631,0.32742 -0.11466,0.0595 -0.11466,-0.59531 z m -2.41367,-1.10886 c -0.0218,-1.1192 0.0496,-2.09038 0.15879,-2.15817 0.10914,-0.0678 0.16479,0.55026 0.12367,1.37345 -0.12909,2.5841 -0.24133,2.89592 -0.28246,0.78472 z m 0.81837,-0.34635 c -0.0149,-0.87312 0.0668,-1.82562 0.18147,-2.11667 0.18132,-0.46012 0.23397,-0.4145 0.40345,0.34965 0.10721,0.48335 0.12406,0.94968 0.0375,1.03629 -0.0866,0.0866 -0.17802,-0.13027 -0.20314,-0.48194 -0.0251,-0.35168 -0.12363,0.13449 -0.21891,1.08038 l -0.17325,1.71979 z m -54.24247,-0.39687 c 0,-0.50933 0.0545,-0.71769 0.12101,-0.46303 0.0665,0.25467 0.0665,0.67139 0,0.92605 -0.0666,0.25466 -0.12101,0.0463 -0.12101,-0.46302 z m 81.81068,-6.4823 c -1.4e-4,-3.92906 0.0367,-5.57329 0.0818,-3.65384 0.0451,1.91946 0.0453,5.13414 2.6e-4,7.14375 -0.045,2.00962 -0.082,0.43916 -0.0821,-3.48991 z m -86.66831,5.75469 c -0.32911,-0.41964 -0.31975,-0.429 0.0999,-0.0999 0.44073,0.34564 0.58088,0.56291 0.36312,0.56291 -0.0549,0 -0.2633,-0.20836 -0.46302,-0.46302 z m 60.35875,-0.84428 c 0,-0.63885 0.14714,-0.7033 0.35701,-0.15638 0.082,0.21362 0.0352,0.45877 -0.10398,0.54478 -0.13917,0.086 -0.25303,-0.0888 -0.25303,-0.3884 z m -58.16656,-0.2802 c 0,-0.3638 0.0601,-0.51263 0.13345,-0.33073 0.0734,0.1819 0.0734,0.47956 0,0.66146 -0.0734,0.1819 -0.13345,0.0331 -0.13345,-0.33073 z m 55.84156,-1.85208 c 0.0114,-1.24017 0.0387,-1.31837 0.18474,-0.52917 l 0.17133,0.92604 0.18951,-0.88696 c 0.10424,-0.48783 0.13242,-1.3808 0.0626,-1.98437 -0.0989,-0.85513 -0.0752,-0.95138 0.10712,-0.43596 0.20407,0.57681 0.24006,0.50908 0.28128,-0.52916 0.0571,-1.43887 0.18732,-1.15558 0.3447,0.75 0.0718,0.8699 0.0267,1.27597 -0.11753,1.05833 -0.14571,-0.21979 -0.19457,0.14637 -0.1294,0.96979 0.0576,0.7276 0.0503,1.03257 -0.0162,0.67769 -0.11247,-0.60032 -0.15466,-0.5727 -0.60624,0.39688 l -0.48536,1.0421 0.0134,-1.45521 z m -52.95203,0.37483 c 0.0127,-0.30823 0.0754,-0.37092 0.15985,-0.15986 0.0764,0.191 0.067,0.4192 -0.0209,0.50712 -0.0879,0.0879 -0.15046,-0.0684 -0.13897,-0.34726 z m 2.67653,-0.50712 c 0.005,-0.43657 0.0647,-0.58313 0.13177,-0.3257 0.0671,0.25743 0.0627,0.61462 -0.01,0.79375 -0.0725,0.17913 -0.12736,-0.0315 -0.12197,-0.46805 z m 52.1434,-2.24896 c 0,-0.65484 0.0516,-0.92274 0.11466,-0.59531 0.0631,0.32742 0.0631,0.8632 0,1.19062 -0.0631,0.32742 -0.11466,0.0595 -0.11466,-0.59531 z m -54.55534,0.37483 c 0.0127,-0.30823 0.0754,-0.37092 0.15985,-0.15986 0.0764,0.191 0.067,0.4192 -0.0209,0.50712 -0.0879,0.0879 -0.15045,-0.0683 -0.13896,-0.34726 z m 52.36369,-0.57327 c -0.002,-0.40018 -0.0689,-1.20385 -0.14958,-1.78594 -0.0983,-0.70922 -0.0654,-0.92741 0.0996,-0.66145 0.3579,0.5768 0.60751,3.175 0.30503,3.175 -0.13867,0 -0.25343,-0.32743 -0.25504,-0.72761 z M 152.0035,117.0334 c 0.0127,-0.30823 0.0754,-0.37092 0.15985,-0.15986 0.0764,0.191 0.067,0.4192 -0.0209,0.50712 -0.0879,0.0879 -0.15045,-0.0684 -0.13896,-0.34726 z m 0.26458,-2.11667 c 0.0127,-0.30823 0.0754,-0.37092 0.15985,-0.15985 0.0764,0.19099 0.067,0.4192 -0.0209,0.50712 -0.0879,0.0879 -0.15046,-0.0684 -0.13897,-0.34727 z m 50.03694,-0.24254 c 0.005,-0.43656 0.0647,-0.58312 0.13178,-0.32569 0.0671,0.25743 0.0627,0.61462 -0.01,0.79375 -0.0725,0.17913 -0.12736,-0.0315 -0.12197,-0.46806 z m 0.76306,-0.55121 c 0.0127,-0.30823 0.0754,-0.37092 0.15985,-0.15985 0.0764,0.19099 0.067,0.4192 -0.0209,0.50712 -0.0879,0.0879 -0.15046,-0.0684 -0.13897,-0.34727 z m 0.52917,0 c 0.0127,-0.30823 0.0754,-0.37092 0.15985,-0.15985 0.0764,0.19099 0.067,0.4192 -0.0209,0.50712 -0.0879,0.0879 -0.15045,-0.0684 -0.13896,-0.34727 z m -2.30311,-0.49839 c -0.0819,-0.21348 -0.0979,-0.5409 -0.0355,-0.7276 0.0624,-0.18671 0.17619,-0.012 0.25285,0.38814 0.14969,0.78137 0.0262,0.97421 -0.21737,0.33946 z m -48.76147,-0.29536 c 0.0127,-0.30823 0.0754,-0.37092 0.15985,-0.15985 0.0764,0.19099 0.067,0.4192 -0.0209,0.50712 -0.0879,0.0879 -0.15045,-0.0684 -0.13896,-0.34727 z m -12.14995,-0.63941 c 0,-0.3638 0.06,-0.51263 0.13345,-0.33073 0.0734,0.1819 0.0734,0.47956 0,0.66146 -0.0734,0.1819 -0.13345,0.0331 -0.13345,-0.33073 z m 35.34624,0.0732 c 0.47295,-0.0587 1.24685,-0.0587 1.7198,0 0.47294,0.0587 0.086,0.10672 -0.8599,0.10672 -0.94589,0 -1.33284,-0.048 -0.8599,-0.10672 z m 4.23334,-0.24841 c 0.1819,-0.0734 0.47955,-0.0734 0.66146,0 0.1819,0.0734 0.0331,0.13345 -0.33073,0.13345 -0.36381,0 -0.51263,-0.06 -0.33073,-0.13345 z m 22.68931,-0.35184 c -0.0892,-0.14437 -0.0403,-0.47179 0.10863,-0.72761 0.23235,-0.39897 0.27201,-0.36165 0.27891,0.26249 0.008,0.76087 -0.11397,0.90776 -0.38754,0.46512 z m -2.64713,-0.55729 c -0.58208,-0.26909 -1.25966,-0.49239 -1.50573,-0.4962 -0.24608,-0.004 -0.52886,-0.13874 -0.62842,-0.29982 -0.1265,-0.20468 0.078,-0.236 0.67895,-0.104 0.57217,0.12568 0.80289,0.0966 0.68945,-0.087 -0.11666,-0.18875 0.10211,-0.19769 0.69276,-0.0283 0.47479,0.13616 1.01287,0.24758 1.19573,0.24758 0.50135,0 0.39892,-0.47597 -0.13055,-0.60664 -0.25921,-0.064 -0.20682,-0.0893 0.11903,-0.0576 0.34723,0.0338 0.62494,-0.11433 0.68835,-0.36715 0.0585,-0.23308 0.0528,0.0525 -0.0127,0.63454 -0.17242,1.53362 -0.51114,1.75438 -1.78688,1.1646 z m 1.43757,-0.32899 c -0.0631,-0.0546 -0.5909,-0.16988 -1.17298,-0.2562 -1.00635,-0.14924 -1.02601,-0.13922 -0.4002,0.20392 0.36198,0.19848 0.74893,0.30476 0.8599,0.23618 0.11096,-0.0686 0.20176,0.0252 0.20176,0.20842 0,0.25648 0.072,0.26109 0.31309,0.02 0.1722,-0.17221 0.26149,-0.35776 0.19843,-0.41235 z m -33.63405,-0.0903 c 0.191,-0.0764 0.4192,-0.067 0.50712,0.0209 0.0879,0.0879 -0.0684,0.15045 -0.34727,0.13896 -0.30822,-0.0127 -0.37092,-0.0754 -0.15985,-0.15985 z m -1.5875,-0.26458 c 0.191,-0.0764 0.4192,-0.067 0.50712,0.0209 0.0879,0.0879 -0.0684,0.15045 -0.34727,0.13896 -0.30822,-0.0127 -0.37092,-0.0754 -0.15985,-0.15985 z m -8.99583,-0.26458 c 0.19099,-0.0764 0.4192,-0.067 0.50712,0.0209 0.0879,0.0879 -0.0684,0.15045 -0.34727,0.13897 -0.30823,-0.0127 -0.37092,-0.0754 -0.15985,-0.15985 z m 7.14375,0 c 0.19099,-0.0764 0.4192,-0.067 0.50712,0.0209 0.0879,0.0879 -0.0684,0.15045 -0.34727,0.13897 -0.30823,-0.0127 -0.37092,-0.0754 -0.15985,-0.15985 z m 26.8437,-0.003 c 0.25744,-0.0671 0.61462,-0.0627 0.79375,0.01 0.17914,0.0725 -0.0315,0.12736 -0.46805,0.12197 -0.43656,-0.005 -0.58313,-0.0647 -0.3257,-0.13178 z m 5.15434,0.008 c 0.18191,-0.0734 0.47956,-0.0734 0.66146,0 0.1819,0.0734 0.0331,0.13346 -0.33073,0.13346 -0.3638,0 -0.51263,-0.0601 -0.33073,-0.13346 z m -36.3802,-0.27886 c 0.40018,-0.0606 1.05502,-0.0606 1.4552,0 0.40019,0.0606 0.0728,0.11022 -0.7276,0.11022 -0.80036,0 -1.12779,-0.0496 -0.7276,-0.11022 z m 42.55266,-0.22941 c 0.0127,-0.30823 0.0754,-0.37092 0.15985,-0.15986 0.0764,0.191 0.067,0.4192 -0.0209,0.50712 -0.0879,0.0879 -0.15045,-0.0683 -0.13896,-0.34726 z m -66.14584,-0.26459 c 0.0127,-0.30822 0.0754,-0.37092 0.15985,-0.15985 0.0764,0.19099 0.067,0.4192 -0.0209,0.50712 -0.0879,0.0879 -0.15046,-0.0683 -0.13897,-0.34727 z m 4.23334,0 c 0.0127,-0.30822 0.0754,-0.37092 0.15985,-0.15985 0.0764,0.19099 0.067,0.4192 -0.0209,0.50712 -0.0879,0.0879 -0.15045,-0.0683 -0.13896,-0.34727 z m 10.31875,0 c 0.0127,-0.30822 0.0754,-0.37092 0.15985,-0.15985 0.0764,0.19099 0.067,0.4192 -0.0209,0.50712 -0.0879,0.0879 -0.15045,-0.0683 -0.13896,-0.34727 z m 47.7364,-0.11021 c -0.0899,-0.14552 -0.0445,-0.26458 0.10106,-0.26458 0.14552,0 0.33817,0.11906 0.4281,0.26458 0.0899,0.14552 0.0445,0.26459 -0.10106,0.26459 -0.14552,0 -0.33816,-0.11907 -0.4281,-0.26459 z m 2.97656,-2.6281 c -0.25466,-0.54166 -0.46302,-1.19854 -0.46302,-1.45973 0,-0.39211 -0.0692,-0.41747 -0.39688,-0.1455 -0.2742,0.22757 -0.39687,0.23758 -0.39687,0.0324 0,-0.16333 0.12133,-0.29697 0.26962,-0.29697 0.15549,0 0.19935,-0.28003 0.10361,-0.66146 -0.33992,-1.35436 0.1108,-0.59532 0.80106,1.34904 0.77718,2.18919 0.81574,2.74187 0.0825,1.18223 z m -1.50046,-0.70124 c 0.0127,-0.30822 0.0754,-0.37092 0.15985,-0.15985 0.0764,0.19099 0.067,0.4192 -0.0209,0.50712 -0.0879,0.0879 -0.15045,-0.0683 -0.13896,-0.34727 z m -55.31881,-5.00503 c 0.49365,-0.50933 0.95709,-0.92604 1.02985,-0.92604 0.0728,0 -0.27161,0.41671 -0.76527,0.92604 -0.49365,0.50932 -0.95708,0.92604 -1.02984,0.92604 -0.0728,0 0.27161,-0.41672 0.76526,-0.92604 z m 9.525,-1.17501 c 0,-0.13693 0.1177,-0.321714 0.26155,-0.410619 0.14999,-0.09269 0.19434,0.01352 0.10399,0.248969 -0.17589,0.45837 -0.36554,0.54223 -0.36554,0.16165 z m -12.30313,-2.396868 c 0.56839,-0.582083 1.09297,-1.058333 1.16573,-1.058333 0.0728,0 -0.33275,0.47625 -0.90114,1.058333 -0.56839,0.582084 -1.09297,1.058334 -1.16573,1.058334 -0.0728,0 0.33276,-0.47625 0.90114,-1.058334 z m 57.701,0.529167 c 0.19629,-0.73687 0.32141,-0.935577 0.48569,-0.771303 0.0608,0.06085 -0.0632,0.40812 -0.27562,0.771703 l -0.38626,0.661058 z m -2.07235,-0.186724 c 0.32742,-0.06307 0.8632,-0.06307 1.19063,0 0.32742,0.06306 0.0595,0.114662 -0.59532,0.114662 -0.65484,0 -0.92273,-0.0516 -0.59531,-0.114662 z m -23.28333,-0.264584 c 0.32742,-0.06307 0.8632,-0.06307 1.19062,0 0.32742,0.06306 0.0595,0.114663 -0.59531,0.114663 -0.65484,0 -0.92273,-0.0516 -0.59531,-0.114663 z m -17.13177,-2.988275 c 0.15576,-0.291042 0.34273,-0.529167 0.41549,-0.529167 0.0728,0 0.005,0.238125 -0.15091,0.529167 -0.15576,0.291041 -0.34273,0.529166 -0.41549,0.529166 -0.0728,0 -0.005,-0.238125 0.15091,-0.529166 z m 0.52916,-0.893646 c 0,-0.05494 0.20836,-0.2633 0.46302,-0.463021 0.41965,-0.329107 0.42901,-0.319749 0.0999,0.0999 -0.34564,0.44073 -0.56292,0.580887 -0.56292,0.363125 z m -6.4114,-0.621022 c 0.47555,-0.05889 1.18992,-0.05767 1.5875,0.0027 0.39757,0.06037 0.008,0.108551 -0.86464,0.107067 -0.87312,-0.0016 -1.19841,-0.05088 -0.72286,-0.109765 z m 6.4114,-1.495645 c 0,-0.05494 0.20836,-0.2633 0.46302,-0.463021 0.41965,-0.329107 0.42901,-0.319749 0.0999,0.0999 -0.34564,0.44073 -0.56292,0.580888 -0.56292,0.363125 z m 60.98833,-0.426241 c -0.0927,-0.149982 0.0135,-0.194337 0.24897,-0.103984 0.45837,0.175892 0.54224,0.365538 0.16165,0.365538 -0.13693,0 -0.32171,-0.1177 -0.41062,-0.261554 z m 2.24709,0.15757 c 0,-0.05719 0.18478,-0.17489 0.41062,-0.261554 0.23546,-0.09035 0.34166,-0.046 0.24897,0.103984 -0.15538,0.25141 -0.65959,0.371859 -0.65959,0.15757 z m -38.25743,-3.666329 -0.50403,-0.595312 0.59531,0.504028 c 0.32743,0.277215 0.59532,0.545106 0.59532,0.595313 0,0.211733 -0.21294,0.05542 -0.6866,-0.504029 z m -12.0134,0.230833 c 0,-0.05494 0.20836,-0.2633 0.46302,-0.463021 0.41964,-0.329107 0.429,-0.319748 0.0999,0.0999 -0.34564,0.440729 -0.56291,0.580887 -0.56291,0.363124 z m 42.8625,-1.487604 -1.7198,-0.173249 1.78594,-0.04567 c 1.04468,-0.02671 1.78594,0.06415 1.78594,0.218916 0,0.145521 -0.0298,0.244034 -0.0661,0.218917 -0.0364,-0.02511 -0.84005,-0.12363 -1.78593,-0.218917 z m -9.55875,-3.108854 c -0.32911,-0.419645 -0.31975,-0.429003 0.0999,-0.0999 0.44073,0.345644 0.58089,0.562917 0.36313,0.562917 -0.0549,0 -0.2633,-0.208359 -0.46302,-0.463021 z m -36.5125,-2.910416 c -0.32911,-0.419645 -0.31975,-0.429004 0.0999,-0.0999 0.25466,0.199721 0.46302,0.408081 0.46302,0.463021 0,0.217763 -0.21727,0.07761 -0.56291,-0.363124 z m -8.49907,-1.321327 c 1.20055,-0.04903 3.16508,-0.04903 4.36563,0 1.20055,0.04903 0.21828,0.08914 -2.18281,0.08914 -2.4011,0 -3.38336,-0.04011 -2.18282,-0.08914 z m 7.0165,0.01349 c 0.25743,-0.06708 0.61462,-0.06267 0.79375,0.0098 0.17913,0.07248 -0.0315,0.127362 -0.46806,0.12197 -0.43656,-0.0054 -0.58312,-0.06469 -0.32569,-0.131773 z m 21.04587,0.0026 c 0.191,-0.07643 0.4192,-0.06703 0.50712,0.02088 0.0879,0.08792 -0.0684,0.150453 -0.34726,0.138965 -0.30823,-0.0127 -0.37092,-0.07539 -0.15986,-0.159851 z m 3.42305,-0.01611 c 1.20055,-0.04903 3.16508,-0.04903 4.36563,0 1.20054,0.04903 0.21828,0.08914 -2.18282,0.08914 -2.40109,0 -3.38336,-0.04011 -2.18281,-0.08914 z m -37.27385,-1.589117 c -0.32911,-0.419645 -0.31975,-0.429003 0.0999,-0.0999 0.44073,0.345644 0.58089,0.562917 0.36313,0.562917 -0.0549,0 -0.2633,-0.20836 -0.46302,-0.463021 z m 77.67273,-7.739063 c 0,-4.001823 0.0368,-5.638932 0.0817,-3.63802 0.045,2.000911 0.045,5.27513 0,7.276041 -0.045,2.000912 -0.0817,0.363802 -0.0817,-3.638021 z m -18.9996,6.669879 c -0.0711,-0.11511 0.30879,-0.16601 0.84428,-0.113115 1.46425,0.144632 1.63858,0.278069 0.39393,0.301514 -0.60987,0.01148 -1.16707,-0.07329 -1.23821,-0.188399 z m -60.99974,-4.442968 c 0.0127,-0.308226 0.0754,-0.370919 0.15985,-0.159853 0.0764,0.190994 0.067,0.419198 -0.0209,0.507119 -0.0879,0.08792 -0.15045,-0.06835 -0.13896,-0.347266 z m -0.52917,-3.70368 c 0.0127,-0.308226 0.0754,-0.370919 0.15985,-0.159853 0.0764,0.190995 0.067,0.419198 -0.0209,0.507119 -0.0879,0.08792 -0.15045,-0.06835 -0.13896,-0.347266 z m -0.26458,-1.852083 c 0.0127,-0.308226 0.0754,-0.370919 0.15985,-0.159853 0.0764,0.190994 0.067,0.419198 -0.0209,0.507119 -0.0879,0.08792 -0.15045,-0.06835 -0.13896,-0.347266 z m 61.8002,-10.759723 c 0.0675,-0.109141 0.82296,-0.198438 1.67891,-0.198438 0.85594,0 1.61145,0.0893 1.67891,0.198438 0.0675,0.109141 -0.68806,0.198437 -1.67891,0.198437 -0.99086,0 -1.74637,-0.0893 -1.67891,-0.198437 z m -63.3877,-0.61736 c 0.0127,-0.308227 0.0754,-0.37092 0.15985,-0.159854 0.0764,0.190995 0.067,0.419198 -0.0209,0.507119 -0.0879,0.08792 -0.15045,-0.06835 -0.13896,-0.347265 z m -0.26459,-1.852084 c 0.0127,-0.308226 0.0754,-0.370919 0.15985,-0.159853 0.0764,0.190995 0.067,0.419198 -0.0209,0.507119 -0.0879,0.08792 -0.15046,-0.06835 -0.13897,-0.347266 z M 147.241,45.86048 c 0.0127,-0.308227 0.0754,-0.37092 0.15985,-0.159854 0.0764,0.190995 0.067,0.419198 -0.0209,0.507119 -0.0879,0.08792 -0.15045,-0.06835 -0.13896,-0.347265 z m 65.1989,0.261794 c 1.23944,-0.199242 2.98268,-0.224337 2.86955,-0.04131 -0.0675,0.109141 -0.85977,0.182224 -1.76068,0.162406 -0.90092,-0.01982 -1.39991,-0.07431 -1.10887,-0.121097 z m -65.46348,-2.113878 c 0.0127,-0.308226 0.0754,-0.370919 0.15985,-0.159853 0.0764,0.190995 0.067,0.419198 -0.0209,0.507119 -0.0879,0.08792 -0.15045,-0.06835 -0.13896,-0.347266 z m -0.26459,-1.852083 c 0.0127,-0.308226 0.0754,-0.370919 0.15985,-0.159853 0.0764,0.190994 0.067,0.419198 -0.0209,0.507119 -0.0879,0.08792 -0.15046,-0.06835 -0.13897,-0.347266 z m 76.06383,-0.29727 c -0.14358,-0.377084 -0.11319,-0.407474 0.14812,-0.148114 0.18082,0.179478 0.26211,0.39297 0.18065,0.474433 -0.0815,0.08146 -0.22941,-0.06538 -0.32877,-0.326319 z M 145.6535,34.483396 c 0.0127,-0.308226 0.0754,-0.370919 0.15985,-0.159853 0.0764,0.190995 0.067,0.419198 -0.0209,0.507119 -0.0879,0.08792 -0.15045,-0.06835 -0.13896,-0.347266 z m 85.49338,-3.218331 -0.0539,-2.182045 -44.64844,-0.06691 c -34.68284,-0.05198 -44.5008,-0.136989 -43.98698,-0.380871 0.48735,-0.231316 0.53958,-0.318373 0.19844,-0.330729 -0.25466,-0.0092 -0.46302,-0.195365 -0.46302,-0.413646 0,-0.218282 0.20836,-0.405244 0.46302,-0.415472 0.39593,-0.0159 0.38635,-0.05154 -0.0661,-0.245987 -0.29104,-0.125064 -0.4101,-0.236886 -0.26458,-0.248493 0.14552,-0.01161 0.49962,-0.555756 0.7869,-1.209221 0.28728,-0.653466 0.61175,-1.188119 0.72106,-1.188119 0.20236,0 -0.0967,0.945383 -0.59145,1.869894 -0.29229,0.546148 0.0973,0.746982 0.42386,0.218525 0.12711,-0.205662 0.24466,-0.189805 0.39488,0.05327 0.11961,0.193525 0.17793,-0.301367 0.13229,-1.122595 -0.0762,-1.371833 -0.0271,-1.511979 0.74521,-2.124945 0.45476,-0.360936 1.60074,-0.859996 2.54662,-1.109023 1.58249,-0.416626 4.0646,-0.446531 31.08854,-0.374557 l 29.36875,0.07822 -29.63333,0.06903 c -16.29833,0.03797 -29.77082,0.156504 -29.93886,0.263416 -0.50861,0.323588 61.60628,0.109681 62.22687,-0.214293 0.35651,-0.186109 3.39137,-0.253809 8.99583,-0.200675 8.09151,0.07671 8.50427,0.105052 9.53016,0.654274 2.13815,1.144687 3.82246,3.571897 3.82246,5.508447 0,0.852929 -0.0641,0.928925 -0.78305,0.928925 h -0.78305 l -0.0891,2.182812 -0.0891,2.182813 z m -82.77352,-3.361077 c 1.58017,-0.208643 2.93947,-0.445779 3.02066,-0.526968 0.34268,-0.342684 -0.2127,-0.412718 -1.29472,-0.163264 -0.63767,0.147011 -1.75471,0.254531 -2.48232,0.238932 -1.27483,-0.02733 -1.28925,-0.03595 -0.39687,-0.237202 0.59616,-0.134444 0.26628,-0.157557 -0.92604,-0.06488 -2.1043,0.163563 -2.61234,0.343381 -0.97014,0.343381 1.44386,0 1.42661,0.469542 -0.022,0.60002 -0.61846,0.0557 -0.82682,0.121093 -0.46302,0.145307 0.3638,0.02422 1.95432,-0.126681 3.5345,-0.335325 z m 5.2629,-0.849814 c -0.18191,-0.0734 -0.47956,-0.0734 -0.66146,0 -0.1819,0.0734 -0.0331,0.133452 0.33073,0.133452 0.3638,0 0.51263,-0.06005 0.33073,-0.133452 z m 5.80344,-0.63377 c 0.77355,-0.0084 1.8827,-0.113756 2.46478,-0.234156 1.03192,-0.213445 1.03688,-0.219668 0.19844,-0.249335 -0.47294,-0.01674 -0.85989,-0.16337 -0.85989,-0.325855 0,-0.18639 0.26854,-0.233776 0.7276,-0.128389 1.70535,0.391504 3.71483,0.480276 4.19704,0.185411 0.39633,-0.242347 0.17947,-0.269487 -1.05146,-0.131587 -0.92761,0.103921 -1.61869,0.06902 -1.71979,-0.08685 -0.24672,-0.380368 -2.15339,-0.689293 -2.15339,-0.348898 0,0.152114 -0.50602,0.288261 -1.12448,0.302548 l -1.12448,0.02597 1.19062,0.360766 1.19063,0.360767 -1.45521,-0.03183 c -2.43855,-0.05335 -2.91042,0.02095 -2.91042,0.458285 0,0.319593 0.1091,0.347795 0.51178,0.132292 0.28147,-0.150641 1.14467,-0.280754 1.91823,-0.289141 z m -1.10709,-1.043085 c 0.30116,-0.194627 0.1895,-0.257457 -0.46302,-0.260532 -0.47294,-0.0022 -0.8599,0.115011 -0.8599,0.260532 0,0.336074 0.80288,0.336074 1.32292,0 z m 12.41337,-0.09543 c -0.0606,-0.05249 -1.12228,-0.156694 -2.3592,-0.231576 -1.23804,-0.07495 -1.89217,-0.04612 -1.45521,0.06412 0.80269,0.202529 4.018,0.34368 3.81441,0.167453 z M 159.84845,24.95288 c -0.0879,-0.08792 -0.31612,-0.09732 -0.50712,-0.02089 -0.21106,0.08446 -0.14837,0.147157 0.15986,0.159853 0.27891,0.01149 0.43518,-0.05105 0.34726,-0.138965 z m 5.55625,0 c -0.0879,-0.08792 -0.31612,-0.09732 -0.50712,-0.02089 -0.21106,0.08446 -0.14837,0.147157 0.15986,0.159853 0.27891,0.01149 0.43518,-0.05105 0.34726,-0.138965 z m 7.55117,-0.0137 c -0.17913,-0.07248 -0.53631,-0.07689 -0.79375,-0.0098 -0.25743,0.06708 -0.11086,0.126382 0.3257,0.131774 0.43656,0.0054 0.64719,-0.0495 0.46805,-0.12197 z m 1.70925,0.0137 c -0.0879,-0.08792 -0.31612,-0.09732 -0.50712,-0.02089 -0.21107,0.08446 -0.14837,0.147157 0.15985,0.159853 0.27892,0.01149 0.43519,-0.05105 0.34727,-0.138965 z m -29.13688,-0.338637 c -0.46262,-0.181549 -0.44421,-0.241586 0.23883,-0.778859 0.40704,-0.32018 0.67229,-0.649931 0.58944,-0.73278 -0.0828,-0.08285 -0.3838,0.08253 -0.66878,0.367507 -0.28498,0.284979 -0.68185,0.583492 -0.88194,0.663364 -0.3007,0.120032 -0.29497,0.193907 0.0331,0.425897 0.21828,0.154371 0.57547,0.274129 0.79375,0.26613 0.27032,-0.0099 0.23703,-0.07727 -0.10437,-0.211259 z m 33.37021,-0.190529 c -0.0879,-0.08792 -0.31612,-0.09732 -0.50712,-0.02089 -0.21106,0.08446 -0.14837,0.147156 0.15986,0.159852 0.27891,0.01149 0.43518,-0.05105 0.34726,-0.138964 z m 2.52269,-0.29098 c -0.32542,-0.0628 -0.92073,-0.06443 -1.32291,-0.0036 -0.40219,0.06082 -0.13593,0.112199 0.59167,0.114185 0.72761,0.002 1.05667,-0.04777 0.73124,-0.110574 z m 2.17918,-0.403191 c -0.70747,-0.412802 -5.42396,-0.547526 -5.42396,-0.154932 0,0.199225 0.66665,0.245126 2.11667,0.14574 1.19417,-0.08185 2.11666,-0.04067 2.11666,0.09448 0,0.13176 0.38696,0.235944 0.8599,0.231519 0.78244,-0.0073 0.81223,-0.03586 0.33073,-0.316811 z m 1.78594,0.149628 c -0.18191,-0.0734 -0.47956,-0.0734 -0.66146,0 -0.1819,0.0734 -0.0331,0.133452 0.33073,0.133452 0.3638,0 0.51263,-0.06005 0.33073,-0.133452 z m 2.44739,-0.353938 c -0.0899,-0.145521 -0.39462,-0.264584 -0.67707,-0.264584 -0.28246,0 -0.51355,0.119063 -0.51355,0.264584 0,0.145521 0.30468,0.264583 0.67707,0.264583 0.38401,0 0.60629,-0.114523 0.51355,-0.264583 z m 1.71979,0 c 0.32093,-0.2074 0.28296,-0.257256 -0.19843,-0.260532 -0.32743,-0.0022 -0.59532,0.115011 -0.59532,0.260532 0,0.331502 0.28079,0.331502 0.79375,0 z m 2.18282,-0.175229 c -0.18191,-0.0734 -0.47956,-0.0734 -0.66146,0 -0.1819,0.0734 -0.0331,0.133452 0.33073,0.133452 0.3638,0 0.51263,-0.06005 0.33073,-0.133452 z m -6.28386,-0.353938 c -0.0899,-0.145521 -0.8411,-0.246701 -1.66926,-0.224844 l -1.50574,0.03974 1.19063,0.185106 c 1.83819,0.285784 2.161,0.285784 1.98437,0 z m 8.67014,0.09103 c -0.17913,-0.07248 -0.53632,-0.07689 -0.79375,-0.0098 -0.25743,0.06708 -0.11087,0.126381 0.32569,0.131773 0.43657,0.0054 0.64719,-0.04949 0.46806,-0.12197 z m 1.70925,0.0137 c -0.0879,-0.08792 -0.31613,-0.09732 -0.50712,-0.02089 -0.21107,0.08446 -0.14838,0.147157 0.15985,0.159853 0.27891,0.01149 0.43518,-0.05105 0.34727,-0.138965 z m -7.53512,-0.291456 c -0.32742,-0.06306 -0.8632,-0.06306 -1.19062,0 -0.32742,0.06306 -0.0595,0.114662 0.59531,0.114662 0.65484,0 0.92273,-0.0516 0.59531,-0.114662 z m 2.38629,0.01318 c -0.17913,-0.07248 -0.53632,-0.07689 -0.79375,-0.0098 -0.25743,0.06708 -0.11087,0.126382 0.32569,0.131774 0.43656,0.0054 0.64719,-0.04949 0.46806,-0.12197 z m 7.13871,-0.01318 c -0.32742,-0.06306 -0.8632,-0.06306 -1.19062,0 -0.32742,0.06306 -0.0595,0.114662 0.59531,0.114662 0.65484,0 0.92273,-0.0516 0.59531,-0.114662 z m -52.69734,7.969885 c 0.0127,-0.308225 0.0754,-0.370919 0.15985,-0.159853 0.0764,0.190996 0.067,0.4192 -0.0209,0.507119 -0.0879,0.08792 -0.15046,-0.06835 -0.13897,-0.347266 z m 64.22325,-8.757651 c 0.191,-0.07643 0.4192,-0.06703 0.50712,0.02089 0.0879,0.08792 -0.0684,0.150453 -0.34726,0.138965 -0.30823,-0.0127 -0.37092,-0.07539 -0.15986,-0.159853 z"
         id="path1621" />
      <path
         style="fill:#61554f;stroke-width:0.264583"
         d="m 152.71021,150.87917 c 0.18191,-0.0734 0.47956,-0.0734 0.66146,0 0.1819,0.0734 0.0331,0.13346 -0.33073,0.13346 -0.3638,0 -0.51263,-0.0601 -0.33073,-0.13346 z m 75.75903,-0.16422 c 0.0606,-0.0412 0.34837,-0.24954 0.63941,-0.46302 0.48948,-0.35904 0.50193,-0.35343 0.16604,0.0749 -0.19972,0.25466 -0.48745,0.46302 -0.63941,0.46302 -0.15195,0 -0.22667,-0.0337 -0.16604,-0.0749 z M 154.84342,137.6445 c 0.19099,-0.0764 0.4192,-0.067 0.50712,0.0209 0.0879,0.0879 -0.0684,0.15045 -0.34727,0.13897 -0.30823,-0.0127 -0.37092,-0.0754 -0.15985,-0.15985 z m 20.62096,-2.13422 c 4.40201,-0.0407 11.60529,-0.0407 16.00729,0 4.40201,0.0407 0.80037,0.074 -8.00364,0.074 -8.80401,0 -12.40565,-0.0333 -8.00365,-0.074 z m 31.14869,-24.54025 c -2e-5,-12.078232 0.0324,-17.057997 0.0721,-11.066145 0.0396,5.991845 0.0397,15.874035 3e-5,21.960415 -0.0396,6.08638 -0.0721,1.18396 -0.0721,-10.89427 z m -49.86689,17.39635 c 10e-4,-3.84474 0.56083,-11.37219 1.03788,-13.95677 0.51234,-2.77578 0.5568,-3.52439 0.21744,-3.66136 -0.67113,-0.27086 5.29942,-0.1655 7.42098,0.13096 1.83178,0.25597 2.16776,0.37644 2.03002,0.72794 -0.66497,1.69702 -1.52076,10.70676 -1.554,16.36061 l -0.0253,4.29774 -4.56406,0.002 -4.56406,0.002 0.001,-3.90261 z m 39.88487,3.72738 c 0.1819,-0.0734 0.47955,-0.0734 0.66146,0 0.1819,0.0734 0.0331,0.13345 -0.33073,0.13345 -0.36381,0 -0.51263,-0.0601 -0.33073,-0.13345 z m 1.65364,-0.45792 c 0,-0.0572 0.18478,-0.17489 0.41062,-0.26156 0.23546,-0.0904 0.34166,-0.046 0.24897,0.10399 -0.15538,0.2514 -0.65959,0.37185 -0.65959,0.15757 z m -43.95458,-0.62363 c -0.32911,-0.41964 -0.31975,-0.429 0.0999,-0.0999 0.25466,0.19972 0.46302,0.40808 0.46302,0.46302 0,0.21776 -0.21728,0.0776 -0.56292,-0.36313 z m 45.67437,-0.59531 c 0.2634,-0.29104 0.53843,-0.52916 0.61119,-0.52916 0.0728,0 -0.0832,0.23812 -0.3466,0.52916 -0.26339,0.29104 -0.53842,0.52917 -0.61118,0.52917 -0.0728,0 0.0832,-0.23813 0.34659,-0.52917 z m -51.51106,0.0839 c 0.19099,-0.0764 0.4192,-0.067 0.50712,0.0209 0.0879,0.0879 -0.0684,0.15045 -0.34727,0.13897 -0.30823,-0.0127 -0.37092,-0.0754 -0.15985,-0.15985 z m 3.87519,-1.95353 c -0.0959,-0.15521 -0.11766,-0.33893 -0.0483,-0.40829 0.0693,-0.0694 0.1966,0.0576 0.28277,0.28219 0.17891,0.46622 0.0264,0.54823 -0.23447,0.1261 z m -0.62969,-2.25341 c 0.0127,-0.30822 0.0754,-0.37092 0.15985,-0.15985 0.0764,0.19099 0.067,0.4192 -0.0209,0.50712 -0.0879,0.0879 -0.15045,-0.0683 -0.13896,-0.34727 z m 50.34783,-2.49149 c 0,-1.52797 0.0437,-2.15305 0.0972,-1.38906 0.0534,0.76398 0.0534,2.01414 0,2.77812 -0.0534,0.76399 -0.0972,0.13891 -0.0972,-1.38906 z m -50.28944,-2.11667 c 0,-0.80036 0.0496,-1.12778 0.11022,-0.7276 0.0606,0.40018 0.0606,1.05502 0,1.45521 -0.0606,0.40018 -0.11022,0.0728 -0.11022,-0.72761 z m -2.94792,0.52917 c 0,-0.3638 0.06,-0.51263 0.13345,-0.33073 0.0734,0.1819 0.0734,0.47956 0,0.66146 -0.0734,0.1819 -0.13345,0.0331 -0.13345,-0.33073 z m -2.40214,-2.53559 c 0.0127,-0.30823 0.0754,-0.37092 0.15985,-0.15985 0.0764,0.19099 0.067,0.4192 -0.0209,0.50712 -0.0879,0.0879 -0.15045,-0.0684 -0.13896,-0.34727 z m 2.64583,-0.26458 c 0.0127,-0.30823 0.0754,-0.37092 0.15985,-0.15986 0.0764,0.191 0.067,0.4192 -0.0209,0.50712 -0.0879,0.0879 -0.15046,-0.0683 -0.13897,-0.34726 z m 52.67297,-0.904 c 0,-0.3638 0.0601,-0.51263 0.13345,-0.33073 0.0734,0.1819 0.0734,0.47956 0,0.66146 -0.0734,0.1819 -0.13345,0.0331 -0.13345,-0.33073 z m -49.74166,-0.52916 c 0,-0.36381 0.06,-0.51263 0.13345,-0.33073 0.0734,0.1819 0.0734,0.47955 0,0.66145 -0.0734,0.18191 -0.13345,0.0331 -0.13345,-0.33072 z m 49.45619,-1.74184 c 0.0127,-0.30823 0.0754,-0.37092 0.15985,-0.15986 0.0764,0.191 0.067,0.4192 -0.0209,0.50712 -0.0879,0.0879 -0.15046,-0.0684 -0.13897,-0.34726 z m -54.50416,-0.26459 c 0.0127,-0.30822 0.0754,-0.37092 0.15985,-0.15985 0.0764,0.19099 0.067,0.4192 -0.0209,0.50712 -0.0879,0.0879 -0.15045,-0.0683 -0.13896,-0.34727 z m -10.58334,-1.05833 c 0.0127,-0.30823 0.0754,-0.37092 0.15985,-0.15985 0.0764,0.19099 0.067,0.4192 -0.0209,0.50712 -0.0879,0.0879 -0.15046,-0.0684 -0.13897,-0.34727 z m 64.84381,-0.63941 c 0,-0.3638 0.0601,-0.51263 0.13345,-0.33073 0.0734,0.1819 0.0734,0.47956 0,0.66146 -0.0734,0.1819 -0.13345,0.0331 -0.13345,-0.33073 z m -60.84437,-0.39688 c 0.005,-0.43656 0.0647,-0.58312 0.13178,-0.32569 0.0671,0.25743 0.0627,0.61462 -0.01,0.79375 -0.0725,0.17913 -0.12736,-0.0315 -0.12197,-0.46806 z m 33.74894,-1.10127 c 0.18191,-0.0734 0.47956,-0.0734 0.66146,0 0.1819,0.0734 0.0331,0.13346 -0.33073,0.13346 -0.3638,0 -0.51263,-0.0601 -0.33073,-0.13346 z m 4.37066,-0.008 c 0.25744,-0.0671 0.61462,-0.0627 0.79375,0.01 0.17914,0.0725 -0.0315,0.12736 -0.46805,0.12197 -0.43656,-0.005 -0.58313,-0.0647 -0.3257,-0.13178 z m 22.34729,-0.3246 c -0.11509,-0.4401 -0.0806,-0.5434 0.11569,-0.34706 0.15375,0.15375 0.22748,0.43572 0.16385,0.6266 -0.066,0.19816 -0.18598,0.0782 -0.27954,-0.27954 z m -48.08305,0.0112 c 0,-0.26685 0.76523,-0.954 0.88834,-0.7977 0.045,0.0571 -0.13648,0.31221 -0.40327,0.56687 -0.26679,0.25466 -0.48507,0.35854 -0.48507,0.23083 z m 28.26081,0.0515 c 0.19099,-0.0764 0.4192,-0.067 0.50712,0.0209 0.0879,0.0879 -0.0684,0.15045 -0.34727,0.13896 -0.30823,-0.0127 -0.37092,-0.0754 -0.15985,-0.15985 z m 1.5875,-0.26458 c 0.19099,-0.0764 0.4192,-0.067 0.50712,0.0209 0.0879,0.0879 -0.0684,0.15045 -0.34727,0.13897 -0.30823,-0.0127 -0.37092,-0.0754 -0.15985,-0.15985 z m -42.24195,-0.61301 c 0,-0.36381 0.06,-0.51263 0.13345,-0.33073 0.0734,0.1819 0.0734,0.47955 0,0.66145 -0.0734,0.18191 -0.13345,0.0331 -0.13345,-0.33072 z m 45.15236,0.0838 c 0.191,-0.0764 0.4192,-0.067 0.50712,0.0209 0.0879,0.0879 -0.0684,0.15045 -0.34726,0.13896 -0.30823,-0.0127 -0.37092,-0.0754 -0.15986,-0.15985 z m -49.142,-1.03193 c 0.0127,-0.30823 0.0754,-0.37092 0.15985,-0.15986 0.0764,0.191 0.067,0.4192 -0.0209,0.50712 -0.0879,0.0879 -0.15046,-0.0683 -0.13897,-0.34726 z m 53.63992,0.23818 c 0.191,-0.0764 0.4192,-0.067 0.50712,0.0209 0.0879,0.0879 -0.0684,0.15045 -0.34727,0.13896 -0.30822,-0.0127 -0.37092,-0.0754 -0.15985,-0.15985 z m 7.40833,0 c 0.191,-0.0764 0.4192,-0.067 0.50712,0.0209 0.0879,0.0879 -0.0684,0.15045 -0.34726,0.13896 -0.30823,-0.0127 -0.37092,-0.0754 -0.15986,-0.15985 z m -4.24287,-0.27792 c 0.62231,-0.0559 1.57481,-0.0551 2.11666,0.002 0.54186,0.0568 0.0327,0.10258 -1.13147,0.10162 -1.16417,-10e-4 -1.6075,-0.0475 -0.98519,-0.10337 z m 37.4804,-7.21426 c 0,-3.710779 0.0372,-5.228826 0.0827,-3.37344 0.0455,1.8554 0.0455,4.89149 0,6.74688 -0.0455,1.85539 -0.0827,0.33734 -0.0827,-3.37344 z m -83.98792,-7.526129 c 0,-0.281532 2.96317,-1.468329 3.23958,-1.297503 0.14973,0.09254 -0.30956,0.389932 -1.02065,0.660871 -1.84388,0.702559 -2.21893,0.810165 -2.21893,0.636632 z m 49.49798,-2.946958 c 0.0127,-0.308226 0.0754,-0.370919 0.15985,-0.159853 0.0764,0.190994 0.067,0.4192 -0.0209,0.507119 -0.0879,0.08792 -0.15045,-0.06835 -0.13896,-0.347266 z m 23.86279,-1.087348 c 0.25743,-0.06708 0.61462,-0.06267 0.79375,0.0098 0.17913,0.07248 -0.0315,0.127362 -0.46806,0.12197 -0.43656,-0.0054 -0.58312,-0.06469 -0.32569,-0.131773 z m -2.0807,-0.941125 -0.50402,-0.595313 0.59531,0.504029 c 0.32742,0.277215 0.59531,0.545105 0.59531,0.595313 0,0.211732 -0.21293,0.05542 -0.6866,-0.504029 z m -56.25089,0.133226 c 1.49933,-0.04725 3.88058,-0.04705 5.29167,5.29e-4 1.41109,0.04748 0.18436,0.08614 -2.72606,0.0859 -2.91041,-2.33e-4 -4.06494,-0.03908 -2.56561,-0.08633 z m 25.13542,0 c 1.49933,-0.04725 3.88058,-0.04705 5.29166,5.29e-4 1.41109,0.04748 0.18437,0.08614 -2.72605,0.0859 -2.91042,-2.33e-4 -4.06494,-0.03908 -2.56561,-0.08633 z M 223.2822,65.990861 c 2e-5,-12.951354 0.0323,-18.210901 0.0717,-11.687879 0.0394,6.523019 0.0394,17.119581 -3e-5,23.547917 -0.0394,6.428332 -0.0717,1.091316 -0.0717,-11.860038 z m -50.92667,22.659491 c 0,-0.271929 0.80139,-0.647338 0.98657,-0.462156 0.0644,0.0644 -0.13124,0.249981 -0.43475,0.412411 -0.30369,0.162534 -0.55182,0.184902 -0.55182,0.04975 z m 1.32291,-0.831366 c 0,-0.145521 0.11907,-0.264584 0.26459,-0.264584 0.14552,0 0.26458,0.119063 0.26458,0.264584 0,0.145521 -0.11906,0.264583 -0.26458,0.264583 -0.14552,0 -0.26459,-0.119062 -0.26459,-0.264583 z m 1.27331,-0.18074 c 0.191,-0.07643 0.4192,-0.06703 0.50712,0.02088 0.0879,0.08792 -0.0683,0.150453 -0.34727,0.138964 -0.30822,-0.0127 -0.37092,-0.07539 -0.15985,-0.15985 z m 0.52917,-1.5875 c 0.19099,-0.07643 0.4192,-0.06703 0.50712,0.02088 0.0879,0.08792 -0.0684,0.150453 -0.34727,0.138964 -0.30823,-0.0127 -0.37092,-0.07539 -0.15985,-0.15985 z m 2.38125,0 c 0.19099,-0.07643 0.4192,-0.06703 0.50712,0.02088 0.0879,0.08792 -0.0684,0.150453 -0.34727,0.138964 -0.30823,-0.0127 -0.37092,-0.07539 -0.15985,-0.15985 z m -6.45782,-2.531239 -0.50403,-0.595313 0.59531,0.504029 c 0.55945,0.473662 0.71576,0.686596 0.50403,0.686596 -0.0502,0 -0.3181,-0.267891 -0.59531,-0.595312 z m 31.62282,-1.190625 -0.64144,-0.727605 0.72761,0.641432 c 0.68006,0.599517 0.84894,0.813777 0.64143,0.813777 -0.0474,0 -0.37481,-0.327422 -0.7276,-0.727604 z m -17.0456,-1.653646 c 0.26339,-0.291042 0.53842,-0.529167 0.61118,-0.529167 0.0728,0 -0.0832,0.238125 -0.3466,0.529167 -0.26339,0.291041 -0.53842,0.529166 -0.61118,0.529166 -0.0728,0 0.0832,-0.238125 0.3466,-0.529166 z m 26.65677,-4.426075 c 0.5457,-0.05708 1.43867,-0.05708 1.98437,0 0.54571,0.05708 0.0992,0.103786 -0.99218,0.103786 -1.09141,0 -1.53789,-0.0467 -0.99219,-0.103786 z m 18.30452,-19.651009 c 0,-3.56526 0.0375,-5.023776 0.0832,-3.241145 0.0458,1.78263 0.0458,4.699661 0,6.482291 -0.0458,1.78263 -0.0832,0.324115 -0.0832,-3.241146 z m -13.75398,-3.836458 c 10e-5,-4.947708 0.0358,-6.934382 0.0793,-4.414832 0.0435,2.51955 0.0434,6.567675 -1.8e-4,8.995833 -0.0436,2.428158 -0.0792,0.366707 -0.0791,-4.581001 z m -4.41825,3.645059 c 0.47294,-0.05869 1.24685,-0.05869 1.71979,0 0.47295,0.05869 0.086,0.106714 -0.85989,0.106714 -0.94589,0 -1.33284,-0.04802 -0.8599,-0.106714 z m 5.22552,-15.419017 c 0.26339,-0.291042 0.53842,-0.529167 0.61118,-0.529167 0.0728,0 -0.0832,0.238125 -0.3466,0.529167 -0.26339,0.291041 -0.53842,0.529166 -0.61118,0.529166 -0.0728,0 0.0832,-0.238125 0.3466,-0.529166 z m -72.07807,-5.181423 c 0.0127,-0.308226 0.0754,-0.370919 0.15985,-0.159853 0.0764,0.190994 0.067,0.419198 -0.0209,0.507119 -0.0879,0.08792 -0.15046,-0.06835 -0.13897,-0.347266 z"
         id="path1619" />
      <path
         style="fill:#da0a16;stroke-width:0.264583"
         d="m 217.66872,139.61117 c -0.8343,-0.58491 -1.39236,-1.63994 -1.39236,-2.6323 0,-1.37907 1.74771,-3.11919 3.13501,-3.12139 1.75266,-0.003 3.21499,1.5238 3.21499,3.35626 0,2.43162 -2.90504,3.83646 -4.95764,2.39743 z"
         id="path1617" />
      <rect
         style="fill:#ffffff;stroke-width:1.98091;fill-opacity:1"
         id="rect1764"
         width="19.462257"
         height="57.77858"
         x="209.11986"
         y="37.580433" />
      <path
         style="fill:#343549;stroke-width:0.264583"
         d="m 171.73954,150.856 c 10.06596,-0.0384 26.61564,-0.0384 36.77709,-1e-5 10.16145,0.0384 1.92567,0.0698 -18.30173,0.0698 -20.22739,1e-5 -28.5413,-0.0314 -18.47536,-0.0698 z m -20.58443,-0.79379 c -0.32911,-0.41964 -0.31975,-0.429 0.0999,-0.0999 0.25466,0.19972 0.46302,0.40808 0.46302,0.46302 0,0.21776 -0.21728,0.0776 -0.56292,-0.36313 z m 79.26095,-9.19427 c 1.3e-4,-4.2201 0.0367,-5.90946 0.0812,-3.75412 0.0445,2.15533 0.0444,5.60814 -2.3e-4,7.67291 -0.0446,2.06477 -0.0811,0.30132 -0.081,-3.91879 z m -80.26464,6.59254 c 0.0127,-0.30823 0.0754,-0.37092 0.15985,-0.15985 0.0764,0.19099 0.067,0.4192 -0.0209,0.50712 -0.0879,0.0879 -0.15045,-0.0684 -0.13896,-0.34727 z m 6.53175,-1.5833 c -0.0826,-0.0826 -0.0522,-0.52905 0.0674,-0.99218 0.11965,-0.46313 0.35672,-1.70526 0.52682,-2.76029 l 0.30926,-1.91822 h 2.48964 2.48963 v 2.91041 2.91042 h -2.86632 c -1.57647,0 -2.93388,-0.0676 -3.01645,-0.15014 z m -5.3321,-4.92536 c 0.0764,-0.12364 0.24977,-0.1563 0.38524,-0.0726 0.34617,0.21395 0.3072,0.29739 -0.13894,0.29739 -0.21188,0 -0.32271,-0.10117 -0.2463,-0.22481 z m 2.3532,-2.59439 c -0.0927,-0.14998 0.0135,-0.19433 0.24897,-0.10398 0.45837,0.17589 0.54224,0.36554 0.16165,0.36554 -0.13693,0 -0.32171,-0.1177 -0.41062,-0.26156 z m 1.01237,-0.12368 c 0,-0.21188 0.10116,-0.32272 0.2248,-0.2463 0.12364,0.0764 0.1563,0.24977 0.0726,0.38524 -0.21395,0.34617 -0.29738,0.30719 -0.29738,-0.13894 z m 18.91455,-6.16307 c 4.26687,-0.0409 11.1725,-0.0409 15.34583,6e-5 4.17334,0.0409 0.68226,0.0744 -7.75795,0.0743 -8.44021,-4e-5 -11.85476,-0.0335 -7.58788,-0.0744 z m -25.00134,-5.22565 c 0.001,-1.01865 0.049,-1.40295 0.10627,-0.854 0.0573,0.54895 0.0563,1.38239 -0.002,1.85209 -0.0585,0.46969 -0.10531,0.0206 -0.10413,-0.99809 z m 3.17016,-2.38125 c 0.002,-0.87313 0.0509,-1.19842 0.10977,-0.72287 0.0589,0.47555 0.0577,1.18993 -0.003,1.5875 -0.0604,0.39758 -0.10855,0.008 -0.10707,-0.86463 z m -2.97151,-3.19705 c 0.0127,-0.30823 0.0754,-0.37092 0.15985,-0.15985 0.0764,0.19099 0.067,0.4192 -0.0209,0.50712 -0.0879,0.0879 -0.15045,-0.0684 -0.13896,-0.34727 z m 3.43958,-5.02708 c 0.0127,-0.30823 0.0754,-0.37092 0.15985,-0.15986 0.0764,0.191 0.067,0.4192 -0.0209,0.50712 -0.0879,0.0879 -0.15046,-0.0684 -0.13897,-0.34726 z m -15.875,-2.11667 c 0.0127,-0.30823 0.0754,-0.37092 0.15985,-0.15985 0.0764,0.19099 0.067,0.4192 -0.0209,0.50712 -0.0879,0.0879 -0.15046,-0.0684 -0.13897,-0.34727 z m 64.55834,-0.79375 c 0.0127,-0.30823 0.0754,-0.37092 0.15985,-0.15985 0.0764,0.19099 0.067,0.4192 -0.0209,0.50712 -0.0879,0.0879 -0.15045,-0.0684 -0.13896,-0.34727 z m -61.51951,-11.82947 c 0.0994,-0.26094 0.24731,-0.40778 0.32877,-0.32632 0.0815,0.0815 1.7e-4,0.29496 -0.18065,0.47444 -0.26131,0.25936 -0.2917,0.22897 -0.14812,-0.14812 z m 5.40695,-0.31932 c 0.34178,-0.3638 0.68094,-0.66145 0.7537,-0.66145 0.0728,0 -0.14734,0.29765 -0.48912,0.66145 -0.34177,0.36381 -0.68094,0.66146 -0.7537,0.66146 -0.0728,0 0.14734,-0.29765 0.48912,-0.66146 z m 85.8321,-8.466663 c 2.7e-4,-2.328333 0.0408,-3.245413 0.0899,-2.037958 0.0491,1.207458 0.0489,3.112458 -5.3e-4,4.233333 -0.0495,1.120879 -0.0897,0.132959 -0.0893,-2.195375 z m -84.77881,3.445661 c 0.39105,-0.471183 3.14391,-1.850191 3.32733,-1.66678 0.0714,0.07137 -0.48704,0.386094 -1.2409,0.699384 -1.87992,0.781262 -1.48148,0.977773 0.48046,0.236961 0.97626,-0.368625 1.5425,-0.725607 1.47401,-0.929288 -0.073,-0.21712 0.16904,-0.330729 0.7046,-0.330729 0.44868,0 0.81579,0.131799 0.81579,0.292891 0,0.161089 -0.17859,0.224359 -0.39687,0.140594 -0.21828,-0.08376 -0.39688,-0.05286 -0.39688,0.06867 0,0.213487 -4.27399,1.8791 -4.8218,1.8791 -0.15922,0 -0.13695,-0.160407 0.0543,-0.390798 z m 22.1639,-2.982523 c 4.98409,-0.04026 13.13987,-0.04026 18.12396,0 4.98408,0.04026 0.90619,0.07321 -9.06198,0.07321 -9.96818,0 -14.04607,-0.03295 -9.06198,-0.07321 z m 27.5332,0.01757 c 0.191,-0.07643 0.4192,-0.06703 0.50712,0.02088 0.0879,0.08792 -0.0684,0.150452 -0.34727,0.138964 -0.30822,-0.0127 -0.37092,-0.07539 -0.15985,-0.159851 z M 171.82636,89.44865 c 0,-0.964414 1.08003,-1.912025 2.37758,-2.08606 1.16623,-0.156427 1.17767,-0.150646 0.68231,0.344726 -0.354,0.353999 -0.53638,0.406172 -0.61328,0.175453 -0.14639,-0.439161 -0.63895,-0.422892 -0.53998,0.01783 0.0428,0.190412 -0.36874,0.738526 -0.91444,1.218033 -0.89248,0.784217 -0.99219,0.817383 -0.99219,0.330012 z m 1.51574,-1.260454 c -0.18518,-0.185182 -0.98657,0.190227 -0.98657,0.462156 0,0.135157 0.24813,0.112789 0.55182,-0.04975 0.30351,-0.16243 0.49914,-0.348014 0.43475,-0.412411 z m 43.85121,-12.672335 c 4e-5,-7.712604 0.0338,-10.829618 0.0751,-6.926697 0.0412,3.902922 0.0412,10.213234 -8e-5,14.022917 -0.0413,3.809682 -0.0751,0.616384 -0.075,-7.09622 z m -34.81737,12.369271 c -0.3291,-0.419645 -0.31975,-0.429004 0.0999,-0.0999 0.44073,0.345644 0.58089,0.562917 0.36312,0.562917 -0.0549,0 -0.2633,-0.208359 -0.46302,-0.46302 z m 48.20881,0.0441 c 0.0127,-0.308227 0.0754,-0.37092 0.15985,-0.159854 0.0764,0.190995 0.067,0.419201 -0.0209,0.507119 -0.0879,0.08792 -0.15045,-0.06835 -0.13896,-0.347265 z m -16.16047,-0.647936 c 0,-0.140832 0.2282,-0.256058 0.50712,-0.256058 0.27891,0 0.56764,-0.122039 0.64161,-0.271198 0.074,-0.149159 0.10753,-0.130765 0.0746,0.04088 -0.0747,0.389146 -1.2233,0.845815 -1.2233,0.486378 z m -2.73403,-0.167865 c -0.097,-0.09701 -0.17457,-0.305371 -0.17234,-0.463021 0.003,-0.183647 0.0755,-0.174352 0.20279,0.02588 0.1093,0.171873 0.73255,0.359431 1.38501,0.416795 l 1.18627,0.104302 -1.21267,0.04622 c -0.66697,0.02543 -1.29205,-0.03315 -1.38906,-0.130164 z m -35.29983,-1.064328 c 0.25466,-0.06655 0.67138,-0.06655 0.92604,0 0.25467,0.06655 0.0463,0.121001 -0.46302,0.121001 -0.50932,0 -0.71768,-0.05445 -0.46302,-0.121001 z m 0.004,-0.801225 c 0.40219,-0.06082 0.9975,-0.05919 1.32292,0.0036 0.32542,0.0628 -0.004,0.112559 -0.73124,0.110575 -0.72761,-0.0021 -0.99386,-0.05337 -0.59168,-0.114186 z m 39.35312,-7.74764 c -0.23846,-0.154109 -0.2711,-0.258099 -0.0818,-0.260533 0.17331,-0.0021 0.3887,0.115012 0.47864,0.260533 0.20301,0.328488 0.11142,0.328488 -0.39688,0 z m -1.5875,-1.426901 c 0,-0.05719 0.18478,-0.174889 0.41062,-0.261554 0.23546,-0.09035 0.34166,-0.046 0.24897,0.103984 -0.15538,0.25141 -0.65959,0.371859 -0.65959,0.15757 z m -2.52779,-9.444069 c -0.0978,-0.158202 -0.0708,-0.394626 0.06,-0.525388 0.14062,-0.140611 0.23775,-0.0231 0.23775,0.287639 0,0.601194 -0.0489,0.640281 -0.29773,0.237749 z m 3.64184,-0.08255 c 0.18764,-0.203605 0.38285,-0.330589 0.4338,-0.282186 0.15694,0.149082 -0.24081,0.652375 -0.51556,0.652375 -0.14267,0 -0.10588,-0.166584 0.0818,-0.370189 z m -51.38488,-3.100284 c -4.92323,-1.372627 -4.71965,-1.281708 -4.90387,-2.190102 -0.0917,-0.451943 -0.27261,-1.178904 -0.40212,-1.615466 -0.12951,-0.436563 -0.54419,-2.460625 -0.92151,-4.497917 -0.37732,-2.037292 -0.97157,-5.073385 -1.32056,-6.746875 -0.34899,-1.67349 -0.82326,-4.05474 -1.05391,-5.291667 -0.23067,-1.236927 -0.60277,-3.043271 -0.8269,-4.014102 -0.65267,-2.827001 -1.15257,-2.610779 6.12158,-2.647812 l 6.35,-0.03233 0.0686,13.716381 c 0.0377,7.544009 -0.0218,13.801448 -0.13229,13.905416 -0.11046,0.103968 -1.451,-0.159518 -2.97897,-0.585526 z M 148.8285,56.17923 c 0.0127,-0.308227 0.0754,-0.37092 0.15985,-0.159854 0.0764,0.190995 0.067,0.419198 -0.0209,0.507119 -0.0879,0.08792 -0.15045,-0.06835 -0.13896,-0.347265 z m 66.55174,0.105926 c 0.0764,-0.12364 0.24977,-0.156303 0.38524,-0.07258 0.34617,0.213947 0.30719,0.297381 -0.13894,0.297381 -0.21188,0 -0.32271,-0.101161 -0.2463,-0.224803 z m 15.56262,-12.387004 c 0,-3.56526 0.0375,-5.023776 0.0832,-3.241145 0.0458,1.78263 0.0458,4.699661 0,6.482291 -0.0458,1.78263 -0.0832,0.324115 -0.0832,-3.241146 z m -83.41639,2.645834 c 0,-0.363802 0.0601,-0.51263 0.13345,-0.330729 0.0734,0.181901 0.0734,0.479557 0,0.661458 -0.0734,0.181901 -0.13345,0.03307 -0.13345,-0.330729 z m 64.10543,-0.287637 c -0.31685,-0.51268 0.31231,-0.807027 1.49966,-0.701598 l 1.16042,0.103037 -1.28507,0.04622 c -1.02258,0.03678 -1.25397,0.127294 -1.13279,0.443101 0.17646,0.459848 0.0185,0.531087 -0.24222,0.109238 z m 3.73543,-0.428556 c -0.14359,-0.377084 -0.1132,-0.407474 0.14811,-0.148114 0.18082,0.179478 0.26212,0.39297 0.18065,0.474433 -0.0815,0.08146 -0.2294,-0.06538 -0.32876,-0.326319 z m 4.41476,-5.816192 c 0.25466,-0.06655 0.67138,-0.06655 0.92604,0 0.25466,0.06655 0.0463,0.121001 -0.46302,0.121001 -0.50932,0 -0.71768,-0.05445 -0.46302,-0.121001 z M 146.42636,39.38462 c 0,-0.154109 0.11906,-0.206613 0.26458,-0.116676 0.14552,0.08994 0.26459,0.216027 0.26459,0.280199 0,0.06417 -0.11907,0.116676 -0.26459,0.116676 -0.14552,0 -0.26458,-0.12609 -0.26458,-0.280199 z m -0.77286,-5.959557 c 0.0127,-0.308226 0.0754,-0.370919 0.15985,-0.159853 0.0764,0.190994 0.067,0.419198 -0.0209,0.507119 -0.0879,0.08792 -0.15045,-0.06835 -0.13896,-0.347266 z m 21.76194,-4.277414 c 11.76228,-0.03812 30.93134,-0.03811 42.59792,10e-6 11.66657,0.03812 2.0429,0.06931 -21.38596,0.0693 -23.42885,-5e-6 -32.97424,-0.0312 -21.21196,-0.06931 z"
         id="path1615" />
      <path
         style="fill:#412718;stroke-width:0.264583"
         d="m 217.63558,139.92665 c -0.48935,-0.29833 -0.82304,-0.60912 -0.74153,-0.69063 0.0815,-0.0815 0.46818,0.1035 0.85927,0.41114 1.25496,0.98715 3.08244,0.67912 4.28571,-0.72237 0.6004,-0.69929 0.60219,-0.69958 0.37356,-0.0601 -0.29135,0.81488 -1.74984,1.60669 -2.9571,1.60541 -0.5116,-5.3e-4 -1.33055,-0.24508 -1.81991,-0.54343 z m -1.26792,-1.45137 c -0.0862,-0.22455 -0.0976,-0.4674 -0.0253,-0.53966 0.0723,-0.0723 0.19488,0.11147 0.2725,0.40829 0.16487,0.63048 -0.0183,0.72784 -0.2472,0.13137 z m 6.2587,-1.42818 c 0,-0.63885 0.14714,-0.7033 0.35701,-0.15638 0.082,0.21362 0.0352,0.45877 -0.10398,0.54478 -0.13917,0.086 -0.25303,-0.0888 -0.25303,-0.3884 z m -0.51229,-1.69101 c -0.12903,-0.33939 -0.6321,-0.81293 -1.11793,-1.05231 -0.48583,-0.23938 -0.68755,-0.43796 -0.44828,-0.44127 0.49521,-0.007 2.0785,1.37946 2.0785,1.81992 0,0.49193 -0.26548,0.32282 -0.51229,-0.32634 z m -5.56508,0.23467 c -0.0132,-0.41132 1.38164,-1.73435 1.82739,-1.73328 0.22959,5.2e-4 0.0414,0.2279 -0.42314,0.51115 -0.46017,0.28058 -0.96257,0.72662 -1.11644,0.99119 -0.15387,0.26457 -0.28339,0.36849 -0.28781,0.23094 z m -60.46267,-3.84663 c -0.0914,-0.14789 -0.38343,-0.26889 -0.64895,-0.26889 -0.62563,0 -2.30996,-1.87011 -2.9461,-3.27105 -0.40628,-0.89472 -0.4981,-1.74482 -0.50285,-4.65578 -0.006,-3.82325 0.61921,-10.08743 1.1033,-11.05019 0.30365,-0.60387 1.86608,-1.19118 4.12517,-1.55061 l 1.13324,-0.18031 -0.16095,1.1597 c -0.0885,0.63783 -0.27082,1.75501 -0.40512,2.48261 -0.46357,2.51154 -1.0368,10.06536 -1.03788,13.67657 -0.001,3.28571 -0.20181,4.39909 -0.65986,3.65795 z m 9.74378,-4.43608 c 0.25198,-6.85382 1.15927,-15.17874 1.7148,-15.73427 0.12896,-0.12897 0.73855,-0.0651 1.39534,0.14615 3.00546,0.96674 3.92907,1.10218 7.51633,1.10218 3.93793,0 5.17589,-0.11294 8.33437,-0.76034 5.87735,-1.20469 10.78183,-1.58191 12.81351,-0.98552 3.4275,1.00613 3.1188,0.77005 3.4937,2.6719 0.58678,2.97668 0.8372,6.09354 0.79716,9.92188 -0.0349,3.33929 -0.10035,3.82145 -0.66419,4.89479 -0.67453,1.28406 -1.94257,2.64065 -2.481,2.65425 -0.18322,0.005 -0.56425,0.18322 -0.84673,0.39687 -0.43832,0.33153 -2.83884,0.38846 -16.37977,0.38846 h -15.86618 z"
         id="path1613" />
      <path
         style="fill:#1d1d30;stroke-width:0.264583"
         d="m 151.38474,150.13049 c -1.17168,-1.03118 -1.2406,-1.54738 -0.68949,-5.16435 0.58935,-3.86799 0.64566,-4.06482 1.08705,-3.79959 0.25924,0.15577 0.25792,0.10763 -0.006,-0.21821 -0.28409,-0.35081 -0.22093,-0.56116 0.39262,-1.30756 0.96257,-1.171 1.16964,-1.30122 1.79802,-1.13071 0.42925,0.11647 0.45423,0.0911 0.13229,-0.13428 -0.26858,-0.18805 -0.28996,-0.27918 -0.0661,-0.28192 0.51622,-0.006 0.73406,0.10888 0.6549,0.34634 -0.04,0.11996 0.0513,0.1415 0.20276,0.0479 0.15149,-0.0936 0.20695,-0.28108 0.12323,-0.41654 -0.0837,-0.13547 -0.0199,-0.2463 0.14174,-0.2463 0.16167,0 0.41275,-0.34078 0.55795,-0.75728 0.14519,-0.41651 0.56132,-0.89276 0.92473,-1.05834 0.47645,-0.21709 6.63148,-0.30105 22.06922,-0.30105 h 21.40849 l 0.53948,0.57906 c 0.29671,0.31848 0.53947,0.7352 0.53947,0.92604 0,0.48867 1.59603,0.44386 2.32284,-0.0652 0.32368,-0.22671 0.72576,-0.32738 0.8935,-0.2237 0.18386,0.11363 0.23328,0.0724 0.12442,-0.10369 -0.0993,-0.16071 0.0518,-0.41655 0.3358,-0.56855 0.28401,-0.152 0.82637,-0.90993 1.20523,-1.6843 l 0.68883,-1.40793 -0.0733,-22.6045 -0.0733,-22.604503 -0.60901,-1.433591 c -0.33495,-0.788475 -0.84849,-1.769928 -1.14121,-2.181006 -0.2929,-0.411356 -0.44612,-0.896935 -0.34076,-1.079952 0.10529,-0.182894 0.0946,-0.244864 -0.0238,-0.137713 -0.11836,0.107151 -0.74114,-0.289978 -1.38396,-0.882513 -0.64282,-0.592531 -1.96406,-1.454107 -2.93608,-1.914612 l -1.76731,-0.837279 -5.78686,-0.132292 c -5.60564,-0.128148 -5.79319,-0.115721 -5.9889,0.396875 -0.33084,0.866487 -1.2136,1.491141 -2.31628,1.639044 -0.87182,0.116935 -1.08481,0.27328 -1.34228,0.985279 -0.63641,1.759958 -2.96282,2.799635 -6.26456,2.799635 -1.87932,0 -2.38404,-0.103729 -3.60288,-0.740457 -1.36844,-0.714881 -2.75442,-2.254271 -2.4594,-2.731622 0.0789,-0.127648 -0.23217,-0.232087 -0.69125,-0.232087 -1.03541,0 -2.2374,-0.685763 -2.60109,-1.483979 -0.27119,-0.595183 -0.34394,-0.603795 -5.77724,-0.683877 -6.03901,-0.08901 -6.57242,-0.208156 -8.29296,-1.852403 -1.46846,-1.403337 -1.79227,-2.593314 -2.75789,-10.13495 -0.0559,-0.436562 -0.2864,-2.043906 -0.51223,-3.571875 -0.22582,-1.527968 -0.82849,-5.87375 -1.33925,-9.657291 -0.51076,-3.783542 -1.1127,-8.069792 -1.33765,-9.525 -0.22495,-1.455209 -0.4498,-3.199091 -0.49967,-3.875297 -0.0499,-0.676203 -0.16232,-1.345403 -0.2499,-1.487112 -0.0876,-0.141705 -0.1915,-1.093684 -0.23093,-2.115505 -0.0394,-1.021821 -0.16099,-1.804109 -0.27013,-1.738418 -0.10914,0.06569 -0.19844,-0.298447 -0.19844,-0.809196 0,-0.510749 -0.11048,-1.500042 -0.24552,-2.198429 -0.55921,-2.892117 -0.55287,-3.168127 0.0712,-3.097933 0.31417,0.03534 19.66179,0.07417 42.99472,0.0863 l 42.4235,0.02205 -0.15481,9.061979 c -0.0851,4.984089 -0.21541,25.492604 -0.28948,45.574479 -0.19058,51.672381 -0.35625,64.668261 -0.8341,65.426661 -0.20922,0.33206 -0.51263,0.52202 -0.67424,0.42214 -0.17314,-0.10701 -0.21967,-0.0616 -0.11326,0.11058 0.0993,0.16071 -0.053,0.41723 -0.3386,0.57005 -0.35596,0.19051 -12.48152,0.27523 -38.57043,0.2695 l -38.05125,-0.008 z m 11.1812,-7.01359 v -2.91041 h -2.48963 -2.48964 l -0.30926,1.91822 c -0.1701,1.05503 -0.40717,2.29716 -0.52682,2.76029 -0.11966,0.46313 -0.15,0.90961 -0.0674,0.99218 0.0826,0.0826 1.43998,0.15014 3.01645,0.15014 h 2.86632 z m 58.74163,-3.14016 c 0.64962,-0.34832 1.00006,-0.77173 1.1865,-1.43355 0.14552,-0.51657 0.33669,-1.01115 0.42481,-1.09906 0.0881,-0.0879 -0.0161,-0.69551 -0.23166,-1.35021 -0.52374,-1.59089 -1.53472,-2.29849 -3.28396,-2.29849 -1.13374,0 -1.45688,0.12101 -2.13557,0.7997 -0.95943,0.95943 -1.30756,3.06879 -0.69594,4.21681 0.83373,1.56493 2.99719,2.09705 4.73582,1.1648 z m 0.344,-48.224884 c 0.31785,-0.165254 0.81604,-0.549376 1.10708,-0.853604 0.52007,-0.543632 0.5304,-0.964026 0.60079,-24.4527 0.0643,-21.442859 0.0282,-23.991146 -0.35118,-24.790534 -0.43192,-0.91022 -1.72098,-1.725616 -2.72801,-1.725616 -0.90503,0 -2.34195,0.822685 -2.72139,1.558087 -0.2893,0.560713 -0.37043,5.10236 -0.43059,24.106497 -0.0672,21.235924 -0.0335,23.522736 0.36261,24.566282 0.31348,0.825902 0.67043,1.252355 1.26476,1.510998 1.02335,0.445349 2.13484,0.476279 2.89593,0.08059 z m -5.9621,-4.950325 c 0.0714,-0.214271 -0.54325,-0.305462 -2.05894,-0.305462 -1.61195,0 -2.13232,0.084 -2.04878,0.330729 0.0702,0.207404 0.62126,0.330729 1.47773,0.330729 0.75115,0 1.36552,0.08546 1.36526,0.189913 -7.9e-4,0.294778 1.15008,-0.201959 1.26473,-0.545909 z m 0.4546,-9.301295 c -0.0899,-0.145521 -0.30533,-0.262761 -0.47864,-0.260533 -0.18934,0.0024 -0.1567,0.106424 0.0818,0.260533 0.5083,0.328488 0.59989,0.328488 0.39688,0 z m -0.51816,-0.811559 c 0.096,-0.155337 -0.0742,-0.347433 -0.37829,-0.426956 -0.30404,-0.07951 -0.48025,-0.261969 -0.39156,-0.405463 0.0914,-0.147884 -0.0743,-0.134853 -0.38246,0.03008 -0.29904,0.160039 -1.02075,0.290981 -1.60381,0.290981 -1.01995,0 -1.52686,0.270047 -1.17235,0.624554 0.28643,0.286433 3.74304,0.186833 3.92847,-0.113196 z m 0.0622,-10.256102 c 0.0601,-0.180385 -0.1819,-0.316778 -0.58037,-0.327062 -3.3651,-0.08684 -3.81701,-0.02727 -3.51293,0.463058 0.21416,0.345342 3.9745,0.220408 4.0933,-0.135996 z m -48.68803,-16.306036 -0.0686,-13.716381 -6.35,0.03233 c -7.27415,0.03703 -6.77425,-0.179189 -6.12158,2.647812 0.22413,0.970831 0.59623,2.777175 0.8269,4.014102 0.23065,1.236927 0.70492,3.618177 1.05391,5.291667 0.34899,1.67349 0.94324,4.709583 1.32056,6.746875 0.37732,2.037292 0.792,4.061354 0.92151,4.497917 0.12951,0.436562 0.31046,1.163523 0.40212,1.615466 0.18422,0.908394 -0.0194,0.817475 4.90387,2.190102 1.52797,0.426008 2.86851,0.689494 2.97897,0.585526 0.11047,-0.103968 0.17,-6.361407 0.13229,-13.905416 z m 48.71613,6.037451 c -0.33557,-0.404329 -3.80896,-0.517533 -4.04729,-0.131908 -0.28374,0.459091 0.26785,0.589782 2.2841,0.541186 1.70406,-0.04107 2.00986,-0.112053 1.76319,-0.409278 z m -0.0525,-9.977491 c 0.41209,-0.412096 -0.42559,-0.700847 -2.03318,-0.700847 -1.6821,0 -2.3305,0.232913 -2.02559,0.727605 0.13418,0.217691 3.83874,0.193267 4.05877,-0.02676 z M 198.21414,131.4424 c 0.17947,-0.18082 0.39297,-0.26211 0.47443,-0.18065 0.0815,0.0815 -0.0654,0.22941 -0.32632,0.32877 -0.37708,0.14358 -0.40747,0.11319 -0.14811,-0.14812 z m -51.39091,-1.48144 c -1.65844,-0.67174 -3.76401,-2.09504 -5.03701,-3.40487 -1.51398,-1.55777 -2.82344,-3.50867 -2.59889,-3.87198 0.10098,-0.1634 0.0546,-0.21077 -0.10803,-0.11029 -0.34549,0.21353 -1.71359,-3.23618 -2.1885,-5.51838 -0.42552,-2.04485 -0.43413,-6.43319 -0.0166,-8.46666 0.48213,-2.34816 1.09693,-4.12522 1.36901,-3.95706 0.13179,0.0814 0.17313,-0.0251 0.0919,-0.23688 -0.20717,-0.53988 1.64294,-3.93513 2.58057,-4.73575 0.29825,-0.254662 0.46399,-0.463021 0.36834,-0.463021 -0.22651,0 1.87809,-2.07332 2.89725,-2.85419 2.75662,-2.112092 7.39194,-3.183004 10.57927,-2.444163 0.66178,0.153403 1.15234,0.15104 1.30969,-0.0063 0.13837,-0.138375 0.46348,-0.251587 0.72246,-0.251587 0.28048,0 0.68245,-0.414735 0.99415,-1.025702 0.2878,-0.564134 0.71667,-1.099916 0.95305,-1.190625 0.23639,-0.09069 2.78805,-0.16491 5.67037,-0.16491 h 5.24058 l 0.17446,-0.929944 c 0.20613,-1.098788 1.53742,-2.522702 3.13261,-3.350572 1.68235,-0.87311 5.37179,-0.992265 7.33516,-0.236895 2.11499,0.813705 3.56187,2.238864 3.78943,3.732567 l 0.0994,0.652552 5.42765,0.0714 c 5.06742,0.06666 5.4599,0.107018 5.91328,0.608007 0.63629,0.703093 0.70936,1.304486 0.15879,1.306859 -0.24179,0.0011 -8.74373,0.0026 -18.8932,0.0035 l -18.45358,0.0016 -0.71706,1.120971 c -0.39439,0.616535 -1.21136,1.981295 -1.8155,3.0328 -0.60414,1.051502 -1.19401,1.825408 -1.31083,1.719791 -0.11683,-0.105619 -0.12818,-0.0455 -0.0252,0.13361 0.10295,0.179104 -0.21946,1.250662 -0.71647,2.381242 -2.68908,6.11704 -4.3725,13.44795 -4.94513,21.53497 -0.15845,2.23771 -0.20872,4.8127 -0.11172,5.7222 0.20177,1.89177 0.0631,1.98058 -1.86965,1.19771 z m -0.84499,-6.80665 c 0.22858,-0.22858 0.45739,-1.21698 0.56658,-2.4474 0.41419,-4.66769 1.62246,-10.37559 3.07982,-14.54913 0.44777,-1.28233 0.87738,-2.53852 0.95467,-2.79155 0.0773,-0.25302 0.21631,-0.41322 0.3089,-0.35599 0.0926,0.0572 0.19642,-0.15247 0.23072,-0.466 0.0343,-0.31352 0.13711,-1.15466 0.22845,-1.86919 0.14793,-1.157076 0.0977,-1.351724 -0.45924,-1.78005 -0.84383,-0.648957 -1.14982,-0.619639 -3.08429,0.295515 -5.33716,2.524905 -8.47817,10.043025 -7.08064,16.947815 0.69904,3.45374 3.01673,7.39941 4.34642,7.39941 0.28885,0 0.69772,-0.17255 0.90861,-0.38343 z m 2.76322,-27.57953 c 1.49159,-0.542792 2.71198,-1.097332 2.71198,-1.23231 0,-0.740822 -4.71773,0.800537 -5.56129,1.816968 -0.47551,0.572953 -0.14597,0.505336 2.84931,-0.584658 z m 26.37952,-7.673321 c 1.06612,-0.170479 1.06726,-0.171918 0.3286,-0.418137 -1.60686,-0.53562 -3.62322,0.565968 -3.62322,1.979462 0,0.439618 0.16117,0.376147 1.11241,-0.438076 0.70022,-0.599366 1.5088,-1.015566 2.18221,-1.123249 z m 22.84952,23.284701 c 0.191,-0.0764 0.4192,-0.067 0.50712,0.0209 0.0879,0.0879 -0.0684,0.15045 -0.34727,0.13896 -0.30822,-0.0127 -0.37092,-0.0754 -0.15985,-0.15985 z"
         id="path1611" />
    </g>
  </g>
</svg>
