<?xml version="1.0" encoding="UTF-8" standalone="no"?>
<!-- Created with Inkscape (http://www.inkscape.org/) -->

<svg
   width="80mm"
   height="80mm"
   viewBox="0 0 80 80"
   version="1.1"
   id="svg5"
   inkscape:version="1.1.1 (3bf5ae0d25, 2021-09-20)"
   sodipodi:docname="logo.svg"
   xmlns:inkscape="http://www.inkscape.org/namespaces/inkscape"
   xmlns:sodipodi="http://sodipodi.sourceforge.net/DTD/sodipodi-0.dtd"
   xmlns="http://www.w3.org/2000/svg"
   xmlns:svg="http://www.w3.org/2000/svg">
  <sodipodi:namedview
     id="namedview7"
     pagecolor="#505050"
     bordercolor="#ffffff"
     borderopacity="1"
     inkscape:pageshadow="0"
     inkscape:pageopacity="0"
     inkscape:pagecheckerboard="1"
     inkscape:document-units="mm"
     showgrid="false"
     width="80mm"
     inkscape:zoom="1.4823793"
     inkscape:cx="233.07124"
     inkscape:cy="142.00144"
     inkscape:window-width="1920"
     inkscape:window-height="1017"
     inkscape:window-x="1912"
     inkscape:window-y="-8"
     inkscape:window-maximized="1"
     inkscape:current-layer="g952" />
  <defs
     id="defs2" />
  <g
     inkscape:label="Ebene 1"
     inkscape:groupmode="layer"
     id="layer1">
    <g
       id="g952">
      <path
         style="fill:#dc96a2;stroke-width:0.0775804"
         d="m -31.500987,72.099687 c 0,-0.01617 0.06088,-0.07748 0.135282,-0.136251 0.122609,-0.09685 0.125343,-0.09409 0.02919,0.0294 -0.100988,0.129691 -0.164469,0.170935 -0.164469,0.106855 z m 0.695737,-0.622862 c 0,-0.01617 0.06088,-0.07748 0.135282,-0.136251 0.122609,-0.09684 0.125344,-0.09409 0.02919,0.0294 -0.100988,0.129692 -0.164469,0.170935 -0.164469,0.106855 z m -24.931185,-7.211368 6.18e-4,-7.123977 1.855299,-0.0021 1.855299,-0.0021 -1.835569,0.02292 -1.835568,0.02292 -0.02034,7.10313 -0.02034,7.103129 6.18e-4,-7.123977 z m -8.328912,6.332766 c 0.0751,-0.03052 0.09663,-0.749255 0.09663,-3.224946 0,-1.752123 0.02609,-3.185689 0.05798,-3.185703 0.03189,-1.4e-5 0.04853,1.453978 0.03698,3.231094 -0.01952,3.004583 -0.03036,3.230687 -0.154608,3.224972 -0.0807,-0.0037 -0.09535,-0.0217 -0.03698,-0.04542 z m 16.19476,-7.01402 -0.01887,-6.481652 0.251238,0.01167 c 0.233192,0.01083 0.236,0.01399 0.0391,0.04406 l -0.21214,0.03239 -0.02022,6.437595 -0.02022,6.437594 z m 19.770981,5.167604 c 0,-0.01617 0.06088,-0.07748 0.135282,-0.136251 0.122609,-0.09685 0.125344,-0.09409 0.02919,0.0294 -0.100987,0.129691 -0.164469,0.170935 -0.164469,0.106855 z M -72.907078,65.86154 c 1.55e-4,-0.471039 0.01291,-0.653699 0.02829,-0.40591 0.01539,0.247788 0.01524,0.633183 -3.09e-4,0.856434 -0.01556,0.223251 -0.02815,0.02051 -0.02798,-0.450524 z M -76.686714,55.8179 c -4e-6,-4.282172 0.0093,-6.045398 0.02078,-3.91828 0.01143,2.12712 0.01143,5.630715 7e-6,7.785768 -0.01143,2.155054 -0.02078,0.414684 -0.02078,-3.867488 z m 50.616341,6.367492 c 0.116923,-0.01784 0.308251,-0.01784 0.425173,0 0.116923,0.01784 0.02126,0.03243 -0.212586,0.03243 -0.233845,0 -0.329509,-0.0146 -0.212587,-0.03243 z m -1.043605,-0.07366 c 0.05315,-0.0216 0.140113,-0.0216 0.19326,0 0.05315,0.0216 0.0097,0.03927 -0.09663,0.03927 -0.106293,0 -0.149777,-0.01767 -0.09663,-0.03927 z m 2.319123,0 c 0.05315,-0.0216 0.140114,-0.0216 0.193261,0 0.05315,0.0216 0.0097,0.03927 -0.09663,0.03927 -0.106294,0 -0.149777,-0.01767 -0.09663,-0.03927 z m -2.855421,-0.07948 c 0.0558,-0.02249 0.12248,-0.01973 0.148167,0.0061 0.02569,0.02587 -0.01997,0.04427 -0.101462,0.04089 -0.09005,-0.0037 -0.108372,-0.02219 -0.04671,-0.04704 z m 3.478686,0 c 0.0558,-0.02249 0.122479,-0.01973 0.148166,0.0061 0.02569,0.02587 -0.01997,0.04427 -0.101461,0.04089 -0.09006,-0.0037 -0.108373,-0.02219 -0.0467,-0.04704 z m -54.262858,-0.160923 c -0.09616,-0.123487 -0.09342,-0.126241 0.02919,-0.0294 0.0744,0.05877 0.135282,0.120084 0.135282,0.136251 0,0.06408 -0.06348,0.02284 -0.164469,-0.106855 z m 51.475078,-1.083178 c 0.05315,-0.0216 0.140114,-0.0216 0.19326,0 0.05315,0.0216 0.0097,0.03927 -0.09663,0.03927 -0.106293,0 -0.149777,-0.01767 -0.09663,-0.03927 z m 1.972726,-0.0024 c 0.07522,-0.01974 0.179575,-0.01844 0.231913,0.0029 0.05234,0.02133 -0.0092,0.03748 -0.136754,0.03589 -0.127552,-0.0016 -0.170373,-0.01904 -0.09516,-0.03878 z m 0.73775,-0.07709 c 0.0558,-0.02249 0.122479,-0.01973 0.148166,0.0061 0.02569,0.02587 -0.01997,0.04427 -0.101461,0.04089 -0.09006,-0.0037 -0.108373,-0.02219 -0.0467,-0.04704 z m -15.074304,-2.257872 c 0.0558,-0.02249 0.12248,-0.01973 0.148167,0.0061 0.02569,0.02587 -0.01997,0.04427 -0.101462,0.04089 -0.09005,-0.0037 -0.108372,-0.02218 -0.0467,-0.04704 z m 2.087212,0 c 0.0558,-0.02249 0.122479,-0.01973 0.148166,0.0061 0.02569,0.02587 -0.01997,0.04427 -0.101462,0.04089 -0.09005,-0.0037 -0.108372,-0.02218 -0.0467,-0.04704 z m 11.049657,-0.0038 c 0.180699,-0.01639 0.476387,-0.01639 0.657085,0 0.180699,0.01639 0.03285,0.0298 -0.328542,0.0298 -0.361397,0 -0.509241,-0.01341 -0.328543,-0.0298 z m -12.28997,-0.07728 c 0.138942,-0.01733 0.347663,-0.01697 0.463824,7.94e-4 0.116162,0.01777 0.0025,0.03194 -0.252622,0.03151 -0.255104,-4.67e-4 -0.350145,-0.01497 -0.211202,-0.0323 z m 11.289848,0.0032 c 0.0558,-0.02249 0.122479,-0.01973 0.148167,0.0061 0.02569,0.02587 -0.01997,0.04427 -0.101462,0.04089 -0.09005,-0.0037 -0.108373,-0.02219 -0.04671,-0.04704 z m 2.551036,0 c 0.0558,-0.02249 0.122479,-0.01973 0.148167,0.0061 0.02569,0.02587 -0.01997,0.04427 -0.101462,0.04089 -0.09006,-0.0037 -0.108373,-0.02219 -0.0467,-0.04704 z m 0.541129,-0.07786 c 0.0558,-0.02249 0.122479,-0.01973 0.148166,0.0061 0.02569,0.02587 -0.01997,0.04427 -0.101461,0.04089 -0.09006,-0.0037 -0.108373,-0.02218 -0.0467,-0.04704 z m -15.38352,-1.167865 c 0.0558,-0.02249 0.122479,-0.01973 0.148167,0.0061 0.02569,0.02587 -0.01997,0.04427 -0.101462,0.04089 -0.09005,-0.0037 -0.108373,-0.02219 -0.04671,-0.04704 z m 2.319124,0 c 0.0558,-0.02249 0.122479,-0.01973 0.148166,0.0061 0.02569,0.02587 -0.01997,0.04427 -0.101461,0.04089 -0.09006,-0.0037 -0.108373,-0.02219 -0.0467,-0.04704 z m -43.2382,-11.158319 c 0,-6.144917 0.0092,-8.658747 0.02036,-5.586288 0.0112,3.072458 0.0112,8.100118 0,11.172576 -0.0112,3.072459 -0.02036,0.558629 -0.02036,-5.586288 z m 41.805574,11.076323 c 0.203241,-0.01609 0.516322,-0.0159 0.695737,4.67e-4 0.179416,0.01633 0.01313,0.02949 -0.369526,0.02926 -0.382656,-2.34e-4 -0.52945,-0.0136 -0.326211,-0.02969 z m -8.119264,-0.312248 c 0.499577,-0.01356 1.317068,-0.01356 1.816646,0 0.499578,0.01356 0.09083,0.02466 -0.908323,0.02466 -0.999156,0 -1.407901,-0.01109 -0.908323,-0.02466 z m 9.861106,-1.941486 c 0.0558,-0.02249 0.122479,-0.01973 0.148167,0.0061 0.02569,0.02587 -0.01997,0.04427 -0.101462,0.04089 -0.09006,-0.0037 -0.108373,-0.02219 -0.04671,-0.04704 z m -2.396427,-0.07786 c 0.0558,-0.02249 0.122479,-0.01973 0.148166,0.0061 0.02569,0.02587 -0.01997,0.04427 -0.101462,0.04089 -0.09005,-0.0037 -0.108372,-0.02219 -0.0467,-0.04704 z m 1.850467,0.0016 c 0.05315,-0.0216 0.140114,-0.0216 0.19326,0 0.05315,0.0216 0.0097,0.03927 -0.09663,0.03927 -0.106293,0 -0.149777,-0.01767 -0.09663,-0.03927 z m -0.966302,-0.07996 c 0.07441,-0.01958 0.19616,-0.01958 0.270565,0 0.0744,0.01958 0.01353,0.03561 -0.135282,0.03561 -0.148811,0 -0.209688,-0.01602 -0.135283,-0.03561 z m -18.740947,-2.340393 c 0.991442,-0.01233 2.591637,-0.01232 3.555989,3e-5 0.964352,0.01235 0.153172,0.02244 -1.802622,0.02242 -1.955794,-1.6e-5 -2.744809,-0.01012 -1.753367,-0.02245 z m -0.109733,-2.576112 c 0.04081,-0.06651 -0.993616,-0.09451 -4.065849,-0.110048 l -4.120586,-0.02085 4.155096,-0.01877 c 2.557996,-0.01155 4.155097,0.0094 4.155097,0.05449 0,0.0403 -0.04016,0.09826 -0.08925,0.128817 -0.05505,0.03427 -0.06827,0.02137 -0.03451,-0.03365 z m -5.790008,-3.337901 c 2.135343,-0.05494 4.058614,-0.05647 4.058544,-0.0032 -4.3e-5,0.03212 -1.10456,0.0509 -2.454483,0.04175 -1.349923,-0.0092 -2.071751,-0.02649 -1.604061,-0.03852 z m -13.68585,-8.080962 c 1.6e-5,-1.969799 0.01005,-2.764465 0.02229,-1.765923 0.01224,0.998541 0.01223,2.610195 -2.9e-5,3.581453 -0.01226,0.971258 -0.02228,0.154269 -0.02226,-1.81553 z m 10.941468,-2.160551 c 4.8e-5,-0.03212 1.017602,-0.051 2.261232,-0.04197 2.266355,0.01646 2.008905,0.04325 -0.773127,0.08046 -0.818505,0.01095 -1.488152,-0.0064 -1.488105,-0.03849 z m -5.530064,-2.958591 -0.383615,-0.408753 0.405847,0.386362 c 0.377119,0.359014 0.441298,0.431144 0.383614,0.431144 -0.01223,0 -0.194859,-0.183939 -0.405846,-0.408753 z"
         id="path966" />
      <path
         style="fill:#c75668;stroke-width:0.0775804"
         d="m -31.269075,71.866114 c 0,-0.01617 0.06088,-0.07748 0.135283,-0.136251 0.122609,-0.09684 0.125343,-0.09409 0.02919,0.0294 -0.100988,0.129691 -0.16447,0.170935 -0.16447,0.106855 z m -26.183236,-0.417829 c 0.331451,-0.01463 0.853254,-0.01454 1.159561,2.34e-4 0.306307,0.01474 0.03512,0.02671 -0.60264,0.0266 -0.637759,-7.8e-5 -0.888374,-0.01217 -0.556921,-0.0268 z m 26.878973,-0.199999 c 0,-0.0134 0.113058,-0.127266 0.251239,-0.253038 l 0.251238,-0.228675 -0.227049,0.253038 c -0.211642,0.235866 -0.275428,0.288824 -0.275428,0.228675 z m -21.376221,-7.138544 c 0,-3.832544 0.0094,-5.400403 0.02094,-3.484131 0.01152,1.916272 0.01152,5.05199 0,6.968262 -0.01152,1.916272 -0.02094,0.348413 -0.02094,-3.484131 z m -15.401587,-2.442585 c -0.01683,-7.042869 -0.006,-7.920693 0.097,-7.834628 0.130127,0.10877 0.157463,0.190742 0.03902,0.117017 -0.0508,-0.03162 -0.08375,2.618436 -0.097,7.800637 l -0.02007,7.848525 z m 38.942324,7.386547 c 0.144232,-0.149876 0.279634,-0.272501 0.300893,-0.272501 0.02126,0 -0.07936,0.122625 -0.223589,0.272501 -0.144233,0.149876 -0.279635,0.272502 -0.300893,0.272502 -0.02126,0 0.07936,-0.122626 0.223589,-0.272502 z m 0.695737,-0.769043 c 0,-0.01617 0.06088,-0.07748 0.135282,-0.136251 0.122609,-0.09685 0.125343,-0.09409 0.02919,0.0294 -0.100988,0.129691 -0.164469,0.170935 -0.164469,0.106855 z m 0.463825,-0.545004 c 0,-0.01617 0.06088,-0.07748 0.135282,-0.136251 0.122609,-0.09685 0.125343,-0.09409 0.02919,0.0294 -0.100988,0.129691 -0.164469,0.170935 -0.164469,0.106855 z M -75.883412,64.36278 c -0.09616,-0.123487 -0.09342,-0.126241 0.02919,-0.0294 0.0744,0.05877 0.135282,0.120083 0.135282,0.136251 0,0.06408 -0.06348,0.02284 -0.164469,-0.106855 z m -2.158816,-2.102158 -0.266403,-0.291966 0.28989,0.268311 c 0.15944,0.14757 0.289891,0.278955 0.289891,0.291966 0,0.05945 -0.06542,0.0034 -0.313378,-0.268311 z m 51.509502,-0.07342 c 0.07521,-0.01974 0.179575,-0.01844 0.231912,0.0029 0.05234,0.02133 -0.0092,0.03748 -0.136753,0.03589 -0.127552,-0.0016 -0.170374,-0.01904 -0.09516,-0.03878 z m 1.159562,0 c 0.07521,-0.01974 0.179575,-0.01844 0.231912,0.0029 0.05234,0.02133 -0.0092,0.03748 -0.136753,0.03589 -0.127552,-0.0016 -0.170374,-0.01904 -0.09516,-0.03878 z m -53.370501,-0.705157 c -0.09616,-0.123487 -0.09342,-0.126241 0.02919,-0.0294 0.128769,0.101711 0.16972,0.165646 0.106095,0.165646 -0.01605,0 -0.07693,-0.06131 -0.135282,-0.13625 z m 52.093511,-0.69389 c 0.05315,-0.0216 0.140114,-0.0216 0.193261,0 0.05315,0.0216 0.0097,0.03927 -0.09663,0.03927 -0.106294,0 -0.149777,-0.01767 -0.09663,-0.03927 z m 1.314171,0 c 0.05315,-0.0216 0.140113,-0.0216 0.19326,0 0.05315,0.0216 0.0097,0.03927 -0.09663,0.03927 -0.106293,0 -0.149777,-0.01767 -0.09663,-0.03927 z m -12.131916,-2.337352 c 0.0558,-0.02249 0.122479,-0.01973 0.148167,0.0061 0.02569,0.02587 -0.01997,0.04427 -0.101462,0.04089 -0.09005,-0.0037 -0.108373,-0.02218 -0.04671,-0.04704 z m 10.740441,0.0016 c 0.05315,-0.0216 0.140114,-0.0216 0.193261,0 0.05315,0.0216 0.0097,0.03927 -0.09663,0.03927 -0.106294,0 -0.149777,-0.01767 -0.09663,-0.03927 z m 1.550914,-0.0016 c 0.0558,-0.02249 0.122479,-0.01973 0.148167,0.0061 0.02569,0.02587 -0.01997,0.04427 -0.101462,0.04089 -0.09005,-0.0037 -0.108373,-0.02218 -0.0467,-0.04704 z m -12.368659,-1.401438 c 0.0558,-0.02249 0.122479,-0.01973 0.148167,0.0061 0.02569,0.02587 -0.01997,0.04427 -0.101462,0.04089 -0.09005,-0.0037 -0.108373,-0.02218 -0.04671,-0.04704 z m -1.468778,-2.33573 c 0.0558,-0.02249 0.122479,-0.01973 0.148166,0.0061 0.02569,0.02587 -0.01997,0.04427 -0.101461,0.04089 -0.09006,-0.0037 -0.108373,-0.02219 -0.04671,-0.04704 z m -18.745403,-1.09519 c 1.523114,-0.01181 3.992981,-0.0118 5.488592,1.3e-5 1.495611,0.01181 0.249427,0.02148 -2.769299,0.02147 -3.018726,-8e-6 -4.242408,-0.0097 -2.719293,-0.02148 z m -18.89707,-5.527921 c -0.09616,-0.123486 -0.09342,-0.12624 0.02919,-0.0294 0.07441,0.05877 0.135283,0.120083 0.135283,0.13625 0,0.06408 -0.06348,0.02284 -0.16447,-0.106855 z"
         id="path962" />
      <path
         style="fill:#b41732;stroke-width:0.0775804"
         d="M 59.962682,71.807912 C 59.606173,71.22038 57.093446,67.052137 54.378844,62.545151 49.693463,54.766127 49.43209,54.35063 49.223988,54.35063 h -0.219217 l -0.01977,6.478298 -0.01977,6.478298 -0.541129,0.170075 c -0.458075,0.143972 -2.337788,0.59861 -3.188378,0.77116 l -0.250822,0.05088 -0.01974,-6.954891 -0.01974,-6.954892 -1.913276,-0.02082 -1.913277,-0.02082 v 7.164266 7.164267 l -1.178888,-0.0022 -1.178888,-0.0022 -2.898905,-3.669949 -2.898904,-3.669949 -0.02018,3.249953 -0.02018,3.249953 -0.250385,-0.05213 c -0.137713,-0.02867 -0.885246,-0.261225 -1.661186,-0.516793 l -1.4108,-0.464668 v -7.819971 c 0,-4.300984 0.01405,-7.819971 0.03123,-7.819971 0.01718,0 1.73043,2.139648 3.807228,4.754776 l 3.775997,4.754776 0.02,-4.184323 0.02,-4.184323 -0.5372,-0.704857 c -0.29546,-0.38767 -0.530576,-0.705687 -0.522481,-0.706703 0.0081,-0.001 2.525629,0.0076 5.594518,0.01912 l 5.5798,0.02097 0.950942,1.555652 0.950943,1.555653 h 1.768936 1.768936 l 0.551644,-0.345924 c 0.826778,-0.518456 2.243926,-1.17847 3.002448,-1.398341 1.023157,-0.296582 2.145536,-0.405358 3.058358,-0.296402 1.488213,0.177634 2.249472,0.448182 4.965545,1.764727 0.999156,0.484315 2.140252,1.008119 2.535768,1.16401 2.662672,1.04948 5.173223,1.079158 8.069575,0.09539 l 0.980981,-0.333196 -0.09982,0.239334 c -0.0549,0.131634 -0.334873,0.753301 -0.622159,1.381482 l -0.522335,1.142147 -0.629385,0.171367 c -1.121815,0.305443 -1.832182,0.401076 -3.025814,0.407349 -2.215674,0.01164 -3.386343,-0.336698 -6.996023,-2.081728 -2.645413,-1.278872 -3.535984,-1.573621 -4.992168,-1.652235 -1.448472,-0.0782 -2.833717,0.227491 -4.322978,0.953973 -1.013744,0.494518 -0.960827,0.408092 -0.611747,0.999132 0.166391,0.281722 0.337317,0.497585 0.379834,0.479695 2.051344,-0.863157 2.603652,-1.000503 4.058467,-1.009241 1.77909,-0.01068 2.622627,0.239543 5.488592,1.628145 2.689093,1.302905 3.642354,1.670809 5.07316,1.957949 0.974678,0.195602 2.894715,0.183285 3.905328,-0.02505 l 0.7456,-0.153706 -0.501329,0.816864 c -3.075086,5.010537 -6.945708,9.061823 -11.748779,12.297163 l -0.941286,0.634048 z M 22.87509,63.06045 C 22.301107,62.626635 21.622764,62.094397 21.36766,61.877699 21.112556,61.661 20.873522,61.458133 20.836473,61.426882 c -0.03705,-0.03125 2.65052,-5.776331 5.972377,-12.766845 l 6.039738,-12.710025 -0.808035,-1.252084 -0.808035,-1.252083 2.175559,-0.0207 c 1.676975,-0.01596 2.196512,0.0019 2.266986,0.07786 0.05029,0.05421 2.11727,3.56712 4.5933,7.806471 2.47603,4.23935 4.570215,7.821776 4.653745,7.960947 l 0.151874,0.253037 h -3.52645 -3.526451 l 0.891806,-1.316126 c 0.490493,-0.723869 0.891806,-1.336998 0.891806,-1.362509 0,-0.02551 -1.853481,-0.04638 -4.118847,-0.04638 H 31.567 l -3.784427,7.727374 -3.784426,7.727374 -0.03973,0.79801 -0.03973,0.79801 z M 37.949394,43.641356 c 0,-0.05515 -2.549867,-4.48855 -2.636468,-4.583968 -0.05827,-0.0642 -0.751075,1.310221 -1.929946,3.8287 l -0.373554,0.798041 h 2.469984 c 1.358491,0 2.469984,-0.01925 2.469984,-0.04277 z M 19.443145,60.073169 c -1.293542,-1.318129 -2.615558,-2.952962 -3.673978,-4.54332 -0.266584,-0.400561 -0.455273,-0.755133 -0.41931,-0.787936 0.03596,-0.0328 0.317591,-0.135272 0.625841,-0.227704 l 0.560455,-0.168061 V 43.211992 32.077835 L 15.722402,30.990578 14.90865,29.90332 h 3.40344 c 1.871891,0 3.403439,0.01153 3.403439,0.02562 0,0.01409 -0.347869,0.493065 -0.773042,1.064389 l -0.773041,1.03877 0.0015,3.548679 0.0015,3.548678 0.467977,0.603397 c 0.257388,0.331868 0.493766,0.603397 0.525286,0.603397 0.04547,0 5.070276,-8.862225 5.177987,-9.132397 0.0157,-0.03938 -0.244384,-0.348115 -0.577967,-0.686069 L 25.15922,29.903321 h 2.882327 c 1.58528,0 2.866262,0.02628 2.846626,0.05839 -0.01964,0.03212 -1.673137,3.101017 -3.674448,6.81978 l -3.638745,6.761386 1.429492,1.786851 c 0.786221,0.982768 1.466856,1.847107 1.512523,1.920755 0.06674,0.107627 -0.08781,0.495879 -0.787535,1.978475 -0.47881,1.014513 -0.899408,1.826617 -0.934661,1.804672 -0.03525,-0.02194 -1.081675,-1.337815 -2.325383,-2.92416 l -2.261287,-2.884263 -0.03865,7.774339 -0.03865,7.77434 z"
         id="path958" />
      <path
         style="fill:#393939;stroke-width:0.0775804"
         d="m -60.895878,81.498298 c 0.05315,-0.0216 0.140113,-0.0216 0.19326,0 0.05315,0.0216 0.0097,0.03927 -0.09663,0.03927 -0.106293,0 -0.149777,-0.01767 -0.09663,-0.03927 z m 7.208609,-0.101709 c 0,-0.04148 0.05218,-0.05525 0.115956,-0.0306 0.06378,0.02465 0.115956,0.05859 0.115956,0.07542 0,0.01683 -0.05218,0.0306 -0.115956,0.0306 -0.06378,0 -0.115956,-0.03394 -0.115956,-0.07541 z m -8.162929,-0.333338 -0.147264,-0.17518 0.173934,0.148318 c 0.163455,0.139382 0.209126,0.202042 0.147264,0.202042 -0.01467,0 -0.09294,-0.07883 -0.173934,-0.17518 z m 4.38113,-0.181668 c 0.0037,-0.0907 0.02203,-0.109149 0.0467,-0.04704 0.02233,0.0562 0.01958,0.123356 -0.0061,0.149227 -0.02569,0.02587 -0.04396,-0.02011 -0.0406,-0.102187 z m 7.189283,-0.700719 c 0.0037,-0.0907 0.02203,-0.109149 0.0467,-0.04704 0.02233,0.0562 0.01958,0.123356 -0.0061,0.149227 -0.02569,0.02587 -0.04396,-0.02011 -0.0406,-0.102187 z m -17.110928,-0.197818 c 0.05244,-0.05321 0.114815,-0.07713 0.138616,-0.05316 0.0238,0.02397 -0.0191,0.06751 -0.09534,0.09674 -0.110174,0.04225 -0.119053,0.03331 -0.04328,-0.04358 z m 9.943776,-0.652128 c 2.32e-4,-0.428218 0.01318,-0.593464 0.02885,-0.367215 0.01567,0.22625 0.0155,0.57661 -3.86e-4,0.778577 -0.01587,0.201968 -0.02868,0.01686 -0.02848,-0.411362 z m 0.849122,-0.583933 c 0,-0.363985 0.01332,-0.512887 0.02959,-0.330895 0.01628,0.181992 0.01628,0.479798 0,0.66179 -0.01628,0.181992 -0.02959,0.03309 -0.02959,-0.330895 z m 11.713354,0.408753 c -0.09616,-0.123487 -0.09342,-0.126241 0.02919,-0.0294 0.07441,0.05877 0.135283,0.120084 0.135283,0.136251 0,0.06408 -0.06348,0.02284 -0.16447,-0.106855 z m -17.752152,-0.875899 c 0,-0.149876 0.01591,-0.211189 0.03535,-0.136251 0.01944,0.07494 0.01944,0.197564 0,0.272502 -0.01944,0.07494 -0.03535,0.01363 -0.03535,-0.136251 z m -9.231619,0.02467 c 0.0558,-0.02249 0.122479,-0.01973 0.148167,0.0061 0.02569,0.02587 -0.01997,0.04427 -0.101462,0.04089 -0.09005,-0.0037 -0.108373,-0.02218 -0.04671,-0.04704 z m 28.993679,-0.08307 c -0.09616,-0.123487 -0.09342,-0.126241 0.02919,-0.0294 0.0744,0.05877 0.135282,0.120084 0.135282,0.136251 0,0.06408 -0.06348,0.02284 -0.164469,-0.106855 z M -61.64349,77.922992 c 0.0037,-0.0907 0.02203,-0.109149 0.0467,-0.04704 0.02233,0.0562 0.01958,0.123356 -0.0061,0.149228 -0.02569,0.02587 -0.04396,-0.02011 -0.0406,-0.102188 z m 10.00478,-0.42173 c 0.07696,-0.08564 0.157312,-0.155715 0.178571,-0.155715 0.02126,0 -0.02431,0.07007 -0.101267,0.155715 -0.07696,0.08564 -0.157312,0.155716 -0.178571,0.155716 -0.02126,0 0.02431,-0.07007 0.101267,-0.155716 z m -7.917569,-0.04542 c 0.0037,-0.0907 0.02203,-0.109148 0.0467,-0.04704 0.02233,0.0562 0.01958,0.123356 -0.0061,0.149228 -0.02569,0.02587 -0.04396,-0.02011 -0.0406,-0.102188 z m 1.016785,-0.188156 c 0,-0.149876 0.01591,-0.211189 0.03535,-0.136251 0.01944,0.07494 0.01944,0.197564 0,0.272502 -0.01944,0.07494 -0.03535,0.01362 -0.03535,-0.136251 z m -15.627264,-0.27899 c 0.0037,-0.0907 0.02203,-0.109148 0.0467,-0.04704 0.02233,0.0562 0.01958,0.123356 -0.0061,0.149228 -0.02569,0.02587 -0.04396,-0.02011 -0.0406,-0.102188 z m -0.392623,-0.139694 c 0,-0.01617 0.06088,-0.07748 0.135282,-0.136251 0.122609,-0.09685 0.125343,-0.09409 0.02919,0.0294 -0.100988,0.129691 -0.164469,0.170935 -0.164469,0.106855 z m 16.017023,-0.320964 c 0.0016,-0.128465 0.0189,-0.171593 0.0385,-0.09584 0.0196,0.07575 0.01831,0.180861 -0.0029,0.233573 -0.02118,0.05271 -0.03721,-0.0093 -0.03564,-0.137733 z m 6.49797,-0.155715 c 8.58e-4,-0.171287 0.01669,-0.232191 0.03518,-0.135343 0.01849,0.09685 0.01779,0.236992 -0.0016,0.31143 -0.01935,0.07444 -0.03448,-0.0048 -0.03362,-0.176087 z m -7.416736,-0.311431 c 4.64e-4,-0.25693 0.01487,-0.352651 0.03207,-0.212714 0.01721,0.139938 0.01685,0.350153 -7.88e-4,0.467146 -0.01764,0.116993 -0.03172,0.0025 -0.03128,-0.254432 z m 13.968091,-0.301898 c 0,-0.01617 0.06088,-0.07748 0.135283,-0.136251 0.122609,-0.09684 0.125343,-0.09409 0.02919,0.0294 -0.100988,0.129692 -0.16447,0.170935 -0.16447,0.106855 z m -4.68505,-1.566686 c 1.55e-4,-0.599504 0.01226,-0.834464 0.02697,-0.522133 0.01471,0.312331 0.01461,0.802834 -2.32e-4,1.090007 -0.01482,0.287174 -0.02685,0.03163 -0.02673,-0.567874 z m -26.043337,0.817506 c 0.07695,-0.08564 0.157312,-0.155716 0.178571,-0.155716 0.02126,0 -0.02431,0.07007 -0.101267,0.155716 -0.07695,0.08564 -0.157312,0.155715 -0.178571,0.155715 -0.02126,0 0.02431,-0.07007 0.101267,-0.155715 z m 31.825716,-0.194645 c 0.0016,-0.128465 0.0189,-0.171593 0.0385,-0.09584 0.0196,0.07575 0.01831,0.180861 -0.0029,0.233573 -0.02118,0.05271 -0.03721,-0.0093 -0.03564,-0.137733 z m -18.484652,-0.08434 c 0.0037,-0.0907 0.02203,-0.109149 0.0467,-0.04704 0.02233,0.0562 0.01958,0.123356 -0.0061,0.149227 -0.02569,0.02587 -0.04396,-0.02011 -0.0406,-0.102187 z m 7.446399,-0.363336 -0.147263,-0.17518 0.173934,0.148318 c 0.163455,0.139382 0.209126,0.202042 0.147264,0.202042 -0.01467,0 -0.09294,-0.07883 -0.173935,-0.17518 z m 0.959152,-0.189437 c 0.0558,-0.02249 0.122479,-0.01973 0.148167,0.0061 0.02569,0.02587 -0.01997,0.04427 -0.101462,0.04089 -0.09006,-0.0037 -0.108373,-0.02218 -0.04671,-0.04704 z m 2.632974,-0.08307 c -0.09616,-0.123487 -0.09342,-0.126241 0.02919,-0.0294 0.0744,0.05877 0.135282,0.120084 0.135282,0.136251 0,0.06408 -0.06348,0.02284 -0.164469,-0.106855 z M -65.42529,73.452663 c 0,-0.107054 0.01755,-0.150849 0.03899,-0.09732 0.02144,0.05353 0.02144,0.141117 0,0.194644 -0.02144,0.05353 -0.03899,0.0097 -0.03899,-0.09732 z m 20.118173,-0.875899 -0.147264,-0.17518 0.173935,0.148319 c 0.163455,0.139382 0.209126,0.202041 0.147263,0.202041 -0.01467,0 -0.09294,-0.07883 -0.173934,-0.17518 z m -23.802324,0.01946 c 0.02628,-0.04282 0.06312,-0.07786 0.08187,-0.07786 0.01875,0 0.03409,0.03504 0.03409,0.07786 0,0.04282 -0.03684,0.07786 -0.08187,0.07786 -0.04503,0 -0.06037,-0.03504 -0.03409,-0.07786 z m -2.702343,-1.084628 c -0.02446,-0.03986 -0.01492,-0.09087 0.02121,-0.113361 0.03612,-0.02249 0.06568,0.01013 0.06568,0.07248 0,0.131282 -0.02438,0.142752 -0.08689,0.04088 z m -11.934582,-1.32896 c 0,-0.107055 0.01755,-0.15085 0.03899,-0.09732 0.02144,0.05353 0.02144,0.141117 0,0.194644 -0.02144,0.05353 -0.03899,0.0097 -0.03899,-0.09732 z m -0.707943,-0.506075 c 0.09986,-0.107054 0.198952,-0.194644 0.220211,-0.194644 0.02126,0 -0.04305,0.08759 -0.142907,0.194644 -0.09986,0.107054 -0.198952,0.194644 -0.22021,0.194644 -0.02126,0 0.04305,-0.08759 0.142906,-0.194644 z m -0.656537,-0.193753 c -0.02708,-0.04413 0.0039,-0.05719 0.07274,-0.0306 0.133923,0.05176 0.158427,0.107565 0.04723,0.107565 -0.04001,0 -0.094,-0.03464 -0.119971,-0.07697 z m 2.04216,-1.266635 c 0.219396,-0.25 0.211996,-0.246622 0.211996,-0.09677 0,0.06423 -0.01747,0.09919 -0.03882,0.07769 -0.02135,-0.0215 -0.111218,0.02204 -0.199702,0.09676 -0.117183,0.09896 -0.109978,0.07786 0.02653,-0.07769 z m 4.528142,-1.30356 c 0.07696,-0.08564 0.157313,-0.155715 0.178571,-0.155715 0.02126,0 -0.02431,0.07007 -0.101266,0.155715 -0.07696,0.08564 -0.157313,0.155716 -0.178571,0.155716 -0.02126,0 0.02431,-0.07007 0.101266,-0.155716 z m -6.619363,-0.759112 c -0.09616,-0.123487 -0.09342,-0.126241 0.02919,-0.0294 0.0744,0.05877 0.135282,0.120084 0.135282,0.136251 0,0.06408 -0.06348,0.02284 -0.164469,-0.106855 z m -3.004999,-0.101917 c 0,-0.04535 0.03479,-0.0608 0.0773,-0.03433 0.04252,0.02647 0.0773,0.06357 0.0773,0.08245 0,0.01888 -0.03479,0.03433 -0.0773,0.03433 -0.04252,0 -0.0773,-0.0371 -0.0773,-0.08245 z m 8.232888,-0.306836 c 0.07696,-0.08564 0.157313,-0.155715 0.178571,-0.155715 0.02126,0 -0.02431,0.07007 -0.101267,0.155715 -0.07695,0.08564 -0.157312,0.155716 -0.178571,0.155716 -0.02126,0 0.02431,-0.07007 0.101267,-0.155716 z m -9.932475,-2.601559 c 0.05006,-0.05042 0.102336,-0.05042 0.1524,0 0.05006,0.05042 0.02393,0.07675 -0.0762,0.07675 -0.100127,0 -0.126263,-0.02632 -0.0762,-0.07675 z m 5.163777,-4.848105 c 0.0558,-0.02249 0.122479,-0.01972 0.148167,0.0061 0.02569,0.02587 -0.01997,0.04427 -0.101462,0.04089 -0.09006,-0.0037 -0.108372,-0.02219 -0.04671,-0.04704 z m -8.189602,-1.173073 c -0.09616,-0.123487 -0.09342,-0.126241 0.02919,-0.0294 0.12877,0.101711 0.16972,0.165647 0.106096,0.165647 -0.01605,0 -0.07693,-0.06131 -0.135282,-0.136251 z m 66.167692,-1.863377 c 0.0558,-0.02249 0.122479,-0.01973 0.148166,0.0061 0.02569,0.02587 -0.01997,0.04427 -0.101461,0.04089 -0.09006,-0.0037 -0.108373,-0.02219 -0.04671,-0.04704 z m 1.623386,0 c 0.0558,-0.02249 0.122479,-0.01973 0.148167,0.0061 0.02569,0.02587 -0.01997,0.04427 -0.101462,0.04089 -0.09005,-0.0037 -0.108372,-0.02219 -0.04671,-0.04704 z m -62.034945,-0.138033 c 0,-0.06235 0.02956,-0.09496 0.06568,-0.07248 0.03612,0.02249 0.04567,0.0735 0.02121,0.113361 -0.06251,0.101868 -0.08689,0.0904 -0.08689,-0.04088 z m -0.426783,-2.197697 c 0.0558,-0.02249 0.122478,-0.01972 0.148166,0.0061 0.02569,0.02587 -0.01997,0.04427 -0.101461,0.04089 -0.09006,-0.0037 -0.108373,-0.02219 -0.04671,-0.04704 z m 48.546987,-1.401438 c 0.0558,-0.02249 0.122479,-0.01973 0.148166,0.0061 0.02569,0.02587 -0.01997,0.04427 -0.101461,0.04089 -0.09006,-0.0037 -0.108373,-0.02218 -0.04671,-0.04704 z m 1.391474,0 c 0.0558,-0.02249 0.122479,-0.01973 0.148167,0.0061 0.02569,0.02587 -0.01997,0.04427 -0.101462,0.04089 -0.09006,-0.0037 -0.108373,-0.02218 -0.0467,-0.04704 z m -55.122668,-1.633389 c 0.05315,-0.0216 0.140113,-0.0216 0.19326,0 0.05315,0.0216 0.0097,0.03927 -0.09663,0.03927 -0.106294,0 -0.149777,-0.01767 -0.09663,-0.03927 z m 5.044093,-0.882729 c -0.06967,-0.04535 -0.07921,-0.07595 -0.02389,-0.07667 0.05064,-6.22e-4 0.113567,0.03384 0.139844,0.07667 0.05932,0.09666 0.03256,0.09666 -0.115956,0 z m -0.927649,-0.506075 c 0.09986,-0.107054 0.198952,-0.194644 0.220211,-0.194644 0.02126,0 -0.04305,0.08759 -0.142907,0.194644 -0.09986,0.107055 -0.198952,0.194644 -0.220211,0.194644 -0.02126,0 0.04305,-0.08759 0.142907,-0.194644 z m -6.951268,-0.0065 c 0.0037,-0.0907 0.02203,-0.109149 0.04671,-0.04704 0.02233,0.0562 0.01958,0.123357 -0.0061,0.149228 -0.02569,0.02587 -0.04396,-0.02011 -0.0406,-0.102188 z m 3.256948,-0.0014 c -0.05482,-0.05992 -0.06557,-0.108938 -0.02389,-0.108938 0.08028,0 0.196486,0.148101 0.150633,0.191971 -0.01489,0.01424 -0.07192,-0.02312 -0.126745,-0.08304 z m 4.473464,-0.932927 c 0.0037,-0.0907 0.02203,-0.109149 0.0467,-0.04704 0.02233,0.0562 0.01958,0.123356 -0.0061,0.149227 -0.02569,0.02587 -0.04396,-0.02011 -0.0406,-0.102187 z m 69.728312,-1.479296 c 0.0037,-0.0907 0.02203,-0.109149 0.04671,-0.04704 0.02233,0.0562 0.01959,0.123356 -0.0061,0.149227 -0.02569,0.02587 -0.04396,-0.02011 -0.04061,-0.102187 z m -73.459507,-0.163489 c 0.0558,-0.02249 0.122479,-0.01973 0.148166,0.0061 0.02569,0.02587 -0.01997,0.04427 -0.101462,0.04089 -0.09005,-0.0037 -0.108372,-0.02218 -0.0467,-0.04704 z m 1.31417,0 c 0.0558,-0.02249 0.122479,-0.01973 0.148166,0.0061 0.02569,0.02587 -0.01997,0.04427 -0.101462,0.04089 -0.09005,-0.0037 -0.108372,-0.02218 -0.0467,-0.04704 z m 72.222641,-0.770808 c 0.0037,-0.0907 0.02203,-0.109148 0.04671,-0.04704 0.02233,0.0562 0.01959,0.123356 -0.0061,0.149228 -0.02569,0.02587 -0.04396,-0.02011 -0.04061,-0.102189 z m 0.0907,-1.472808 c 8.5e-4,-0.171286 0.01669,-0.232191 0.03518,-0.135343 0.01849,0.09685 0.01779,0.236992 -0.0015,0.311431 -0.01935,0.07444 -0.03448,-0.0048 -0.03362,-0.176088 z m -0.0073,-2.530374 c 0,-0.107054 0.01755,-0.150849 0.03899,-0.09732 0.02144,0.05353 0.02144,0.141117 0,0.194644 -0.02144,0.05353 -0.03899,0.0097 -0.03899,-0.09732 z m -77.439649,-3.445202 -0.147264,-0.17518 0.173934,0.148318 c 0.163456,0.139383 0.209127,0.202042 0.147264,0.202042 -0.01467,0 -0.09294,-0.07883 -0.173934,-0.17518 z m 1.881969,-0.577103 c 0.05315,-0.0216 0.140114,-0.0216 0.193261,0 0.05315,0.0216 0.0097,0.03927 -0.09663,0.03927 -0.106293,0 -0.149776,-0.01767 -0.09663,-0.03927 z m 3.874672,-0.162545 c -0.09616,-0.123487 -0.09342,-0.126241 0.02919,-0.0294 0.07441,0.05877 0.135283,0.120084 0.135283,0.136251 0,0.06408 -0.06348,0.02284 -0.164469,-0.106855 z m -4.79749,-0.695511 c 0.0558,-0.02249 0.122479,-0.01973 0.148167,0.0061 0.02569,0.02587 -0.01997,0.04427 -0.101462,0.04089 -0.09006,-0.0037 -0.108373,-0.02219 -0.04671,-0.04704 z m 6.508041,-0.131926 c 0,-0.01617 0.06088,-0.07748 0.135282,-0.136251 0.122609,-0.09685 0.125343,-0.09409 0.02919,0.0294 -0.100988,0.129691 -0.164469,0.170935 -0.164469,0.106855 z m 38.246213,-1.039076 c 0.138181,-0.01727 0.364296,-0.01727 0.502477,0 0.138181,0.01727 0.02512,0.0314 -0.251239,0.0314 -0.276362,0 -0.389419,-0.01413 -0.251238,-0.0314 z m 5.568926,-0.0014 c 0.267399,-0.01525 0.684841,-0.01512 0.92765,3.12e-4 0.242807,0.0154 0.02403,0.02788 -0.486181,0.02772 -0.510207,-1.56e-4 -0.708869,-0.01275 -0.441469,-0.028 z m 6.920514,-5.45e-4 c 0.6723,-0.01297 1.750692,-0.01295 2.396427,6e-5 0.645735,0.01301 0.09567,0.02362 -1.222364,0.02359 -1.318035,-3.4e-5 -1.846364,-0.01068 -1.174063,-0.02365 z m -50.806854,-0.220721 c 0.0037,-0.0907 0.02203,-0.109148 0.0467,-0.04704 0.02233,0.0562 0.01959,0.123356 -0.0061,0.149227 -0.02569,0.02587 -0.04396,-0.02011 -0.0406,-0.102187 z m -3.059616,-0.266014 c 0.07695,-0.08564 0.157312,-0.155715 0.178571,-0.155715 0.02126,0 -0.02431,0.07007 -0.101267,0.155715 -0.07695,0.08564 -0.157312,0.155716 -0.17857,0.155716 -0.02126,0 0.02431,-0.07007 0.101266,-0.155716 z m 2.652498,-1.688196 c 0.0558,-0.02249 0.122478,-0.01973 0.148166,0.0061 0.02569,0.02587 -0.01997,0.04427 -0.101462,0.04089 -0.09005,-0.0037 -0.108372,-0.02219 -0.0467,-0.04704 z m -6.247139,-0.409366 c 0,-0.04029 0.03439,-0.09467 0.07642,-0.12083 0.04382,-0.02728 0.05678,0.004 0.03038,0.07326 -0.05139,0.134882 -0.1068,0.159561 -0.1068,0.04757 z m 7.492648,-0.99728 -0.187409,-0.214109 0.212586,0.188751 c 0.198694,0.176417 0.248037,0.239466 0.187409,0.239466 -0.01385,0 -0.10951,-0.09635 -0.212586,-0.214108 z m 59.916544,-0.04886 c 0,-0.01617 0.06088,-0.07748 0.135282,-0.136251 0.122609,-0.09684 0.125343,-0.09409 0.02919,0.0294 -0.100988,0.129692 -0.164469,0.170935 -0.164469,0.106855 z m 1.099529,-1.693404 c -0.01538,-1.152991 -0.0025,-1.30627 0.11801,-1.401438 0.119281,-0.09422 0.124087,-0.09238 0.04063,0.01551 -0.06346,0.08204 -0.102347,0.543812 -0.11801,1.401438 l -0.02336,1.279078 z m -23.252664,-0.807574 c 5.4e-5,-0.9849 0.01113,-1.377077 0.02462,-0.871506 0.01348,0.505571 0.01344,1.311398 -7.8e-5,1.790726 -0.01354,0.479329 -0.02457,0.06568 -0.02452,-0.91922 z m 6.184329,0 c 5.4e-5,-0.9849 0.01113,-1.377077 0.02462,-0.871506 0.01349,0.505571 0.01344,1.311398 -7.7e-5,1.790726 -0.01354,0.479329 -0.02457,0.06568 -0.02452,-0.91922 z m 5.25668,0 c 5.4e-5,-0.9849 0.01113,-1.377077 0.02462,-0.871506 0.01349,0.505571 0.01344,1.311398 -7.7e-5,1.790726 -0.01354,0.479329 -0.02457,0.06568 -0.02452,-0.91922 z m -55.516707,0.997124 c 0.07521,-0.01974 0.179575,-0.01844 0.231912,0.0029 0.05234,0.02133 -0.0092,0.03748 -0.136753,0.03589 -0.127552,-0.0016 -0.170374,-0.01904 -0.09516,-0.03878 z m 0.351228,-0.466377 c 0.0558,-0.02249 0.122479,-0.01973 0.148167,0.0061 0.02569,0.02587 -0.01997,0.04427 -0.101462,0.04089 -0.09005,-0.0037 -0.108373,-0.02218 -0.0467,-0.04704 z m 0.536298,0.0016 c 0.05315,-0.0216 0.140113,-0.0216 0.19326,0 0.05315,0.0216 0.0097,0.03927 -0.09663,0.03927 -0.106293,0 -0.149777,-0.01767 -0.09663,-0.03927 z m 6.261633,-0.155715 c 0.05315,-0.0216 0.140114,-0.0216 0.193261,0 0.05315,0.0216 0.0097,0.03927 -0.09663,0.03927 -0.106294,0 -0.149777,-0.01767 -0.09663,-0.03927 z m 30.041227,-0.64908 c 0,-0.406806 0.01303,-0.573227 0.02895,-0.369824 0.01593,0.203403 0.01593,0.536245 0,0.739648 -0.01592,0.203403 -0.02895,0.03698 -0.02895,-0.369824 z m -30.222472,-0.01946 -0.147263,-0.17518 0.173934,0.148318 c 0.163455,0.139382 0.209126,0.202041 0.147264,0.202041 -0.01467,0 -0.09294,-0.07883 -0.173935,-0.175179 z m 0.654569,-0.272502 c -0.09616,-0.123487 -0.09342,-0.126241 0.02919,-0.0294 0.12877,0.101711 0.16972,0.165647 0.106095,0.165647 -0.01605,0 -0.07693,-0.06131 -0.135282,-0.136251 z m 59.442234,-0.773369 c 0.0558,-0.02249 0.122479,-0.01972 0.148167,0.0061 0.02569,0.02587 -0.01997,0.04427 -0.101462,0.04089 -0.09005,-0.0037 -0.108372,-0.02219 -0.0467,-0.04704 z m -58.575924,-0.459378 c 0.0037,-0.0907 0.02203,-0.109148 0.0467,-0.04704 0.02233,0.0562 0.01958,0.123356 -0.0061,0.149228 -0.02569,0.02587 -0.04396,-0.02011 -0.0406,-0.102188 z m -0.479789,-1.102984 c -0.09616,-0.123486 -0.09342,-0.12624 0.02919,-0.02939 0.0744,0.05877 0.135282,0.120083 0.135282,0.13625 0,0.06408 -0.06348,0.02284 -0.164469,-0.106855 z m 2.237186,-2.096949 c 0.0558,-0.02249 0.122478,-0.01973 0.148166,0.0061 0.02569,0.02587 -0.01997,0.04427 -0.101461,0.04089 -0.09006,-0.0037 -0.108373,-0.02218 -0.04671,-0.04704 z M -39.3026,23.500477 c 0.0037,-0.0907 0.02203,-0.109149 0.0467,-0.04704 0.02233,0.0562 0.01958,0.123356 -0.0061,0.149228 -0.02569,0.02587 -0.04396,-0.02011 -0.0406,-0.102188 z m -8.812669,-0.311431 c 0.0037,-0.0907 0.02203,-0.109149 0.0467,-0.04704 0.02233,0.0562 0.01958,0.123355 -0.0061,0.149227 -0.02569,0.02587 -0.04396,-0.02011 -0.0406,-0.102188 z M -89.74764,22.146491 c -0.251342,-0.25581 -0.441581,-0.475859 -0.422753,-0.488996 0.01883,-0.01314 0.240013,0.196162 0.491524,0.46511 0.580781,0.621048 0.533942,0.637316 -0.06877,0.02389 z m 8.51169,-0.218925 c -0.02065,-0.03365 0.02693,-0.06117 0.105718,-0.06117 0.07879,0 0.126365,0.02753 0.105718,0.06117 -0.02065,0.03365 -0.06822,0.06117 -0.105718,0.06117 -0.0375,0 -0.08507,-0.02753 -0.105718,-0.06117 z m 33.352593,-0.684962 c 0.0037,-0.0907 0.02203,-0.109149 0.0467,-0.04704 0.02233,0.0562 0.01958,0.123355 -0.0061,0.149227 -0.02569,0.02587 -0.04396,-0.02011 -0.0406,-0.102188 z m -31.778096,-0.996129 c 0,-0.01617 0.06088,-0.07748 0.135282,-0.136251 0.122609,-0.09684 0.125343,-0.09409 0.02919,0.0294 -0.100988,0.129692 -0.164469,0.170935 -0.164469,0.106855 z m -5.217481,-0.281143 c -0.02708,-0.04414 0.004,-0.05719 0.07274,-0.0306 0.133923,0.05176 0.158426,0.107565 0.04723,0.107565 -0.04001,0 -0.094,-0.03463 -0.119971,-0.07697 z m 6.067826,-0.497434 c 0,-0.01617 0.06088,-0.07748 0.135282,-0.136251 0.122609,-0.09684 0.125343,-0.09409 0.02919,0.0294 -0.100988,0.129692 -0.164469,0.170935 -0.164469,0.106855 z m 31.159663,-0.171736 c 0.0037,-0.0907 0.02203,-0.109148 0.0467,-0.04704 0.02233,0.0562 0.01958,0.123355 -0.0061,0.149227 -0.02569,0.02587 -0.04396,-0.02011 -0.0406,-0.102188 z m -33.024823,-0.869411 c -0.09616,-0.123487 -0.09342,-0.12624 0.02919,-0.0294 0.12877,0.101711 0.16972,0.165647 0.106095,0.165647 -0.01605,0 -0.07693,-0.06131 -0.135282,-0.136251 z m 0.618433,-0.622861 c -0.09616,-0.123487 -0.09342,-0.126241 0.02919,-0.0294 0.0744,0.05877 0.135282,0.120084 0.135282,0.136251 0,0.06408 -0.06348,0.02284 -0.164469,-0.106855 z m 3.024722,0.029 c 0,-0.01617 0.06088,-0.07748 0.135282,-0.136251 0.122609,-0.09685 0.125343,-0.09409 0.02919,0.0294 -0.100988,0.129692 -0.164469,0.170935 -0.164469,0.106855 z m -4.4935,-0.340428 c -0.09616,-0.123487 -0.09342,-0.126241 0.02919,-0.0294 0.0744,0.05877 0.135282,0.120084 0.135282,0.136251 0,0.06408 -0.06348,0.02284 -0.164469,-0.106855 z m 4.479005,-0.07265 c 0.0558,-0.02249 0.122479,-0.01973 0.148167,0.0061 0.02569,0.02587 -0.01997,0.04427 -0.101462,0.04089 -0.09006,-0.0037 -0.108373,-0.02219 -0.04671,-0.04704 z m 29.628076,-0.07009 c 0.0037,-0.0907 0.02203,-0.109148 0.0467,-0.04704 0.02233,0.0562 0.01958,0.123355 -0.0061,0.149228 -0.02569,0.02587 -0.04396,-0.02011 -0.0406,-0.102188 z m 7.343891,-0.31143 c 0.0037,-0.0907 0.02203,-0.109149 0.0467,-0.04704 0.02233,0.0562 0.01958,0.123357 -0.0061,0.149228 -0.02569,0.02587 -0.04396,-0.02011 -0.0406,-0.102188 z m -40.755235,-0.09083 c -0.09616,-0.123486 -0.09342,-0.12624 0.02919,-0.0294 0.128769,0.10171 0.16972,0.165646 0.106095,0.165646 -0.01605,0 -0.07693,-0.06131 -0.135282,-0.136251 z m -1.468778,-0.31143 c -0.09616,-0.123487 -0.09342,-0.126241 0.02919,-0.0294 0.128769,0.101711 0.169719,0.165647 0.106095,0.165647 -0.01605,0 -0.07693,-0.06131 -0.135282,-0.136251 z m 0.618433,-0.622862 c -0.09616,-0.123487 -0.09342,-0.12624 0.02919,-0.0294 0.128769,0.101711 0.169719,0.165647 0.106095,0.165647 -0.01605,0 -0.07693,-0.06131 -0.135282,-0.136251 z m 0.943613,-0.220596 c 0.0037,-0.0907 0.02203,-0.109149 0.0467,-0.04704 0.02233,0.0562 0.01959,0.123355 -0.0061,0.149227 -0.02569,0.02587 -0.04396,-0.02011 -0.0406,-0.102188 z M -83.15,15.701733 c -0.09616,-0.123487 -0.09342,-0.126241 0.02919,-0.0294 0.12877,0.101711 0.16972,0.165647 0.106096,0.165647 -0.01605,0 -0.07693,-0.06131 -0.135283,-0.136251 z m 3.108129,-0.298454 c 0.0037,-0.0907 0.02203,-0.109149 0.0467,-0.04704 0.02233,0.0562 0.01958,0.123356 -0.0061,0.149228 -0.02569,0.02587 -0.04396,-0.02011 -0.0406,-0.102188 z m 32.854251,0 c 0.0037,-0.0907 0.02203,-0.109149 0.0467,-0.04704 0.02233,0.0562 0.01958,0.123356 -0.0061,0.149228 -0.02569,0.02587 -0.04396,-0.02011 -0.0406,-0.102188 z m -35.343947,-0.324408 c -0.09616,-0.123486 -0.09342,-0.12624 0.02919,-0.0294 0.12877,0.101711 0.16972,0.165647 0.106096,0.165647 -0.01605,0 -0.07693,-0.06131 -0.135283,-0.136251 z M -84.2997,14.40715 c 0,-0.01617 0.06088,-0.07748 0.135282,-0.136251 0.122609,-0.09685 0.125343,-0.09409 0.02919,0.0294 -0.100988,0.129691 -0.164469,0.170934 -0.164469,0.106855 z m 0.995092,-0.184713 c -0.09616,-0.123487 -0.09342,-0.126241 0.02919,-0.0294 0.128769,0.101711 0.16972,0.165647 0.106095,0.165647 -0.01605,0 -0.07693,-0.06131 -0.135282,-0.136251 z m 7.266587,0 c -0.09387,-0.120553 -0.09192,-0.125116 0.01697,-0.0396 0.06769,0.05316 0.151535,0.07067 0.186328,0.03893 0.03479,-0.03174 0.03824,-0.01392 0.0077,0.0396 -0.07188,0.125794 -0.0845,0.123464 -0.210953,-0.03893 z m 34.963529,-0.486611 c 0,-0.107054 0.01755,-0.150849 0.03899,-0.09732 0.02144,0.05353 0.02144,0.141117 0,0.194644 -0.02145,0.05353 -0.03899,0.0097 -0.03899,-0.09732 z m -41.698452,-0.05156 c 0.05315,-0.0216 0.140114,-0.0216 0.19326,0 0.05315,0.0216 0.0097,0.03927 -0.09663,0.03927 -0.106293,0 -0.149777,-0.01767 -0.09663,-0.03927 z m 5.436717,-0.850288 c 0.0037,-0.0907 0.02203,-0.109149 0.0467,-0.04704 0.02233,0.0562 0.01959,0.123356 -0.0061,0.149227 -0.02569,0.02587 -0.04396,-0.02011 -0.0406,-0.102188 z m -0.521464,-1.391525 c 0,-0.06235 0.02956,-0.09496 0.06568,-0.07248 0.03612,0.02249 0.04567,0.0735 0.0212,0.113362 -0.06251,0.101867 -0.08689,0.0904 -0.08689,-0.04088 z m 0.757966,-0.224022 c -0.06455,-0.07833 -0.05822,-0.10381 0.02579,-0.10381 0.06123,0 0.09525,0.0262 0.07559,0.05823 -0.01965,0.03203 0.008,0.07598 0.06138,0.09766 0.06051,0.02457 0.06426,0.04175 0.0099,0.04558 -0.04794,0.0034 -0.125659,-0.04057 -0.172707,-0.09766 z"
         id="path956" />
      <path
         style="fill:#000000;stroke-width:0.0775804"
         d="m 38.984962,78.80945 c 0,-0.03818 0.081,-0.08989 0.180007,-0.11492 0.356894,-0.09022 0.370047,-0.240053 0.312712,-3.562516 -0.03464,-2.007256 -0.08387,-3.167059 -0.139243,-3.280102 -0.04711,-0.09618 -0.163309,-0.209465 -0.258218,-0.251735 -0.09491,-0.04227 -0.172562,-0.103584 -0.172562,-0.136251 0,-0.03267 0.481871,-0.0594 1.070826,-0.0594 0.985796,0 1.091537,0.01406 1.331656,0.177033 0.559902,0.38002 0.82009,1.122094 0.744981,2.124742 -0.08756,1.168837 -0.585779,1.744828 -1.510592,1.74639 l -0.257081,4.67e-4 0.05443,1.459832 c 0.02994,0.802907 0.08383,1.517114 0.119759,1.587126 0.03593,0.07001 0.153212,0.149511 0.260627,0.176663 0.107414,0.02712 0.195299,0.0837 0.195299,0.12571 0,0.04585 -0.386148,0.07637 -0.966301,0.07637 -0.531466,0 -0.966302,-0.03124 -0.966302,-0.06942 z m 1.773781,-3.821195 c 0.258683,-0.139434 0.390735,-0.647425 0.390735,-1.503121 0,-0.438339 -0.03396,-0.916226 -0.07546,-1.061971 -0.09788,-0.34375 -0.36794,-0.629344 -0.595101,-0.629344 h -0.179786 v 1.635011 c 0,1.600451 0.0034,1.635011 0.15969,1.635011 0.08783,0 0.222795,-0.03401 0.299921,-0.07559 z m -5.291118,3.667106 c -0.821639,-0.513954 -1.17636,-1.634126 -1.098717,-3.46963 0.121038,-2.861339 1.426918,-4.643775 2.882328,-3.934178 1.261873,0.615237 1.540689,3.829472 0.525907,6.062764 -0.31489,0.692999 -0.700578,1.186863 -1.061667,1.359438 -0.360704,0.17239 -0.956901,0.163602 -1.247851,-0.01839 z m 1.06938,-0.475998 c 0.518129,-0.620172 0.907668,-2.573866 0.923903,-4.633746 0.0091,-1.154184 -0.08435,-1.592977 -0.408871,-1.919817 -0.259858,-0.261717 -0.447891,-0.278362 -0.718928,-0.06364 -0.586112,0.464336 -1.058745,2.596469 -1.058745,4.776187 0,1.462947 0.236949,2.073371 0.804822,2.073371 0.197784,0 0.312213,-0.05808 0.457819,-0.232358 z m 6.741752,0.471497 c -0.0244,-0.03976 0.03372,-0.08355 0.129164,-0.09732 0.353882,-0.05105 0.350911,-0.26598 -0.04861,-3.514927 -0.206289,-1.677581 -0.405575,-3.13215 -0.442856,-3.232375 -0.03728,-0.100224 -0.171809,-0.221773 -0.29895,-0.270107 -0.237036,-0.09011 -0.310892,-0.209456 -0.12962,-0.209456 0.05585,0 0.482829,-0.05065 0.948843,-0.112554 1.078435,-0.143256 1.362544,-0.08727 1.745589,0.343997 0.485994,0.547173 0.70969,1.573665 0.531417,2.438551 -0.140148,0.679925 -0.517783,1.055924 -1.182205,1.177083 -0.15944,0.02907 -0.289851,0.07755 -0.289803,0.107728 2.32e-4,0.122942 0.31036,2.483778 0.351726,2.677182 0.0526,0.245905 0.192298,0.379243 0.415051,0.396142 0.08843,0.0067 0.160785,0.05099 0.160785,0.0984 0,0.05142 -0.319722,0.123452 -0.792367,0.178519 -0.950912,0.110788 -1.040966,0.112358 -1.098168,0.01914 z m 1.229987,-3.868955 c 0.324345,-0.125355 0.467056,-0.813245 0.348952,-1.682007 -0.138719,-1.020399 -0.429243,-1.539652 -0.861441,-1.539652 -0.120141,0 -0.218293,0.0088 -0.218116,0.01946 1.55e-4,0.01071 0.087,0.702666 0.192939,1.537689 0.105939,0.835024 0.192762,1.56202 0.192939,1.615547 3.86e-4,0.105363 0.14546,0.125971 0.344727,0.04896 z m 1.897414,3.550703 c 0,-0.04515 0.06088,-0.175618 0.135282,-0.289941 0.121761,-0.187085 0.140812,-0.569137 0.190606,-3.82259 0.03043,-1.988101 0.06522,-3.624226 0.0773,-3.635832 0.01209,-0.01161 0.419688,0.842651 0.905774,1.898351 1.785879,3.878641 2.229333,4.75834 2.439165,4.83869 0.106908,0.04094 0.194379,0.103735 0.194379,0.13955 0,0.03582 -0.400049,0.15339 -0.888998,0.261275 -0.641925,0.14164 -0.888997,0.169878 -0.888997,0.101604 0,-0.052 0.06957,-0.112876 0.154608,-0.135272 0.11233,-0.02958 0.154608,-0.106199 0.154608,-0.28017 0,-0.31555 -0.574836,-1.565855 -0.719911,-1.565855 -0.06131,0 -0.359244,0.05636 -0.66208,0.125234 l -0.550612,0.125234 v 0.696138 c 0,0.822225 0.117518,1.131984 0.443794,1.169776 0.329208,0.03813 0.226191,0.170796 -0.209568,0.269883 -0.216392,0.04921 -0.479371,0.111186 -0.584397,0.137734 -0.112626,0.02847 -0.190957,0.0146 -0.190957,-0.03381 z m 1.219253,-2.769196 c 0.18164,-0.02908 0.350769,-0.08631 0.375839,-0.127163 0.04306,-0.07017 -0.845443,-2.118174 -0.987432,-2.276028 -0.03745,-0.04163 -0.06653,0.498137 -0.06653,1.234699 v 1.308664 l 0.173935,-0.04365 c 0.09566,-0.02401 0.322549,-0.06744 0.50419,-0.09652 z m -17.124774,2.127444 c -0.953671,-0.227295 -1.126459,-0.313733 -0.76171,-0.38105 0.315584,-0.05824 0.433949,-0.411379 1.08354,-3.232699 0.84066,-3.651171 0.803377,-3.400645 0.542338,-3.644301 -0.116485,-0.108727 -0.196262,-0.213328 -0.17728,-0.232445 0.05558,-0.05597 1.993903,0.415551 2.29004,0.557083 0.3663,0.175066 0.556022,0.608483 0.558236,1.275281 0.0032,0.954366 -0.386384,1.741126 -0.966746,1.95249 -0.314023,0.114366 -0.324073,0.148193 -0.102896,0.346376 0.763204,0.683862 0.482683,2.711592 -0.462257,3.341402 -0.43835,0.292164 -0.837437,0.295723 -2.003265,0.01786 z m 1.374722,-0.517978 c 0.362366,-0.383654 0.539115,-0.885503 0.593377,-1.684797 0.0328,-0.483194 0.01463,-0.681234 -0.07933,-0.864216 -0.122783,-0.239137 -0.588214,-0.533119 -0.683919,-0.431988 -0.0667,0.07048 -0.682853,2.71807 -0.682853,2.9342 0,0.444963 0.45316,0.469834 0.852721,0.0468 z m 0.535129,-3.469659 c 0.286191,-0.149054 0.50969,-0.520501 0.657814,-1.09326 0.226756,-0.876809 0.103564,-1.485454 -0.337943,-1.669642 -0.134145,-0.05596 -0.257614,-0.08794 -0.274374,-0.07106 -0.03637,0.03663 -0.660306,2.743681 -0.660306,2.864832 0,0.121218 0.357231,0.10328 0.614809,-0.03087 z m 18.402004,3.592644 c 0,-0.05082 0.06957,-0.136169 0.154609,-0.189654 0.08624,-0.05424 0.154608,-0.181565 0.154608,-0.287923 0,-0.336562 -1.984429,-6.038196 -2.171293,-6.238527 -0.127162,-0.136327 -0.221651,-0.171685 -0.363194,-0.135905 -0.13876,0.03508 -0.181954,0.02008 -0.157237,-0.0546 0.03581,-0.108213 1.561633,-0.657502 2.140948,-0.770733 0.189127,-0.03697 0.44214,-0.03609 0.573962,0.002 0.957056,0.276446 1.715779,2.340143 1.209874,3.290811 -0.09961,0.187179 -0.13269,0.33126 -0.08912,0.388136 0.882728,1.152267 2.058839,2.533262 2.220669,2.607525 0.116247,0.05334 0.194769,0.113698 0.174494,0.134119 -0.02028,0.02042 -0.275872,0.118329 -0.567993,0.217574 L 53.561691,76.439133 52.41751,75.01487 c -0.794797,-0.989355 -1.179133,-1.410755 -1.258644,-1.380025 -0.06296,0.02433 -0.114463,0.05302 -0.114463,0.06375 0,0.108526 0.887637,2.615657 0.972646,2.747238 0.07667,0.118674 0.189484,0.17518 0.349748,0.17518 0.44657,0 0.184051,0.181135 -0.689308,0.475614 -0.556339,0.187588 -0.864999,0.258687 -0.864999,0.199254 z m 0.634856,-4.191898 c 0.404757,-0.287079 0.351312,-1.139137 -0.135646,-2.162523 -0.358932,-0.754329 -0.684139,-0.96494 -1.252925,-0.811419 -0.09566,0.02582 -0.173934,0.08545 -0.173934,0.132501 0,0.04706 0.231156,0.761955 0.513681,1.588667 0.565168,1.653769 0.534724,1.617406 1.048824,1.252774 z m -25.812853,3.028544 c -0.476218,-0.217398 -0.848045,-0.424286 -0.826281,-0.459751 0.02176,-0.03547 0.122917,-0.04342 0.224786,-0.01767 0.136848,0.03459 0.231501,-0.0043 0.362457,-0.148968 0.172778,-0.190857 2.577915,-5.563635 2.517716,-5.624265 -0.01666,-0.01678 -0.914916,1.196154 -1.996121,2.69541 -1.081207,1.499256 -1.975277,2.697377 -1.986823,2.662491 -0.01155,-0.03489 0.274951,-1.513601 0.636659,-3.286032 0.361709,-1.772431 0.642361,-3.238002 0.623673,-3.256824 -0.01869,-0.01882 -0.08365,0.08343 -0.144351,0.22723 -0.0607,0.143799 -0.581085,1.330049 -1.156402,2.636112 -0.575316,1.306062 -1.068238,2.482066 -1.095382,2.61334 -0.03696,0.178761 -0.0076,0.292181 0.117081,0.451783 0.09154,0.117204 0.14584,0.23384 0.12067,0.259189 -0.02517,0.02535 -0.306759,-0.06852 -0.625757,-0.208604 -0.565396,-0.248282 -0.680728,-0.39069 -0.31641,-0.39069 0.09907,0 0.254775,-0.06131 0.346003,-0.13625 0.20147,-0.165497 2.642672,-5.649321 2.651551,-5.956347 0.0034,-0.117888 -0.05686,-0.284524 -0.133939,-0.370301 -0.23989,-0.266974 -0.08491,-0.247453 0.61732,0.07776 0.646632,0.299461 0.675811,0.323728 0.633915,0.527185 -0.802368,3.896474 -0.951833,4.694771 -0.86163,4.601978 0.05696,-0.05859 0.717896,-0.964912 1.468752,-2.014044 0.783497,-1.094739 1.409548,-1.898205 1.46929,-1.885668 0.05725,0.01202 0.367007,0.142515 0.688342,0.290001 0.58977,0.270691 0.773093,0.461949 0.363749,0.379494 -0.175179,-0.03529 -0.252844,-0.003 -0.377887,0.157107 -0.208294,0.266699 -2.648389,5.807008 -2.648389,6.013247 0,0.08816 0.06957,0.223706 0.154608,0.301212 0.15496,0.141241 0.205306,0.279218 0.09663,0.264821 -0.03189,-0.0042 -0.447611,-0.18555 -0.92383,-0.402946 z m 29.73894,-0.504935 c 0,-0.03252 0.06957,-0.102891 0.154609,-0.156376 0.08503,-0.05348 0.154608,-0.176975 0.154608,-0.274423 0,-0.221119 -2.659688,-5.711143 -2.886744,-5.958703 -0.123099,-0.134216 -0.220425,-0.170142 -0.376018,-0.138801 -0.479745,0.09664 -0.229845,-0.110712 0.654785,-0.54329 0.803797,-0.393052 1.004047,-0.460283 1.368906,-0.45959 0.57618,0.0011 0.93961,0.192655 1.548287,0.81609 0.898734,0.920524 1.687659,2.523449 1.871386,3.802252 0.108055,0.752095 0.03884,1.219238 -0.24818,1.675066 -0.198934,0.315933 -0.335611,0.413857 -1.155142,0.827617 -0.915945,0.462437 -1.086497,0.526821 -1.086497,0.410158 z m 1.629333,-1.180605 c 0.28015,-0.282157 0.296673,-0.643995 0.06789,-1.48685 -0.203056,-0.74808 -1.034513,-2.481945 -1.551106,-3.234574 -0.63692,-0.927936 -1.099101,-1.245903 -1.607744,-1.106086 -0.152744,0.04199 -0.286761,0.08471 -0.297818,0.09493 -0.04455,0.04121 2.720918,5.622351 2.866475,5.784983 0.202301,0.226033 0.250664,0.221181 0.522303,-0.0524 z m -38.098257,-1.64058 c -0.430495,-0.264355 -0.574647,-0.581592 -0.53678,-1.181299 0.04324,-0.684865 0.249314,-1.087038 1.813619,-3.539506 0.686352,-1.076041 1.271153,-2.0497 1.299559,-2.163688 0.03556,-0.142675 0.01109,-0.252382 -0.07851,-0.352099 -0.07845,-0.0873 -0.09959,-0.163873 -0.05322,-0.192736 0.101703,-0.06331 1.651897,0.952146 1.595027,1.044821 -0.02606,0.04246 -0.122078,0.03592 -0.235288,-0.01603 -0.163977,-0.07525 -0.219555,-0.061 -0.389565,0.09986 -0.227361,0.215125 -2.556458,3.833638 -2.943837,4.573581 -0.333968,0.637922 -0.352523,1.09526 -0.05403,1.331736 0.435346,0.344896 1.021869,0.09804 1.640803,-0.690576 0.321305,-0.409391 2.374268,-3.603253 2.590266,-4.02976 0.1586,-0.31317 0.161324,-0.597757 0.007,-0.726788 -0.07026,-0.05873 -0.09079,-0.128314 -0.04997,-0.169425 0.04082,-0.04111 0.280281,0.06573 0.583057,0.260141 0.528183,0.339143 0.658497,0.510485 0.323928,0.425912 -0.317474,-0.08025 -0.655619,0.314139 -1.748524,2.039358 -0.561697,0.886676 -1.143857,1.787317 -1.293688,2.001426 -0.865632,1.236986 -1.776406,1.710873 -2.46981,1.285072 z m -3.082783,-2.42084 c -0.376798,-0.302624 -0.717554,-0.581965 -0.757237,-0.620758 -0.119424,-0.116748 0.0086,-0.169875 0.182952,-0.07591 0.127884,0.06893 0.207867,0.06059 0.373815,-0.03897 0.116116,-0.06967 0.906858,-1.006289 1.757203,-2.081387 2.555359,-3.230761 2.519032,-3.17411 2.236784,-3.488224 -0.06655,-0.07406 -0.09054,-0.153606 -0.05333,-0.176771 0.06703,-0.04172 1.504575,1.067179 1.551563,1.196855 0.01343,0.03707 -0.100411,0.047 -0.252987,0.02206 -0.20747,-0.03391 -0.31922,-0.0083 -0.443242,0.101384 -0.155985,0.138011 -3.587339,4.439583 -3.872802,4.854973 -0.164664,0.239611 -0.168535,0.455618 -0.0113,0.630606 0.06934,0.07716 0.08954,0.154229 0.04733,0.180505 -0.04051,0.02522 -0.381953,-0.201748 -0.758751,-0.504372 z m -2.504742,-1.975532 c -0.230291,-0.126187 -0.358649,-0.35106 -0.446128,-0.781584 -0.06044,-0.297453 -0.076,-0.311038 -0.346729,-0.302681 l -0.28345,0.0087 0.45643,-0.514824 c 0.251036,-0.283153 0.689813,-0.742558 0.975059,-1.020899 l 0.51863,-0.506075 -0.332648,0.501919 c -0.825025,1.244846 -0.870496,2.339886 -0.09716,2.339886 0.343244,0 0.637868,-0.159374 0.944184,-0.510747 0.372552,-0.427352 0.415726,-0.596324 0.466302,-1.824983 0.04356,-1.058151 0.06196,-1.16214 0.293515,-1.658494 0.462901,-0.992262 1.546009,-1.845101 2.343281,-1.845101 0.485102,0 0.745128,0.252995 0.816431,0.794356 0.05713,0.43375 0.190757,0.539698 0.418678,0.331955 0.08345,-0.07606 0.151729,-0.11238 0.151729,-0.08071 0,0.07599 -1.563737,1.765443 -1.600139,1.728779 -0.01547,-0.01558 0.09566,-0.216996 0.246941,-0.447597 0.266411,-0.406087 0.502852,-1.033284 0.502852,-1.333888 0,-0.171035 -0.140427,-0.461724 -0.26281,-0.544027 -0.315041,-0.211864 -0.977925,0.104604 -1.292337,0.616978 -0.161479,0.263148 -0.184193,0.417596 -0.226531,1.540289 -0.04337,1.149934 -0.06383,1.283199 -0.260816,1.698909 -0.606758,1.280437 -2.194595,2.24304 -2.985282,1.809785 z m -2.00284,-2.233467 c -0.299853,-0.348909 -0.545187,-0.664232 -0.545187,-0.70072 0,-0.09224 0.107268,-0.08288 0.207535,0.01811 0.177302,0.178571 0.446388,0.02841 0.848945,-0.473738 0.661904,-0.825659 0.655737,-0.769529 0.148478,-1.351441 l -0.43961,-0.504308 -0.479305,0.27201 c -0.782856,0.444279 -1.053219,0.758817 -0.900034,1.047094 0.185304,0.348723 -0.06082,0.276368 -0.4076577,-0.119845 -0.4656329,-0.531915 -0.4871649,-0.625911 -0.137913,-0.602053 0.337385,0.02305 0.6429897,-0.124306 4.0210667,-1.938843 1.448826,-0.778237 2.645691,-1.401997 2.659701,-1.386133 0.01401,0.01587 -0.774239,1.11496 -1.751665,2.442433 -2.179853,2.960531 -2.554714,3.52137 -2.510247,3.75565 0.06231,0.328308 -0.161693,0.184572 -0.714107,-0.458216 z m 2.153699,-3.374405 c 0.395993,-0.540345 0.707354,-0.993899 0.691914,-1.007899 -0.03611,-0.03274 -2.227133,1.1495 -2.229475,1.202993 -0.0037,0.08514 0.709828,0.854418 0.762255,0.821784 0.03043,-0.01894 0.379314,-0.476534 0.775306,-1.016878 z M 8.8363564,63.34915 c 0,-0.01982 0.7872809,-1.282345 1.7495126,-2.805608 0.962233,-1.523264 1.736241,-2.781384 1.720017,-2.795823 -0.04645,-0.04134 -3.9354016,2.728437 -4.2264556,3.010157 -0.227339,0.220048 -0.256148,0.290335 -0.223231,0.544621 0.02479,0.191528 0.0071,0.291118 -0.05148,0.289501 -0.09766,-0.0027 -0.788478,-0.993217 -0.732215,-1.049882 0.01909,-0.01922 0.144081,0.0066 0.277765,0.05745 0.346514,0.131731 0.470687,0.06002 3.0790146,-1.778101 2.338348,-1.647865 2.639439,-1.921703 2.561934,-2.330048 -0.02174,-0.114556 -2.32e-4,-0.191275 0.05371,-0.191275 0.0991,0 0.765606,0.913807 0.763072,1.04621 -8.74e-4,0.0455 -0.585049,0.986312 -1.298174,2.090695 -0.713125,1.104383 -1.283497,2.02115 -1.267493,2.037261 0.04066,0.04093 2.823332,-1.926461 3.09351,-2.187163 0.167484,-0.161608 0.221014,-0.285162 0.221014,-0.510124 0,-0.163276 0.02609,-0.295609 0.05798,-0.294073 0.09059,0.0044 0.709014,0.956226 0.666387,1.025694 -0.02091,0.03407 -0.103187,0.02681 -0.182846,-0.01613 -0.07966,-0.04294 -0.227615,-0.07807 -0.32879,-0.07807 -0.21401,0 -0.4417,0.150362 -3.534852,2.33435 -1.2746797,0.900015 -2.3357746,1.636391 -2.3579906,1.636391 -0.02222,0 -0.04039,-0.01622 -0.04039,-0.03604 z m -3.128918,-5.098752 c -0.400695,-0.804684 -0.464211,-1.124834 -0.154858,-0.780555 0.07605,0.08463 0.210159,0.153879 0.298024,0.153879 0.185738,0 5.6639736,-2.669343 5.5540026,-2.706263 -0.04051,-0.0136 -1.5220027,0.340274 -3.2922076,0.786387 -1.770204,0.446113 -3.21655,0.789057 -3.214102,0.762098 0.0024,-0.02696 1.168806,-0.973545 2.591905,-2.103523 1.4231,-1.129979 2.5732166,-2.068846 2.5558186,-2.08637 -0.0174,-0.01752 -1.1935846,0.541432 -2.6137446,1.242124 -2.621487,1.293413 -2.985649,1.527638 -2.898277,1.864141 0.01986,0.0765 0.0057,0.158016 -0.03144,0.181143 -0.07198,0.04481 -0.649103,-1.044309 -0.586686,-1.107173 0.0203,-0.02044 0.127299,0.02248 0.237777,0.09539 0.138154,0.09117 0.27766,0.11709 0.446812,0.08302 0.339891,-0.06846 5.4692206,-2.590388 5.6913156,-2.798233 0.127223,-0.11906 0.170761,-0.231135 0.148672,-0.382714 -0.0591,-0.405566 0.138727,-0.215805 0.464304,0.445368 l 0.32486,0.659719 -1.9370866,1.537724 c -1.065398,0.845747 -1.904177,1.548772 -1.863954,1.562275 0.04022,0.0135 1.104425,-0.241364 2.3648939,-0.566372 1.2604677,-0.325008 2.3175387,-0.574879 2.3490447,-0.555267 0.100357,0.06247 0.667566,1.29032 0.61877,1.339467 -0.02576,0.02595 -0.122326,-0.02886 -0.214587,-0.121778 -0.125227,-0.126124 -0.21994,-0.155956 -0.373637,-0.117687 -0.343297,0.08548 -5.6040136,2.689303 -5.7969756,2.86925 -0.134229,0.125176 -0.169007,0.222027 -0.137215,0.382125 0.08685,0.437383 -0.118877,0.190329 -0.531431,-0.638169 z M 69.817339,52.557694 C 68.304107,52.36876 67.006491,51.90485 64.246667,50.566129 62.119008,49.534054 61.076183,49.137904 59.982231,48.946147 57.923469,48.58527 55.887933,49.065345 53.61736,50.447283 l -0.789773,0.480679 h -2.728971 -2.728971 l -5.216621,-8.657052 -5.216621,-8.657051 -0.02239,-0.604377 -0.02239,-0.604377 -0.445807,-0.0231 -0.445807,-0.0231 1.994958,-2.824639 1.994957,-2.82464 v -0.69842 -0.69842 h 0.309216 0.309217 v 0.668155 0.668154 l 2.088711,2.854906 2.088711,2.854904 -0.465324,0.02318 -0.465325,0.02318 v 4.083814 4.083812 h 0.502477 0.502476 v -1.128936 -1.128936 h -0.270564 c -0.148811,0 -0.270565,-0.01216 -0.270565,-0.02703 0,-0.01487 0.606688,-1.319955 1.348194,-2.900198 l 1.348194,-2.873171 0.468453,-0.02318 0.468453,-0.02318 v -2.215226 -2.215228 h -0.19326 -0.193261 v -1.764782 -1.764781 l 0.517636,-0.979702 0.517634,-0.979702 0.667531,-5.527894 c 0.561333,-4.648452 0.651159,-5.547451 0.564623,-5.650812 -0.265914,-0.317617 0.01441,-0.837835 0.399082,-0.740598 0.295737,0.07476 0.414433,0.392126 0.252762,0.675838 -0.122033,0.214155 -0.09714,0.470876 0.553424,5.706714 l 0.681207,5.482472 0.551391,1.052214 0.551391,1.052214 v 1.719409 1.71941 h -0.231913 -0.231912 v 2.218943 2.218944 h 0.888997 0.888998 v -2.218944 -2.218943 h -0.193261 -0.19326 v -1.788104 -1.788103 l 0.508822,-0.95638 0.508822,-0.95638 0.664286,-5.516573 c 0.528751,-4.391024 0.64575,-5.546467 0.573435,-5.663089 -0.309813,-0.499643 0.202434,-1.02111 0.604887,-0.615775 0.185809,0.187138 0.198561,0.411756 0.03285,0.578651 -0.110805,0.111598 -0.06218,0.620313 0.540621,5.656068 l 0.662377,5.533439 0.541636,0.976952 0.541637,0.976951 v 1.781171 1.781172 h -0.19326 -0.193261 v 2.218943 2.218944 l 2.377102,2.34e-4 2.377102,2.33e-4 1.101583,2.866358 c 0.605871,1.576449 1.101584,2.890204 1.101584,2.919406 0,0.0292 -0.121754,0.05309 -0.270564,0.05309 h -0.270565 v 1.128936 1.128936 h 0.850346 0.850345 V 39.44395 38.315014 h -0.278835 c -0.217154,0 -0.268907,-0.02606 -0.233955,-0.117795 0.02468,-0.06479 0.449922,-1.133384 0.944972,-2.374659 l 0.90009,-2.256865 h 0.686687 0.686685 v -0.587799 c 0,-0.346177 -0.04384,-0.674221 -0.106646,-0.798041 -0.246581,-0.486111 -0.235712,-0.698096 0.06058,-1.181565 0.296296,-0.483476 0.331014,-0.700911 0.188438,-1.180194 -0.06804,-0.228729 -0.06781,-0.374041 9.58e-4,-0.60521 0.09298,-0.312582 0.543653,-0.785797 0.748358,-0.785797 0.170241,0 0.167692,-2.582601 -0.0027,-2.725019 -0.151101,-0.126301 -0.148264,-0.423484 0.0055,-0.578371 0.143759,-0.144789 0.504761,-0.1612 0.636102,-0.02892 0.129583,0.130511 0.115812,0.491102 -0.02319,0.60729 -0.09442,0.07893 -0.115956,0.333411 -0.115956,1.37046 v 1.273536 l 0.312249,0.160439 c 0.171737,0.08824 0.382395,0.272891 0.468128,0.410335 0.157061,0.251792 0.161607,0.465273 0.0277,1.300975 -0.03581,0.223488 0.0058,0.349054 0.231214,0.698094 0.315364,0.488274 0.340042,0.745816 0.118573,1.237386 -0.104949,0.232942 -0.152911,0.507677 -0.152911,0.875899 v 0.536501 l 2.724971,0.0014 2.72497,0.0014 0.888997,2.39008 0.888998,2.39008 -0.01092,1.715539 c -0.02123,3.336874 -0.452666,6.539312 -1.318744,9.788866 l -0.284148,1.066134 -0.756589,0.353678 c -1.019588,0.476618 -2.395457,0.930777 -3.427412,1.13135 -0.980538,0.190579 -2.517779,0.260511 -3.374696,0.153521 z M 2.8414464,51.338131 c -0.114023,-0.375469 -0.252077,-0.831617 -0.306787,-1.013663 -0.10805,-0.359535 -0.0093,-0.549561 0.114778,-0.220871 0.123056,0.325982 0.369653,0.322241 1.517266,-0.02302 0.929961,-0.279776 1.168667,-0.389262 1.993391,-0.9143 2.220928,-1.413892 2.819633,-1.83806 2.912246,-2.063246 0.05059,-0.12302 0.115507,-0.223673 0.144252,-0.223673 0.07192,0 0.5472539,1.65014 0.4983109,1.729899 -0.02166,0.0353 -0.103407,-0.01541 -0.18166,-0.112678 -0.1935419,-0.240573 -0.2844709,-0.19999 -1.9710329,0.879691 l -1.390101,0.889897 1.646899,0.02103 c 1.8268399,0.02333 2.0425409,-0.01716 2.0854139,-0.391429 0.01345,-0.117442 0.06607,-0.213533 0.1169217,-0.213533 0.09833,0 0.412228,0.986603 0.337761,1.061602 -0.02419,0.02436 -0.123536,-0.01184 -0.220781,-0.08044 C 9.9865783,50.556348 9.6605783,50.538669 7.8383754,50.538669 h -2.123142 l -1.045685,0.318054 c -0.575126,0.174931 -1.140128,0.367244 -1.25556,0.427364 -0.225927,0.117668 -0.32932,0.327868 -0.255968,0.520389 0.02512,0.06593 0.01082,0.141579 -0.03179,0.168101 -0.0448,0.02788 -0.164896,-0.239675 -0.284782,-0.634451 z m 1.923474,-3.880799 c -0.09542,-0.250448 -0.383232,-0.269395 -1.472404,-0.09693 l -1.056279,0.167254 -0.249952,-0.291223 c -0.528273,-0.615498 -0.718212,-1.461717 -0.453974,-2.022545 0.340031,-0.721694 1.374881,-1.403345 2.609273,-1.718717 2.152048,-0.549821 4.274725,-0.151187 4.816804,0.904584 0.174056,0.338997 0.155141,0.917164 -0.04279,1.307919 -0.202432,0.399641 -0.171736,0.508443 0.165352,0.586096 0.217743,0.05016 0.09544,0.08765 -0.785723,0.240848 -1.707155,0.296806 -1.651789,0.296643 -1.043606,0.0031 0.787248,-0.379988 1.187123,-0.703296 1.361825,-1.101067 0.136574,-0.31096 0.139999,-0.366511 0.03779,-0.61289 -0.07575,-0.182588 -0.221439,-0.329554 -0.44679,-0.450702 -0.311248,-0.167326 -0.419989,-0.179277 -1.571256,-0.172691 -0.962988,0.0055 -1.416598,0.04541 -2.048559,0.180218 -1.020324,0.217646 -1.865237,0.500636 -2.220359,0.743676 -0.559607,0.382986 -0.721478,0.937534 -0.387731,1.328316 l 0.174858,0.20474 1.002195,-0.164058 c 1.051561,-0.172138 1.353733,-0.294898 1.353733,-0.549964 0,-0.08466 0.03412,-0.153921 0.07583,-0.153921 0.08365,0 0.113897,0.110618 0.234159,0.856435 0.04488,0.278341 0.10062,0.602424 0.123862,0.720183 0.0456,0.231051 -0.09522,0.304043 -0.176257,0.09136 z m 2.989178,-11.291867 c -1.222895,-0.724358 -2.253053,-1.250343 -2.782948,-1.420937 -1.417941,-0.456489 -2.473732,-0.32479 -2.473732,0.308573 0,0.161474 0.07472,0.272642 0.28989,0.431319 0.440144,0.324577 0.452695,0.341815 0.194599,0.267264 -0.964953,-0.278727 -1.674973,-0.822865 -1.674973,-1.283653 0,-0.457143 0.336474,-0.704519 1.134278,-0.833922 0.997211,-0.161746 2.405363,0.340871 4.032497,1.439333 0.422494,0.28522 0.795735,0.490821 0.829426,0.45689 0.03369,-0.03393 0.07067,-0.321406 0.08217,-0.638833 l 0.02092,-0.57714 -0.309216,-0.185728 c -0.347994,-0.209018 -0.389194,-0.213361 0.933584,0.09841 l 0.856279,0.201818 -0.05927,0.444321 c -0.177999,1.334386 -0.244002,1.728891 -0.289126,1.728131 -0.0275,-4.63e-4 -0.380469,-0.196592 -0.784383,-0.435843 z m 0.309216,-2.700533 c -0.125534,-0.06396 -0.19326,-0.164146 -0.19326,-0.285872 0,-0.149671 0.08569,-0.229957 0.425649,-0.398809 0.234107,-0.116277 0.492009,-0.285264 0.573116,-0.375528 0.129608,-0.144241 0.134928,-0.187713 0.04393,-0.358966 -0.143868,-0.270745 -0.826238,-0.587802 -1.372423,-0.637683 -0.944238,-0.08623 -1.816139,0.402433 -2.03585,1.141015 -0.05168,0.173741 -0.111894,0.315892 -0.1338,0.315892 -0.06959,0 -3.296052,-1.410686 -3.352107,-1.465619 -0.05478,-0.05369 0.265291,-1.537407 0.35008,-1.622804 0.08307,-0.08367 1.210927,0.472872 1.209803,0.596978 -0.001,0.11065 -0.191752,0.985829 -0.273308,1.253966 -0.05366,0.17644 0.64779,0.454974 0.739213,0.293527 0.410201,-0.724391 0.692726,-0.964148 1.333355,-1.131515 0.553872,-0.144701 1.090201,-0.130794 1.77683,0.04607 1.41877,0.365459 2.306299,1.166961 2.197453,1.984456 -0.08062,0.605534 -0.729067,0.930032 -1.288678,0.644889 z m 0.03865,-3.283986 c -1.525427,-0.244995 -3.465602,-0.97309 -4.502471,-1.689654 -0.611824,-0.422822 -0.886169,-1.052423 -0.580134,-1.331364 0.528221,-0.481456 1.876343,-0.40035 3.845739,0.231368 1.996045,0.640268 3.3627286,1.560438 3.3627286,2.264083 0,0.238048 -0.3273647,0.477315 -0.7682886,0.561534 -0.491581,0.09389 -0.560365,0.09207 -1.357574,-0.03597 z m 1.6503179,-0.421329 c 0.164732,-0.105143 0.07227,-0.338238 -0.210231,-0.529977 -0.2920049,-0.198192 -4.9295799,-1.75539 -5.6571929,-1.899564 -0.390528,-0.07738 -0.48818,-0.07478 -0.573511,0.01527 -0.167582,0.17685 -0.01124,0.41918 0.394304,0.611173 0.435058,0.205966 3.383321,1.216203 4.666877,1.599129 0.922853,0.275317 1.2030719,0.316742 1.3797539,0.203971 z m 0.108831,-3.276651 c -0.374538,-0.17123 -0.7155439,-0.484729 -0.7155439,-0.657826 0,-0.06467 0.0747,-0.157852 0.166008,-0.207067 0.2351879,-0.12677 0.6702329,0.01939 1.0773416,0.36196 0.247448,0.208218 0.385063,0.269384 0.566067,0.251606 0.19506,-0.01916 0.243576,-0.06217 0.263196,-0.233343 0.01943,-0.169542 -0.03254,-0.247515 -0.270565,-0.405915 -0.578272,-0.384829 -5.4307436,-2.693182 -5.6614356,-2.693182 -0.147941,0 -0.270918,0.06033 -0.347525,0.170483 -0.06521,0.09376 -0.141902,0.146974 -0.17043,0.118242 -0.06029,-0.06073 0.753583,-1.844683 0.841908,-1.845399 0.03256,-2.33e-4 0.05152,0.101138 0.04212,0.225338 -0.0094,0.124199 0.03354,0.288144 0.0954,0.364322 0.06187,0.07618 1.16656,0.657306 2.454872,1.291395 1.2883119,0.634089 2.4991326,1.261507 2.6907136,1.394262 0.881942,0.611137 1.088953,1.551687 0.418388,1.900933 -0.317932,0.165586 -1.049502,0.147526 -1.4505187,-0.03581 z m 2.1139707,-2.04515 c -0.03938,-0.198285 -0.598453,-0.807267 -2.6186766,-2.852419 -1.412737,-1.430171 -2.516433,-2.582884 -2.452657,-2.561586 0.06378,0.0213 1.490037,0.514623 3.1694686,1.096276 3.522703,1.220053 3.652667,1.258662 3.860191,1.146803 0.303181,-0.163419 0.241332,0.08435 -0.202787,0.812361 -0.460763,0.755297 -0.611412,0.904564 -0.532867,0.527982 0.07314,-0.35065 -0.01417,-0.41809 -1.029188,-0.79502 l -0.619611,-0.230093 -0.362494,0.585762 -0.362493,0.585762 0.339687,0.351493 c 0.186828,0.193322 0.489719,0.440907 0.67309,0.550191 0.30075,0.179237 0.353749,0.188404 0.541129,0.09361 0.11425,-0.0578 0.233817,-0.117894 0.265705,-0.133543 0.03189,-0.01565 0.05798,0.0097 0.05798,0.05632 0,0.10657 -0.562161,1.018215 -0.627877,1.018215 -0.02669,0 -0.07106,-0.11345 -0.0986,-0.25211 z m -1.096465,-2.483124 c 0.155286,-0.262549 0.27241,-0.484817 0.260272,-0.493931 -0.04301,-0.03229 -2.3147796,-0.819435 -2.3649706,-0.819435 -0.02805,0 0.347912,0.402914 0.8354739,0.895364 0.4875617,0.492449 0.9090667,0.895363 0.9366787,0.895363 0.02761,0 0.177258,-0.214813 0.332546,-0.477361 z m 3.369022,-0.986363 c 0,-0.03426 0.0392,-0.101764 0.08711,-0.150015 0.22398,-0.225584 -0.023,-0.497441 -1.808665,-1.990888 -3.4562666,-2.890653 -3.3058536,-2.786629 -3.6179886,-2.502129 -0.08049,0.07337 -0.152448,0.0913 -0.18082,0.04506 -0.04844,-0.07894 1.1017139,-1.557826 1.2168069,-1.56459 0.03527,-0.0021 0.04137,0.100553 0.01356,0.228055 -0.02781,0.127503 -0.02982,0.29763 -0.0045,0.37806 0.04171,0.132368 2.1970117,2.008838 2.2360277,1.946756 0.0091,-0.01445 0.200277,-0.244297 0.424887,-0.510781 0.224611,-0.266484 0.388597,-0.516759 0.364414,-0.556167 -0.02418,-0.03941 -0.515721,-0.460782 -1.092308,-0.936386 -0.797124,-0.657515 -1.101818,-0.864736 -1.271491,-0.864736 -0.12273,0 -0.244646,0.03504 -0.270923,0.07786 -0.05957,0.09708 -0.19326,0.102237 -0.19326,0.0075 0,-0.104793 1.151722,-1.486747 1.239055,-1.486747 0.100909,0 0.09501,0.104539 -0.01199,0.212301 -0.226275,0.227895 0.02783,0.493683 2.232613,2.335281 2.629105,2.196022 2.736122,2.279594 2.919121,2.279594 0.07767,0 0.201388,-0.05484 0.274919,-0.121858 0.07886,-0.07188 0.152742,-0.09082 0.180134,-0.04618 0.05175,0.08434 -1.082732,1.491619 -1.202478,1.491619 -0.04174,0 -0.05302,-0.0726 -0.02505,-0.161334 0.107282,-0.340437 -0.04582,-0.533482 -1.164793,-1.468654 -0.61816,-0.516623 -1.155678,-0.939315 -1.194483,-0.939315 -0.07013,0 -0.853457,0.934473 -0.847498,1.011023 0.0029,0.0369 0.23738,0.232431 1.798845,1.499887 0.535627,0.434774 0.898924,0.566542 1.019638,0.369824 0.05581,-0.09095 0.19326,-0.10467 0.19326,-0.01929 0,0.03221 -0.263153,0.382574 -0.584785,0.778577 -0.530549,0.65323 -0.729385,0.832529 -0.729385,0.657719 z m 2.937557,-3.436715 c 0,-0.04651 0.04291,-0.153766 0.09535,-0.238344 0.07845,-0.12652 0.07072,-0.19879 -0.04363,-0.407697 -0.149175,-0.272527 -4.098485,-4.625213 -4.320804,-4.762125 -0.09441,-0.05814 -0.20147,-0.05619 -0.366861,0.0067 -0.128449,0.04883 -0.249559,0.06269 -0.269131,0.03079 -0.05134,-0.08366 1.51699,-1.487853 1.859357,-1.664755 0.516795,-0.267031 1.139117,-0.06985 1.852731,0.587018 0.561944,0.517264 0.909953,1.220587 0.872287,1.762891 l -0.02717,0.391147 1.425018,0.753638 c 0.783759,0.414501 1.530152,0.761967 1.65865,0.772148 0.128497,0.01018 0.239828,0.0494 0.247401,0.08714 0.0076,0.03775 -0.165904,0.233044 -0.385503,0.43399 l -0.399271,0.365358 -1.582364,-0.84432 c -1.33834,-0.714115 -1.599185,-0.82813 -1.691438,-0.739333 -0.09293,0.08945 0.0081,0.232026 0.68278,0.963141 1.196024,1.29616 1.399043,1.453232 1.607265,1.243519 0.04732,-0.04765 0.126875,-0.06122 0.176797,-0.03015 0.05871,0.03654 -0.107786,0.239038 -0.471326,0.573256 -0.730572,0.671647 -0.92014,0.819157 -0.92014,0.715995 z M 16.2156,13.269285 C 16.29336,12.957246 15.942314,12.30672 15.396465,11.751341 14.624428,10.965826 14.206906,10.83971 13.734189,11.249236 l -0.211575,0.183291 1.110469,1.219067 1.110469,1.219067 0.212091,-0.204652 c 0.116651,-0.112558 0.233632,-0.291084 0.259957,-0.396724 z m 4.182619,1.384986 c -0.02302,-0.03751 0.0099,-0.111495 0.07325,-0.164413 0.15591,-0.13032 0.144309,-0.378316 -0.03126,-0.668298 -0.339122,-0.560111 -3.432584,-4.9845276 -3.550816,-5.0785476 -0.07605,-0.06048 -0.232336,-0.08666 -0.379192,-0.06352 -0.137402,0.02165 -0.264673,0.01516 -0.282826,-0.01443 -0.01815,-0.02958 0.302989,-0.286903 0.713647,-0.571826 0.410658,-0.284924 0.991615,-0.692155 1.291016,-0.9049589 l 0.544365,-0.3869159 0.544234,0.7886888 c 0.715265,1.036541 0.737677,1.087379 0.291329,0.660811 -0.433656,-0.414439 -0.782448,-0.61177 -1.081329,-0.61177 -0.224074,0 -0.881574,0.377698 -0.88098,0.506075 4.64e-4,0.101021 1.605312,2.4059576 1.697412,2.4378856 0.03855,0.01336 0.128492,-0.06547 0.199871,-0.175187 0.121625,-0.186952 0.121453,-0.225125 -0.0027,-0.6075477 -0.07289,-0.224434 -0.219343,-0.5572719 -0.325458,-0.7396409 -0.393935,-0.677013 -0.08322,-0.292582 0.848965,1.0503956 1.197071,1.724583 1.342452,1.96399 0.878127,1.446067 -0.556868,-0.621149 -0.986662,-0.841013 -1.279274,-0.654423 -0.085,0.0542 0.0617,0.314131 0.68113,1.206922 0.434202,0.625814 0.875723,1.194773 0.981158,1.264351 0.183774,0.121276 0.203556,0.116883 0.478431,-0.106242 0.157702,-0.128011 0.331667,-0.316918 0.386591,-0.419792 0.145506,-0.272544 0.07567,-0.963398 -0.154664,-1.530089 -0.108784,-0.267636 -0.186718,-0.486611 -0.173189,-0.486611 0.0389,0 1.194608,1.948589 1.191537,2.008995 -0.0015,0.02983 -0.340688,0.287473 -0.753715,0.572543 -0.413027,0.28507 -1.001341,0.696366 -1.307364,0.913992 -0.306023,0.217625 -0.575238,0.364992 -0.598256,0.327482 z"
         id="path954" />
    </g>
  </g>
</svg>
