<?xml version="1.0" encoding="UTF-8" standalone="no"?>
<svg
   version="1.0"
   width="80pt"
   height="80pt"
   viewBox="0 0 80 80"
   preserveAspectRatio="xMidYMid meet"
   id="svg2499"
   sodipodi:docname="papier.svg"
   inkscape:version="1.1.1 (c3084ef, 2021-09-22)"
   xmlns:inkscape="http://www.inkscape.org/namespaces/inkscape"
   xmlns:sodipodi="http://sodipodi.sourceforge.net/DTD/sodipodi-0.dtd"
   xmlns="http://www.w3.org/2000/svg"
   xmlns:svg="http://www.w3.org/2000/svg">
  <defs
     id="defs2503" />
  <sodipodi:namedview
     id="namedview2501"
     pagecolor="#505050"
     bordercolor="#eeeeee"
     borderopacity="1"
     inkscape:pageshadow="0"
     inkscape:pageopacity="0"
     inkscape:pagecheckerboard="0"
     inkscape:document-units="pt"
     showgrid="false"
     inkscape:zoom="6.5549014"
     inkscape:cx="96.797794"
     inkscape:cy="60.794202"
     inkscape:window-width="2560"
     inkscape:window-height="1305"
     inkscape:window-x="1440"
     inkscape:window-y="2185"
     inkscape:window-maximized="0"
     inkscape:current-layer="g2497" />
  <metadata
     id="metadata2493">
Created by potrace 1.15, written by Peter Selinger 2001-2017
</metadata>
  <g
     transform="matrix(0.1,0,0,-0.1,0,1280)"
     fill="#000000"
     stroke="none"
     id="g2497">
    <path
       d="m 533.62422,12608.589 c -6.41095,13.756 -11.97705,26.801 -12.79188,27.695 -0.75705,0.827 -2.15573,1.578 -3.10241,1.658 -0.94668,0.08 -10.4719,-0.585 -21.21743,-1.401 -10.75071,-0.879 -21.37006,-1.705 -23.66838,-1.831 l -7.67951,-0.624 c -13.25379,-1.185 -71.65732,-4.931 -89.78192,-5.829 -2.42472,-0.113 -6.76384,-0.322 -9.5725,-0.468 -26.04031,-1.315 -61.37913,-2.106 -89.7803,-2.015 h -15.25264 c -16.46219,-0.02 -23.89381,0.03 -44.78449,0.255 -24.19888,0.183 -34.99127,0.324 -48.5712,0.572 -5.20153,0.117 -13.39048,0.231 -18.09258,0.245 -4.69672,0.07 -12.43324,0.277 -17.12477,0.417 -9.37746,0.339 -12.34933,-0.237 -13.62306,-2.546 -1.11054,-1.877 -1.10535,-1.813 13.49973,-28.522 22.65128,-41.428 25.99369,-47.809 25.45181,-48.21 -0.27361,-0.231 -3.11922,-0.818 -6.33823,-1.311 -15.57426,-2.319 -23.40087,-3.187 -33.37315,-3.878 -12.53374,-0.92 -17.26215,-1.224 -22.889956,-1.642 -2.171473,-0.145 -6.969062,-0.497 -10.671836,-0.695 -39.91002,-2.25 -53.606119,-3.392 -58.240374,-4.846 -1.956801,-0.6 -5.397743,-3.744 -5.50888,-5.068 -0.04224,-0.505 0.372893,-1.622 0.877377,-2.425 2.375822,-3.503 9.282889,-12.852 20.989381,-28.643 57.343744,-77.189 92.324758,-127.722 117.926048,-170.35 19.01569,-31.717 36.19653,-61.819 59.41021,-104.121 29.56233,-53.764 31.16533,-56.632 33.15291,-57.942 1.01996,-0.721 1.91382,-1.431 1.95573,-1.689 0.25745,-0.721 3.229,-0.906 3.28717,-0.212 0.0265,0.316 1.01003,0.679 2.162,0.772 2.49885,0.23 7.55844,1.465 56.19779,13.09 58.31261,14.055 86.62192,20.454 114.3364,25.823 1.42539,0.327 3.49253,0.725 4.52352,0.893 27.14654,5.416 65.25363,10.423 110.52906,14.512 3.20391,0.295 7.23713,0.667 8.96708,0.845 3.52372,0.344 35.72388,3.109 41.28857,3.533 1.91965,0.158 5.24862,0.455 7.35801,0.594 5.05393,0.41 17.86202,1.553 23.76286,2.209 12.05535,1.278 13.58211,5.091 5.94942,14.882 -1.89251,2.447 -3.41678,4.735 -3.39565,4.988 0.0529,0.63 1.53613,0.889 7.09023,1.187 9.19919,0.562 40.8095,2.364 45.02772,2.646 15.4528,0.867 42.31885,2.176 57.93978,2.774 2.6827,0.153 7.14243,0.292 9.88797,0.444 2.67719,0.09 8.22613,0.327 12.2444,0.5 4.01832,0.171 9.37248,0.359 11.79196,0.409 5.46981,0.06 8.20484,0.842 9.77331,2.868 1.13668,1.43 1.15253,1.619 0.22221,3.414 -4.35935,5.763 -8.63436,9.751 -13.59473,15.247 -0.17333,0.205 -4.48946,4.825 -9.62051,10.34 -37.09448,39.714 -61.80274,67.204 -84.58628,94.154 -36.31486,42.953 -53.55121,65.56 -68.76724,90.286 -1.67662,2.746 -4.41502,7.234 -6.09692,9.917 -55.82575,94.596 -47.03716,85.435 -67.47745,127.109 z m -71.81364,-390.19 c -278.78281,478.186 -139.3915,239.094 0,0 z"
       id="path2495"
       sodipodi:nodetypes="ccscccccccccccccccccccsccccccsccccccccccsccccscccccsccccc"
       style="fill:#cccccc;stroke-width:0.0633324" />
  </g>
</svg>
