<?xml version="1.0" encoding="UTF-8" standalone="no"?>
<!-- Created with Inkscape (http://www.inkscape.org/) -->

<svg
   width="80mm"
   height="100mm"
   viewBox="0 0 80 100"
   version="1.1"
   id="svg1229"
   inkscape:version="1.1.1 (c3084ef, 2021-09-22)"
   sodipodi:docname="peter5.svg"
   xmlns:inkscape="http://www.inkscape.org/namespaces/inkscape"
   xmlns:sodipodi="http://sodipodi.sourceforge.net/DTD/sodipodi-0.dtd"
   xmlns:xlink="http://www.w3.org/1999/xlink"
   xmlns="http://www.w3.org/2000/svg"
   xmlns:svg="http://www.w3.org/2000/svg">
  <sodipodi:namedview
     id="namedview1231"
     pagecolor="#505050"
     bordercolor="#eeeeee"
     borderopacity="1"
     inkscape:pageshadow="0"
     inkscape:pageopacity="0"
     inkscape:pagecheckerboard="true"
     inkscape:document-units="mm"
     showgrid="false"
     inkscape:zoom="1.8145205"
     inkscape:cx="139.70633"
     inkscape:cy="143.83965"
     inkscape:window-width="2560"
     inkscape:window-height="1306"
     inkscape:window-x="1440"
     inkscape:window-y="2185"
     inkscape:window-maximized="0"
     inkscape:current-layer="layer1" />
  <defs
     id="defs1226">
    <linearGradient
       inkscape:collect="always"
       xlink:href="#linearGradient40556"
       id="linearGradient19791"
       x1="179.80403"
       y1="431.61713"
       x2="151.93471"
       y2="321.1073"
       gradientUnits="userSpaceOnUse"
       gradientTransform="matrix(-0.62616758,0,0,0.74714347,-45.709433,59.828741)" />
    <linearGradient
       inkscape:collect="always"
       id="linearGradient40556">
      <stop
         style="stop-color:#040201;stop-opacity:1;"
         offset="0"
         id="stop40552" />
      <stop
         style="stop-color:#2d2825;stop-opacity:1"
         offset="1"
         id="stop40554" />
    </linearGradient>
    <linearGradient
       inkscape:collect="always"
       xlink:href="#linearGradient108443"
       id="linearGradient109213"
       gradientUnits="userSpaceOnUse"
       gradientTransform="matrix(-0.26954319,0,0,0.28333526,80.516534,-15.086088)"
       x1="98.670212"
       y1="318.67361"
       x2="99.737473"
       y2="225.63814" />
    <linearGradient
       inkscape:collect="always"
       id="linearGradient108443">
      <stop
         style="stop-color:#a89f9f;stop-opacity:1"
         offset="0"
         id="stop108439" />
      <stop
         style="stop-color:#e2cbcb;stop-opacity:1"
         offset="1"
         id="stop108441" />
    </linearGradient>
    <linearGradient
       inkscape:collect="always"
       xlink:href="#linearGradient108443"
       id="linearGradient101598"
       gradientUnits="userSpaceOnUse"
       gradientTransform="matrix(0.26954319,0,0,0.28333526,-0.90547523,-15.1398)"
       x1="113.73347"
       y1="318.67361"
       x2="109.42099"
       y2="228.35292" />
    <linearGradient
       inkscape:collect="always"
       xlink:href="#linearGradient103616"
       id="linearGradient110039"
       x1="92.572426"
       y1="164.20337"
       x2="101.08205"
       y2="164.20337"
       gradientUnits="userSpaceOnUse"
       gradientTransform="matrix(-0.3653721,0,0,0.36339866,76.756433,-2.551023)" />
    <linearGradient
       inkscape:collect="always"
       id="linearGradient103616">
      <stop
         style="stop-color:#4f1c21;stop-opacity:1"
         offset="0"
         id="stop103612" />
      <stop
         style="stop-color:#742729;stop-opacity:1"
         offset="1"
         id="stop103614" />
    </linearGradient>
    <linearGradient
       inkscape:collect="always"
       xlink:href="#linearGradient103616"
       id="linearGradient111071"
       x1="102.07914"
       y1="113.81707"
       x2="102.8028"
       y2="127.04623"
       gradientUnits="userSpaceOnUse"
       gradientTransform="matrix(-0.31806814,0,0,0.49480149,74.462991,-16.89193)" />
    <linearGradient
       inkscape:collect="always"
       xlink:href="#linearGradient103616"
       id="linearGradient116078"
       x1="164.28397"
       y1="165.4808"
       x2="209.60956"
       y2="165.4808"
       gradientUnits="userSpaceOnUse"
       gradientTransform="matrix(-0.18268605,0,0,0.28786388,53.900695,6.0348503)" />
    <linearGradient
       inkscape:collect="always"
       xlink:href="#linearGradient103616"
       id="linearGradient116330"
       gradientUnits="userSpaceOnUse"
       gradientTransform="matrix(0.36115258,0.05536775,-0.0550687,0.35920193,-2.2522262,-9.3143307)"
       x1="164.28397"
       y1="165.4808"
       x2="209.60956"
       y2="165.4808" />
    <radialGradient
       inkscape:collect="always"
       xlink:href="#linearGradient43477"
       id="radialGradient43471-9"
       cx="-63.142883"
       cy="181.14001"
       fx="-63.142883"
       fy="181.14001"
       r="5.2169404"
       gradientTransform="matrix(0.45002833,2.0034692,-0.92148322,0.20698773,313.35834,272.19747)"
       gradientUnits="userSpaceOnUse" />
    <linearGradient
       inkscape:collect="always"
       id="linearGradient43477">
      <stop
         style="stop-color:#b7b0b0;stop-opacity:1"
         offset="0"
         id="stop43473" />
      <stop
         style="stop-color:#2b6da7;stop-opacity:0.64966741"
         offset="1"
         id="stop43475" />
    </linearGradient>
    <filter
       inkscape:collect="always"
       style="color-interpolation-filters:sRGB"
       id="filter43479-4"
       x="-0.0008259546"
       y="-0.0008745402"
       width="1.0016519"
       height="1.0017491">
      <feGaussianBlur
         inkscape:collect="always"
         stdDeviation="0.0035907967"
         id="feGaussianBlur43481-6" />
    </filter>
    <radialGradient
       inkscape:collect="always"
       xlink:href="#linearGradient43477"
       id="radialGradient43471"
       cx="-63.142883"
       cy="181.14001"
       fx="-63.142883"
       fy="181.14001"
       r="5.2169404"
       gradientTransform="matrix(0.45002833,2.0034692,-0.92148322,0.20698773,313.35834,272.19747)"
       gradientUnits="userSpaceOnUse" />
    <filter
       inkscape:collect="always"
       style="color-interpolation-filters:sRGB"
       id="filter43479"
       x="-0.0008259546"
       y="-0.0008745402"
       width="1.0016519"
       height="1.0017491">
      <feGaussianBlur
         inkscape:collect="always"
         stdDeviation="0.0035907967"
         id="feGaussianBlur43481" />
    </filter>
    <filter
       inkscape:collect="always"
       style="color-interpolation-filters:sRGB"
       id="filter43573-9"
       x="-0.2964658"
       y="-0.31764193"
       width="1.5929316"
       height="1.6352839">
      <feGaussianBlur
         inkscape:collect="always"
         stdDeviation="0.75947415"
         id="feGaussianBlur43575-8" />
    </filter>
    <filter
       inkscape:collect="always"
       style="color-interpolation-filters:sRGB"
       id="filter43573"
       x="-0.2964658"
       y="-0.31764193"
       width="1.5929316"
       height="1.6352839">
      <feGaussianBlur
         inkscape:collect="always"
         stdDeviation="0.75947415"
         id="feGaussianBlur43575" />
    </filter>
    <linearGradient
       inkscape:collect="always"
       xlink:href="#linearGradient29566"
       id="linearGradient29568"
       x1="43.667114"
       y1="33.72583"
       x2="55.57711"
       y2="35.332199"
       gradientUnits="userSpaceOnUse"
       gradientTransform="matrix(-1.2180148,-0.1962521,-0.16384167,1.0168634,88.602421,3.6094245)" />
    <linearGradient
       inkscape:collect="always"
       id="linearGradient29566">
      <stop
         style="stop-color:#000000;stop-opacity:1;"
         offset="0"
         id="stop29562" />
      <stop
         style="stop-color:#000000;stop-opacity:0;"
         offset="1"
         id="stop29564" />
    </linearGradient>
    <linearGradient
       inkscape:collect="always"
       xlink:href="#linearGradient29566"
       id="linearGradient38248"
       gradientUnits="userSpaceOnUse"
       gradientTransform="matrix(1.0131607,0,0,1.0711294,-8.8798192,-6.7935965)"
       x1="43.667114"
       y1="33.72583"
       x2="55.57711"
       y2="35.332199" />
    <radialGradient
       inkscape:collect="always"
       xlink:href="#linearGradient40556"
       id="radialGradient117882"
       cx="112.25054"
       cy="63.055725"
       fx="112.25054"
       fy="63.055725"
       r="94.497108"
       gradientTransform="matrix(0.22173732,-0.21689153,-0.54373965,-0.74285309,49.653118,87.846566)"
       gradientUnits="userSpaceOnUse" />
  </defs>
  <g
     inkscape:label="Layer 1"
     inkscape:groupmode="layer"
     id="layer1">
    <ellipse
       style="display:inline;fill:#ffffff;fill-opacity:1;stroke:#bfbfbf;stroke-width:0.520037;stroke-miterlimit:4;stroke-dasharray:none;stroke-opacity:1"
       id="path36585-6"
       cx="-52.146164"
       cy="93.746964"
       rx="6.2222395"
       ry="8.4148026"
       transform="matrix(-1,0,-0.245238,0.9694629,0,0)" />
    <ellipse
       style="display:inline;fill:#ffffff;fill-opacity:1;stroke:#bfbfbf;stroke-width:0.520762;stroke-miterlimit:4;stroke-dasharray:none;stroke-opacity:1"
       id="path36585-6-3"
       cx="-72.295013"
       cy="94.722229"
       rx="6.2222395"
       ry="8.4382963"
       transform="matrix(-1,0,-0.25567137,0.96676375,0,0)" />
    <path
       style="display:inline;mix-blend-mode:normal;fill:#050505;fill-opacity:1;fill-rule:evenodd;stroke:url(#linearGradient19791);stroke-width:0.259384px;stroke-linecap:butt;stroke-linejoin:miter;stroke-opacity:1"
       d="m 58.538567,76.264581 -36.937691,-1.015201 1.961388,11.59522 2.41554,4.35086 9.662176,-0.145022 1.207772,-4.350871 0.402583,-5.511086 4.874843,1.311539 0.503239,6.671309 1.711013,3.625736 9.964113,-0.290055 1.006477,-4.060805 3.228547,-12.181624"
       id="path8166"
       sodipodi:nodetypes="ccccccccccccc" />
    <path
       style="display:inline;fill:url(#linearGradient109213);fill-opacity:1;stroke:none;stroke-width:0.276353px;stroke-linecap:butt;stroke-linejoin:miter;stroke-opacity:1"
       d="m 57.193423,42.358912 c 0,0 0.707919,2.915289 -2.785311,4.753202 -2.571189,1.352794 -6.962389,2.165881 -10.504795,2.630375 -3.107229,0.407432 -5.561401,0.546659 -5.561401,0.546659 l -0.132366,25.657579 20.201656,0.05553"
       id="path23076"
       sodipodi:nodetypes="cssccc" />
    <path
       style="fill:url(#linearGradient116078);fill-opacity:1;stroke:none;stroke-width:0.0606745px;stroke-linecap:butt;stroke-linejoin:miter;stroke-opacity:1"
       d="m 22.378409,39.366735 c 3.210349,2.504738 -2.270662,10.556106 -1.925995,16.174704 0.281121,4.582765 5.279913,9.505563 2.89477,12.165043 -3.124638,3.484009 -7.499935,-7.362823 -7.72834,-13.383673 -0.23177,-6.109486 3.278722,-17.671862 6.759565,-14.956074 z"
       id="path115551"
       sodipodi:nodetypes="sssss" />
    <path
       style="display:inline;fill:url(#linearGradient101598);fill-opacity:1;stroke:none;stroke-width:0.276353px;stroke-linecap:butt;stroke-linejoin:miter;stroke-opacity:1"
       d="m 19.732574,39.473353 c 0,0 1.977145,5.747141 5.470376,7.585055 4.826507,2.539401 16.066194,3.177027 16.066194,3.177027 l 0.132367,25.657577 -20.070491,-0.07562"
       id="path23076-9"
       sodipodi:nodetypes="csccc" />
    <path
       style="fill:none;stroke:#848484;stroke-width:0.65079;stroke-linecap:butt;stroke-linejoin:miter;stroke-miterlimit:4;stroke-dasharray:none;stroke-opacity:1"
       d="m 42.61751,63.202909 1.247448,1.302786"
       id="path23575"
       sodipodi:nodetypes="cc" />
    <path
       style="fill:none;stroke:#848484;stroke-width:0.65079;stroke-linecap:butt;stroke-linejoin:miter;stroke-miterlimit:4;stroke-dasharray:none;stroke-opacity:1"
       d="m 28.683871,66.580451 -0.666022,1.302775"
       id="path23575-9"
       sodipodi:nodetypes="cc" />
    <path
       style="fill:none;stroke:#6d0e00;stroke-width:0.897166;stroke-linecap:butt;stroke-linejoin:miter;stroke-miterlimit:4;stroke-dasharray:none;stroke-opacity:1"
       d="m 34.885521,50.342861 c 0.142661,4.651549 -3.908416,12.181571 -6.20165,16.23759"
       id="path22182-3"
       sodipodi:nodetypes="cc" />
    <path
       style="fill:none;stroke:url(#linearGradient110039);stroke-width:0.897166;stroke-linecap:butt;stroke-linejoin:miter;stroke-miterlimit:4;stroke-dasharray:none;stroke-opacity:1"
       d="m 38.341916,50.289148 c 0.22576,4.285146 0.768446,9.480012 4.275594,12.913761"
       id="path22182"
       sodipodi:nodetypes="cc" />
    <path
       style="fill:url(#linearGradient111071);fill-opacity:1;stroke:none;stroke-width:0.104963px;stroke-linecap:butt;stroke-linejoin:miter;stroke-opacity:1"
       d="M 57.133523,58.032421 56.664256,42.358912 19.676051,39.473353 20.548256,57.369457 c 3.724508,-5.743886 20.942041,-12.121513 36.585267,0.662964 z"
       id="path110873"
       sodipodi:nodetypes="ccccc" />
    <path
       style="fill:url(#linearGradient116330);fill-opacity:1;stroke:none;stroke-width:0.0964094px;stroke-linecap:butt;stroke-linejoin:miter;stroke-opacity:1"
       d="M 53.687752,41.83145 C 46.86208,43.983935 57.553246,55.516668 55.797036,62.423202 54.364599,68.056461 39.817204,68.90337 44.023614,72.944781 49.534189,78.2392 62.58624,69.986274 64.189569,62.542568 65.816501,54.989281 61.088535,39.497594 53.687752,41.83145 Z"
       id="path115551-2"
       sodipodi:nodetypes="sssss" />
    <ellipse
       style="display:inline;fill:#bc9573;fill-opacity:1;fill-rule:evenodd;stroke:none;stroke-width:0.799454;stroke-opacity:1"
       id="path24238"
       cx="-39.263538"
       cy="25.028479"
       rx="22.122564"
       ry="23.133368"
       transform="scale(-1,1)" />
    <ellipse
       style="display:inline;fill:#f3ecc5;fill-opacity:1;fill-rule:evenodd;stroke:none;stroke-width:1.0031;stroke-opacity:0"
       id="path40667-1"
       cx="-40.171993"
       cy="32.868095"
       rx="3.9218767"
       ry="3.2539628"
       transform="scale(-1,1)" />
    <ellipse
       style="display:inline;fill:#f3ecc5;fill-opacity:1;fill-rule:evenodd;stroke:none;stroke-width:0.96418;stroke-opacity:0"
       id="path40667"
       cx="-28.69285"
       cy="27.621529"
       rx="3.9218767"
       ry="3.0063703"
       transform="matrix(-0.98552717,-0.16951754,-0.16951754,0.98552717,0,0)" />
    <ellipse
       style="display:inline;mix-blend-mode:normal;fill:url(#radialGradient43471-9);fill-opacity:1;fill-rule:evenodd;stroke:none;stroke-width:3.29575;stroke-opacity:0;filter:url(#filter43479-4)"
       id="path42033-3"
       cx="118.02477"
       cy="183.13518"
       rx="5.2169404"
       ry="4.9271102"
       transform="matrix(-0.4078238,0,0,0.37685315,88.361694,-35.91781)" />
    <ellipse
       style="display:inline;mix-blend-mode:normal;fill:url(#radialGradient43471);fill-opacity:1;fill-rule:evenodd;stroke:none;stroke-width:3.29575;stroke-opacity:0;filter:url(#filter43479)"
       id="path42033"
       cx="118.02477"
       cy="183.13518"
       rx="5.2169404"
       ry="4.9271102"
       transform="matrix(-0.40192144,-0.06913329,-0.06388322,0.37139902,82.728166,-27.651684)" />
    <path
       style="display:inline;fill:#ca9e42;fill-opacity:0;stroke:none;stroke-width:1.95749px;stroke-linecap:butt;stroke-linejoin:miter;stroke-opacity:0"
       d="m 63.442417,32.090314 c 0,0 -35.793998,-12.265706 -24.536218,-22.3013008 C 50.163996,-0.24657001 54.493907,6.443812 54.493907,6.443812 c 0,0 7.793864,5.575337 8.659841,9.47806 0.865994,3.902736 4.041258,11.150666 0.288669,16.168442 z"
       id="path32792" />
    <ellipse
       style="display:inline;mix-blend-mode:normal;fill:#040404;fill-opacity:1;fill-rule:evenodd;stroke:none;stroke-width:3.29575;stroke-opacity:0;filter:url(#filter43573-9)"
       id="path43483-5"
       cx="-62.742134"
       cy="181.74757"
       rx="3.0741117"
       ry="2.8691709"
       transform="matrix(-0.31251459,0,0,0.29595004,20.415327,-20.804752)" />
    <ellipse
       style="display:inline;mix-blend-mode:normal;fill:#040404;fill-opacity:1;fill-rule:evenodd;stroke:none;stroke-width:3.29575;stroke-opacity:0;filter:url(#filter43573)"
       id="path43483"
       cx="-62.742134"
       cy="181.74757"
       rx="3.0741117"
       ry="2.8691709"
       transform="matrix(-0.30799162,-0.0529767,-0.05016872,0.29166681,13.375288,-24.147031)" />
    <path
       style="display:inline;fill:#4e0c0c;fill-opacity:1;stroke:#9a5d00;stroke-width:0.393655;stroke-linecap:butt;stroke-linejoin:miter;stroke-miterlimit:4;stroke-dasharray:none;stroke-opacity:1"
       d="m 40.515189,41.028916 c -4.619085,10.281174 -20.683451,-1.558048 -14.825251,-1.06611 8.861776,0.744159 11.696582,0.890559 14.825251,1.06611 z"
       id="path61359"
       sodipodi:nodetypes="csc" />
    <path
       style="fill:none;stroke:url(#linearGradient29568);stroke-width:1.23998;stroke-linecap:butt;stroke-linejoin:miter;stroke-miterlimit:4;stroke-dasharray:none;stroke-opacity:1"
       d="M 28.751135,28.850703 C 26.279969,27.514225 20.607939,27.271761 19.486323,27.647152"
       id="path29427"
       sodipodi:nodetypes="cc" />
    <path
       style="fill:none;stroke:url(#linearGradient38248);stroke-width:1.14591;stroke-linecap:butt;stroke-linejoin:miter;stroke-miterlimit:4;stroke-dasharray:none;stroke-opacity:1"
       d="m 36.824457,29.422985 c 1.846649,-1.576101 6.494367,-0.517865 7.986358,0.796924"
       id="path29427-2"
       sodipodi:nodetypes="cc" />
    <ellipse
       style="fill:#b1845c;fill-opacity:1;fill-rule:nonzero;stroke:none;stroke-width:0.974309;stroke-miterlimit:4;stroke-dasharray:none;stroke-opacity:1"
       id="path88357-1"
       cx="-44.261688"
       cy="71.998955"
       rx="3.9441109"
       ry="3.787539"
       transform="scale(-1,1)" />
    <path
       style="fill:url(#radialGradient117882);fill-opacity:1;stroke:#000000;stroke-width:0.398497px;stroke-linecap:butt;stroke-linejoin:miter;stroke-opacity:1"
       d="m 58.05427,37.16056 c -1.035658,-1.231895 1.673273,-5.115956 1.247142,-7.010194 -0.360717,-1.603447 -2.826535,-2.43656 -3.39078,-3.899826 -0.857276,-2.22319 -6.12466,-2.182428 -7.313184,-4.016433 -3.778081,-5.829944 -7.795547,-5.556922 -7.795547,-5.556922 0,0 -2.991075,1.50767 -5.011475,1.394716 -2.40398,-0.1344 -5.485746,-3.498427 -7.870357,-4.283928 -1.777676,-0.585582 -2.703365,1.522968 -4.418136,2.309829 -1.107946,0.50841 -1.674706,0.819503 -2.243605,2.226489 -1.346537,3.330221 -0.294567,8.770176 -3.220732,8.73316 -2.296623,-0.02905 -0.438759,-8.362098 -1.713043,-11.323831 -0.995712,-2.314254 -3.968695,-2.364208 -4.299839,-5.076543 -0.29449,-2.4120523 1.191448,-4.8524908 2.518366,-6.1779416 1.049984,-1.0488238 3.739376,-0.8372322 3.739376,-0.8372322 0,0 2.294355,-2.1091041 3.582169,-2.560667 3.12402,-1.095411 6.429021,-0.37345641 9.645359,-0.21731911 3.737326,0.18142151 7.536588,0.0515106 11.192139,1.33991391 8.549349,3.0132287 19.161395,4.0615729 24.554276,14.746015 1.389446,2.752791 1.52255,7.058395 0.793468,10.306506 -0.379301,1.68981 -2.464645,3.779219 -2.464645,3.779219 0,0 -6.00302,7.942438 -7.530952,6.124989 z"
       id="path97127"
       sodipodi:nodetypes="sssscsssssssscssssscs"
       inkscape:transform-center-x="-2.0335092"
       inkscape:transform-center-y="-0.50020587" />
    <g
       id="g100756"
       transform="matrix(-0.03846244,-0.01713157,-0.0159324,0.02680538,11.618838,67.312264)"
       style="fill:#ffffff;fill-opacity:1">
      <path
         style="fill:#ffffff;fill-opacity:1;stroke-width:0.0321672"
         d="m -431.99254,205.92847 c 0.0232,-0.009 0.051,-0.008 0.0617,0.003 0.0107,0.0107 -0.008,0.0183 -0.0422,0.0169 -0.0375,-0.002 -0.0451,-0.009 -0.0194,-0.0194 z m 16.01928,0 c 0.0232,-0.009 0.051,-0.008 0.0616,0.003 0.0107,0.0107 -0.008,0.0183 -0.0422,0.0169 -0.0375,-0.002 -0.0451,-0.009 -0.0194,-0.0194 z m 21.39121,0 c 0.0232,-0.009 0.051,-0.008 0.0617,0.003 0.0107,0.0107 -0.008,0.0183 -0.0422,0.0169 -0.0375,-0.002 -0.0451,-0.009 -0.0194,-0.0194 z m 15.82628,0 c 0.0232,-0.009 0.051,-0.008 0.0616,0.003 0.0107,0.0107 -0.008,0.0183 -0.0422,0.0169 -0.0375,-0.002 -0.0451,-0.009 -0.0194,-0.0194 z m 15.40811,-0.0322 c 0.0232,-0.009 0.051,-0.008 0.0617,0.003 0.0107,0.0107 -0.008,0.0183 -0.0422,0.0169 -0.0375,-0.002 -0.0451,-0.009 -0.0194,-0.0194 z m -65.04238,-0.68576 c -0.005,-0.23002 10e-4,-0.4182 0.0143,-0.41817 0.0133,3e-5 0.0241,0.18823 0.0241,0.41823 0,0.22999 -0.006,0.41817 -0.0143,0.41817 -0.008,0 -0.0187,-0.1882 -0.0241,-0.41823 z m 3.52828,-6.51381 c 0,-3.82146 0.004,-5.38002 0.008,-3.46345 0.005,1.91658 0.005,5.04323 0,6.94813 -0.005,1.9049 -0.008,0.33679 -0.008,-3.48468 z m 12.50986,6.51387 c 0,-0.23884 0.005,-0.33655 0.0113,-0.21713 0.006,0.11942 0.006,0.31484 0,0.43426 -0.006,0.11942 -0.0113,0.0217 -0.0113,-0.21713 z m 24.73987,-8.89424 c 0,-5.13068 0.004,-7.2248 0.008,-4.65361 0.005,2.57119 0.005,6.76901 0,9.3285 -0.005,2.55948 -0.008,0.45578 -0.008,-4.67489 z m 15.82621,2.38037 c 0,-3.82146 0.004,-5.38002 0.008,-3.46345 0.005,1.91658 0.005,5.04323 0,6.94813 -0.005,1.9049 -0.008,0.33679 -0.008,-3.48468 z m 12.52943,5.79404 c 0,-0.007 0.0253,-0.032 0.0563,-0.0563 0.051,-0.04 0.0522,-0.0389 0.0121,0.0121 -0.042,0.0536 -0.0684,0.0706 -0.0684,0.0441 z m -9.84318,-0.29344 c -0.0781,-0.0796 -0.13482,-0.14475 -0.12598,-0.14475 0.009,0 0.08,0.0651 0.15815,0.14475 0.0781,0.0796 0.13482,0.14475 0.12598,0.14475 -0.009,0 -0.08,-0.0651 -0.15815,-0.14475 z m -14.89753,-0.008 c -0.04,-0.051 -0.0389,-0.0522 0.0121,-0.0121 0.0536,0.042 0.0706,0.0684 0.0442,0.0684 -0.007,0 -0.032,-0.0253 -0.0563,-0.0563 z m -37.37833,-0.12867 c -0.04,-0.051 -0.0389,-0.0522 0.0122,-0.0121 0.0536,0.042 0.0706,0.0684 0.0441,0.0684 -0.007,0 -0.032,-0.0253 -0.0563,-0.0563 z m 21.32688,0 c -0.04,-0.051 -0.0389,-0.0522 0.0121,-0.0121 0.031,0.0243 0.0563,0.0496 0.0563,0.0563 0,0.0265 -0.0264,0.009 -0.0684,-0.0442 z m -37.40883,-0.12867 -0.078,-0.0885 0.0885,0.078 c 0.0827,0.0729 0.10321,0.0989 0.078,0.0989 -0.006,0 -0.0456,-0.0398 -0.0885,-0.0885 z m -0.20867,-0.20909 -0.0945,-0.10454 0.10454,0.0945 c 0.0974,0.0881 0.11933,0.11461 0.0945,0.11461 -0.006,0 -0.0526,-0.047 -0.10454,-0.10455 z m 15.88958,-0.0643 -0.0613,-0.0724 0.0724,0.0613 c 0.068,0.0576 0.087,0.0835 0.0613,0.0835 -0.006,0 -0.0387,-0.0326 -0.0724,-0.0724 z m 57.68896,-0.27127 c 0.0232,-0.009 0.051,-0.008 0.0616,0.003 0.0107,0.0107 -0.008,0.0183 -0.0422,0.0169 -0.0375,-0.002 -0.0451,-0.009 -0.0194,-0.0194 z m -68.29104,-0.67551 c 0.0232,-0.009 0.051,-0.008 0.0617,0.003 0.0107,0.0107 -0.008,0.0183 -0.0422,0.0169 -0.0375,-0.002 -0.0451,-0.009 -0.0194,-0.0194 z m 16.01928,0 c 0.0232,-0.009 0.051,-0.008 0.0617,0.003 0.0107,0.0107 -0.008,0.0183 -0.0422,0.0169 -0.0375,-0.002 -0.0451,-0.009 -0.0194,-0.0194 z m 21.23038,0 c 0.0232,-0.009 0.051,-0.008 0.0616,0.003 0.0107,0.0107 -0.008,0.0183 -0.0422,0.0169 -0.0375,-0.002 -0.0451,-0.009 -0.0194,-0.0194 z m -24.05506,-1.15213 c -0.0781,-0.0796 -0.13483,-0.14476 -0.12598,-0.14476 0.009,0 0.08,0.0651 0.15814,0.14476 0.0781,0.0796 0.13483,0.14475 0.12598,0.14475 -0.009,0 -0.08,-0.0651 -0.15814,-0.14475 z m 26.90789,-0.0161 c 0.032,-0.0354 0.0655,-0.0643 0.0743,-0.0643 0.009,0 -0.0101,0.029 -0.0421,0.0643 -0.032,0.0354 -0.0655,0.0643 -0.0743,0.0643 -0.009,0 0.0101,-0.0289 0.0421,-0.0643 z m -42.89911,-0.0241 c -0.04,-0.051 -0.0389,-0.0522 0.0121,-0.0121 0.031,0.0243 0.0563,0.0496 0.0563,0.0563 0,0.0265 -0.0264,0.009 -0.0684,-0.0441 z m 37.23462,-0.0161 -0.0613,-0.0724 0.0724,0.0613 c 0.068,0.0576 0.087,0.0835 0.0613,0.0835 -0.006,0 -0.0387,-0.0326 -0.0724,-0.0724 z m 40.07481,-0.24929 c 0,-0.0619 0.007,-0.0873 0.0147,-0.0563 0.008,0.031 0.008,0.0816 0,0.11258 -0.008,0.031 -0.0147,0.006 -0.0147,-0.0563 z m -10e-4,-0.20909 c 6.4e-4,-0.0531 0.008,-0.0709 0.016,-0.0396 0.008,0.0313 0.008,0.0747 -0.001,0.0965 -0.009,0.0218 -0.0155,-0.004 -0.0148,-0.0569 z m -28.56332,-2.13912 c 0,-0.0619 0.007,-0.0873 0.0147,-0.0563 0.008,0.031 0.008,0.0816 0,0.11258 -0.008,0.031 -0.0147,0.006 -0.0147,-0.0563 z m -49.92593,0 c 0,-0.0442 0.007,-0.0623 0.0162,-0.0402 0.009,0.0221 0.009,0.0583 0,0.0804 -0.009,0.0221 -0.0162,0.004 -0.0162,-0.0402 z m 37.24712,0.0134 c 0.002,-0.0375 0.009,-0.0451 0.0194,-0.0194 0.009,0.0232 0.008,0.051 -0.003,0.0617 -0.0107,0.0107 -0.0183,-0.008 -0.0169,-0.0422 z m 7.98001,-0.0134 c 0,-0.0442 0.007,-0.0623 0.0162,-0.0402 0.009,0.0221 0.009,0.0583 0,0.0804 -0.009,0.0221 -0.0162,0.004 -0.0162,-0.0402 z m 22.25055,0.008 c -0.04,-0.051 -0.0389,-0.0522 0.0121,-0.0121 0.031,0.0243 0.0563,0.0496 0.0563,0.0563 0,0.0265 -0.0264,0.009 -0.0684,-0.0442 z m -43.47724,-0.16888 c 0,-0.0796 0.006,-0.11218 0.0139,-0.0724 0.008,0.0398 0.008,0.10494 0,0.14475 -0.008,0.0398 -0.0139,0.007 -0.0139,-0.0724 z m -16.01993,-0.0161 c 3.6e-4,-0.0708 0.007,-0.0959 0.0146,-0.0559 0.008,0.04 0.007,0.0979 -6.5e-4,0.12867 -0.008,0.0308 -0.0144,-0.002 -0.014,-0.0727 z m 59.30416,-0.008 c -0.04,-0.051 -0.0389,-0.0522 0.0121,-0.0121 0.031,0.0243 0.0563,0.0496 0.0563,0.0563 0,0.0265 -0.0264,0.009 -0.0684,-0.0441 z m -17.35874,-0.13671 c 0,-0.0619 0.007,-0.0873 0.0147,-0.0563 0.008,0.031 0.008,0.0816 0,0.11258 -0.008,0.031 -0.0147,0.006 -0.0147,-0.0563 z m -49.92593,0 c 0,-0.0442 0.007,-0.0623 0.0162,-0.0402 0.009,0.0221 0.009,0.0583 0,0.0804 -0.009,0.0221 -0.0162,0.004 -0.0162,-0.0402 z m 45.22713,0 c 0,-0.0442 0.007,-0.0623 0.0162,-0.0402 0.009,0.0221 0.009,0.0583 0,0.0804 -0.009,0.0221 -0.0162,0.004 -0.0162,-0.0402 z m -7.98001,-0.0509 c 0.002,-0.0375 0.009,-0.0451 0.0194,-0.0194 0.009,0.0232 0.008,0.051 -0.003,0.0617 -0.0107,0.0107 -0.0183,-0.008 -0.0169,-0.0422 z m 17.01393,-2.4381 c 0,-0.007 0.0253,-0.032 0.0563,-0.0563 0.051,-0.04 0.0522,-0.0389 0.0122,0.0122 -0.042,0.0536 -0.0684,0.0706 -0.0684,0.0441 z m 5.7562,-0.14064 -0.11085,-0.12063 0.12063,0.11085 c 0.11227,0.10318 0.13541,0.1304 0.11085,0.1304 -0.005,0 -0.0597,-0.0543 -0.12063,-0.12062 z m 12.05725,-1.70434 c 0.0757,-0.007 0.19147,-0.007 0.25734,3.3e-4 0.0659,0.007 0.004,0.0125 -0.13756,0.0123 -0.14153,0 -0.19543,-0.006 -0.11978,-0.0126 z m -20.29033,-0.37247 c 0,-0.006 0.047,-0.0526 0.10455,-0.10455 l 0.10454,-0.0945 -0.0945,0.10455 c -0.0881,0.0975 -0.11461,0.11933 -0.11461,0.0945 z m -15.74586,-0.18294 c 0.032,-0.0354 0.0655,-0.0643 0.0743,-0.0643 0.009,0 -0.0101,0.0289 -0.0421,0.0643 -0.032,0.0354 -0.0655,0.0643 -0.0743,0.0643 -0.009,0 0.0101,-0.029 0.0421,-0.0643 z m 16.06753,-0.14475 c 0.0415,-0.0442 0.0828,-0.0804 0.0916,-0.0804 0.009,0 -0.0179,0.0362 -0.0595,0.0804 -0.0416,0.0442 -0.0828,0.0804 -0.0916,0.0804 -0.009,0 0.0179,-0.0362 0.0595,-0.0804 z m -44.12028,-1.25453 c -3e-5,-0.30076 0.005,-0.42813 0.0107,-0.28304 0.006,0.14509 0.006,0.39117 7e-5,0.54684 -0.006,0.15568 -0.0108,0.037 -0.0108,-0.2638 z m 16.02154,-2.38037 c 0,-1.60997 0.004,-2.26388 0.009,-1.45314 0.005,0.81074 0.005,2.12799 0,2.92722 -0.005,0.79922 -0.009,0.13589 -0.009,-1.47408 z m 47.45739,1.6668 c 0.0232,-0.009 0.051,-0.008 0.0616,0.003 0.0107,0.0107 -0.008,0.0183 -0.0422,0.0169 -0.0375,-0.002 -0.0451,-0.009 -0.0194,-0.0194 z m 1.12585,0 c 0.0232,-0.009 0.051,-0.008 0.0617,0.003 0.0107,0.0107 -0.008,0.0183 -0.0422,0.0169 -0.0375,-0.002 -0.0451,-0.009 -0.0194,-0.0194 z m -43.53341,-2.98566 c 10e-6,-0.95537 0.004,-1.34156 0.009,-0.8582 0.005,0.48335 0.005,1.26502 0,1.73703 -0.005,0.47201 -0.009,0.0765 -0.009,-0.87883 z m 48.91948,0.0965 c 3.6e-4,-0.0708 0.007,-0.0959 0.0146,-0.0559 0.008,0.04 0.007,0.0979 -6.4e-4,0.12867 -0.008,0.0308 -0.0143,-0.002 -0.014,-0.0728 z m -1.23046,0.0683 c 0,-0.007 0.0253,-0.032 0.0563,-0.0563 0.051,-0.04 0.0521,-0.0389 0.0122,0.0121 -0.042,0.0536 -0.0684,0.0706 -0.0684,0.0441 z m 0.013,-0.83224 -0.0613,-0.0724 0.0724,0.0613 c 0.068,0.0576 0.087,0.0835 0.0613,0.0835 -0.006,0 -0.0387,-0.0326 -0.0724,-0.0724 z m -1.58922,-0.22927 c 0,-0.007 0.0253,-0.032 0.0563,-0.0563 0.051,-0.04 0.0522,-0.0389 0.0121,0.0121 -0.042,0.0536 -0.0684,0.0706 -0.0684,0.0442 z m 2.2969,-0.25324 -0.0613,-0.0724 0.0724,0.0613 c 0.068,0.0576 0.087,0.0835 0.0613,0.0835 -0.006,0 -0.0387,-0.0326 -0.0724,-0.0724 z"
         id="path100770" />
      <path
         style="fill:#ffffff;fill-opacity:1;stroke-width:0.0321672"
         d="m -432.08905,205.92847 c 0.0232,-0.009 0.051,-0.008 0.0617,0.003 0.0107,0.0107 -0.008,0.0183 -0.0422,0.0169 -0.0375,-0.002 -0.0451,-0.009 -0.0194,-0.0194 z m 16.01929,0 c 0.0232,-0.009 0.051,-0.008 0.0616,0.003 0.0107,0.0107 -0.008,0.0183 -0.0422,0.0169 -0.0375,-0.002 -0.0451,-0.009 -0.0194,-0.0194 z m 51.2424,-0.0322 c 0.0232,-0.009 0.051,-0.008 0.0617,0.003 0.0107,0.0107 -0.008,0.0183 -0.0422,0.0169 -0.0375,-0.002 -0.0451,-0.009 -0.0194,-0.0194 z m -42.47109,-7.3604 c 0,-3.83916 0.004,-5.40495 0.008,-3.47953 0.005,1.92541 0.005,5.06654 0,6.98029 -0.005,1.91374 -0.008,0.3384 -0.008,-3.50076 z m 48.28331,5.70968 c 0.032,-0.0354 0.0655,-0.0643 0.0743,-0.0643 0.009,0 -0.0101,0.0289 -0.0421,0.0643 -0.032,0.0354 -0.0655,0.0643 -0.0743,0.0643 -0.009,0 0.0101,-0.029 0.0421,-0.0643 z m -62.48729,-0.31363 -0.078,-0.0885 0.0885,0.078 c 0.0486,0.0429 0.0885,0.0827 0.0885,0.0885 0,0.0252 -0.026,0.005 -0.0989,-0.078 z m 21.35738,0.0322 c -0.04,-0.051 -0.0389,-0.0522 0.0121,-0.0122 0.0536,0.042 0.0706,0.0684 0.0442,0.0684 -0.007,0 -0.032,-0.0253 -0.0563,-0.0563 z m -21.51988,-0.19301 c -0.04,-0.051 -0.0389,-0.0521 0.0121,-0.0121 0.031,0.0243 0.0563,0.0496 0.0563,0.0563 0,0.0265 -0.0264,0.009 -0.0684,-0.0442 z m 21.13387,-0.193 c -0.04,-0.051 -0.0389,-0.0522 0.0121,-0.0122 0.031,0.0243 0.0563,0.0496 0.0563,0.0563 0,0.0265 -0.0264,0.009 -0.0684,-0.0442 z m -31.99364,-0.86668 c 0.0313,-0.008 0.0747,-0.008 0.0965,0.001 0.0218,0.009 -0.004,0.0155 -0.0569,0.0148 -0.0531,-6.4e-4 -0.0709,-0.008 -0.0396,-0.016 z m 0.25734,0 c 0.0313,-0.008 0.0747,-0.008 0.0965,0.001 0.0218,0.009 -0.004,0.0155 -0.0569,0.0148 -0.0531,-6.4e-4 -0.0709,-0.008 -0.0396,-0.016 z m 15.76194,0 c 0.0313,-0.008 0.0747,-0.008 0.0965,0.001 0.0218,0.009 -0.004,0.0155 -0.0569,0.0148 -0.0531,-6.4e-4 -0.0709,-0.008 -0.0396,-0.016 z m 0.24064,0.001 c 0.0221,-0.009 0.0583,-0.009 0.0804,0 0.0221,0.009 0.004,0.0162 -0.0402,0.0162 -0.0442,0 -0.0623,-0.007 -0.0402,-0.0162 z m 20.98974,-0.001 c 0.0313,-0.008 0.0747,-0.008 0.0965,0.001 0.0218,0.009 -0.004,0.0155 -0.0569,0.0148 -0.0531,-6.4e-4 -0.0709,-0.008 -0.0396,-0.016 z m 0.25733,0 c 0.0313,-0.008 0.0747,-0.008 0.0965,0.001 0.0218,0.009 -0.004,0.0155 -0.0569,0.0148 -0.0531,-6.4e-4 -0.0709,-0.008 -0.0396,-0.016 z m 15.72917,0 c 0.031,-0.008 0.0816,-0.008 0.11259,0 0.031,0.008 0.006,0.0147 -0.0563,0.0147 -0.0619,0 -0.0872,-0.007 -0.0563,-0.0147 z m 0.25795,0 c 0.0313,-0.008 0.0747,-0.008 0.0965,0.001 0.0218,0.009 -0.004,0.0155 -0.0569,0.0148 -0.0531,-6.4e-4 -0.0709,-0.008 -0.0396,-0.016 z m 17.05606,-0.042 c 0.032,-0.0354 0.0655,-0.0643 0.0743,-0.0643 0.009,0 -0.0101,0.0289 -0.0421,0.0643 -0.032,0.0354 -0.0655,0.0643 -0.0743,0.0643 -0.009,0 0.0101,-0.029 0.0421,-0.0643 z m -30.44628,-0.97717 c 0,-0.007 0.0253,-0.032 0.0563,-0.0563 0.051,-0.04 0.0522,-0.0389 0.0122,0.0121 -0.042,0.0536 -0.0684,0.0706 -0.0684,0.0441 z m -37.12099,-0.1326 c 0.06,-0.0619 0.11636,-0.11259 0.1252,-0.11259 0.009,0 -0.033,0.0507 -0.093,0.11259 -0.06,0.0619 -0.11636,0.11258 -0.1252,0.11258 -0.009,0 0.033,-0.0507 0.093,-0.11258 z m 31.71279,0.0563 c -0.04,-0.051 -0.0389,-0.0522 0.0121,-0.0122 0.0536,0.042 0.0706,0.0684 0.0442,0.0684 -0.007,0 -0.032,-0.0253 -0.0563,-0.0563 z m -15.75784,-0.0524 c 0,-0.007 0.0253,-0.032 0.0563,-0.0563 0.051,-0.04 0.0522,-0.0389 0.0121,0.0121 -0.042,0.0536 -0.0684,0.0706 -0.0684,0.0441 z m -21.68482,-0.14064 c -0.04,-0.051 -0.0389,-0.0522 0.0121,-0.0121 0.0536,0.042 0.0706,0.0684 0.0442,0.0684 -0.007,0 -0.032,-0.0253 -0.0563,-0.0563 z m 37.21749,-0.0322 c -0.04,-0.051 -0.0389,-0.0522 0.0121,-0.0121 0.031,0.0243 0.0563,0.0496 0.0563,0.0563 0,0.0265 -0.0264,0.009 -0.0684,-0.0442 z m 31.30536,-0.18764 c 0.002,-0.0375 0.009,-0.0451 0.0194,-0.0194 0.009,0.0232 0.008,0.051 -0.003,0.0617 -0.0107,0.0107 -0.0183,-0.008 -0.0169,-0.0422 z m -61.62988,-2.29728 c 0,-0.0442 0.007,-0.0623 0.0162,-0.0402 0.009,0.0221 0.009,0.0583 0,0.0804 -0.009,0.0221 -0.0162,0.004 -0.0162,-0.0402 z m 16.01674,0.0134 c 0.002,-0.0375 0.009,-0.0451 0.0194,-0.0194 0.009,0.0232 0.008,0.051 -0.003,0.0617 -0.0107,0.0107 -0.0183,-0.008 -0.0169,-0.0422 z m 43.38696,-0.10186 c -0.04,-0.051 -0.0389,-0.0522 0.0121,-0.0122 0.0536,0.042 0.0706,0.0684 0.0442,0.0684 -0.007,0 -0.032,-0.0253 -0.0563,-0.0563 z m -17.45763,-0.0724 c 0,-0.0442 0.007,-0.0623 0.0162,-0.0402 0.009,0.0221 0.009,0.0583 0,0.0804 -0.009,0.0221 -0.0162,0.004 -0.0162,-0.0402 z m -41.94861,-0.1796 c 0.002,-0.0375 0.009,-0.0451 0.0194,-0.0194 0.009,0.0232 0.008,0.051 -0.003,0.0616 -0.0107,0.0107 -0.0183,-0.008 -0.0169,-0.0422 z m 16.01928,0 c 0.002,-0.0375 0.009,-0.0451 0.0194,-0.0194 0.009,0.0232 0.008,0.051 -0.003,0.0616 -0.0107,0.0107 -0.0183,-0.008 -0.0169,-0.0422 z m 50.47293,-2.52244 c 0,-0.0442 0.007,-0.0623 0.0162,-0.0402 0.009,0.0221 0.009,0.0583 0,0.0804 -0.009,0.0221 -0.0162,0.004 -0.0162,-0.0402 z m -57.26276,-0.14476 c 0.06,-0.0619 0.11636,-0.11258 0.12521,-0.11258 0.009,0 -0.033,0.0507 -0.093,0.11258 -0.06,0.0619 -0.11636,0.11259 -0.1252,0.11259 -0.009,0 0.033,-0.0507 0.093,-0.11259 z m 54.64409,-1.64575 c 0.0221,-0.009 0.0583,-0.009 0.0804,0 0.0221,0.009 0.004,0.0162 -0.0402,0.0162 -0.0442,0 -0.0623,-0.007 -0.0402,-0.0162 z m -72.88291,-0.73068 c 0,-0.007 0.0253,-0.032 0.0563,-0.0563 0.051,-0.04 0.0522,-0.0389 0.0121,0.0121 -0.042,0.0536 -0.0684,0.0706 -0.0684,0.0442 z m 72.59542,-1.93987 c 0.0232,-0.009 0.051,-0.008 0.0616,0.003 0.0107,0.0107 -0.008,0.0183 -0.0422,0.0169 -0.0375,-0.002 -0.0451,-0.009 -0.0194,-0.0194 z m 0.93285,0 c 0.0232,-0.009 0.051,-0.008 0.0617,0.003 0.0107,0.0107 -0.008,0.0183 -0.0422,0.0169 -0.0375,-0.002 -0.0451,-0.009 -0.0194,-0.0194 z m 3.68114,-1.41555 c 0.031,-0.008 0.0816,-0.008 0.11258,0 0.031,0.008 0.006,0.0147 -0.0563,0.0147 -0.0619,0 -0.0872,-0.007 -0.0563,-0.0147 z m 0.0503,-2.95919 c 0.0232,-0.009 0.051,-0.008 0.0616,0.003 0.0107,0.0107 -0.008,0.0183 -0.0422,0.0169 -0.0375,-0.002 -0.0451,-0.009 -0.0194,-0.0194 z"
         id="path100768" />
      <path
         style="fill:#ffffff;fill-opacity:1;stroke-width:0.0321672"
         d="m -432.89524,205.92914 c 0.0221,-0.009 0.0583,-0.009 0.0804,0 0.0221,0.009 0.004,0.0162 -0.0402,0.0162 -0.0442,0 -0.0623,-0.007 -0.0402,-0.0162 z m 16.0213,-6.8e-4 c 0.0232,-0.009 0.051,-0.008 0.0616,0.003 0.0107,0.0107 -0.008,0.0183 -0.0422,0.0169 -0.0375,-0.002 -0.0451,-0.009 -0.0194,-0.0194 z m 0.70768,0 c 0.0232,-0.009 0.051,-0.008 0.0617,0.003 0.0107,0.0107 -0.008,0.0183 -0.0422,0.0169 -0.0375,-0.002 -0.0451,-0.009 -0.0194,-0.0194 z m 20.68152,6.8e-4 c 0.0221,-0.009 0.0583,-0.009 0.0804,0 0.0221,0.009 0.004,0.0162 -0.0402,0.0162 -0.0442,0 -0.0623,-0.007 -0.0402,-0.0162 z m 0.74185,-6.8e-4 c 0.0232,-0.009 0.051,-0.008 0.0617,0.003 0.0107,0.0107 -0.008,0.0183 -0.0422,0.0169 -0.0375,-0.002 -0.0451,-0.009 -0.0194,-0.0194 z m 15.08443,6.8e-4 c 0.0221,-0.009 0.0583,-0.009 0.0804,0 0.0221,0.009 0.004,0.0162 -0.0402,0.0162 -0.0442,0 -0.0623,-0.007 -0.0402,-0.0162 z m 0.74185,-6.8e-4 c 0.0232,-0.009 0.051,-0.008 0.0617,0.003 0.0107,0.0107 -0.008,0.0183 -0.0422,0.0169 -0.0375,-0.002 -0.0451,-0.009 -0.0194,-0.0194 z m -21.50082,-2.23777 -0.0613,-0.0724 0.0724,0.0613 c 0.068,0.0576 0.087,0.0835 0.0613,0.0835 -0.006,0 -0.0387,-0.0326 -0.0724,-0.0724 z m -13.07292,-2.22364 c 0,-0.007 0.0253,-0.032 0.0563,-0.0563 0.051,-0.04 0.0522,-0.0389 0.0121,0.0121 -0.042,0.0536 -0.0684,0.0706 -0.0684,0.0441 z m 46.74153,-0.16745 c 0.002,-0.0375 0.009,-0.0451 0.0194,-0.0194 0.009,0.0232 0.008,0.051 -0.003,0.0617 -0.0107,0.0107 -0.0183,-0.008 -0.0169,-0.0422 z m -72.92058,-2.23294 c 0,-0.0442 0.007,-0.0623 0.0162,-0.0402 0.009,0.0221 0.009,0.0583 0,0.0804 -0.009,0.0221 -0.0162,0.004 -0.0162,-0.0402 z m 56.55119,-0.33776 c 6.4e-4,-0.0531 0.008,-0.0709 0.016,-0.0396 0.008,0.0313 0.008,0.0747 -10e-4,0.0965 -0.009,0.0218 -0.0155,-0.004 -0.0148,-0.0569 z m -56.55373,-0.32435 c 0.002,-0.0375 0.009,-0.0451 0.0194,-0.0194 0.009,0.0232 0.008,0.051 -0.003,0.0617 -0.0107,0.0107 -0.0183,-0.008 -0.0169,-0.0422 z m 37.24965,-0.0322 c 0.002,-0.0375 0.009,-0.0451 0.0194,-0.0194 0.009,0.0232 0.008,0.051 -0.003,0.0617 -0.0107,0.0107 -0.0183,-0.008 -0.0169,-0.0422 z m 32.36278,-2.10427 c 0,-0.0442 0.007,-0.0623 0.0162,-0.0402 0.009,0.0221 0.009,0.0583 0,0.0804 -0.009,0.0221 -0.0162,0.004 -0.0162,-0.0402 z m -65.20806,-0.20307 c 0,-0.006 0.047,-0.0526 0.10454,-0.10455 l 0.10455,-0.0945 -0.0945,0.10454 c -0.0881,0.0974 -0.11461,0.11933 -0.11461,0.0945 z m 37.24966,0 c 0,-0.006 0.047,-0.0526 0.10454,-0.10455 l 0.10454,-0.0945 -0.0945,0.10454 c -0.0881,0.0974 -0.11461,0.11933 -0.11461,0.0945 z m 5.70766,-0.15881 -0.0945,-0.10455 0.10454,0.0945 c 0.0974,0.0881 0.11933,0.11461 0.0945,0.11461 -0.006,0 -0.0526,-0.0471 -0.10454,-0.10454 z m -37.25069,0 -0.0613,-0.0724 0.0724,0.0613 c 0.068,0.0576 0.087,0.0835 0.0613,0.0835 -0.006,0 -0.0387,-0.0326 -0.0724,-0.0724 z m 67.21406,-1.10977 -0.078,-0.0885 0.0885,0.078 c 0.0827,0.0729 0.10321,0.0989 0.078,0.0989 -0.006,0 -0.0456,-0.0398 -0.0885,-0.0885 z m -2.25531,-0.5447 c 0.0232,-0.009 0.051,-0.008 0.0617,0.003 0.0107,0.0107 -0.008,0.0183 -0.0422,0.0169 -0.0375,-0.002 -0.0451,-0.009 -0.0194,-0.0194 z m -67.42252,-2.63771 c 0.0232,-0.009 0.051,-0.008 0.0617,0.003 0.0107,0.0107 -0.008,0.0183 -0.0422,0.0169 -0.0375,-0.002 -0.0451,-0.009 -0.0194,-0.0194 z m 16.01928,0 c 0.0232,-0.009 0.051,-0.008 0.0617,0.003 0.0107,0.0107 -0.008,0.0183 -0.0422,0.0169 -0.0375,-0.002 -0.0451,-0.009 -0.0194,-0.0194 z m 21.39121,0 c 0.0232,-0.009 0.051,-0.008 0.0617,0.003 0.0107,0.0107 -0.008,0.0183 -0.0422,0.0169 -0.0375,-0.002 -0.0451,-0.009 -0.0194,-0.0194 z m 15.82628,0 c 0.0232,-0.009 0.051,-0.008 0.0617,0.003 0.0107,0.0107 -0.008,0.0183 -0.0422,0.0169 -0.0375,-0.002 -0.0451,-0.009 -0.0194,-0.0194 z m 14.8291,-0.0322 c 0.0232,-0.009 0.051,-0.008 0.0616,0.003 0.0107,0.0107 -0.008,0.0183 -0.0422,0.0169 -0.0375,-0.002 -0.0451,-0.009 -0.0194,-0.0194 z m 3.58463,-2.73528 c 0.0487,-0.007 0.12827,-0.007 0.17692,0 0.0487,0.007 0.009,0.0134 -0.0885,0.0134 -0.0973,0 -0.13711,-0.006 -0.0885,-0.0134 z m 0.14677,-1.63946 c 0.0232,-0.009 0.051,-0.008 0.0616,0.003 0.0107,0.0107 -0.008,0.0183 -0.0422,0.0169 -0.0375,-0.002 -0.0451,-0.009 -0.0194,-0.0194 z m -41.31278,-0.35576 c 6.07842,-0.0219 10.43827,-0.022 10.43826,-3.2e-4 0,0.0133 -2.86248,0.0206 -6.36107,0.0163 -3.49859,-0.004 -5.33333,-0.0115 -4.07719,-0.0161 z"
         id="path100766" />
      <path
         style="fill:#ffffff;fill-opacity:1;stroke-width:0.0321672"
         d="m -432.76657,205.92914 c 0.0221,-0.009 0.0583,-0.009 0.0804,0 0.0221,0.009 0.004,0.0162 -0.0402,0.0162 -0.0442,0 -0.0623,-0.007 -0.0402,-0.0162 z m 0.46704,-10e-4 c 0.0313,-0.008 0.0747,-0.008 0.0965,10e-4 0.0218,0.009 -0.004,0.0155 -0.0569,0.0148 -0.0531,-6.4e-4 -0.0709,-0.008 -0.0396,-0.016 z m 15.53677,0 c 0.0313,-0.008 0.0747,-0.008 0.0965,10e-4 0.0218,0.009 -0.004,0.0155 -0.0569,0.0148 -0.0531,-6.4e-4 -0.0709,-0.008 -0.0396,-0.016 z m 0.46582,10e-4 c 0.0221,-0.009 0.0583,-0.009 0.0804,0 0.0221,0.009 0.004,0.0162 -0.0402,0.0162 -0.0442,0 -0.0623,-0.007 -0.0402,-0.0162 z m 20.95756,-10e-4 c 0.0313,-0.008 0.0747,-0.008 0.0965,10e-4 0.0218,0.009 -0.004,0.0155 -0.0569,0.0148 -0.0531,-6.4e-4 -0.0709,-0.008 -0.0396,-0.016 z m 0.45034,0 c 0.0313,-0.008 0.0747,-0.008 0.0965,10e-4 0.0218,0.009 -0.004,0.0155 -0.0569,0.0148 -0.0531,-6.4e-4 -0.0709,-0.008 -0.0396,-0.016 z m 15.37594,0 c 0.0313,-0.008 0.0747,-0.008 0.0965,10e-4 0.0218,0.009 -0.004,0.0155 -0.0569,0.0148 -0.0531,-6.4e-4 -0.0709,-0.008 -0.0396,-0.016 z m 0.45034,0 c 0.0313,-0.008 0.0747,-0.008 0.0965,10e-4 0.0218,0.009 -0.004,0.0155 -0.0569,0.0148 -0.0531,-6.4e-4 -0.0709,-0.008 -0.0396,-0.016 z m 14.39624,-0.0319 c 0.0232,-0.009 0.051,-0.008 0.0616,0.003 0.0107,0.0107 -0.008,0.0183 -0.0422,0.0169 -0.0375,-0.002 -0.0451,-0.009 -0.0194,-0.0194 z m 1.05951,6.8e-4 c 0.0221,-0.009 0.0583,-0.009 0.0804,0 0.0221,0.009 0.004,0.0162 -0.0402,0.0162 -0.0442,0 -0.0623,-0.007 -0.0402,-0.0162 z m -20.55093,-1.86852 c -0.04,-0.051 -0.0389,-0.0521 0.0122,-0.0121 0.0536,0.042 0.0706,0.0684 0.0441,0.0684 -0.007,0 -0.032,-0.0253 -0.0563,-0.0563 z m -16.14795,-0.22517 c -0.04,-0.051 -0.0389,-0.0522 0.0121,-0.0121 0.0536,0.042 0.0706,0.0684 0.0441,0.0684 -0.007,0 -0.032,-0.0253 -0.0563,-0.0563 z m 18.33532,-2.2517 c -0.04,-0.051 -0.0389,-0.0522 0.0122,-0.0121 0.031,0.0243 0.0563,0.0496 0.0563,0.0563 0,0.0265 -0.0264,0.009 -0.0684,-0.0441 z m 12.47466,-0.41815 c 0.49854,-0.005 1.32363,-0.005 1.83354,-10e-6 0.5099,0.005 0.102,0.009 -0.90644,0.009 -1.00844,0 -1.42563,-0.004 -0.9271,-0.009 z m -54.15675,-2.0212 c 0.002,-0.0375 0.009,-0.0451 0.0194,-0.0194 0.009,0.0232 0.008,0.051 -0.003,0.0617 -0.0107,0.0107 -0.0183,-0.008 -0.0169,-0.0422 z m 21.23411,-0.12599 c 6.4e-4,-0.0531 0.008,-0.0709 0.016,-0.0396 0.008,0.0313 0.008,0.0747 -10e-4,0.0965 -0.009,0.0218 -0.0155,-0.004 -0.0148,-0.0569 z m -37.24966,-0.0643 c 6.5e-4,-0.0531 0.008,-0.0709 0.016,-0.0396 0.008,0.0313 0.008,0.0747 -10e-4,0.0965 -0.009,0.0218 -0.0155,-0.004 -0.0148,-0.0569 z m 56.54881,-0.0482 c 0,-0.0442 0.007,-0.0623 0.0162,-0.0402 0.009,0.0221 0.009,0.0583 0,0.0804 -0.009,0.0221 -0.0162,0.004 -0.0162,-0.0402 z m 24.21441,-0.18496 -0.078,-0.0885 0.0885,0.078 c 0.0827,0.0729 0.10321,0.0989 0.078,0.0989 -0.006,0 -0.0456,-0.0398 -0.0885,-0.0885 z m -24.21441,-0.10454 c 0,-0.0442 0.007,-0.0623 0.0162,-0.0402 0.009,0.0221 0.009,0.0583 0,0.0804 -0.009,0.0221 -0.0162,0.004 -0.0162,-0.0402 z m -56.54881,-0.0482 c 6.5e-4,-0.0531 0.008,-0.0709 0.016,-0.0396 0.008,0.0313 0.008,0.0747 -10e-4,0.0965 -0.009,0.0218 -0.0155,-0.004 -0.0148,-0.0569 z m 37.24966,-0.0322 c 6.4e-4,-0.0531 0.008,-0.0709 0.016,-0.0396 0.008,0.0313 0.008,0.0747 -10e-4,0.0965 -0.009,0.0218 -0.0155,-0.004 -0.0148,-0.0569 z m 32.35904,-2.36429 c 0,-0.0442 0.007,-0.0623 0.0162,-0.0402 0.009,0.0221 0.009,0.0583 0,0.0804 -0.009,0.0221 -0.0162,0.004 -0.0162,-0.0402 z m 9.03969,-0.0241 c 0.47201,-0.005 1.25367,-0.005 1.73703,-1e-5 0.48335,0.005 0.0972,0.009 -0.8582,0.009 -0.95537,1e-5 -1.35084,-0.004 -0.87883,-0.009 z m -9.0385,-0.18499 c 6.5e-4,-0.0531 0.008,-0.0709 0.016,-0.0396 0.008,0.0313 0.008,0.0747 -10e-4,0.0965 -0.009,0.0218 -0.0155,-0.004 -0.0148,-0.0569 z m -65.01625,-0.0604 c 0,-0.007 0.0253,-0.032 0.0563,-0.0563 0.051,-0.04 0.0521,-0.0389 0.0121,0.0121 -0.042,0.0536 -0.0684,0.0706 -0.0684,0.0441 z m 37.24966,0 c 0,-0.007 0.0253,-0.032 0.0563,-0.0563 0.051,-0.04 0.0522,-0.0389 0.0122,0.0121 -0.042,0.0536 -0.0684,0.0706 -0.0684,0.0441 z m -34.57112,-1.136 c 0.0313,-0.008 0.0747,-0.008 0.0965,10e-4 0.0218,0.009 -0.004,0.0155 -0.0569,0.0148 -0.0531,-6.4e-4 -0.0709,-0.008 -0.0396,-0.016 z m 16.01928,0 c 0.0313,-0.008 0.0747,-0.008 0.0965,10e-4 0.0218,0.009 -0.004,0.0155 -0.0569,0.0148 -0.0531,-6.4e-4 -0.0709,-0.008 -0.0396,-0.016 z m 21.23037,0 c 0.0313,-0.008 0.0747,-0.008 0.0965,10e-4 0.0218,0.009 -0.004,0.0155 -0.0569,0.0148 -0.0531,-6.4e-4 -0.0709,-0.008 -0.0396,-0.016 z m 16.00259,10e-4 c 0.0221,-0.009 0.0583,-0.009 0.0804,0 0.0221,0.009 0.004,0.0162 -0.0402,0.0162 -0.0442,0 -0.0623,-0.007 -0.0402,-0.0162 z m -42.64571,-0.85936 c 0,-0.007 0.0253,-0.032 0.0563,-0.0563 0.051,-0.04 0.0522,-0.0389 0.0121,0.0121 -0.042,0.0536 -0.0684,0.0706 -0.0684,0.0442 z m -15.85845,-0.10044 c 0.0416,-0.0442 0.0828,-0.0804 0.0916,-0.0804 0.009,0 -0.0179,0.0362 -0.0595,0.0804 -0.0416,0.0442 -0.0828,0.0804 -0.0916,0.0804 -0.009,0 0.0179,-0.0362 0.0595,-0.0804 z m 16.18012,-0.22124 c 0,-0.007 0.0253,-0.032 0.0563,-0.0563 0.051,-0.04 0.0522,-0.0389 0.0121,0.0121 -0.042,0.0536 -0.0684,0.0706 -0.0684,0.0441 z m -10.65338,-1.93986 c 0.0232,-0.009 0.051,-0.008 0.0617,0.003 0.0107,0.0107 -0.008,0.0183 -0.0422,0.0169 -0.0375,-0.002 -0.0451,-0.009 -0.0194,-0.0194 z m 16.01928,0 c 0.0232,-0.009 0.051,-0.008 0.0616,0.003 0.0107,0.0107 -0.008,0.0183 -0.0422,0.0169 -0.0375,-0.002 -0.0451,-0.009 -0.0194,-0.0194 z m 51.49773,-0.0329 c 0.0398,-0.008 0.10495,-0.008 0.14476,0 0.0398,0.008 0.007,0.0139 -0.0724,0.0139 -0.0796,0 -0.11218,-0.006 -0.0724,-0.0139 z m 0.45072,0 c 0.04,-0.008 0.0979,-0.007 0.12867,6.4e-4 0.0308,0.008 -0.002,0.0144 -0.0727,0.014 -0.0708,-3.5e-4 -0.0959,-0.007 -0.0559,-0.0146 z m -42.26812,-0.0335 c 0.4821,-0.005 1.27101,-0.005 1.75311,0 0.48211,0.005 0.0877,0.009 -0.87656,0.009 -0.96421,0 -1.35866,-0.004 -0.87655,-0.009 z m 45.70084,-2.86289 7.4e-4,-0.92483 0.41018,-0.002 0.41018,-0.002 -0.40164,0.0105 -0.40165,0.0105 -0.009,0.91582 -0.009,0.91582 7.4e-4,-0.92481 z m -50.7511,-1.70491 c 0.48211,-0.005 1.27101,-0.005 1.75312,0 0.4821,0.005 0.0877,0.009 -0.87656,0.009 -0.96421,0 -1.35867,-0.004 -0.87656,-0.009 z m 21.23038,0 c 0.4821,-0.005 1.271,-0.005 1.75311,0 0.48211,0.005 0.0877,0.009 -0.87656,0.009 -0.96421,0 -1.35866,-0.004 -0.87655,-0.009 z m -34.24203,-0.12869 c 2.22477,-0.005 5.8653,-0.005 8.09006,0 2.22477,0.005 0.40451,0.008 -4.04503,0.008 -4.44953,0 -6.26979,-0.004 -4.04503,-0.008 z m 41.34294,3.2e-4 c 7.82016,-0.0219 13.26899,-0.022 13.26899,-3.2e-4 0,0.0133 -3.64415,0.0206 -8.0981,0.0163 -4.45396,-0.004 -6.78086,-0.0115 -5.17089,-0.0161 z"
         id="path100764" />
      <path
         style="fill:#ffffff;fill-opacity:1;stroke-width:0.0321672"
         d="m -432.58965,205.9274 c 0.0487,-0.007 0.12827,-0.007 0.17692,0 0.0487,0.007 0.009,0.0134 -0.0885,0.0134 -0.0973,0 -0.13711,-0.006 -0.0885,-0.0134 z m 16.01928,0 c 0.0487,-0.007 0.12827,-0.007 0.17692,0 0.0487,0.007 0.009,0.0134 -0.0885,0.0134 -0.0973,0 -0.13711,-0.006 -0.0885,-0.0134 z m 21.42382,0 c 0.0489,-0.007 0.12128,-0.007 0.16084,4.5e-4 0.0396,0.008 -4.5e-4,0.0137 -0.0889,0.0135 -0.0885,-3.3e-4 -0.12083,-0.006 -0.0719,-0.0139 z m 15.82628,0 c 0.0489,-0.007 0.12128,-0.007 0.16084,4.5e-4 0.0396,0.008 -4.5e-4,0.0137 -0.0889,0.0135 -0.0885,-3.3e-4 -0.12083,-0.006 -0.0719,-0.0139 z m 14.75025,-0.031 c 0.0232,-0.009 0.051,-0.008 0.0617,0.003 0.0107,0.0107 -0.008,0.0183 -0.0422,0.0169 -0.0375,-0.002 -0.0451,-0.009 -0.0194,-0.0194 z m 0.86852,0 c 0.0232,-0.009 0.051,-0.008 0.0616,0.003 0.0107,0.0107 -0.008,0.0183 -0.0422,0.0169 -0.0375,-0.002 -0.0451,-0.009 -0.0194,-0.0194 z m -11.40074,-0.68575 c 0,-0.23884 0.005,-0.33655 0.0113,-0.21713 0.006,0.11942 0.006,0.31484 0,0.43426 -0.006,0.11942 -0.0113,0.0217 -0.0113,-0.21713 z m -9.16724,-1.29473 -0.0613,-0.0724 0.0724,0.0613 c 0.068,0.0576 0.087,0.0835 0.0613,0.0835 -0.006,0 -0.0387,-0.0326 -0.0724,-0.0724 z m -0.1458,-0.14476 c -0.04,-0.051 -0.0389,-0.0521 0.0122,-0.0121 0.031,0.0243 0.0563,0.0496 0.0563,0.0563 0,0.0265 -0.0264,0.009 -0.0684,-0.0442 z m 2.54121,-2.12303 c -0.04,-0.051 -0.0389,-0.0522 0.0122,-0.0121 0.0536,0.042 0.0706,0.0684 0.0442,0.0684 -0.007,0 -0.032,-0.0253 -0.0563,-0.0563 z m 5.53687,-0.0845 c 0,-0.007 0.0253,-0.032 0.0563,-0.0563 0.051,-0.04 0.0521,-0.0389 0.0121,0.0121 -0.042,0.0536 -0.0684,0.0706 -0.0684,0.0441 z m -5.72987,-0.10848 c -0.04,-0.051 -0.0389,-0.0522 0.0122,-0.0121 0.031,0.0243 0.0563,0.0496 0.0563,0.0563 0,0.0265 -0.0264,0.009 -0.0684,-0.0442 z m -41.58186,-2.46883 c 6.6e-4,-0.0531 0.008,-0.0709 0.016,-0.0396 0.008,0.0313 0.008,0.0747 -0.001,0.0965 -0.009,0.0218 -0.0155,-0.004 -0.0148,-0.0569 z m 21.23375,-0.24126 c 0,-0.0973 0.006,-0.13711 0.0134,-0.0885 0.007,0.0487 0.007,0.12827 0,0.17692 -0.007,0.0487 -0.0134,0.009 -0.0134,-0.0885 z m -37.25119,-0.0161 c 3.6e-4,-0.0708 0.007,-0.0959 0.0146,-0.0559 0.008,0.04 0.007,0.0979 -6.5e-4,0.12867 -0.008,0.0308 -0.0143,-0.002 -0.014,-0.0727 z m 16.01863,-0.24125 c 0,-0.0619 0.007,-0.0873 0.0147,-0.0563 0.008,0.031 0.008,0.0816 0,0.11259 -0.008,0.031 -0.0147,0.006 -0.0147,-0.0563 z m 10.17041,-2.45276 -0.0613,-0.0724 0.0724,0.0613 c 0.068,0.0576 0.087,0.0835 0.0613,0.0835 -0.006,0 -0.0387,-0.0326 -0.0724,-0.0724 z m -0.17796,-0.17692 c -0.04,-0.051 -0.0389,-0.0521 0.0121,-0.0121 0.031,0.0243 0.0563,0.0496 0.0563,0.0563 0,0.0265 -0.0264,0.009 -0.0684,-0.0442 z m 47.0673,-0.34847 c 0.002,-0.0375 0.009,-0.0451 0.0194,-0.0194 0.009,0.0232 0.008,0.051 -0.003,0.0617 -0.0107,0.0107 -0.0183,-0.008 -0.0169,-0.0422 z M -432.5414,194.735 c 0.0221,-0.009 0.0583,-0.009 0.0804,0 0.0221,0.009 0.004,0.0162 -0.0402,0.0162 -0.0442,0 -0.0623,-0.007 -0.0402,-0.0162 z m 0.28951,0 c 0.0221,-0.009 0.0583,-0.009 0.0804,0 0.0221,0.009 0.004,0.0162 -0.0402,0.0162 -0.0442,0 -0.0623,-0.007 -0.0402,-0.0162 z m 15.72978,0 c 0.0221,-0.009 0.0583,-0.009 0.0804,0 0.0221,0.009 0.004,0.0162 -0.0402,0.0162 -0.0442,0 -0.0623,-0.007 -0.0402,-0.0162 z m 0.2895,0 c 0.0221,-0.009 0.0583,-0.009 0.0804,0 0.0221,0.009 0.004,0.0162 -0.0402,0.0162 -0.0442,0 -0.0623,-0.007 -0.0402,-0.0162 z m 20.94087,0 c 0.0221,-0.009 0.0583,-0.009 0.0804,0 0.0221,0.009 0.004,0.0162 -0.0402,0.0162 -0.0442,0 -0.0623,-0.007 -0.0402,-0.0162 z m 0.28951,0 c 0.0221,-0.009 0.0583,-0.009 0.0804,0 0.0221,0.009 0.004,0.0162 -0.0402,0.0162 -0.0442,0 -0.0623,-0.007 -0.0402,-0.0162 z m 15.7143,-9.9e-4 c 0.0313,-0.008 0.0747,-0.008 0.0965,10e-4 0.0218,0.009 -0.004,0.0155 -0.0569,0.0148 -0.0531,-6.4e-4 -0.0709,-0.008 -0.0396,-0.016 z m 0.27281,9.9e-4 c 0.0221,-0.009 0.0583,-0.009 0.0804,0 0.0221,0.009 0.004,0.0162 -0.0402,0.0162 -0.0442,0 -0.0623,-0.007 -0.0402,-0.0162 z m -42.67788,-0.95586 c 0,-0.007 0.0253,-0.032 0.0563,-0.0563 0.051,-0.04 0.0522,-0.0389 0.0122,0.0121 -0.042,0.0536 -0.0684,0.0706 -0.0684,0.0441 z m 0.12867,-0.12867 c 0,-0.007 0.0253,-0.032 0.0563,-0.0563 0.051,-0.04 0.0522,-0.0389 0.0122,0.0121 -0.042,0.0536 -0.0684,0.0706 -0.0684,0.0441 z m 52.56126,-0.35384 c 0,-0.007 0.0253,-0.032 0.0563,-0.0563 0.051,-0.04 0.0522,-0.0389 0.0121,0.0121 -0.042,0.0536 -0.0684,0.0706 -0.0684,0.0441 z m 9.31039,-0.0924 -0.0945,-0.10455 0.10454,0.0945 c 0.0975,0.0881 0.11933,0.11461 0.0945,0.11461 -0.006,0 -0.0526,-0.047 -0.10455,-0.10454 z m -9.11738,-0.10061 c 0,-0.007 0.0253,-0.032 0.0563,-0.0563 0.051,-0.04 0.0522,-0.0389 0.0121,0.0121 -0.042,0.0536 -0.0684,0.0706 -0.0684,0.0441 z m -6.29162,-0.80812 c 0,-0.30076 0.005,-0.42813 0.0107,-0.28304 0.006,0.14509 0.006,0.39117 0,0.54684 -0.006,0.15568 -0.0108,0.037 -0.0108,-0.2638 z m -57.77686,-0.68172 c 0.0313,-0.008 0.0747,-0.008 0.0965,0.001 0.0218,0.009 -0.004,0.0155 -0.0569,0.0148 -0.0531,-6.4e-4 -0.0709,-0.008 -0.0396,-0.016 z m 16.01928,0 c 0.0313,-0.008 0.0747,-0.008 0.0965,0.001 0.0218,0.009 -0.004,0.0155 -0.0569,0.0148 -0.0531,-6.4e-4 -0.0709,-0.008 -0.0396,-0.016 z m 21.39121,0 c 0.0313,-0.008 0.0747,-0.008 0.0965,0.001 0.0218,0.009 -0.004,0.0155 -0.0569,0.0148 -0.0531,-6.4e-4 -0.0709,-0.008 -0.0396,-0.016 z m 0.693,3.2e-4 c 0.0232,-0.009 0.051,-0.008 0.0617,0.003 0.0107,0.0107 -0.008,0.0183 -0.0422,0.0169 -0.0375,-0.002 -0.0451,-0.009 -0.0194,-0.0194 z m 15.13328,-3.2e-4 c 0.0313,-0.008 0.0747,-0.008 0.0965,0.001 0.0218,0.009 -0.004,0.0155 -0.0569,0.0148 -0.0531,-6.4e-4 -0.0709,-0.008 -0.0396,-0.016 z m 0.693,3.2e-4 c 0.0232,-0.009 0.051,-0.008 0.0617,0.003 0.0107,0.0107 -0.008,0.0183 -0.0422,0.0169 -0.0375,-0.002 -0.0451,-0.009 -0.0194,-0.0194 z m 14.58583,-0.0324 c 0.031,-0.008 0.0816,-0.008 0.11258,0 0.031,0.008 0.006,0.0147 -0.0563,0.0147 -0.0619,0 -0.0872,-0.007 -0.0563,-0.0147 z m -42.05866,-1.28862 c 0.4821,-0.005 1.27101,-0.005 1.75311,0 0.48211,0.005 0.0877,0.009 -0.87656,0.009 -0.96421,0 -1.35866,-0.004 -0.87655,-0.009 z m 45.0059,-0.48254 c -0.04,-0.051 -0.0389,-0.0522 0.0121,-0.0121 0.031,0.0243 0.0563,0.0496 0.0563,0.0563 0,0.0265 -0.0264,0.009 -0.0684,-0.0442 z m 0.94923,-0.57096 c 0,-0.21231 0.005,-0.29497 0.0116,-0.1837 0.006,0.11126 0.006,0.28496 0,0.386 -0.006,0.10104 -0.0115,0.01 -0.0114,-0.2023 z m -5.4e-4,-0.93285 c 0,-0.17692 0.005,-0.2452 0.012,-0.15172 0.007,0.0935 0.006,0.23823 0,0.32167 -0.007,0.0834 -0.0119,0.007 -0.0118,-0.16995 z m 0.69847,-0.003 c 0.002,-0.0375 0.009,-0.0451 0.0194,-0.0194 0.009,0.0232 0.008,0.051 -0.003,0.0617 -0.0107,0.0107 -0.0183,-0.008 -0.0169,-0.0422 z"
         id="path100762" />
      <path
         style="fill:#ffffff;fill-opacity:1;stroke-width:0.0321672"
         d="m -417.16345,205.8963 c 0.0232,-0.009 0.051,-0.008 0.0617,0.003 0.0107,0.0107 -0.008,0.0183 -0.0422,0.0169 -0.0375,-0.002 -0.0451,-0.009 -0.0194,-0.0194 z m 52.72047,-7.7e-4 c 0.04,-0.008 0.0979,-0.007 0.12866,6.5e-4 0.0308,0.008 -0.002,0.0143 -0.0727,0.014 -0.0708,-3.5e-4 -0.0959,-0.007 -0.0559,-0.0146 z m 0.54684,0 c 0.04,-0.008 0.0979,-0.007 0.12867,6.5e-4 0.0308,0.008 -0.002,0.0143 -0.0728,0.014 -0.0708,-3.5e-4 -0.0959,-0.007 -0.0559,-0.0146 z m -63.595,-0.29086 c 0.4821,-0.005 1.27101,-0.005 1.75311,0 0.48211,0.005 0.0877,0.009 -0.87655,0.009 -0.96422,0 -1.35867,-0.004 -0.87656,-0.009 z m 16.01928,0 c 0.48211,-0.005 1.27101,-0.005 1.75312,0 0.4821,0.005 0.0877,0.009 -0.87656,0.009 -0.96421,0 -1.35867,-0.004 -0.87656,-0.009 z m 21.23038,0 c 0.4821,-0.005 1.271,-0.005 1.75311,0 0.48211,0.005 0.0877,0.009 -0.87656,0.009 -0.96421,0 -1.35866,-0.004 -0.87655,-0.009 z m 15.97103,0 c 0.45557,-0.005 1.20104,-0.005 1.65661,0 0.45557,0.005 0.0828,0.009 -0.8283,0.009 -0.91114,0 -1.28388,-0.004 -0.82831,-0.009 z m 5.32761,-1.28671 c -0.04,-0.051 -0.0389,-0.0522 0.0121,-0.0121 0.0536,0.042 0.0706,0.0684 0.0442,0.0684 -0.007,0 -0.032,-0.0253 -0.0563,-0.0563 z m -0.2402,-0.24126 -0.0613,-0.0724 0.0724,0.0613 c 0.068,0.0576 0.087,0.0835 0.0613,0.0835 -0.006,0 -0.0387,-0.0326 -0.0724,-0.0724 z m -68.17784,-0.0804 -0.078,-0.0885 0.0885,0.078 c 0.0827,0.0729 0.10321,0.0989 0.078,0.0989 -0.006,0 -0.0456,-0.0398 -0.0885,-0.0885 z m -0.35384,-0.35384 -0.078,-0.0885 0.0885,0.078 c 0.0827,0.0729 0.10321,0.0989 0.078,0.0989 -0.006,0 -0.0456,-0.0398 -0.0885,-0.0885 z m 15.92112,-0.0322 c -0.04,-0.051 -0.0389,-0.0522 0.0121,-0.0121 0.0536,0.042 0.0706,0.0684 0.0442,0.0684 -0.007,0 -0.032,-0.0253 -0.0563,-0.0563 z m 55.61952,-0.96502 -0.11086,-0.12063 0.12063,0.11086 c 0.11228,0.10318 0.13542,0.1304 0.11086,0.1304 -0.005,0 -0.0597,-0.0543 -0.12063,-0.12063 z m -10.24353,-1.00522 c 0.032,-0.0354 0.0655,-0.0643 0.0743,-0.0643 0.009,0 -0.0101,0.0289 -0.0421,0.0643 -0.032,0.0354 -0.0655,0.0643 -0.0743,0.0643 -0.009,0 0.0101,-0.029 0.0421,-0.0643 z m -42.76878,-0.0563 -0.078,-0.0885 0.0885,0.078 c 0.0487,0.0429 0.0885,0.0827 0.0885,0.0885 0,0.0252 -0.026,0.005 -0.0989,-0.078 z m 42.99395,-0.16888 c 0.032,-0.0354 0.0655,-0.0643 0.0743,-0.0643 0.009,0 -0.0101,0.029 -0.0421,0.0643 -0.032,0.0354 -0.0655,0.0643 -0.0743,0.0643 -0.009,0 0.0101,-0.0289 0.0421,-0.0643 z m 7.37827,-2.46883 c -0.04,-0.051 -0.0389,-0.0522 0.0121,-0.0122 0.0536,0.042 0.0706,0.0684 0.0442,0.0684 -0.007,0 -0.032,-0.0253 -0.0563,-0.0563 z m -6.29321,-0.10454 c 0,-0.0619 0.007,-0.0873 0.0147,-0.0563 0.008,0.031 0.008,0.0816 0,0.11259 -0.008,0.031 -0.0147,0.006 -0.0147,-0.0563 z m -48.53818,-0.0965 c 0,-0.0973 0.006,-0.13711 0.0134,-0.0885 0.007,0.0487 0.007,0.12827 0,0.17692 -0.007,0.0487 -0.0134,0.009 -0.0134,-0.0885 z m 3.27769,-0.0161 c 6.6e-4,-0.0531 0.008,-0.0709 0.016,-0.0396 0.008,0.0313 0.008,0.0747 -10e-4,0.0965 -0.009,0.0218 -0.0155,-0.004 -0.0148,-0.0569 z m 51.28133,-0.0563 -0.0613,-0.0724 0.0724,0.0613 c 0.068,0.0576 0.087,0.0835 0.0613,0.0835 -0.006,0 -0.0387,-0.0326 -0.0724,-0.0724 z m -6.02203,-0.0402 c 6.4e-4,-0.0531 0.008,-0.0709 0.016,-0.0396 0.008,0.0313 0.008,0.0747 -10e-4,0.0965 -0.009,0.0218 -0.0155,-0.004 -0.0148,-0.0569 z m 8.77295,-2.51709 -0.078,-0.0885 0.0885,0.078 c 0.0827,0.0729 0.10321,0.0989 0.078,0.0989 -0.006,0 -0.0456,-0.0398 -0.0885,-0.0885 z m -15.61476,-0.20104 c 0.0871,-0.0885 0.16566,-0.16084 0.1745,-0.16084 0.009,0 -0.0552,0.0724 -0.14233,0.16084 -0.0871,0.0885 -0.16566,0.16083 -0.1745,0.16083 -0.009,0 0.0552,-0.0724 0.14233,-0.16083 z m 5.64125,0.0402 c -0.04,-0.051 -0.0389,-0.0522 0.0121,-0.0121 0.0536,0.042 0.0706,0.0684 0.0442,0.0684 -0.007,0 -0.032,-0.0253 -0.0563,-0.0563 z m -53.46195,-0.25734 c -0.04,-0.051 -0.0389,-0.0522 0.0121,-0.0121 0.031,0.0243 0.0563,0.0496 0.0563,0.0563 0,0.0265 -0.0264,0.009 -0.0684,-0.0441 z m 29.40496,-1.92199 c 0.0961,-0.0973 0.18196,-0.17692 0.19081,-0.17692 0.009,0 -0.0625,0.0796 -0.15864,0.17692 -0.0961,0.0973 -0.18196,0.17692 -0.19081,0.17692 -0.009,0 0.0625,-0.0796 0.15864,-0.17692 z m 15.82628,0.0965 c 0.0416,-0.0442 0.0828,-0.0804 0.0916,-0.0804 0.009,0 -0.0179,0.0362 -0.0595,0.0804 -0.0415,0.0442 -0.0828,0.0804 -0.0916,0.0804 -0.009,0 0.0179,-0.0362 0.0595,-0.0804 z m 0.36992,-0.36993 c 0.032,-0.0354 0.0655,-0.0643 0.0743,-0.0643 0.009,0 -0.0101,0.029 -0.0421,0.0643 -0.032,0.0354 -0.0655,0.0643 -0.0743,0.0643 -0.009,0 0.0101,-0.0289 0.0421,-0.0643 z m 15.26336,-0.30165 c 0,-0.007 0.0253,-0.032 0.0563,-0.0563 0.051,-0.04 0.0522,-0.0389 0.0121,0.0122 -0.042,0.0536 -0.0684,0.0706 -0.0684,0.0441 z m -63.81176,-1.58622 c 0.031,-0.008 0.0816,-0.008 0.11259,0 0.031,0.008 0.006,0.0147 -0.0563,0.0147 -0.0619,0 -0.0873,-0.007 -0.0563,-0.0147 z m 0.30559,-5.1e-4 c 0.0398,-0.008 0.10495,-0.008 0.14475,0 0.0398,0.008 0.007,0.0139 -0.0724,0.0139 -0.0796,0 -0.11219,-0.006 -0.0724,-0.0139 z m 15.7137,5.1e-4 c 0.031,-0.008 0.0816,-0.008 0.11258,0 0.031,0.008 0.006,0.0147 -0.0563,0.0147 -0.0619,0 -0.0873,-0.007 -0.0563,-0.0147 z m 0.30558,-5.1e-4 c 0.0398,-0.008 0.10495,-0.008 0.14476,0 0.0398,0.008 0.007,0.0139 -0.0724,0.0139 -0.0796,0 -0.11218,-0.006 -0.0724,-0.0139 z m 21.08563,5.1e-4 c 0.031,-0.008 0.0816,-0.008 0.11258,0 0.031,0.008 0.006,0.0147 -0.0563,0.0147 -0.0619,0 -0.0872,-0.007 -0.0563,-0.0147 z m 0.30559,-5.1e-4 c 0.0398,-0.008 0.10494,-0.008 0.14475,0 0.0398,0.008 0.007,0.0139 -0.0724,0.0139 -0.0796,0 -0.11218,-0.006 -0.0724,-0.0139 z m 15.52069,5.1e-4 c 0.031,-0.008 0.0816,-0.008 0.11258,0 0.031,0.008 0.006,0.0147 -0.0563,0.0147 -0.0619,0 -0.0872,-0.007 -0.0563,-0.0147 z m 0.30559,-5.1e-4 c 0.0398,-0.008 0.10494,-0.008 0.14475,0 0.0398,0.008 0.007,0.0139 -0.0724,0.0139 -0.0796,0 -0.11218,-0.006 -0.0724,-0.0139 z m 18.91634,-1.22163 c 0.0232,-0.009 0.051,-0.008 0.0617,0.003 0.0107,0.0107 -0.008,0.0183 -0.0422,0.0169 -0.0375,-0.002 -0.0451,-0.009 -0.0194,-0.0194 z m 0.25734,0 c 0.0232,-0.009 0.051,-0.008 0.0616,0.003 0.0107,0.0107 -0.008,0.0183 -0.0422,0.0169 -0.0375,-0.002 -0.0451,-0.009 -0.0194,-0.0194 z m 1.09972,-0.47663 c 0.0416,-0.0442 0.0828,-0.0804 0.0916,-0.0804 0.009,0 -0.0179,0.0362 -0.0595,0.0804 -0.0416,0.0442 -0.0828,0.0804 -0.0916,0.0804 -0.009,0 0.0179,-0.0362 0.0595,-0.0804 z m -2.20652,-0.12063 -0.0613,-0.0724 0.0724,0.0613 c 0.068,0.0576 0.087,0.0835 0.0613,0.0835 -0.006,0 -0.0387,-0.0326 -0.0724,-0.0724 z m 1.94918,-0.008 c 0.0416,-0.0442 0.0828,-0.0804 0.0916,-0.0804 0.009,0 -0.0179,0.0362 -0.0595,0.0804 -0.0416,0.0442 -0.0828,0.0804 -0.0916,0.0804 -0.009,0 0.0179,-0.0362 0.0595,-0.0804 z m -1.48736,-0.16751 c 0.04,-0.008 0.0979,-0.007 0.12867,6.5e-4 0.0308,0.008 -0.002,0.0143 -0.0728,0.014 -0.0708,-3.6e-4 -0.0959,-0.007 -0.0559,-0.0146 z m 0.94856,-3.2e-4 c 0.0487,-0.007 0.12826,-0.007 0.17692,0 0.0487,0.007 0.009,0.0134 -0.0885,0.0134 -0.0973,0 -0.13712,-0.006 -0.0885,-0.0134 z m -1.8365,-0.84544 c 0,-0.0442 0.007,-0.0623 0.0162,-0.0402 0.009,0.0221 0.009,0.0583 0,0.0804 -0.009,0.0221 -0.0162,0.004 -0.0162,-0.0402 z m 2.79855,0 c 0,-0.0442 0.007,-0.0623 0.0162,-0.0402 0.009,0.0221 0.009,0.0583 0,0.0804 -0.009,0.0221 -0.0162,0.004 -0.0162,-0.0402 z m -2.79855,-0.16084 c 0,-0.0442 0.007,-0.0623 0.0162,-0.0402 0.009,0.0221 0.009,0.0583 0,0.0804 -0.009,0.0221 -0.0162,0.004 -0.0162,-0.0402 z m 2.79855,0 c 0,-0.0442 0.007,-0.0623 0.0162,-0.0402 0.009,0.0221 0.009,0.0583 0,0.0804 -0.009,0.0221 -0.0162,0.004 -0.0162,-0.0402 z m -1.6054,0.009 c 0.0663,-0.007 0.17491,-0.007 0.24126,0 0.0663,0.007 0.0121,0.0126 -0.12063,0.0126 -0.13269,0 -0.18697,-0.006 -0.12063,-0.0126 z m 0.57351,-0.2205 c 0.002,-0.0375 0.009,-0.0451 0.0194,-0.0194 0.009,0.0232 0.008,0.051 -0.003,0.0617 -0.0107,0.0107 -0.0183,-0.008 -0.0169,-0.0422 z m -0.58902,-0.42272 c 0.0578,-0.007 0.14467,-0.007 0.19301,3.2e-4 0.0483,0.007 10e-4,0.0132 -0.10512,0.013 -0.10615,-3.2e-4 -0.1457,-0.006 -0.0879,-0.0133 z m -0.76454,-0.37878 c 0.0416,-0.0442 0.0828,-0.0804 0.0916,-0.0804 0.009,0 -0.0179,0.0362 -0.0595,0.0804 -0.0416,0.0442 -0.0828,0.0804 -0.0916,0.0804 -0.009,0 0.0179,-0.0362 0.0595,-0.0804 z m 1.95976,-0.008 -0.078,-0.0885 0.0885,0.078 c 0.0827,0.0729 0.10321,0.0989 0.078,0.0989 -0.006,0 -0.0456,-0.0398 -0.0885,-0.0885 z m -2.2171,-0.0563 c 0.0416,-0.0442 0.0828,-0.0804 0.0916,-0.0804 0.009,0 -0.0179,0.0362 -0.0595,0.0804 -0.0415,0.0442 -0.0828,0.0804 -0.0916,0.0804 -0.009,0 0.0179,-0.0362 0.0595,-0.0804 z m 2.40844,-0.13671 c -0.04,-0.051 -0.0389,-0.0521 0.0121,-0.0121 0.0536,0.042 0.0706,0.0684 0.0442,0.0684 -0.007,0 -0.032,-0.0253 -0.0563,-0.0563 z"
         id="path100760" />
      <path
         style="fill:#ffffff;fill-opacity:1;stroke-width:0.0321672"
         d="m -444.32825,198.91389 c -2.78082,-0.38868 -5.13683,-2.44501 -5.92129,-5.16808 -0.31172,-1.08209 -0.3564,-2.30321 -0.12508,-3.41871 0.5082,-2.45068 2.36592,-4.51392 4.77294,-5.30094 0.76788,-0.25107 1.3783,-0.34625 2.21611,-0.34552 0.9162,8.1e-4 1.6289,0.10777 2.40238,0.36056 0.44879,0.14668 1.16672,0.48901 1.50491,0.71759 0.11984,0.081 0.22478,0.14727 0.23321,0.14727 0.008,0 0.0153,-0.24608 0.0153,-0.54684 v -0.54685 h 1.73704 1.73703 v 6.91596 6.91595 h -1.7361 -1.7361 l -0.009,-0.41657 -0.009,-0.41657 -0.22517,0.14723 c -0.67405,0.44071 -1.59183,0.76159 -2.6538,0.92782 -0.4901,0.0767 -1.74035,0.0924 -2.20345,0.0277 z m 1.74255,-3.1806 c 0.56834,-0.0922 1.08371,-0.29211 1.57837,-0.61231 0.37565,-0.24317 0.92968,-0.80698 1.16132,-1.18183 0.89117,-1.4421 0.81341,-3.21355 -0.20015,-4.55993 -0.59555,-0.7911 -1.43111,-1.31629 -2.43378,-1.52973 -0.41498,-0.0883 -1.14238,-0.0801 -1.54272,0.0174 -1.514,0.36881 -2.72238,1.54119 -3.10975,3.0171 -0.1135,0.43243 -0.13871,1.09559 -0.0586,1.5428 0.14883,0.83138 0.51335,1.51034 1.15483,2.15105 0.62865,0.62788 1.33225,1.00163 2.17188,1.15367 0.32827,0.0594 0.91812,0.0603 1.27864,0.002 z m 14.3089,3.18572 c -1.75238,-0.21643 -3.344,-1.06233 -4.4788,-2.38036 -0.92835,-1.07826 -1.50567,-2.37399 -1.69895,-3.81314 -0.0608,-0.45249 -0.0593,-1.41167 0.003,-1.88595 0.20976,-1.60013 0.88394,-2.97805 2.00613,-4.10025 1.10099,-1.10099 2.42095,-1.75849 4.00229,-1.99362 0.48921,-0.0727 1.4435,-0.087 1.96783,-0.0295 1.06998,0.11747 2.16229,0.49059 2.96169,1.01166 0.15033,0.098 0.28007,0.17817 0.28831,0.17817 0.008,0 0.015,-1.31725 0.015,-2.92722 v -2.92722 h 1.73703 1.73703 v 9.29633 9.29633 h -1.73703 -1.73703 v -0.41817 c 0,-0.22999 -0.006,-0.41817 -0.0128,-0.41817 -0.007,0 -0.11198,0.0605 -0.23321,0.13434 -0.80576,0.49109 -1.901,0.85156 -2.96588,0.97612 -0.48234,0.0564 -1.4001,0.0567 -1.85445,6.2e-4 z m 1.67638,-3.1874 c 0.84773,-0.14783 1.67018,-0.59739 2.28911,-1.25125 0.71907,-0.75965 1.10085,-1.69175 1.10085,-2.6877 0,-1.03362 -0.41339,-1.98763 -1.20627,-2.7838 -1.1198,-1.12443 -2.62641,-1.5033 -4.06916,-1.02326 -1.14098,0.37964 -2.10781,1.33116 -2.52061,2.48069 -0.21451,0.59737 -0.28128,1.40415 -0.16679,2.01518 0.27111,1.44682 1.25294,2.6074 2.60093,3.07447 0.22722,0.0787 0.54627,0.15453 0.85848,0.20397 0.20989,0.0332 0.85457,0.0168 1.11346,-0.0283 z m 19.77916,3.19895 c -1.84673,-0.22331 -3.5392,-1.12352 -4.73393,-2.51794 -0.8435,-0.98448 -1.39199,-2.14233 -1.6214,-3.42274 -0.0875,-0.48853 -0.1185,-1.43648 -0.0635,-1.9426 0.17996,-1.65485 0.90205,-3.13311 2.09605,-4.29103 0.57307,-0.55574 1.12558,-0.95226 1.78494,-1.28096 1.1235,-0.56008 2.12888,-0.79442 3.40632,-0.79396 1.58751,5.8e-4 2.78933,0.364 3.90028,1.17945 l 0.0724,0.0531 v -2.93114 -2.93115 h 1.73703 1.73703 v 9.29633 9.29633 h -1.73609 -1.7361 l -0.009,-0.4168 -0.009,-0.41681 -0.27342,0.17857 c -0.66913,0.43701 -1.4372,0.72045 -2.39646,0.88437 -0.4463,0.0763 -1.71769,0.10986 -2.15521,0.057 z m 1.48522,-3.19727 c 0.86539,-0.14035 1.62639,-0.53699 2.23082,-1.16273 0.75533,-0.78193 1.12513,-1.70126 1.12513,-2.79705 0,-2.03197 -1.54786,-3.73993 -3.60105,-3.97351 -1.76059,-0.20029 -3.59403,1.01051 -4.21338,2.78249 -0.13519,0.38681 -0.19521,0.75885 -0.19521,1.21017 0,0.78311 0.21119,1.46701 0.67018,2.17026 0.19144,0.29331 0.82645,0.92984 1.11768,1.12034 0.50077,0.32756 1.04538,0.55022 1.58437,0.64775 0.3309,0.0599 0.91989,0.0609 1.28146,0.002 z m 14.35715,3.19904 c -0.7041,-0.0852 -1.58525,-0.33357 -2.19278,-0.61807 -1.97399,-0.92437 -3.41857,-2.71682 -3.91816,-4.86169 -0.1864,-0.80025 -0.23468,-1.90895 -0.11773,-2.70373 0.42454,-2.88508 2.45843,-5.153 5.25232,-5.85667 0.97134,-0.24464 2.11885,-0.2833 3.19589,-0.10766 0.83274,0.1358 1.73932,0.4784 2.44994,0.92584 0.17095,0.10764 0.31932,0.19571 0.32971,0.19571 0.0104,0 0.0189,-0.24608 0.0189,-0.54684 v -0.54685 h 1.64053 1.64052 v 6.91596 6.91595 h -1.64052 -1.64053 v -0.41817 c 0,-0.22999 -0.009,-0.41817 -0.0199,-0.41817 -0.0109,0 -0.10143,0.0494 -0.20105,0.10973 -0.76986,0.46641 -1.7638,0.82012 -2.72234,0.9688 -0.41022,0.0636 -1.69356,0.092 -2.07478,0.0459 z m 1.5954,-3.19865 c 0.81161,-0.13164 1.60602,-0.5464 2.21729,-1.15768 0.76544,-0.76543 1.1815,-1.73735 1.18461,-2.76725 10e-4,-0.44388 -0.0455,-0.75154 -0.17499,-1.14933 -0.45533,-1.39879 -1.68055,-2.50318 -3.11745,-2.81002 -0.36547,-0.078 -1.06726,-0.0792 -1.45637,-0.002 -1.67627,0.331 -2.96802,1.68413 -3.22925,3.38267 -0.0573,0.37258 -0.0405,0.98839 0.0369,1.35103 0.35066,1.64327 1.59706,2.85 3.25246,3.14894 0.33732,0.0609 0.92455,0.0627 1.28679,0.004 z m 13.98962,3.21075 c -2.56769,-0.093 -4.51255,-1.1313 -5.37351,-2.86878 -0.24929,-0.50306 -0.41863,-1.09017 -0.4815,-1.6694 l -0.0218,-0.20104 h 1.82061 1.82061 v 0.11394 c 0,0.19032 0.0966,0.59545 0.19103,0.80135 0.40844,0.89038 1.44287,1.38144 2.79687,1.32772 0.75933,-0.0301 1.32401,-0.25241 1.77987,-0.70062 0.86261,-0.84814 0.48581,-1.72084 -0.89365,-2.06977 -0.17804,-0.045 -0.85835,-0.16994 -1.5118,-0.27756 -1.56776,-0.25823 -2.11328,-0.37855 -2.94071,-0.64863 -0.82838,-0.27038 -1.17759,-0.46656 -1.61627,-0.90797 -0.54943,-0.55286 -0.90468,-1.27054 -1.04182,-2.10469 -0.0762,-0.46318 -0.0459,-1.19885 0.0673,-1.63797 0.20342,-0.78885 0.56532,-1.40255 1.15777,-1.96336 0.77782,-0.73627 1.8292,-1.20004 3.20159,-1.41226 0.52698,-0.0815 1.98206,-0.0815 2.50904,0 1.08244,0.16738 1.93765,0.48097 2.70341,0.99129 0.37722,0.25139 0.94911,0.81708 1.1833,1.17048 0.40888,0.617 0.66817,1.33773 0.73327,2.03818 l 0.0213,0.22961 h -1.72556 -1.72557 l -5.5e-4,-0.15279 c -0.002,-0.43384 -0.17415,-0.86284 -0.46355,-1.1524 -0.3845,-0.38471 -0.82803,-0.5278 -1.71136,-0.55213 -1.57963,-0.0435 -2.34245,0.30333 -2.52346,1.14738 -0.0626,0.29183 0.0828,0.62371 0.36574,0.83496 0.47468,0.35438 0.98747,0.49663 2.90363,0.80545 1.4402,0.23212 1.87528,0.32146 2.3785,0.48843 1.39079,0.46147 2.40839,1.32452 2.8042,2.37829 0.17784,0.47346 0.21425,0.6922 0.21395,1.28523 -3.2e-4,0.57987 -0.0491,0.95108 -0.1884,1.43165 -0.48075,1.65897 -1.94286,2.75872 -4.16469,3.13254 -0.61605,0.10365 -1.61428,0.16654 -2.26779,0.14287 z m -42.76634,-7.36085 v -6.96421 h 1.75312 1.75311 v 6.96421 6.9642 h -1.75311 -1.75312 z m 46.92482,-8.15674 c -0.61376,-0.091 -1.21296,-0.60234 -1.40364,-1.1978 -0.13808,-0.43123 -0.11419,-0.77673 0.0816,-1.18023 0.15362,-0.31654 0.51463,-0.68501 0.81451,-0.83132 0.86525,-0.42214 1.87282,-0.0912 2.28641,0.7509 0.6158,1.25387 -0.40342,2.66242 -1.77891,2.45845 z m 0.65719,-0.25442 c 0.49933,-0.15423 0.82629,-0.5445 0.94436,-1.12722 0.16077,-0.7934 -0.27806,-1.56318 -0.99799,-1.75065 -0.85634,-0.22299 -1.63006,0.31503 -1.75824,1.22263 -0.0809,0.57272 0.16304,1.17897 0.59374,1.4756 0.34545,0.23792 0.80839,0.30619 1.21813,0.17964 z m -1.00385,-1.43202 v -0.91676 l 0.42622,3.2e-4 c 0.385,0 0.43764,0.007 0.5444,0.0724 0.39351,0.24045 0.40146,0.69651 0.0168,0.96604 -0.0545,0.0382 -0.0481,0.0629 0.10454,0.4083 0.0894,0.20222 0.16253,0.37194 0.16253,0.37716 0,0.005 -0.0703,0.009 -0.15618,0.009 h -0.15619 l -0.17014,-0.38601 -0.17013,-0.38601 h -0.18836 -0.18835 v 0.38601 0.38601 h -0.11258 -0.11259 v -0.91677 z m 0.89567,-0.12595 c 0.0378,-0.0378 0.0533,-0.10964 0.0533,-0.24796 0,-0.24625 -0.0595,-0.30344 -0.34796,-0.33432 -0.36455,-0.039 -0.35826,-0.0439 -0.36909,0.28751 -0.005,0.15783 -0.001,0.30819 0.009,0.33414 0.0266,0.0694 0.57955,0.0361 0.65506,-0.0394 z m -47.47383,-0.004 v -1.72177 l -4.66924,-8.20987 c -2.56809,-4.51543 -4.67502,-8.23173 -4.68207,-8.25845 -0.009,-0.0354 1.62153,-0.97281 6.03556,-3.46896 3.32661,-1.88121 6.06338,-3.41538 6.08172,-3.40927 0.0183,0.006 3.03704,5.25833 6.70824,11.67161 l 6.67491,11.66049 -6.33753,0.008 -6.33752,0.008 v 1.72086 1.72087 h -1.73704 -1.73703 z m -21.25256,-1.76034 c -0.0143,-0.0221 -0.52108,-0.93044 -1.12619,-2.0185 -0.83636,-1.50385 -1.09094,-1.98669 -1.06156,-2.01336 0.10655,-0.0967 11.93467,-6.93131 11.95516,-6.90802 0.0131,0.0149 1.44005,2.45899 3.17091,5.43124 1.73086,2.97225 3.16777,5.43666 3.19312,5.47647 l 0.0461,0.0724 h -8.07578 c -6.42532,0 -8.08109,-0.008 -8.10176,-0.0402 z m 42.42791,-0.0643 c -0.36655,-0.62429 -16.61443,-28.97796 -16.61655,-28.99702 -0.003,-0.0274 11.95126,-7.05687 11.96965,-7.03847 0.0174,0.0174 20.84988,36.11573 20.84988,36.12846 0,0.006 -3.63186,0.0116 -8.0708,0.0116 h -8.07079 z"
         id="path100758" />
    </g>
  </g>
</svg>
