<?xml version="1.0" encoding="UTF-8" standalone="no"?>
<!-- Created with Inkscape (http://www.inkscape.org/) -->

<svg
   width="80mm"
   height="100mm"
   viewBox="0 0 80 100"
   version="1.1"
   id="svg938"
   inkscape:version="1.1.1 (c3084ef, 2021-09-22)"
   sodipodi:docname="peter2.svg"
   xmlns:inkscape="http://www.inkscape.org/namespaces/inkscape"
   xmlns:sodipodi="http://sodipodi.sourceforge.net/DTD/sodipodi-0.dtd"
   xmlns:xlink="http://www.w3.org/1999/xlink"
   xmlns="http://www.w3.org/2000/svg"
   xmlns:svg="http://www.w3.org/2000/svg">
  <sodipodi:namedview
     id="namedview940"
     pagecolor="#505050"
     bordercolor="#ffffff"
     borderopacity="1"
     inkscape:pageshadow="0"
     inkscape:pageopacity="0"
     inkscape:pagecheckerboard="1"
     inkscape:document-units="mm"
     showgrid="false"
     inkscape:zoom="0.65660172"
     inkscape:rotation="-1"
     inkscape:cx="2.8619828"
     inkscape:cy="490.52849"
     inkscape:window-width="2560"
     inkscape:window-height="1306"
     inkscape:window-x="1440"
     inkscape:window-y="2185"
     inkscape:window-maximized="0"
     inkscape:current-layer="layer1" />
  <defs
     id="defs935">
    <linearGradient
       inkscape:collect="always"
       id="linearGradient40556">
      <stop
         style="stop-color:#040201;stop-opacity:1;"
         offset="0"
         id="stop40552" />
      <stop
         style="stop-color:#2d2825;stop-opacity:1"
         offset="1"
         id="stop40554" />
    </linearGradient>
    <linearGradient
       inkscape:collect="always"
       id="linearGradient103616">
      <stop
         style="stop-color:#4f1c21;stop-opacity:1"
         offset="0"
         id="stop103612" />
      <stop
         style="stop-color:#742729;stop-opacity:1"
         offset="1"
         id="stop103614" />
    </linearGradient>
    <linearGradient
       inkscape:collect="always"
       id="linearGradient108443">
      <stop
         style="stop-color:#a89f9f;stop-opacity:1"
         offset="0"
         id="stop108439" />
      <stop
         style="stop-color:#e2cbcb;stop-opacity:1"
         offset="1"
         id="stop108441" />
    </linearGradient>
    <radialGradient
       inkscape:collect="always"
       xlink:href="#linearGradient40556"
       id="radialGradient117882"
       cx="112.25054"
       cy="63.055725"
       fx="112.25054"
       fy="63.055725"
       r="94.497108"
       gradientTransform="matrix(-0.13032969,-0.18887352,0.39003189,-0.43748444,27.919113,63.675106)"
       gradientUnits="userSpaceOnUse" />
    <linearGradient
       inkscape:collect="always"
       xlink:href="#linearGradient103616"
       id="linearGradient12557"
       x1="146.73569"
       y1="187.72041"
       x2="191.6731"
       y2="187.72041"
       gradientUnits="userSpaceOnUse"
       gradientTransform="matrix(1.0460947,0,0,0.90881762,-123.21926,-115.86885)" />
    <linearGradient
       inkscape:collect="always"
       xlink:href="#linearGradient103616"
       id="linearGradient12583"
       x1="143.42204"
       y1="191.66302"
       x2="167.19516"
       y2="191.66302"
       gradientUnits="userSpaceOnUse"
       gradientTransform="matrix(0.94191486,0,0,0.74924267,-108.49301,-87.611663)" />
    <linearGradient
       inkscape:collect="always"
       xlink:href="#linearGradient103616"
       id="linearGradient12627"
       x1="143.42204"
       y1="191.66302"
       x2="167.19516"
       y2="191.66302"
       gradientUnits="userSpaceOnUse"
       gradientTransform="matrix(0.94191486,0,0,0.74924267,-108.49301,-87.611663)" />
    <linearGradient
       inkscape:collect="always"
       xlink:href="#linearGradient108443"
       id="linearGradient15606"
       x1="146.5489"
       y1="193.58292"
       x2="165.0314"
       y2="193.58292"
       gradientUnits="userSpaceOnUse"
       gradientTransform="matrix(1.0460947,0,0,0.90881762,-123.77282,-114.42611)" />
    <linearGradient
       inkscape:collect="always"
       xlink:href="#linearGradient40556"
       id="linearGradient15804"
       x1="168.0853"
       y1="207.54179"
       x2="150.02136"
       y2="228.31062"
       gradientUnits="userSpaceOnUse"
       gradientTransform="matrix(0.83683565,0,0,0.90881762,-92.907223,-114.48433)" />
    <linearGradient
       inkscape:collect="always"
       xlink:href="#linearGradient40556"
       id="linearGradient19303"
       gradientUnits="userSpaceOnUse"
       x1="143.14102"
       y1="229.25075"
       x2="171.42067"
       y2="207.30499"
       gradientTransform="matrix(0.61288167,0,0,0.90881762,-51.823442,-113.23864)" />
    <linearGradient
       inkscape:collect="always"
       xlink:href="#linearGradient103616"
       id="linearGradient19918"
       gradientUnits="userSpaceOnUse"
       gradientTransform="matrix(-1.0460947,0,0,0.90881762,196.1564,-116.45493)"
       x1="146.73569"
       y1="187.72041"
       x2="191.6731"
       y2="187.72041" />
    <linearGradient
       inkscape:collect="always"
       xlink:href="#linearGradient103616"
       id="linearGradient23408"
       x1="135.19585"
       y1="173.27"
       x2="144.79924"
       y2="173.27"
       gradientUnits="userSpaceOnUse"
       gradientTransform="matrix(0.84365933,0,0,0.84365933,-92.181669,-101.8427)" />
  </defs>
  <g
     inkscape:label="Ebene 1"
     inkscape:groupmode="layer"
     id="layer1">
    <path
       style="fill:url(#linearGradient19303);fill-opacity:1;stroke:none;stroke-width:0.197464px;stroke-linecap:butt;stroke-linejoin:miter;stroke-opacity:1"
       d="m 39.944153,69.691323 c -2.277786,4.626253 -0.709003,17.528068 0.202505,22.154322 0.147853,0.632298 4.383206,-0.152936 6.574815,-0.229409 0.721465,-4.40362 2.083376,-17.564271 -0.506079,-22.256714 z"
       id="path13772-1"
       sodipodi:nodetypes="ccccc" />
    <ellipse
       style="display:inline;fill:#ffffff;fill-opacity:1;stroke:#bfbfbf;stroke-width:0.342561;stroke-miterlimit:4;stroke-dasharray:none;stroke-opacity:1"
       id="path36585-6-8"
       cx="-45.582645"
       cy="91.891418"
       rx="6.5366297"
       ry="3.4757144"
       transform="scale(-1,1)" />
    <path
       style="fill:url(#linearGradient15804);fill-opacity:1;stroke:none;stroke-width:0.23074px;stroke-linecap:butt;stroke-linejoin:miter;stroke-opacity:1"
       d="m 32.393295,68.445644 c -3.110125,4.626249 -0.968074,17.528073 0.276503,22.154315 0.201887,0.6323 5.984883,-0.152936 8.977326,-0.229399 0.985089,-4.403628 2.84465,-17.564274 -0.691002,-22.256715 z"
       id="path13772"
       sodipodi:nodetypes="ccccc" />
    <ellipse
       style="display:inline;fill:#ffffff;fill-opacity:1;stroke:#bfbfbf;stroke-width:0.342561;stroke-miterlimit:4;stroke-dasharray:none;stroke-opacity:1"
       id="path36585-6-5"
       cx="-37.817623"
       cy="92.75325"
       rx="6.5366297"
       ry="3.4757144"
       transform="scale(-1,1)" />
    <path
       style="fill:url(#linearGradient19918);fill-opacity:1;stroke:none;stroke-width:0.257979px;stroke-linecap:butt;stroke-linejoin:miter;stroke-opacity:1"
       d="M 38.944216,38.456431 29.42186,38.294212 c 1.799155,0.03061 12.119799,19.533521 -0.103548,22.406985 -11.786293,2.770724 -7.087903,4.881758 -5.747741,6.107075 1.496788,1.368516 4.005449,-0.618564 7.144817,-0.737604 18.715372,-0.709376 17.4167,-27.45774 8.228828,-27.614256 z"
       id="path10737-7"
       sodipodi:nodetypes="sssssss" />
    <ellipse
       style="fill:#b38567;fill-opacity:1;stroke:none;stroke-width:0.453397;stroke-miterlimit:4;stroke-dasharray:none;stroke-opacity:1"
       id="path17204-0"
       cx="24.578495"
       cy="66.073158"
       rx="5.6243873"
       ry="4.0490799" />
    <path
       style="fill:url(#linearGradient12627);fill-opacity:1;stroke:url(#linearGradient12583);stroke-width:0.222269px;stroke-linecap:butt;stroke-linejoin:miter;stroke-opacity:1"
       d="m 29.868299,38.294212 c 1.824843,-0.446769 -1.341799,25.995204 0.252187,32.295552 0.596737,2.358627 16.708645,0.671273 16.708645,0.671273 0.03032,-1.803725 -1.774493,-12.962345 -1.658709,-17.840636 0.196203,-8.267405 0.03055,-10.217684 -1.65513,-14.540121 z"
       id="path11399"
       sodipodi:nodetypes="cssscc" />
    <path
       style="fill:url(#linearGradient23408);fill-opacity:1;stroke:none;stroke-width:0.223218px;stroke-linecap:butt;stroke-linejoin:miter;stroke-opacity:1"
       d="M 31.557929,38.654345 29.905327,54.29816 c -4.652226,1.552089 -9.082338,-7.404519 -9.61602,-11.019913 3.061691,-0.87149 6.562775,2.245206 9.578992,-4.984035"
       id="path23245"
       sodipodi:nodetypes="cccc" />
    <path
       style="fill:url(#linearGradient15606);fill-opacity:1;stroke:none;stroke-width:0.257979px;stroke-linecap:butt;stroke-linejoin:miter;stroke-opacity:1"
       d="m 29.905327,54.29816 c -0.06935,5.410632 -1.087148,11.795039 0,16.746258 0.427778,1.948224 12.881504,3.628606 17.278699,1.275816 C 50.600271,70.492321 45.203992,55.4996 45.300264,48.274731 Z"
       id="path14286"
       sodipodi:nodetypes="csscc" />
    <path
       style="fill:url(#linearGradient12557);fill-opacity:1;stroke:none;stroke-width:0.257979px;stroke-linecap:butt;stroke-linejoin:miter;stroke-opacity:1"
       d="m 33.992934,39.042498 9.522358,-0.162218 c -1.998092,0.03398 -8.817306,14.99731 3.783801,18.645612 9.061822,2.623595 5.529792,10.018926 -0.420445,9.793391 C 28.163279,66.6099 24.805062,39.199011 33.992934,39.042498 Z"
       id="path10737"
       sodipodi:nodetypes="sssss" />
    <ellipse
       style="display:inline;fill:#bc9573;fill-opacity:1;fill-rule:evenodd;stroke:none;stroke-width:0.539412;stroke-opacity:1"
       id="path24238"
       cx="-38.737755"
       cy="25.84691"
       rx="14.548768"
       ry="16.014086"
       transform="scale(-1,1)" />
    <path
       style="fill:url(#radialGradient117882);fill-opacity:1;stroke:#000000;stroke-width:0.270963px;stroke-linecap:butt;stroke-linejoin:miter;stroke-opacity:1"
       d="m 26.368187,34.339326 c 7.553508,1.491705 4.044676,-1.314311 5.729353,-2.552481 2.563061,-1.883754 3.99259,-5.119022 6.30866,-7.159688 1.119819,-0.986664 2.269041,-1.130591 3.618236,-2.413811 1.079768,-1.270725 2.513087,-1.018706 3.544142,-1.607596 0.690586,-0.394425 1.58905,-0.156714 3.469164,0.28734 1.475624,0.348507 6.929428,-1.22679 7.91095,-3.114606 0.76695,-1.475111 4.246231,-1.360534 4.608648,-3.223688 0.322302,-1.656887 -3.281404,-3.307412 -4.059808,-4.457107 -0.615933,-0.909754 -4.791035,-0.8755145 -4.791035,-0.8755145 0,0 -1.356012,-1.8588427 -2.157597,-2.3848231 C 48.604376,5.5614012 46.443276,5.5404226 44.370335,5.1339062 41.961621,4.6615479 39.530372,3.9592656 37.112984,4.2821745 31.459345,5.0373692 24.59041,4.0728363 20.538742,10.755259 c -1.043892,1.72169 -1.367247,4.742368 -1.0788,7.154443 0.150071,1.254861 1.373018,3.066196 1.373018,3.066196 -0.883293,0.738003 3.700096,15.032009 5.535227,13.363428 z"
       id="path97127"
       sodipodi:nodetypes="caacssssscssssscc"
       inkscape:transform-center-x="1.1953211"
       inkscape:transform-center-y="-1.9043737" />
    <ellipse
       style="fill:#ebe6de;fill-opacity:1;stroke:none;stroke-width:0.277201;stroke-miterlimit:4;stroke-dasharray:none"
       id="path2661"
       cx="48.581219"
       cy="28.276896"
       rx="2.1987021"
       ry="1.9117312" />
    <ellipse
       style="opacity:0.525194;fill:#252142;fill-opacity:1;stroke:none;stroke-width:0.166402;stroke-miterlimit:4;stroke-dasharray:none"
       id="path2661-3"
       cx="49.174881"
       cy="28.345848"
       rx="1.319863"
       ry="1.1475967" />
    <ellipse
       style="opacity:0.899225;fill:#000000;fill-opacity:1;stroke:none;stroke-width:0.109702;stroke-miterlimit:4;stroke-dasharray:none"
       id="path2661-3-3"
       cx="49.402309"
       cy="28.363787"
       rx="0.87012845"
       ry="0.7565608" />
    <path
       style="opacity:0.862403;fill:#571600;fill-opacity:1;stroke:#a64838;stroke-width:0.175539px;stroke-linecap:butt;stroke-linejoin:miter;stroke-opacity:1"
       d="M 51.064874,34.241696 C 48.422816,34.614111 47.48673,33.69701 45.6753,33.552251 c -0.154854,1.514822 1.582927,3.887691 3.498181,3.554567 0.730427,-0.890033 1.531411,-1.861091 1.891393,-2.865122 z"
       id="path5830"
       sodipodi:nodetypes="cccc" />
    <ellipse
       style="opacity:1;fill:#b38567;fill-opacity:1;stroke:none;stroke-width:0.453397;stroke-miterlimit:4;stroke-dasharray:none;stroke-opacity:1"
       id="path17204"
       cx="51.740334"
       cy="64.824913"
       rx="5.6243873"
       ry="4.0490799" />
    <path
       style="fill:none;stroke:#000000;stroke-width:0.66442;stroke-linecap:butt;stroke-linejoin:miter;stroke-miterlimit:4;stroke-dasharray:none;stroke-opacity:1"
       d="m 45.623962,25.554068 c 1.890456,-0.492842 4.028232,-0.43734 5.557666,0.330758"
       id="path22282"
       sodipodi:nodetypes="cc" />
  </g>
</svg>
