<?xml version="1.0" encoding="UTF-8" standalone="no"?>
<!-- Created with Inkscape (http://www.inkscape.org/) -->

<svg
   width="80mm"
   height="100mm"
   viewBox="0 0 80 100"
   version="1.1"
   id="svg5"
   inkscape:version="1.1.1 (c3084ef, 2021-09-22)"
   sodipodi:docname="player2.svg"
   xmlns:inkscape="http://www.inkscape.org/namespaces/inkscape"
   xmlns:sodipodi="http://sodipodi.sourceforge.net/DTD/sodipodi-0.dtd"
   xmlns="http://www.w3.org/2000/svg"
   xmlns:svg="http://www.w3.org/2000/svg">
  <sodipodi:namedview
     id="namedview7"
     pagecolor="#505050"
     bordercolor="#eeeeee"
     borderopacity="1"
     inkscape:pageshadow="0"
     inkscape:pageopacity="0"
     inkscape:pagecheckerboard="0"
     inkscape:document-units="mm"
     showgrid="false"
     width="80mm"
     units="mm"
     inkscape:zoom="1.9299573"
     inkscape:cx="46.11501"
     inkscape:cy="195.85925"
     inkscape:window-width="1519"
     inkscape:window-height="1050"
     inkscape:window-x="1591"
     inkscape:window-y="1903"
     inkscape:window-maximized="0"
     inkscape:current-layer="g81"
     inkscape:snap-page="false"
     inkscape:snap-bbox="false" />
  <defs
     id="defs2" />
  <g
     inkscape:label="Layer 1"
     inkscape:groupmode="layer"
     id="layer1"
     style="display:inline">
    <g
       id="g81"
       transform="matrix(-0.26458333,0,0,0.26458333,81.841738,-1.6717085)"
       style="display:inline">
      <title
         id="title65">Layer 1</title>
      <path
         style="fill:#b3b3b3;stroke:#000000;stroke-width:5.22224;stroke-linecap:butt;stroke-linejoin:miter;stroke-miterlimit:4;stroke-dasharray:none;stroke-opacity:1"
         d="m 214.78951,77.315107 22.29976,49.138783 c 0.96709,21.951 0.94121,43.72516 -10.47413,63.47096 -8.14012,15.14476 -18.03309,29.44526 -42.23439,36.85408 l -62.4092,-0.45642 c -8.88004,-2.77597 -16.86007,-10.13336 -23.181081,-16.46681 -5.3243,-5.33477 -10.50215,-11.19068 -13.74502,-19.41899 -8.50258,-19.36864 -14.65502,-39.57436 -10.67904,-63.38763 l 22.29975,-49.138787 z"
         id="path7615"
         sodipodi:nodetypes="cccccscccc" />
      <path
         style="fill:#000000;stroke:#000000;stroke-width:3.86309px;stroke-linecap:butt;stroke-linejoin:miter;stroke-opacity:1"
         d="m 218.15625,89.103469 -124.968051,-3.657595 -9.10395,18.569406 -9.71784,23.0338 c 53.094231,-28.998875 4.90107,25.24819 155.161601,55.49833 13.25486,-30.11961 9.36043,-57.14486 -11.37176,-93.443941 z"
         id="path404-5"
         sodipodi:nodetypes="cccccc" />
      <path
         style="opacity:1;fill:#808080;stroke:#000000;stroke-width:5.1323;stroke-linecap:butt;stroke-linejoin:miter;stroke-miterlimit:4;stroke-dasharray:none;stroke-opacity:1"
         d="m 198.14196,42.408596 c 14.89322,6.600706 26.31622,11.698994 32.8849,30.347062 -0.40585,15.427763 -8.00999,27.423692 -32.18027,31.521622 -38.73467,-2.70874 -47.59063,-4.15138 -71.38595,-6.227075 C 103.32261,89.589943 89.553499,78.329713 88.275499,63.696461 90.326889,48.021567 101.97634,38.840823 118.1598,34.859412 c 25.77789,2.18804 41.21486,4.095775 79.98216,7.549184 z"
         id="path2943"
         sodipodi:nodetypes="ccccccc" />
      <path
         style="fill:#000000;stroke:#000000;stroke-width:3.17397px;stroke-linecap:butt;stroke-linejoin:miter;stroke-opacity:1"
         d="m 194.46609,264.73513 -1.88631,57.17779 -21.24301,56.98013 -41.7791,-1.22481 -19.12975,-72.29201 -2.05622,-42.15783 13.59985,-36.89589 c 21.18164,4.38722 42.36327,4.77987 63.54491,0.877 z"
         id="path1073"
         sodipodi:nodetypes="ccccccccc" />
      <path
         style="fill:#cccccc;stroke:none;stroke-width:0.84784px;stroke-linecap:butt;stroke-linejoin:miter;stroke-opacity:1"
         d="m 141.15711,257.90591 c -6.54546,0.0103 -13.27812,0.13711 -19.15948,0 -1.11491,-0.026 -2.54209,1.41121 -2.58041,2.96151 -0.20715,8.38182 -0.15416,18.08031 -0.0645,27.82023 0.0129,1.39595 1.12558,2.92818 2.12884,2.96151 6.18339,0.20541 13.0685,0.16962 19.86909,0 1.03423,-0.0258 2.24422,-1.52264 2.25785,-2.96151 0.0841,-8.88219 0.10479,-18.78458 0.0645,-27.28177 -0.008,-1.64987 -1.32989,-3.50183 -2.51589,-3.49997 z"
         id="path10302"
         sodipodi:nodetypes="sssssssss" />
      <path
         style="display:inline;fill:#000000;stroke:none;stroke-width:0.654451px;stroke-linecap:butt;stroke-linejoin:miter;stroke-opacity:1"
         d="m 104.2542,153.45898 c -3.91478,0.0103 -7.939751,0.0641 -11.459111,0 -1.42578,-0.026 -1.52041,1.40589 -1.54332,2.95034 -0.1239,8.3502 -0.0922,18.0121 -0.0386,27.71528 0.008,1.39068 -0.0274,2.98026 1.27324,2.95033 3.70223,-0.0852 7.814841,-0.12656 11.883521,0 1.20239,0.0374 1.34226,-1.51689 1.35041,-2.95033 0.0503,-8.84868 0.0627,-18.71373 0.0386,-27.17886 -0.004,-1.64364 -0.15319,-3.48862 -1.50473,-3.48676 z"
         id="path10302-0"
         sodipodi:nodetypes="sssssssscs" />
      <path
         style="display:inline;fill:#4d4d4d;stroke:none;stroke-width:0.707545px;stroke-linecap:butt;stroke-linejoin:miter;stroke-opacity:1"
         d="m 113.69159,211.17187 c -0.0131,-3.59987 -0.0815,-7.30105 0,-10.53731 0.033,-1.31108 -1.78687,-1.41496 -3.75014,-1.41916 l -16.596441,-0.0355 c -0.17142,0 10.358161,11.66938 15.254901,14.57914 0.88912,-0.10662 5.09403,-1.34436 5.09168,-2.58718 z"
         id="path10302-0-8-7"
         sodipodi:nodetypes="ssscccs" />
      <path
         style="display:inline;fill:#b3b3b3;stroke:none;stroke-width:0.654673px;stroke-linecap:butt;stroke-linejoin:miter;stroke-opacity:1"
         d="m 94.845469,62.294399 -3.81928,3.02747 c 1.1537,10.59241 13.828331,19.468616 17.181911,20.928589 l 7.29136,-3.548106 C 111.74211,81.295368 96.026529,72.265157 94.845469,62.294399 Z"
         id="path10302-0-8-7-7"
         sodipodi:nodetypes="ccccc" />
    </g>
  </g>
</svg>
