<?xml version="1.0" encoding="UTF-8" standalone="no"?>
<!-- Created with Inkscape (http://www.inkscape.org/) -->

<svg
   width="80mm"
   height="100mm"
   viewBox="0 0 80 100"
   version="1.1"
   id="svg5"
   inkscape:version="1.1.1 (c3084ef, 2021-09-22)"
   sodipodi:docname="player7.svg"
   xmlns:inkscape="http://www.inkscape.org/namespaces/inkscape"
   xmlns:sodipodi="http://sodipodi.sourceforge.net/DTD/sodipodi-0.dtd"
   xmlns="http://www.w3.org/2000/svg"
   xmlns:svg="http://www.w3.org/2000/svg">
  <sodipodi:namedview
     id="namedview7"
     pagecolor="#505050"
     bordercolor="#eeeeee"
     borderopacity="1"
     inkscape:pageshadow="0"
     inkscape:pageopacity="0"
     inkscape:pagecheckerboard="0"
     inkscape:document-units="mm"
     showgrid="false"
     width="80mm"
     units="mm"
     inkscape:zoom="0.77413773"
     inkscape:cx="176.32521"
     inkscape:cy="137.57242"
     inkscape:window-width="1370"
     inkscape:window-height="949"
     inkscape:window-x="2380"
     inkscape:window-y="2082"
     inkscape:window-maximized="0"
     inkscape:current-layer="g81" />
  <defs
     id="defs2" />
  <g
     inkscape:label="Layer 1"
     inkscape:groupmode="layer"
     id="layer1"
     style="display:inline">
    <g
       id="g81"
       transform="matrix(0.26458333,0,0,0.26458333,-0.31733639,-1.6717085)"
       style="display:inline">
      <title
         id="title65">Layer 1</title>
      <path
         style="fill:#131313;fill-opacity:1;stroke:#000000;stroke-width:5.95597;stroke-linecap:butt;stroke-linejoin:miter;stroke-miterlimit:4;stroke-dasharray:none;stroke-opacity:1"
         d="m 231.1309,77.315107 29.00623,49.138783 c 1.25793,21.951 1.22427,43.72516 -13.62414,63.47096 -10.58819,15.14476 -23.45639,29.44526 -54.93604,36.85408 L 110.3987,226.32251 C 98.848073,223.54654 88.468103,216.18915 80.246103,209.8557 c -6.92554,-5.33477 -13.66058,-11.19068 -17.87871,-19.41899 -11.05967,-19.36864 -19.06241,-39.57436 -13.89067,-63.38763 l 29.00621,-49.138787 z"
         id="path7615"
         sodipodi:nodetypes="cccccscccc" />
      <path
         style="opacity:1;fill:#1a1a1a;stroke:#000000;stroke-width:6.68273;stroke-linecap:butt;stroke-linejoin:miter;stroke-miterlimit:4;stroke-dasharray:none;stroke-opacity:1"
         d="m 199.77823,23.327016 c 16.81108,8.781948 29.70481,15.570976 37.0116,43.025192 -0.56498,23.148041 -9.25355,41.689602 -36.63774,49.629822 -43.82164,-1.17481 -53.83504,-2.67716 -80.75256,-4.01574 C 92.137833,101.08621 76.630963,85.238479 75.284723,63.406357 c 2.42911,-23.640879 15.67692,-38.265211 34.020747,-45.436164 29.16064,1.359315 46.61926,3.068558 90.47276,5.356823 z"
         id="path2943"
         sodipodi:nodetypes="ccccccc" />
      <path
         style="fill:#000000;stroke:#000000;stroke-width:3.60994px;stroke-linecap:butt;stroke-linejoin:miter;stroke-opacity:1"
         d="m 248.21487,190.34543 14.98596,62.13874 -22.13201,67.87431 -2.67977,43.50833 -4.46628,14.33215 -44.2162,1.02372 -7.59268,-12.79659 -2.23314,-23.54566 -39.74991,-0.51186 -1.78651,19.45077 -5.35954,15.35588 -42.876297,0.51186 -10.71908,-15.35587 -2.23314,-45.55576 -18.1315,-67.36246 2.05289,-58.5557 18.75837,21.49821 28.584207,12.28471 20.99152,3.58303 62.97458,-1.02373 22.77804,-7.67793 22.33141,-13.82028 z"
         id="path1073"
         sodipodi:nodetypes="ccccccccccccccccccccccc" />
      <path
         style="display:inline;fill:#b3b3b3;stroke:none;stroke-width:5.22224;stroke-linecap:butt;stroke-linejoin:miter;stroke-miterlimit:4;stroke-dasharray:none;stroke-opacity:1"
         d="m 88.028533,98.851423 c -17.62794,32.024487 -29.03873,30.201197 -2.45405,111.527397 -5.3243,-5.33477 -21.93038,-23.35622 -25.17325,-31.58453 -8.50258,-19.36864 -13.54906,-24.82826 -9.57308,-48.64153 l 26.35493,-45.083607 z"
         id="path7615-3"
         sodipodi:nodetypes="cccccc" />
      <path
         style="display:inline;fill:#cccccc;stroke:none;stroke-width:0.669985px;stroke-linecap:butt;stroke-linejoin:miter;stroke-opacity:1"
         d="m 81.354483,235.17384 c -4.08736,0.0103 -8.29161,0.13711 -11.96426,0 -0.69622,-0.026 -1.58743,1.41121 -1.61136,2.96151 -0.12935,8.38182 -0.0963,18.08031 -0.0403,27.82023 0.008,1.39595 0.70287,2.92818 1.32936,2.96151 3.86126,0.20541 8.16071,0.16962 12.40739,0 0.64583,-0.0258 1.40141,-1.52264 1.40993,-2.96151 0.0525,-8.88219 0.0654,-18.78458 0.0403,-27.28177 -0.005,-1.64987 -0.83046,-3.50183 -1.57106,-3.49997 z"
         id="path10302"
         sodipodi:nodetypes="sssssssss" />
      <path
         style="display:inline;fill:#000000;stroke:none;stroke-width:0.503095px;stroke-linecap:butt;stroke-linejoin:miter;stroke-opacity:1"
         d="m 71.465453,112.59408 c -2.23109,-0.61172 -4.53659,-1.19903 -6.52263,-1.81963 -0.80457,-0.25145 -1.2432,1.11275 -1.67126,2.59676 -2.3143,8.02342 -4.89256,17.33498 -7.46938,26.6898 -0.36888,1.34088 -0.81644,2.8663 -0.0681,3.044 2.13024,0.50583 4.48229,1.11904 6.76421,1.88703 0.67436,0.22695 1.17163,-1.24796 1.56146,-2.62738 2.40635,-8.51525 5.06434,-18.01548 7.32524,-26.17311 0.43974,-1.58373 0.85027,-3.38463 0.0804,-3.59746 z"
         id="path10302-0"
         sodipodi:nodetypes="sssssssscs" />
      <path
         style="display:inline;fill:#4d4d4d;stroke:none;stroke-width:0.479866px;stroke-linecap:butt;stroke-linejoin:miter;stroke-opacity:1"
         d="m 57.303523,162.54863 c 1.22144,-2.12336 2.44523,-4.32529 3.59764,-6.20225 0.46685,-0.76038 -0.55835,-1.44477 -1.70115,-2.11958 l -9.66073,-5.70453 c -0.0999,-0.0587 2.05287,10.41585 3.91337,13.80546 0.55461,0.24174 3.42793,0.95322 3.85087,0.22092 z"
         id="path10302-0-8-7"
         sodipodi:nodetypes="ssscccs" />
    </g>
  </g>
</svg>
