<?xml version="1.0" encoding="UTF-8" standalone="no"?>
<!-- Created with Inkscape (http://www.inkscape.org/) -->

<svg
   width="80mm"
   height="100mm"
   viewBox="0 0 80 100"
   version="1.1"
   id="svg119129"
   inkscape:version="1.1.1 (3bf5ae0d25, 2021-09-20)"
   sodipodi:docname="player_2.svg"
   xmlns:inkscape="http://www.inkscape.org/namespaces/inkscape"
   xmlns:sodipodi="http://sodipodi.sourceforge.net/DTD/sodipodi-0.dtd"
   xmlns:xlink="http://www.w3.org/1999/xlink"
   xmlns="http://www.w3.org/2000/svg"
   xmlns:svg="http://www.w3.org/2000/svg">
  <sodipodi:namedview
     id="namedview119131"
     pagecolor="#505050"
     bordercolor="#ffffff"
     borderopacity="1"
     inkscape:pageshadow="0"
     inkscape:pageopacity="0"
     inkscape:pagecheckerboard="1"
     inkscape:document-units="mm"
     showgrid="false"
     width="80mm"
     inkscape:zoom="1.0482005"
     inkscape:cx="-80.13734"
     inkscape:cy="77.7523"
     inkscape:window-width="1920"
     inkscape:window-height="1017"
     inkscape:window-x="-8"
     inkscape:window-y="-8"
     inkscape:window-maximized="1"
     inkscape:current-layer="layer1" />
  <defs
     id="defs119126">
    <linearGradient
       inkscape:collect="always"
       xlink:href="#linearGradient40556"
       id="linearGradient19791"
       x1="179.80403"
       y1="431.61713"
       x2="151.93471"
       y2="321.1073"
       gradientUnits="userSpaceOnUse"
       gradientTransform="matrix(-0.71076648,0,0,0.75119252,-56.437693,59.539216)" />
    <linearGradient
       inkscape:collect="always"
       id="linearGradient40556">
      <stop
         style="stop-color:#040201;stop-opacity:1;"
         offset="0"
         id="stop40552" />
      <stop
         style="stop-color:#2d2825;stop-opacity:1"
         offset="1"
         id="stop40554" />
    </linearGradient>
    <linearGradient
       inkscape:collect="always"
       xlink:href="#linearGradient108443"
       id="linearGradient109213"
       gradientUnits="userSpaceOnUse"
       gradientTransform="matrix(-0.2695402,0,0,0.28487077,81.376687,-15.781304)"
       x1="98.670212"
       y1="318.67361"
       x2="99.737473"
       y2="225.63814" />
    <linearGradient
       inkscape:collect="always"
       id="linearGradient108443">
      <stop
         style="stop-color:#a89f9f;stop-opacity:1"
         offset="0"
         id="stop108439" />
      <stop
         style="stop-color:#e2cbcb;stop-opacity:1"
         offset="1"
         id="stop108441" />
    </linearGradient>
    <linearGradient
       inkscape:collect="always"
       xlink:href="#linearGradient108443"
       id="linearGradient101598"
       gradientUnits="userSpaceOnUse"
       gradientTransform="matrix(0.2695402,0,0,0.28487077,0.48473611,-15.835308)"
       x1="113.73347"
       y1="318.67361"
       x2="109.42099"
       y2="228.35292" />
    <linearGradient
       inkscape:collect="always"
       id="linearGradient103616">
      <stop
         style="stop-color:#4f1c21;stop-opacity:1"
         offset="0"
         id="stop103612" />
      <stop
         style="stop-color:#742729;stop-opacity:1"
         offset="1"
         id="stop103614" />
    </linearGradient>
    <linearGradient
       inkscape:collect="always"
       xlink:href="#linearGradient103616"
       id="linearGradient111071"
       x1="102.07914"
       y1="113.81707"
       x2="102.8028"
       y2="127.04623"
       gradientUnits="userSpaceOnUse"
       gradientTransform="matrix(-0.36683613,0,0,0.49748302,81.216274,-17.596931)" />
    <linearGradient
       inkscape:collect="always"
       xlink:href="#linearGradient103616"
       id="linearGradient116078"
       x1="164.28397"
       y1="165.4808"
       x2="209.60956"
       y2="165.4808"
       gradientUnits="userSpaceOnUse"
       gradientTransform="matrix(-0.36536805,0,0,0.36536805,84.166434,-3.2323132)" />
    <linearGradient
       inkscape:collect="always"
       xlink:href="#linearGradient103616"
       id="linearGradient116330"
       gradientUnits="userSpaceOnUse"
       gradientTransform="matrix(0.36536805,0,0,0.36536805,-2.3667459,-3.2323132)"
       x1="164.28397"
       y1="165.4808"
       x2="209.60956"
       y2="165.4808" />
    <radialGradient
       inkscape:collect="always"
       xlink:href="#linearGradient40556"
       id="radialGradient117882"
       cx="112.25054"
       cy="63.055725"
       fx="112.25054"
       fy="63.055725"
       r="94.497108"
       gradientTransform="matrix(0.24133622,-0.27431851,-0.72223618,-0.63539916,58.511226,87.763607)"
       gradientUnits="userSpaceOnUse" />
    <linearGradient
       inkscape:collect="always"
       xlink:href="#linearGradient103616"
       id="linearGradient123876"
       x1="15.999421"
       y1="49.622551"
       x2="62.84692"
       y2="49.622551"
       gradientUnits="userSpaceOnUse"
       gradientTransform="matrix(-1,0,0,1,80.120447,0)" />
  </defs>
  <g
     inkscape:label="Ebene 1"
     inkscape:groupmode="layer"
     id="layer1">
    <ellipse
       style="fill:#b1845c;fill-opacity:1;fill-rule:nonzero;stroke:none;stroke-width:0.915566;stroke-miterlimit:4;stroke-dasharray:none;stroke-opacity:1"
       id="path88357"
       cx="-20.442591"
       cy="72.102226"
       rx="4.1064138"
       ry="4.1840243"
       transform="scale(-1,1)" />
    <path
       style="display:inline;mix-blend-mode:normal;fill:#050505;fill-opacity:1;fill-rule:evenodd;stroke:url(#linearGradient19791);stroke-width:0.2771px;stroke-linecap:butt;stroke-linejoin:miter;stroke-opacity:1"
       d="m 61.894807,76.064043 -41.928185,-1.020694 0.571231,12.977428 2.741894,4.374413 10.967593,-0.145817 1.37095,-4.374416 0.456974,-5.54093 10.167878,0.14582 0.571231,6.707421 1.942179,3.645359 11.310324,-0.291627 1.142457,-4.082776 0.685474,-12.394181"
       id="path8166" />
    <ellipse
       style="display:inline;fill:#ffffff;fill-opacity:1;stroke:#bfbfbf;stroke-width:0.351328;stroke-miterlimit:4;stroke-dasharray:none;stroke-opacity:1"
       id="path36585-6"
       cx="-28.698709"
       cy="95.018364"
       rx="6.2486019"
       ry="3.8244355"
       transform="scale(-1,1)" />
    <ellipse
       style="display:inline;fill:#ffffff;fill-opacity:1;stroke:#bfbfbf;stroke-width:0.351328;stroke-miterlimit:4;stroke-dasharray:none;stroke-opacity:1"
       id="path36585-6-3"
       cx="-54.520721"
       cy="95.387131"
       rx="6.2486019"
       ry="3.8244355"
       transform="scale(-1,1)" />
    <ellipse
       style="fill:#b1845c;fill-opacity:1;fill-rule:nonzero;stroke:none;stroke-width:0.976944;stroke-miterlimit:4;stroke-dasharray:none;stroke-opacity:1"
       id="path88357-1"
       cx="-57.188984"
       cy="69.534348"
       rx="3.9440675"
       ry="3.8080652"
       transform="scale(-1,1)" />
    <path
       style="fill:url(#linearGradient116330);fill-opacity:1;stroke:none;stroke-width:0.0966697px;stroke-linecap:butt;stroke-linejoin:miter;stroke-opacity:1"
       d="m 60.677039,39.073633 c -6.420591,3.179102 5.894619,13.011475 5.2053,20.142776 C 65.320103,65.032996 51.069206,68.091078 55.839412,71.46657 62.088585,75.888593 73.739143,65.698213 74.195946,58.056375 74.659475,50.30201 67.638609,35.626684 60.677039,39.073633 Z"
       id="path115551-2"
       sodipodi:nodetypes="sssss" />
    <path
       style="display:inline;fill:url(#linearGradient109213);fill-opacity:1;stroke:none;stroke-width:0.2771px;stroke-linecap:butt;stroke-linejoin:miter;stroke-opacity:1"
       d="m 63.722738,38.442366 c 0,0 -4.960995,6.463524 -8.454185,8.311385 -4.826458,2.553155 -16.066018,3.194239 -16.066018,3.194239 l -0.132366,25.796486 22.824638,0.319567"
       id="path23076"
       sodipodi:nodetypes="csccc" />
    <path
       style="fill:url(#linearGradient116078);fill-opacity:1;stroke:none;stroke-width:0.0966697px;stroke-linecap:butt;stroke-linejoin:miter;stroke-opacity:1"
       d="m 21.122559,39.073633 c 6.420628,3.179102 -4.541273,13.398155 -3.851948,20.529453 0.562238,5.816587 10.559711,12.064771 5.789477,15.440263 C 16.810881,79.465375 8.0603821,65.698213 7.6035781,58.056375 7.1400451,50.30201 14.160951,35.626684 21.122559,39.073633 Z"
       id="path115551"
       sodipodi:nodetypes="sssss" />
    <path
       style="display:inline;fill:url(#linearGradient101598);fill-opacity:1;stroke:none;stroke-width:0.2771px;stroke-linecap:butt;stroke-linejoin:miter;stroke-opacity:1"
       d="m 18.138687,38.388376 c 0,0 4.960995,6.463514 8.454187,8.311385 4.826455,2.553145 16.066017,3.194222 16.066017,3.194222 l 0.132366,25.796483 -22.824635,0.319577"
       id="path23076-9"
       sodipodi:nodetypes="csccc" />
    <ellipse
       style="display:inline;fill:#bc9573;fill-opacity:1;fill-rule:evenodd;stroke:none;stroke-width:0.884304;stroke-opacity:1"
       id="path24238"
       cx="-40.124138"
       cy="24.550642"
       rx="26.921848"
       ry="23.258736"
       transform="scale(-1,1)" />
    <path
       style="fill:url(#linearGradient111071);fill-opacity:1;stroke:none;stroke-width:0.113028px;stroke-linecap:butt;stroke-linejoin:miter;stroke-opacity:1"
       d="M 62.893749,57.469438 63.713982,39.073633 H 18.029093 l 1.005937,17.992998 c 4.29557,-5.774987 25.816986,-12.450878 43.858719,0.402807 z"
       id="path110873"
       sodipodi:nodetypes="ccccc" />
    <path
       style="display:inline;fill:#ca9e42;fill-opacity:0;stroke:none;stroke-width:1.96277px;stroke-linecap:butt;stroke-linejoin:miter;stroke-opacity:0"
       d="m 64.302757,31.650635 c 0,0 -35.793601,-12.332111 -24.535946,-22.4220326 11.257672,-10.08997323 15.587536,-3.3633319 15.587536,-3.3633319 0,0 7.793778,5.6055385 8.659745,9.5293875 0.865984,3.923866 4.041213,11.211037 0.288665,16.255977 z"
       id="path32792" />
    <path
       style="fill:url(#radialGradient117882);fill-opacity:1;stroke:#000000;stroke-width:0.444367px;stroke-linecap:butt;stroke-linejoin:miter;stroke-opacity:1"
       d="m 64.903214,32.242392 c -13.987108,2.166548 -17.384709,0.160933 -17.915571,1.318917 0,0 -8.322679,-0.02657 -10.735437,0.329046 -2.870831,0.423137 -7.672383,-1.705177 -10.170734,-3.568912 -5.722606,-0.457299 -7.149876,0.106468 -7.149876,0.106468 0,0 -0.840958,0.612479 -4.322429,1.257416 -2.73246,0.506177 -1.269748,-7.401788 -3.087274,-10.143633 -1.420185,-2.142448 -4.9586249,-1.499871 -5.6297289,-4.205906 -0.596805,-2.406445 0.919475,-5.25755 2.360861,-6.92736 1.140558,-1.3213153 4.3584939,-1.7318493 4.3584939,-1.7318493 0,0 2.510972,-2.6997665 3.995306,-3.4637019 3.600738,-1.8531761 7.602537,-1.8836501 11.441061,-2.4740675 4.460294,-0.6860447 8.962341,-1.7060371 13.438719,-1.2370474 10.469048,1.0968354 23.188506,-0.3040437 30.691128,9.4014601 1.933009,2.500568 2.531777,6.887781 1.997647,10.391063 -0.277878,1.822548 -2.542463,4.453313 -2.542463,4.453313 0,0 -4.727818,8.003215 -6.729703,6.494794 z"
       id="path97127"
       sodipodi:nodetypes="ccsccsssscssssscc"
       inkscape:transform-center-x="-2.2134173"
       inkscape:transform-center-y="-2.7658988" />
    <g
       id="g100756"
       transform="matrix(-0.05127804,-0.00950052,-0.00950052,0.05127804,6.1107161,66.763517)"
       style="fill:#ffffff;fill-opacity:1">
      <path
         style="fill:#ffffff;fill-opacity:1;stroke-width:0.0321672"
         d="m -431.99254,205.92847 c 0.0232,-0.009 0.051,-0.008 0.0617,0.003 0.0107,0.0107 -0.008,0.0183 -0.0422,0.0169 -0.0375,-0.002 -0.0451,-0.009 -0.0194,-0.0194 z m 16.01928,0 c 0.0232,-0.009 0.051,-0.008 0.0616,0.003 0.0107,0.0107 -0.008,0.0183 -0.0422,0.0169 -0.0375,-0.002 -0.0451,-0.009 -0.0194,-0.0194 z m 21.39121,0 c 0.0232,-0.009 0.051,-0.008 0.0617,0.003 0.0107,0.0107 -0.008,0.0183 -0.0422,0.0169 -0.0375,-0.002 -0.0451,-0.009 -0.0194,-0.0194 z m 15.82628,0 c 0.0232,-0.009 0.051,-0.008 0.0616,0.003 0.0107,0.0107 -0.008,0.0183 -0.0422,0.0169 -0.0375,-0.002 -0.0451,-0.009 -0.0194,-0.0194 z m 15.40811,-0.0322 c 0.0232,-0.009 0.051,-0.008 0.0617,0.003 0.0107,0.0107 -0.008,0.0183 -0.0422,0.0169 -0.0375,-0.002 -0.0451,-0.009 -0.0194,-0.0194 z m -65.04238,-0.68576 c -0.005,-0.23002 10e-4,-0.4182 0.0143,-0.41817 0.0133,3e-5 0.0241,0.18823 0.0241,0.41823 0,0.22999 -0.006,0.41817 -0.0143,0.41817 -0.008,0 -0.0187,-0.1882 -0.0241,-0.41823 z m 3.52828,-6.51381 c 0,-3.82146 0.004,-5.38002 0.008,-3.46345 0.005,1.91658 0.005,5.04323 0,6.94813 -0.005,1.9049 -0.008,0.33679 -0.008,-3.48468 z m 12.50986,6.51387 c 0,-0.23884 0.005,-0.33655 0.0113,-0.21713 0.006,0.11942 0.006,0.31484 0,0.43426 -0.006,0.11942 -0.0113,0.0217 -0.0113,-0.21713 z m 24.73987,-8.89424 c 0,-5.13068 0.004,-7.2248 0.008,-4.65361 0.005,2.57119 0.005,6.76901 0,9.3285 -0.005,2.55948 -0.008,0.45578 -0.008,-4.67489 z m 15.82621,2.38037 c 0,-3.82146 0.004,-5.38002 0.008,-3.46345 0.005,1.91658 0.005,5.04323 0,6.94813 -0.005,1.9049 -0.008,0.33679 -0.008,-3.48468 z m 12.52943,5.79404 c 0,-0.007 0.0253,-0.032 0.0563,-0.0563 0.051,-0.04 0.0522,-0.0389 0.0121,0.0121 -0.042,0.0536 -0.0684,0.0706 -0.0684,0.0441 z m -9.84318,-0.29344 c -0.0781,-0.0796 -0.13482,-0.14475 -0.12598,-0.14475 0.009,0 0.08,0.0651 0.15815,0.14475 0.0781,0.0796 0.13482,0.14475 0.12598,0.14475 -0.009,0 -0.08,-0.0651 -0.15815,-0.14475 z m -14.89753,-0.008 c -0.04,-0.051 -0.0389,-0.0522 0.0121,-0.0121 0.0536,0.042 0.0706,0.0684 0.0442,0.0684 -0.007,0 -0.032,-0.0253 -0.0563,-0.0563 z m -37.37833,-0.12867 c -0.04,-0.051 -0.0389,-0.0522 0.0122,-0.0121 0.0536,0.042 0.0706,0.0684 0.0441,0.0684 -0.007,0 -0.032,-0.0253 -0.0563,-0.0563 z m 21.32688,0 c -0.04,-0.051 -0.0389,-0.0522 0.0121,-0.0121 0.031,0.0243 0.0563,0.0496 0.0563,0.0563 0,0.0265 -0.0264,0.009 -0.0684,-0.0442 z m -37.40883,-0.12867 -0.078,-0.0885 0.0885,0.078 c 0.0827,0.0729 0.10321,0.0989 0.078,0.0989 -0.006,0 -0.0456,-0.0398 -0.0885,-0.0885 z m -0.20867,-0.20909 -0.0945,-0.10454 0.10454,0.0945 c 0.0974,0.0881 0.11933,0.11461 0.0945,0.11461 -0.006,0 -0.0526,-0.047 -0.10454,-0.10455 z m 15.88958,-0.0643 -0.0613,-0.0724 0.0724,0.0613 c 0.068,0.0576 0.087,0.0835 0.0613,0.0835 -0.006,0 -0.0387,-0.0326 -0.0724,-0.0724 z m 57.68896,-0.27127 c 0.0232,-0.009 0.051,-0.008 0.0616,0.003 0.0107,0.0107 -0.008,0.0183 -0.0422,0.0169 -0.0375,-0.002 -0.0451,-0.009 -0.0194,-0.0194 z m -68.29104,-0.67551 c 0.0232,-0.009 0.051,-0.008 0.0617,0.003 0.0107,0.0107 -0.008,0.0183 -0.0422,0.0169 -0.0375,-0.002 -0.0451,-0.009 -0.0194,-0.0194 z m 16.01928,0 c 0.0232,-0.009 0.051,-0.008 0.0617,0.003 0.0107,0.0107 -0.008,0.0183 -0.0422,0.0169 -0.0375,-0.002 -0.0451,-0.009 -0.0194,-0.0194 z m 21.23038,0 c 0.0232,-0.009 0.051,-0.008 0.0616,0.003 0.0107,0.0107 -0.008,0.0183 -0.0422,0.0169 -0.0375,-0.002 -0.0451,-0.009 -0.0194,-0.0194 z m -24.05506,-1.15213 c -0.0781,-0.0796 -0.13483,-0.14476 -0.12598,-0.14476 0.009,0 0.08,0.0651 0.15814,0.14476 0.0781,0.0796 0.13483,0.14475 0.12598,0.14475 -0.009,0 -0.08,-0.0651 -0.15814,-0.14475 z m 26.90789,-0.0161 c 0.032,-0.0354 0.0655,-0.0643 0.0743,-0.0643 0.009,0 -0.0101,0.029 -0.0421,0.0643 -0.032,0.0354 -0.0655,0.0643 -0.0743,0.0643 -0.009,0 0.0101,-0.0289 0.0421,-0.0643 z m -42.89911,-0.0241 c -0.04,-0.051 -0.0389,-0.0522 0.0121,-0.0121 0.031,0.0243 0.0563,0.0496 0.0563,0.0563 0,0.0265 -0.0264,0.009 -0.0684,-0.0441 z m 37.23462,-0.0161 -0.0613,-0.0724 0.0724,0.0613 c 0.068,0.0576 0.087,0.0835 0.0613,0.0835 -0.006,0 -0.0387,-0.0326 -0.0724,-0.0724 z m 40.07481,-0.24929 c 0,-0.0619 0.007,-0.0873 0.0147,-0.0563 0.008,0.031 0.008,0.0816 0,0.11258 -0.008,0.031 -0.0147,0.006 -0.0147,-0.0563 z m -10e-4,-0.20909 c 6.4e-4,-0.0531 0.008,-0.0709 0.016,-0.0396 0.008,0.0313 0.008,0.0747 -0.001,0.0965 -0.009,0.0218 -0.0155,-0.004 -0.0148,-0.0569 z m -28.56332,-2.13912 c 0,-0.0619 0.007,-0.0873 0.0147,-0.0563 0.008,0.031 0.008,0.0816 0,0.11258 -0.008,0.031 -0.0147,0.006 -0.0147,-0.0563 z m -49.92593,0 c 0,-0.0442 0.007,-0.0623 0.0162,-0.0402 0.009,0.0221 0.009,0.0583 0,0.0804 -0.009,0.0221 -0.0162,0.004 -0.0162,-0.0402 z m 37.24712,0.0134 c 0.002,-0.0375 0.009,-0.0451 0.0194,-0.0194 0.009,0.0232 0.008,0.051 -0.003,0.0617 -0.0107,0.0107 -0.0183,-0.008 -0.0169,-0.0422 z m 7.98001,-0.0134 c 0,-0.0442 0.007,-0.0623 0.0162,-0.0402 0.009,0.0221 0.009,0.0583 0,0.0804 -0.009,0.0221 -0.0162,0.004 -0.0162,-0.0402 z m 22.25055,0.008 c -0.04,-0.051 -0.0389,-0.0522 0.0121,-0.0121 0.031,0.0243 0.0563,0.0496 0.0563,0.0563 0,0.0265 -0.0264,0.009 -0.0684,-0.0442 z m -43.47724,-0.16888 c 0,-0.0796 0.006,-0.11218 0.0139,-0.0724 0.008,0.0398 0.008,0.10494 0,0.14475 -0.008,0.0398 -0.0139,0.007 -0.0139,-0.0724 z m -16.01993,-0.0161 c 3.6e-4,-0.0708 0.007,-0.0959 0.0146,-0.0559 0.008,0.04 0.007,0.0979 -6.5e-4,0.12867 -0.008,0.0308 -0.0144,-0.002 -0.014,-0.0727 z m 59.30416,-0.008 c -0.04,-0.051 -0.0389,-0.0522 0.0121,-0.0121 0.031,0.0243 0.0563,0.0496 0.0563,0.0563 0,0.0265 -0.0264,0.009 -0.0684,-0.0441 z m -17.35874,-0.13671 c 0,-0.0619 0.007,-0.0873 0.0147,-0.0563 0.008,0.031 0.008,0.0816 0,0.11258 -0.008,0.031 -0.0147,0.006 -0.0147,-0.0563 z m -49.92593,0 c 0,-0.0442 0.007,-0.0623 0.0162,-0.0402 0.009,0.0221 0.009,0.0583 0,0.0804 -0.009,0.0221 -0.0162,0.004 -0.0162,-0.0402 z m 45.22713,0 c 0,-0.0442 0.007,-0.0623 0.0162,-0.0402 0.009,0.0221 0.009,0.0583 0,0.0804 -0.009,0.0221 -0.0162,0.004 -0.0162,-0.0402 z m -7.98001,-0.0509 c 0.002,-0.0375 0.009,-0.0451 0.0194,-0.0194 0.009,0.0232 0.008,0.051 -0.003,0.0617 -0.0107,0.0107 -0.0183,-0.008 -0.0169,-0.0422 z m 17.01393,-2.4381 c 0,-0.007 0.0253,-0.032 0.0563,-0.0563 0.051,-0.04 0.0522,-0.0389 0.0122,0.0122 -0.042,0.0536 -0.0684,0.0706 -0.0684,0.0441 z m 5.7562,-0.14064 -0.11085,-0.12063 0.12063,0.11085 c 0.11227,0.10318 0.13541,0.1304 0.11085,0.1304 -0.005,0 -0.0597,-0.0543 -0.12063,-0.12062 z m 12.05725,-1.70434 c 0.0757,-0.007 0.19147,-0.007 0.25734,3.3e-4 0.0659,0.007 0.004,0.0125 -0.13756,0.0123 -0.14153,0 -0.19543,-0.006 -0.11978,-0.0126 z m -20.29033,-0.37247 c 0,-0.006 0.047,-0.0526 0.10455,-0.10455 l 0.10454,-0.0945 -0.0945,0.10455 c -0.0881,0.0975 -0.11461,0.11933 -0.11461,0.0945 z m -15.74586,-0.18294 c 0.032,-0.0354 0.0655,-0.0643 0.0743,-0.0643 0.009,0 -0.0101,0.0289 -0.0421,0.0643 -0.032,0.0354 -0.0655,0.0643 -0.0743,0.0643 -0.009,0 0.0101,-0.029 0.0421,-0.0643 z m 16.06753,-0.14475 c 0.0415,-0.0442 0.0828,-0.0804 0.0916,-0.0804 0.009,0 -0.0179,0.0362 -0.0595,0.0804 -0.0416,0.0442 -0.0828,0.0804 -0.0916,0.0804 -0.009,0 0.0179,-0.0362 0.0595,-0.0804 z m -44.12028,-1.25453 c -3e-5,-0.30076 0.005,-0.42813 0.0107,-0.28304 0.006,0.14509 0.006,0.39117 7e-5,0.54684 -0.006,0.15568 -0.0108,0.037 -0.0108,-0.2638 z m 16.02154,-2.38037 c 0,-1.60997 0.004,-2.26388 0.009,-1.45314 0.005,0.81074 0.005,2.12799 0,2.92722 -0.005,0.79922 -0.009,0.13589 -0.009,-1.47408 z m 47.45739,1.6668 c 0.0232,-0.009 0.051,-0.008 0.0616,0.003 0.0107,0.0107 -0.008,0.0183 -0.0422,0.0169 -0.0375,-0.002 -0.0451,-0.009 -0.0194,-0.0194 z m 1.12585,0 c 0.0232,-0.009 0.051,-0.008 0.0617,0.003 0.0107,0.0107 -0.008,0.0183 -0.0422,0.0169 -0.0375,-0.002 -0.0451,-0.009 -0.0194,-0.0194 z m -43.53341,-2.98566 c 10e-6,-0.95537 0.004,-1.34156 0.009,-0.8582 0.005,0.48335 0.005,1.26502 0,1.73703 -0.005,0.47201 -0.009,0.0765 -0.009,-0.87883 z m 48.91948,0.0965 c 3.6e-4,-0.0708 0.007,-0.0959 0.0146,-0.0559 0.008,0.04 0.007,0.0979 -6.4e-4,0.12867 -0.008,0.0308 -0.0143,-0.002 -0.014,-0.0728 z m -1.23046,0.0683 c 0,-0.007 0.0253,-0.032 0.0563,-0.0563 0.051,-0.04 0.0521,-0.0389 0.0122,0.0121 -0.042,0.0536 -0.0684,0.0706 -0.0684,0.0441 z m 0.013,-0.83224 -0.0613,-0.0724 0.0724,0.0613 c 0.068,0.0576 0.087,0.0835 0.0613,0.0835 -0.006,0 -0.0387,-0.0326 -0.0724,-0.0724 z m -1.58922,-0.22927 c 0,-0.007 0.0253,-0.032 0.0563,-0.0563 0.051,-0.04 0.0522,-0.0389 0.0121,0.0121 -0.042,0.0536 -0.0684,0.0706 -0.0684,0.0442 z m 2.2969,-0.25324 -0.0613,-0.0724 0.0724,0.0613 c 0.068,0.0576 0.087,0.0835 0.0613,0.0835 -0.006,0 -0.0387,-0.0326 -0.0724,-0.0724 z"
         id="path100770" />
      <path
         style="fill:#ffffff;fill-opacity:1;stroke-width:0.0321672"
         d="m -432.08905,205.92847 c 0.0232,-0.009 0.051,-0.008 0.0617,0.003 0.0107,0.0107 -0.008,0.0183 -0.0422,0.0169 -0.0375,-0.002 -0.0451,-0.009 -0.0194,-0.0194 z m 16.01929,0 c 0.0232,-0.009 0.051,-0.008 0.0616,0.003 0.0107,0.0107 -0.008,0.0183 -0.0422,0.0169 -0.0375,-0.002 -0.0451,-0.009 -0.0194,-0.0194 z m 51.2424,-0.0322 c 0.0232,-0.009 0.051,-0.008 0.0617,0.003 0.0107,0.0107 -0.008,0.0183 -0.0422,0.0169 -0.0375,-0.002 -0.0451,-0.009 -0.0194,-0.0194 z m -42.47109,-7.3604 c 0,-3.83916 0.004,-5.40495 0.008,-3.47953 0.005,1.92541 0.005,5.06654 0,6.98029 -0.005,1.91374 -0.008,0.3384 -0.008,-3.50076 z m 48.28331,5.70968 c 0.032,-0.0354 0.0655,-0.0643 0.0743,-0.0643 0.009,0 -0.0101,0.0289 -0.0421,0.0643 -0.032,0.0354 -0.0655,0.0643 -0.0743,0.0643 -0.009,0 0.0101,-0.029 0.0421,-0.0643 z m -62.48729,-0.31363 -0.078,-0.0885 0.0885,0.078 c 0.0486,0.0429 0.0885,0.0827 0.0885,0.0885 0,0.0252 -0.026,0.005 -0.0989,-0.078 z m 21.35738,0.0322 c -0.04,-0.051 -0.0389,-0.0522 0.0121,-0.0122 0.0536,0.042 0.0706,0.0684 0.0442,0.0684 -0.007,0 -0.032,-0.0253 -0.0563,-0.0563 z m -21.51988,-0.19301 c -0.04,-0.051 -0.0389,-0.0521 0.0121,-0.0121 0.031,0.0243 0.0563,0.0496 0.0563,0.0563 0,0.0265 -0.0264,0.009 -0.0684,-0.0442 z m 21.13387,-0.193 c -0.04,-0.051 -0.0389,-0.0522 0.0121,-0.0122 0.031,0.0243 0.0563,0.0496 0.0563,0.0563 0,0.0265 -0.0264,0.009 -0.0684,-0.0442 z m -31.99364,-0.86668 c 0.0313,-0.008 0.0747,-0.008 0.0965,0.001 0.0218,0.009 -0.004,0.0155 -0.0569,0.0148 -0.0531,-6.4e-4 -0.0709,-0.008 -0.0396,-0.016 z m 0.25734,0 c 0.0313,-0.008 0.0747,-0.008 0.0965,0.001 0.0218,0.009 -0.004,0.0155 -0.0569,0.0148 -0.0531,-6.4e-4 -0.0709,-0.008 -0.0396,-0.016 z m 15.76194,0 c 0.0313,-0.008 0.0747,-0.008 0.0965,0.001 0.0218,0.009 -0.004,0.0155 -0.0569,0.0148 -0.0531,-6.4e-4 -0.0709,-0.008 -0.0396,-0.016 z m 0.24064,0.001 c 0.0221,-0.009 0.0583,-0.009 0.0804,0 0.0221,0.009 0.004,0.0162 -0.0402,0.0162 -0.0442,0 -0.0623,-0.007 -0.0402,-0.0162 z m 20.98974,-0.001 c 0.0313,-0.008 0.0747,-0.008 0.0965,0.001 0.0218,0.009 -0.004,0.0155 -0.0569,0.0148 -0.0531,-6.4e-4 -0.0709,-0.008 -0.0396,-0.016 z m 0.25733,0 c 0.0313,-0.008 0.0747,-0.008 0.0965,0.001 0.0218,0.009 -0.004,0.0155 -0.0569,0.0148 -0.0531,-6.4e-4 -0.0709,-0.008 -0.0396,-0.016 z m 15.72917,0 c 0.031,-0.008 0.0816,-0.008 0.11259,0 0.031,0.008 0.006,0.0147 -0.0563,0.0147 -0.0619,0 -0.0872,-0.007 -0.0563,-0.0147 z m 0.25795,0 c 0.0313,-0.008 0.0747,-0.008 0.0965,0.001 0.0218,0.009 -0.004,0.0155 -0.0569,0.0148 -0.0531,-6.4e-4 -0.0709,-0.008 -0.0396,-0.016 z m 17.05606,-0.042 c 0.032,-0.0354 0.0655,-0.0643 0.0743,-0.0643 0.009,0 -0.0101,0.0289 -0.0421,0.0643 -0.032,0.0354 -0.0655,0.0643 -0.0743,0.0643 -0.009,0 0.0101,-0.029 0.0421,-0.0643 z m -30.44628,-0.97717 c 0,-0.007 0.0253,-0.032 0.0563,-0.0563 0.051,-0.04 0.0522,-0.0389 0.0122,0.0121 -0.042,0.0536 -0.0684,0.0706 -0.0684,0.0441 z m -37.12099,-0.1326 c 0.06,-0.0619 0.11636,-0.11259 0.1252,-0.11259 0.009,0 -0.033,0.0507 -0.093,0.11259 -0.06,0.0619 -0.11636,0.11258 -0.1252,0.11258 -0.009,0 0.033,-0.0507 0.093,-0.11258 z m 31.71279,0.0563 c -0.04,-0.051 -0.0389,-0.0522 0.0121,-0.0122 0.0536,0.042 0.0706,0.0684 0.0442,0.0684 -0.007,0 -0.032,-0.0253 -0.0563,-0.0563 z m -15.75784,-0.0524 c 0,-0.007 0.0253,-0.032 0.0563,-0.0563 0.051,-0.04 0.0522,-0.0389 0.0121,0.0121 -0.042,0.0536 -0.0684,0.0706 -0.0684,0.0441 z m -21.68482,-0.14064 c -0.04,-0.051 -0.0389,-0.0522 0.0121,-0.0121 0.0536,0.042 0.0706,0.0684 0.0442,0.0684 -0.007,0 -0.032,-0.0253 -0.0563,-0.0563 z m 37.21749,-0.0322 c -0.04,-0.051 -0.0389,-0.0522 0.0121,-0.0121 0.031,0.0243 0.0563,0.0496 0.0563,0.0563 0,0.0265 -0.0264,0.009 -0.0684,-0.0442 z m 31.30536,-0.18764 c 0.002,-0.0375 0.009,-0.0451 0.0194,-0.0194 0.009,0.0232 0.008,0.051 -0.003,0.0617 -0.0107,0.0107 -0.0183,-0.008 -0.0169,-0.0422 z m -61.62988,-2.29728 c 0,-0.0442 0.007,-0.0623 0.0162,-0.0402 0.009,0.0221 0.009,0.0583 0,0.0804 -0.009,0.0221 -0.0162,0.004 -0.0162,-0.0402 z m 16.01674,0.0134 c 0.002,-0.0375 0.009,-0.0451 0.0194,-0.0194 0.009,0.0232 0.008,0.051 -0.003,0.0617 -0.0107,0.0107 -0.0183,-0.008 -0.0169,-0.0422 z m 43.38696,-0.10186 c -0.04,-0.051 -0.0389,-0.0522 0.0121,-0.0122 0.0536,0.042 0.0706,0.0684 0.0442,0.0684 -0.007,0 -0.032,-0.0253 -0.0563,-0.0563 z m -17.45763,-0.0724 c 0,-0.0442 0.007,-0.0623 0.0162,-0.0402 0.009,0.0221 0.009,0.0583 0,0.0804 -0.009,0.0221 -0.0162,0.004 -0.0162,-0.0402 z m -41.94861,-0.1796 c 0.002,-0.0375 0.009,-0.0451 0.0194,-0.0194 0.009,0.0232 0.008,0.051 -0.003,0.0616 -0.0107,0.0107 -0.0183,-0.008 -0.0169,-0.0422 z m 16.01928,0 c 0.002,-0.0375 0.009,-0.0451 0.0194,-0.0194 0.009,0.0232 0.008,0.051 -0.003,0.0616 -0.0107,0.0107 -0.0183,-0.008 -0.0169,-0.0422 z m 50.47293,-2.52244 c 0,-0.0442 0.007,-0.0623 0.0162,-0.0402 0.009,0.0221 0.009,0.0583 0,0.0804 -0.009,0.0221 -0.0162,0.004 -0.0162,-0.0402 z m -57.26276,-0.14476 c 0.06,-0.0619 0.11636,-0.11258 0.12521,-0.11258 0.009,0 -0.033,0.0507 -0.093,0.11258 -0.06,0.0619 -0.11636,0.11259 -0.1252,0.11259 -0.009,0 0.033,-0.0507 0.093,-0.11259 z m 54.64409,-1.64575 c 0.0221,-0.009 0.0583,-0.009 0.0804,0 0.0221,0.009 0.004,0.0162 -0.0402,0.0162 -0.0442,0 -0.0623,-0.007 -0.0402,-0.0162 z m -72.88291,-0.73068 c 0,-0.007 0.0253,-0.032 0.0563,-0.0563 0.051,-0.04 0.0522,-0.0389 0.0121,0.0121 -0.042,0.0536 -0.0684,0.0706 -0.0684,0.0442 z m 72.59542,-1.93987 c 0.0232,-0.009 0.051,-0.008 0.0616,0.003 0.0107,0.0107 -0.008,0.0183 -0.0422,0.0169 -0.0375,-0.002 -0.0451,-0.009 -0.0194,-0.0194 z m 0.93285,0 c 0.0232,-0.009 0.051,-0.008 0.0617,0.003 0.0107,0.0107 -0.008,0.0183 -0.0422,0.0169 -0.0375,-0.002 -0.0451,-0.009 -0.0194,-0.0194 z m 3.68114,-1.41555 c 0.031,-0.008 0.0816,-0.008 0.11258,0 0.031,0.008 0.006,0.0147 -0.0563,0.0147 -0.0619,0 -0.0872,-0.007 -0.0563,-0.0147 z m 0.0503,-2.95919 c 0.0232,-0.009 0.051,-0.008 0.0616,0.003 0.0107,0.0107 -0.008,0.0183 -0.0422,0.0169 -0.0375,-0.002 -0.0451,-0.009 -0.0194,-0.0194 z"
         id="path100768" />
      <path
         style="fill:#ffffff;fill-opacity:1;stroke-width:0.0321672"
         d="m -432.89524,205.92914 c 0.0221,-0.009 0.0583,-0.009 0.0804,0 0.0221,0.009 0.004,0.0162 -0.0402,0.0162 -0.0442,0 -0.0623,-0.007 -0.0402,-0.0162 z m 16.0213,-6.8e-4 c 0.0232,-0.009 0.051,-0.008 0.0616,0.003 0.0107,0.0107 -0.008,0.0183 -0.0422,0.0169 -0.0375,-0.002 -0.0451,-0.009 -0.0194,-0.0194 z m 0.70768,0 c 0.0232,-0.009 0.051,-0.008 0.0617,0.003 0.0107,0.0107 -0.008,0.0183 -0.0422,0.0169 -0.0375,-0.002 -0.0451,-0.009 -0.0194,-0.0194 z m 20.68152,6.8e-4 c 0.0221,-0.009 0.0583,-0.009 0.0804,0 0.0221,0.009 0.004,0.0162 -0.0402,0.0162 -0.0442,0 -0.0623,-0.007 -0.0402,-0.0162 z m 0.74185,-6.8e-4 c 0.0232,-0.009 0.051,-0.008 0.0617,0.003 0.0107,0.0107 -0.008,0.0183 -0.0422,0.0169 -0.0375,-0.002 -0.0451,-0.009 -0.0194,-0.0194 z m 15.08443,6.8e-4 c 0.0221,-0.009 0.0583,-0.009 0.0804,0 0.0221,0.009 0.004,0.0162 -0.0402,0.0162 -0.0442,0 -0.0623,-0.007 -0.0402,-0.0162 z m 0.74185,-6.8e-4 c 0.0232,-0.009 0.051,-0.008 0.0617,0.003 0.0107,0.0107 -0.008,0.0183 -0.0422,0.0169 -0.0375,-0.002 -0.0451,-0.009 -0.0194,-0.0194 z m -21.50082,-2.23777 -0.0613,-0.0724 0.0724,0.0613 c 0.068,0.0576 0.087,0.0835 0.0613,0.0835 -0.006,0 -0.0387,-0.0326 -0.0724,-0.0724 z m -13.07292,-2.22364 c 0,-0.007 0.0253,-0.032 0.0563,-0.0563 0.051,-0.04 0.0522,-0.0389 0.0121,0.0121 -0.042,0.0536 -0.0684,0.0706 -0.0684,0.0441 z m 46.74153,-0.16745 c 0.002,-0.0375 0.009,-0.0451 0.0194,-0.0194 0.009,0.0232 0.008,0.051 -0.003,0.0617 -0.0107,0.0107 -0.0183,-0.008 -0.0169,-0.0422 z m -72.92058,-2.23294 c 0,-0.0442 0.007,-0.0623 0.0162,-0.0402 0.009,0.0221 0.009,0.0583 0,0.0804 -0.009,0.0221 -0.0162,0.004 -0.0162,-0.0402 z m 56.55119,-0.33776 c 6.4e-4,-0.0531 0.008,-0.0709 0.016,-0.0396 0.008,0.0313 0.008,0.0747 -10e-4,0.0965 -0.009,0.0218 -0.0155,-0.004 -0.0148,-0.0569 z m -56.55373,-0.32435 c 0.002,-0.0375 0.009,-0.0451 0.0194,-0.0194 0.009,0.0232 0.008,0.051 -0.003,0.0617 -0.0107,0.0107 -0.0183,-0.008 -0.0169,-0.0422 z m 37.24965,-0.0322 c 0.002,-0.0375 0.009,-0.0451 0.0194,-0.0194 0.009,0.0232 0.008,0.051 -0.003,0.0617 -0.0107,0.0107 -0.0183,-0.008 -0.0169,-0.0422 z m 32.36278,-2.10427 c 0,-0.0442 0.007,-0.0623 0.0162,-0.0402 0.009,0.0221 0.009,0.0583 0,0.0804 -0.009,0.0221 -0.0162,0.004 -0.0162,-0.0402 z m -65.20806,-0.20307 c 0,-0.006 0.047,-0.0526 0.10454,-0.10455 l 0.10455,-0.0945 -0.0945,0.10454 c -0.0881,0.0974 -0.11461,0.11933 -0.11461,0.0945 z m 37.24966,0 c 0,-0.006 0.047,-0.0526 0.10454,-0.10455 l 0.10454,-0.0945 -0.0945,0.10454 c -0.0881,0.0974 -0.11461,0.11933 -0.11461,0.0945 z m 5.70766,-0.15881 -0.0945,-0.10455 0.10454,0.0945 c 0.0974,0.0881 0.11933,0.11461 0.0945,0.11461 -0.006,0 -0.0526,-0.0471 -0.10454,-0.10454 z m -37.25069,0 -0.0613,-0.0724 0.0724,0.0613 c 0.068,0.0576 0.087,0.0835 0.0613,0.0835 -0.006,0 -0.0387,-0.0326 -0.0724,-0.0724 z m 67.21406,-1.10977 -0.078,-0.0885 0.0885,0.078 c 0.0827,0.0729 0.10321,0.0989 0.078,0.0989 -0.006,0 -0.0456,-0.0398 -0.0885,-0.0885 z m -2.25531,-0.5447 c 0.0232,-0.009 0.051,-0.008 0.0617,0.003 0.0107,0.0107 -0.008,0.0183 -0.0422,0.0169 -0.0375,-0.002 -0.0451,-0.009 -0.0194,-0.0194 z m -67.42252,-2.63771 c 0.0232,-0.009 0.051,-0.008 0.0617,0.003 0.0107,0.0107 -0.008,0.0183 -0.0422,0.0169 -0.0375,-0.002 -0.0451,-0.009 -0.0194,-0.0194 z m 16.01928,0 c 0.0232,-0.009 0.051,-0.008 0.0617,0.003 0.0107,0.0107 -0.008,0.0183 -0.0422,0.0169 -0.0375,-0.002 -0.0451,-0.009 -0.0194,-0.0194 z m 21.39121,0 c 0.0232,-0.009 0.051,-0.008 0.0617,0.003 0.0107,0.0107 -0.008,0.0183 -0.0422,0.0169 -0.0375,-0.002 -0.0451,-0.009 -0.0194,-0.0194 z m 15.82628,0 c 0.0232,-0.009 0.051,-0.008 0.0617,0.003 0.0107,0.0107 -0.008,0.0183 -0.0422,0.0169 -0.0375,-0.002 -0.0451,-0.009 -0.0194,-0.0194 z m 14.8291,-0.0322 c 0.0232,-0.009 0.051,-0.008 0.0616,0.003 0.0107,0.0107 -0.008,0.0183 -0.0422,0.0169 -0.0375,-0.002 -0.0451,-0.009 -0.0194,-0.0194 z m 3.58463,-2.73528 c 0.0487,-0.007 0.12827,-0.007 0.17692,0 0.0487,0.007 0.009,0.0134 -0.0885,0.0134 -0.0973,0 -0.13711,-0.006 -0.0885,-0.0134 z m 0.14677,-1.63946 c 0.0232,-0.009 0.051,-0.008 0.0616,0.003 0.0107,0.0107 -0.008,0.0183 -0.0422,0.0169 -0.0375,-0.002 -0.0451,-0.009 -0.0194,-0.0194 z m -41.31278,-0.35576 c 6.07842,-0.0219 10.43827,-0.022 10.43826,-3.2e-4 0,0.0133 -2.86248,0.0206 -6.36107,0.0163 -3.49859,-0.004 -5.33333,-0.0115 -4.07719,-0.0161 z"
         id="path100766" />
      <path
         style="fill:#ffffff;fill-opacity:1;stroke-width:0.0321672"
         d="m -432.76657,205.92914 c 0.0221,-0.009 0.0583,-0.009 0.0804,0 0.0221,0.009 0.004,0.0162 -0.0402,0.0162 -0.0442,0 -0.0623,-0.007 -0.0402,-0.0162 z m 0.46704,-10e-4 c 0.0313,-0.008 0.0747,-0.008 0.0965,10e-4 0.0218,0.009 -0.004,0.0155 -0.0569,0.0148 -0.0531,-6.4e-4 -0.0709,-0.008 -0.0396,-0.016 z m 15.53677,0 c 0.0313,-0.008 0.0747,-0.008 0.0965,10e-4 0.0218,0.009 -0.004,0.0155 -0.0569,0.0148 -0.0531,-6.4e-4 -0.0709,-0.008 -0.0396,-0.016 z m 0.46582,10e-4 c 0.0221,-0.009 0.0583,-0.009 0.0804,0 0.0221,0.009 0.004,0.0162 -0.0402,0.0162 -0.0442,0 -0.0623,-0.007 -0.0402,-0.0162 z m 20.95756,-10e-4 c 0.0313,-0.008 0.0747,-0.008 0.0965,10e-4 0.0218,0.009 -0.004,0.0155 -0.0569,0.0148 -0.0531,-6.4e-4 -0.0709,-0.008 -0.0396,-0.016 z m 0.45034,0 c 0.0313,-0.008 0.0747,-0.008 0.0965,10e-4 0.0218,0.009 -0.004,0.0155 -0.0569,0.0148 -0.0531,-6.4e-4 -0.0709,-0.008 -0.0396,-0.016 z m 15.37594,0 c 0.0313,-0.008 0.0747,-0.008 0.0965,10e-4 0.0218,0.009 -0.004,0.0155 -0.0569,0.0148 -0.0531,-6.4e-4 -0.0709,-0.008 -0.0396,-0.016 z m 0.45034,0 c 0.0313,-0.008 0.0747,-0.008 0.0965,10e-4 0.0218,0.009 -0.004,0.0155 -0.0569,0.0148 -0.0531,-6.4e-4 -0.0709,-0.008 -0.0396,-0.016 z m 14.39624,-0.0319 c 0.0232,-0.009 0.051,-0.008 0.0616,0.003 0.0107,0.0107 -0.008,0.0183 -0.0422,0.0169 -0.0375,-0.002 -0.0451,-0.009 -0.0194,-0.0194 z m 1.05951,6.8e-4 c 0.0221,-0.009 0.0583,-0.009 0.0804,0 0.0221,0.009 0.004,0.0162 -0.0402,0.0162 -0.0442,0 -0.0623,-0.007 -0.0402,-0.0162 z m -20.55093,-1.86852 c -0.04,-0.051 -0.0389,-0.0521 0.0122,-0.0121 0.0536,0.042 0.0706,0.0684 0.0441,0.0684 -0.007,0 -0.032,-0.0253 -0.0563,-0.0563 z m -16.14795,-0.22517 c -0.04,-0.051 -0.0389,-0.0522 0.0121,-0.0121 0.0536,0.042 0.0706,0.0684 0.0441,0.0684 -0.007,0 -0.032,-0.0253 -0.0563,-0.0563 z m 18.33532,-2.2517 c -0.04,-0.051 -0.0389,-0.0522 0.0122,-0.0121 0.031,0.0243 0.0563,0.0496 0.0563,0.0563 0,0.0265 -0.0264,0.009 -0.0684,-0.0441 z m 12.47466,-0.41815 c 0.49854,-0.005 1.32363,-0.005 1.83354,-10e-6 0.5099,0.005 0.102,0.009 -0.90644,0.009 -1.00844,0 -1.42563,-0.004 -0.9271,-0.009 z m -54.15675,-2.0212 c 0.002,-0.0375 0.009,-0.0451 0.0194,-0.0194 0.009,0.0232 0.008,0.051 -0.003,0.0617 -0.0107,0.0107 -0.0183,-0.008 -0.0169,-0.0422 z m 21.23411,-0.12599 c 6.4e-4,-0.0531 0.008,-0.0709 0.016,-0.0396 0.008,0.0313 0.008,0.0747 -10e-4,0.0965 -0.009,0.0218 -0.0155,-0.004 -0.0148,-0.0569 z m -37.24966,-0.0643 c 6.5e-4,-0.0531 0.008,-0.0709 0.016,-0.0396 0.008,0.0313 0.008,0.0747 -10e-4,0.0965 -0.009,0.0218 -0.0155,-0.004 -0.0148,-0.0569 z m 56.54881,-0.0482 c 0,-0.0442 0.007,-0.0623 0.0162,-0.0402 0.009,0.0221 0.009,0.0583 0,0.0804 -0.009,0.0221 -0.0162,0.004 -0.0162,-0.0402 z m 24.21441,-0.18496 -0.078,-0.0885 0.0885,0.078 c 0.0827,0.0729 0.10321,0.0989 0.078,0.0989 -0.006,0 -0.0456,-0.0398 -0.0885,-0.0885 z m -24.21441,-0.10454 c 0,-0.0442 0.007,-0.0623 0.0162,-0.0402 0.009,0.0221 0.009,0.0583 0,0.0804 -0.009,0.0221 -0.0162,0.004 -0.0162,-0.0402 z m -56.54881,-0.0482 c 6.5e-4,-0.0531 0.008,-0.0709 0.016,-0.0396 0.008,0.0313 0.008,0.0747 -10e-4,0.0965 -0.009,0.0218 -0.0155,-0.004 -0.0148,-0.0569 z m 37.24966,-0.0322 c 6.4e-4,-0.0531 0.008,-0.0709 0.016,-0.0396 0.008,0.0313 0.008,0.0747 -10e-4,0.0965 -0.009,0.0218 -0.0155,-0.004 -0.0148,-0.0569 z m 32.35904,-2.36429 c 0,-0.0442 0.007,-0.0623 0.0162,-0.0402 0.009,0.0221 0.009,0.0583 0,0.0804 -0.009,0.0221 -0.0162,0.004 -0.0162,-0.0402 z m 9.03969,-0.0241 c 0.47201,-0.005 1.25367,-0.005 1.73703,-1e-5 0.48335,0.005 0.0972,0.009 -0.8582,0.009 -0.95537,1e-5 -1.35084,-0.004 -0.87883,-0.009 z m -9.0385,-0.18499 c 6.5e-4,-0.0531 0.008,-0.0709 0.016,-0.0396 0.008,0.0313 0.008,0.0747 -10e-4,0.0965 -0.009,0.0218 -0.0155,-0.004 -0.0148,-0.0569 z m -65.01625,-0.0604 c 0,-0.007 0.0253,-0.032 0.0563,-0.0563 0.051,-0.04 0.0521,-0.0389 0.0121,0.0121 -0.042,0.0536 -0.0684,0.0706 -0.0684,0.0441 z m 37.24966,0 c 0,-0.007 0.0253,-0.032 0.0563,-0.0563 0.051,-0.04 0.0522,-0.0389 0.0122,0.0121 -0.042,0.0536 -0.0684,0.0706 -0.0684,0.0441 z m -34.57112,-1.136 c 0.0313,-0.008 0.0747,-0.008 0.0965,10e-4 0.0218,0.009 -0.004,0.0155 -0.0569,0.0148 -0.0531,-6.4e-4 -0.0709,-0.008 -0.0396,-0.016 z m 16.01928,0 c 0.0313,-0.008 0.0747,-0.008 0.0965,10e-4 0.0218,0.009 -0.004,0.0155 -0.0569,0.0148 -0.0531,-6.4e-4 -0.0709,-0.008 -0.0396,-0.016 z m 21.23037,0 c 0.0313,-0.008 0.0747,-0.008 0.0965,10e-4 0.0218,0.009 -0.004,0.0155 -0.0569,0.0148 -0.0531,-6.4e-4 -0.0709,-0.008 -0.0396,-0.016 z m 16.00259,10e-4 c 0.0221,-0.009 0.0583,-0.009 0.0804,0 0.0221,0.009 0.004,0.0162 -0.0402,0.0162 -0.0442,0 -0.0623,-0.007 -0.0402,-0.0162 z m -42.64571,-0.85936 c 0,-0.007 0.0253,-0.032 0.0563,-0.0563 0.051,-0.04 0.0522,-0.0389 0.0121,0.0121 -0.042,0.0536 -0.0684,0.0706 -0.0684,0.0442 z m -15.85845,-0.10044 c 0.0416,-0.0442 0.0828,-0.0804 0.0916,-0.0804 0.009,0 -0.0179,0.0362 -0.0595,0.0804 -0.0416,0.0442 -0.0828,0.0804 -0.0916,0.0804 -0.009,0 0.0179,-0.0362 0.0595,-0.0804 z m 16.18012,-0.22124 c 0,-0.007 0.0253,-0.032 0.0563,-0.0563 0.051,-0.04 0.0522,-0.0389 0.0121,0.0121 -0.042,0.0536 -0.0684,0.0706 -0.0684,0.0441 z m -10.65338,-1.93986 c 0.0232,-0.009 0.051,-0.008 0.0617,0.003 0.0107,0.0107 -0.008,0.0183 -0.0422,0.0169 -0.0375,-0.002 -0.0451,-0.009 -0.0194,-0.0194 z m 16.01928,0 c 0.0232,-0.009 0.051,-0.008 0.0616,0.003 0.0107,0.0107 -0.008,0.0183 -0.0422,0.0169 -0.0375,-0.002 -0.0451,-0.009 -0.0194,-0.0194 z m 51.49773,-0.0329 c 0.0398,-0.008 0.10495,-0.008 0.14476,0 0.0398,0.008 0.007,0.0139 -0.0724,0.0139 -0.0796,0 -0.11218,-0.006 -0.0724,-0.0139 z m 0.45072,0 c 0.04,-0.008 0.0979,-0.007 0.12867,6.4e-4 0.0308,0.008 -0.002,0.0144 -0.0727,0.014 -0.0708,-3.5e-4 -0.0959,-0.007 -0.0559,-0.0146 z m -42.26812,-0.0335 c 0.4821,-0.005 1.27101,-0.005 1.75311,0 0.48211,0.005 0.0877,0.009 -0.87656,0.009 -0.96421,0 -1.35866,-0.004 -0.87655,-0.009 z m 45.70084,-2.86289 7.4e-4,-0.92483 0.41018,-0.002 0.41018,-0.002 -0.40164,0.0105 -0.40165,0.0105 -0.009,0.91582 -0.009,0.91582 7.4e-4,-0.92481 z m -50.7511,-1.70491 c 0.48211,-0.005 1.27101,-0.005 1.75312,0 0.4821,0.005 0.0877,0.009 -0.87656,0.009 -0.96421,0 -1.35867,-0.004 -0.87656,-0.009 z m 21.23038,0 c 0.4821,-0.005 1.271,-0.005 1.75311,0 0.48211,0.005 0.0877,0.009 -0.87656,0.009 -0.96421,0 -1.35866,-0.004 -0.87655,-0.009 z m -34.24203,-0.12869 c 2.22477,-0.005 5.8653,-0.005 8.09006,0 2.22477,0.005 0.40451,0.008 -4.04503,0.008 -4.44953,0 -6.26979,-0.004 -4.04503,-0.008 z m 41.34294,3.2e-4 c 7.82016,-0.0219 13.26899,-0.022 13.26899,-3.2e-4 0,0.0133 -3.64415,0.0206 -8.0981,0.0163 -4.45396,-0.004 -6.78086,-0.0115 -5.17089,-0.0161 z"
         id="path100764" />
      <path
         style="fill:#ffffff;fill-opacity:1;stroke-width:0.0321672"
         d="m -432.58965,205.9274 c 0.0487,-0.007 0.12827,-0.007 0.17692,0 0.0487,0.007 0.009,0.0134 -0.0885,0.0134 -0.0973,0 -0.13711,-0.006 -0.0885,-0.0134 z m 16.01928,0 c 0.0487,-0.007 0.12827,-0.007 0.17692,0 0.0487,0.007 0.009,0.0134 -0.0885,0.0134 -0.0973,0 -0.13711,-0.006 -0.0885,-0.0134 z m 21.42382,0 c 0.0489,-0.007 0.12128,-0.007 0.16084,4.5e-4 0.0396,0.008 -4.5e-4,0.0137 -0.0889,0.0135 -0.0885,-3.3e-4 -0.12083,-0.006 -0.0719,-0.0139 z m 15.82628,0 c 0.0489,-0.007 0.12128,-0.007 0.16084,4.5e-4 0.0396,0.008 -4.5e-4,0.0137 -0.0889,0.0135 -0.0885,-3.3e-4 -0.12083,-0.006 -0.0719,-0.0139 z m 14.75025,-0.031 c 0.0232,-0.009 0.051,-0.008 0.0617,0.003 0.0107,0.0107 -0.008,0.0183 -0.0422,0.0169 -0.0375,-0.002 -0.0451,-0.009 -0.0194,-0.0194 z m 0.86852,0 c 0.0232,-0.009 0.051,-0.008 0.0616,0.003 0.0107,0.0107 -0.008,0.0183 -0.0422,0.0169 -0.0375,-0.002 -0.0451,-0.009 -0.0194,-0.0194 z m -11.40074,-0.68575 c 0,-0.23884 0.005,-0.33655 0.0113,-0.21713 0.006,0.11942 0.006,0.31484 0,0.43426 -0.006,0.11942 -0.0113,0.0217 -0.0113,-0.21713 z m -9.16724,-1.29473 -0.0613,-0.0724 0.0724,0.0613 c 0.068,0.0576 0.087,0.0835 0.0613,0.0835 -0.006,0 -0.0387,-0.0326 -0.0724,-0.0724 z m -0.1458,-0.14476 c -0.04,-0.051 -0.0389,-0.0521 0.0122,-0.0121 0.031,0.0243 0.0563,0.0496 0.0563,0.0563 0,0.0265 -0.0264,0.009 -0.0684,-0.0442 z m 2.54121,-2.12303 c -0.04,-0.051 -0.0389,-0.0522 0.0122,-0.0121 0.0536,0.042 0.0706,0.0684 0.0442,0.0684 -0.007,0 -0.032,-0.0253 -0.0563,-0.0563 z m 5.53687,-0.0845 c 0,-0.007 0.0253,-0.032 0.0563,-0.0563 0.051,-0.04 0.0521,-0.0389 0.0121,0.0121 -0.042,0.0536 -0.0684,0.0706 -0.0684,0.0441 z m -5.72987,-0.10848 c -0.04,-0.051 -0.0389,-0.0522 0.0122,-0.0121 0.031,0.0243 0.0563,0.0496 0.0563,0.0563 0,0.0265 -0.0264,0.009 -0.0684,-0.0442 z m -41.58186,-2.46883 c 6.6e-4,-0.0531 0.008,-0.0709 0.016,-0.0396 0.008,0.0313 0.008,0.0747 -0.001,0.0965 -0.009,0.0218 -0.0155,-0.004 -0.0148,-0.0569 z m 21.23375,-0.24126 c 0,-0.0973 0.006,-0.13711 0.0134,-0.0885 0.007,0.0487 0.007,0.12827 0,0.17692 -0.007,0.0487 -0.0134,0.009 -0.0134,-0.0885 z m -37.25119,-0.0161 c 3.6e-4,-0.0708 0.007,-0.0959 0.0146,-0.0559 0.008,0.04 0.007,0.0979 -6.5e-4,0.12867 -0.008,0.0308 -0.0143,-0.002 -0.014,-0.0727 z m 16.01863,-0.24125 c 0,-0.0619 0.007,-0.0873 0.0147,-0.0563 0.008,0.031 0.008,0.0816 0,0.11259 -0.008,0.031 -0.0147,0.006 -0.0147,-0.0563 z m 10.17041,-2.45276 -0.0613,-0.0724 0.0724,0.0613 c 0.068,0.0576 0.087,0.0835 0.0613,0.0835 -0.006,0 -0.0387,-0.0326 -0.0724,-0.0724 z m -0.17796,-0.17692 c -0.04,-0.051 -0.0389,-0.0521 0.0121,-0.0121 0.031,0.0243 0.0563,0.0496 0.0563,0.0563 0,0.0265 -0.0264,0.009 -0.0684,-0.0442 z m 47.0673,-0.34847 c 0.002,-0.0375 0.009,-0.0451 0.0194,-0.0194 0.009,0.0232 0.008,0.051 -0.003,0.0617 -0.0107,0.0107 -0.0183,-0.008 -0.0169,-0.0422 z M -432.5414,194.735 c 0.0221,-0.009 0.0583,-0.009 0.0804,0 0.0221,0.009 0.004,0.0162 -0.0402,0.0162 -0.0442,0 -0.0623,-0.007 -0.0402,-0.0162 z m 0.28951,0 c 0.0221,-0.009 0.0583,-0.009 0.0804,0 0.0221,0.009 0.004,0.0162 -0.0402,0.0162 -0.0442,0 -0.0623,-0.007 -0.0402,-0.0162 z m 15.72978,0 c 0.0221,-0.009 0.0583,-0.009 0.0804,0 0.0221,0.009 0.004,0.0162 -0.0402,0.0162 -0.0442,0 -0.0623,-0.007 -0.0402,-0.0162 z m 0.2895,0 c 0.0221,-0.009 0.0583,-0.009 0.0804,0 0.0221,0.009 0.004,0.0162 -0.0402,0.0162 -0.0442,0 -0.0623,-0.007 -0.0402,-0.0162 z m 20.94087,0 c 0.0221,-0.009 0.0583,-0.009 0.0804,0 0.0221,0.009 0.004,0.0162 -0.0402,0.0162 -0.0442,0 -0.0623,-0.007 -0.0402,-0.0162 z m 0.28951,0 c 0.0221,-0.009 0.0583,-0.009 0.0804,0 0.0221,0.009 0.004,0.0162 -0.0402,0.0162 -0.0442,0 -0.0623,-0.007 -0.0402,-0.0162 z m 15.7143,-9.9e-4 c 0.0313,-0.008 0.0747,-0.008 0.0965,10e-4 0.0218,0.009 -0.004,0.0155 -0.0569,0.0148 -0.0531,-6.4e-4 -0.0709,-0.008 -0.0396,-0.016 z m 0.27281,9.9e-4 c 0.0221,-0.009 0.0583,-0.009 0.0804,0 0.0221,0.009 0.004,0.0162 -0.0402,0.0162 -0.0442,0 -0.0623,-0.007 -0.0402,-0.0162 z m -42.67788,-0.95586 c 0,-0.007 0.0253,-0.032 0.0563,-0.0563 0.051,-0.04 0.0522,-0.0389 0.0122,0.0121 -0.042,0.0536 -0.0684,0.0706 -0.0684,0.0441 z m 0.12867,-0.12867 c 0,-0.007 0.0253,-0.032 0.0563,-0.0563 0.051,-0.04 0.0522,-0.0389 0.0122,0.0121 -0.042,0.0536 -0.0684,0.0706 -0.0684,0.0441 z m 52.56126,-0.35384 c 0,-0.007 0.0253,-0.032 0.0563,-0.0563 0.051,-0.04 0.0522,-0.0389 0.0121,0.0121 -0.042,0.0536 -0.0684,0.0706 -0.0684,0.0441 z m 9.31039,-0.0924 -0.0945,-0.10455 0.10454,0.0945 c 0.0975,0.0881 0.11933,0.11461 0.0945,0.11461 -0.006,0 -0.0526,-0.047 -0.10455,-0.10454 z m -9.11738,-0.10061 c 0,-0.007 0.0253,-0.032 0.0563,-0.0563 0.051,-0.04 0.0522,-0.0389 0.0121,0.0121 -0.042,0.0536 -0.0684,0.0706 -0.0684,0.0441 z m -6.29162,-0.80812 c 0,-0.30076 0.005,-0.42813 0.0107,-0.28304 0.006,0.14509 0.006,0.39117 0,0.54684 -0.006,0.15568 -0.0108,0.037 -0.0108,-0.2638 z m -57.77686,-0.68172 c 0.0313,-0.008 0.0747,-0.008 0.0965,0.001 0.0218,0.009 -0.004,0.0155 -0.0569,0.0148 -0.0531,-6.4e-4 -0.0709,-0.008 -0.0396,-0.016 z m 16.01928,0 c 0.0313,-0.008 0.0747,-0.008 0.0965,0.001 0.0218,0.009 -0.004,0.0155 -0.0569,0.0148 -0.0531,-6.4e-4 -0.0709,-0.008 -0.0396,-0.016 z m 21.39121,0 c 0.0313,-0.008 0.0747,-0.008 0.0965,0.001 0.0218,0.009 -0.004,0.0155 -0.0569,0.0148 -0.0531,-6.4e-4 -0.0709,-0.008 -0.0396,-0.016 z m 0.693,3.2e-4 c 0.0232,-0.009 0.051,-0.008 0.0617,0.003 0.0107,0.0107 -0.008,0.0183 -0.0422,0.0169 -0.0375,-0.002 -0.0451,-0.009 -0.0194,-0.0194 z m 15.13328,-3.2e-4 c 0.0313,-0.008 0.0747,-0.008 0.0965,0.001 0.0218,0.009 -0.004,0.0155 -0.0569,0.0148 -0.0531,-6.4e-4 -0.0709,-0.008 -0.0396,-0.016 z m 0.693,3.2e-4 c 0.0232,-0.009 0.051,-0.008 0.0617,0.003 0.0107,0.0107 -0.008,0.0183 -0.0422,0.0169 -0.0375,-0.002 -0.0451,-0.009 -0.0194,-0.0194 z m 14.58583,-0.0324 c 0.031,-0.008 0.0816,-0.008 0.11258,0 0.031,0.008 0.006,0.0147 -0.0563,0.0147 -0.0619,0 -0.0872,-0.007 -0.0563,-0.0147 z m -42.05866,-1.28862 c 0.4821,-0.005 1.27101,-0.005 1.75311,0 0.48211,0.005 0.0877,0.009 -0.87656,0.009 -0.96421,0 -1.35866,-0.004 -0.87655,-0.009 z m 45.0059,-0.48254 c -0.04,-0.051 -0.0389,-0.0522 0.0121,-0.0121 0.031,0.0243 0.0563,0.0496 0.0563,0.0563 0,0.0265 -0.0264,0.009 -0.0684,-0.0442 z m 0.94923,-0.57096 c 0,-0.21231 0.005,-0.29497 0.0116,-0.1837 0.006,0.11126 0.006,0.28496 0,0.386 -0.006,0.10104 -0.0115,0.01 -0.0114,-0.2023 z m -5.4e-4,-0.93285 c 0,-0.17692 0.005,-0.2452 0.012,-0.15172 0.007,0.0935 0.006,0.23823 0,0.32167 -0.007,0.0834 -0.0119,0.007 -0.0118,-0.16995 z m 0.69847,-0.003 c 0.002,-0.0375 0.009,-0.0451 0.0194,-0.0194 0.009,0.0232 0.008,0.051 -0.003,0.0617 -0.0107,0.0107 -0.0183,-0.008 -0.0169,-0.0422 z"
         id="path100762" />
      <path
         style="fill:#ffffff;fill-opacity:1;stroke-width:0.0321672"
         d="m -417.16345,205.8963 c 0.0232,-0.009 0.051,-0.008 0.0617,0.003 0.0107,0.0107 -0.008,0.0183 -0.0422,0.0169 -0.0375,-0.002 -0.0451,-0.009 -0.0194,-0.0194 z m 52.72047,-7.7e-4 c 0.04,-0.008 0.0979,-0.007 0.12866,6.5e-4 0.0308,0.008 -0.002,0.0143 -0.0727,0.014 -0.0708,-3.5e-4 -0.0959,-0.007 -0.0559,-0.0146 z m 0.54684,0 c 0.04,-0.008 0.0979,-0.007 0.12867,6.5e-4 0.0308,0.008 -0.002,0.0143 -0.0728,0.014 -0.0708,-3.5e-4 -0.0959,-0.007 -0.0559,-0.0146 z m -63.595,-0.29086 c 0.4821,-0.005 1.27101,-0.005 1.75311,0 0.48211,0.005 0.0877,0.009 -0.87655,0.009 -0.96422,0 -1.35867,-0.004 -0.87656,-0.009 z m 16.01928,0 c 0.48211,-0.005 1.27101,-0.005 1.75312,0 0.4821,0.005 0.0877,0.009 -0.87656,0.009 -0.96421,0 -1.35867,-0.004 -0.87656,-0.009 z m 21.23038,0 c 0.4821,-0.005 1.271,-0.005 1.75311,0 0.48211,0.005 0.0877,0.009 -0.87656,0.009 -0.96421,0 -1.35866,-0.004 -0.87655,-0.009 z m 15.97103,0 c 0.45557,-0.005 1.20104,-0.005 1.65661,0 0.45557,0.005 0.0828,0.009 -0.8283,0.009 -0.91114,0 -1.28388,-0.004 -0.82831,-0.009 z m 5.32761,-1.28671 c -0.04,-0.051 -0.0389,-0.0522 0.0121,-0.0121 0.0536,0.042 0.0706,0.0684 0.0442,0.0684 -0.007,0 -0.032,-0.0253 -0.0563,-0.0563 z m -0.2402,-0.24126 -0.0613,-0.0724 0.0724,0.0613 c 0.068,0.0576 0.087,0.0835 0.0613,0.0835 -0.006,0 -0.0387,-0.0326 -0.0724,-0.0724 z m -68.17784,-0.0804 -0.078,-0.0885 0.0885,0.078 c 0.0827,0.0729 0.10321,0.0989 0.078,0.0989 -0.006,0 -0.0456,-0.0398 -0.0885,-0.0885 z m -0.35384,-0.35384 -0.078,-0.0885 0.0885,0.078 c 0.0827,0.0729 0.10321,0.0989 0.078,0.0989 -0.006,0 -0.0456,-0.0398 -0.0885,-0.0885 z m 15.92112,-0.0322 c -0.04,-0.051 -0.0389,-0.0522 0.0121,-0.0121 0.0536,0.042 0.0706,0.0684 0.0442,0.0684 -0.007,0 -0.032,-0.0253 -0.0563,-0.0563 z m 55.61952,-0.96502 -0.11086,-0.12063 0.12063,0.11086 c 0.11228,0.10318 0.13542,0.1304 0.11086,0.1304 -0.005,0 -0.0597,-0.0543 -0.12063,-0.12063 z m -10.24353,-1.00522 c 0.032,-0.0354 0.0655,-0.0643 0.0743,-0.0643 0.009,0 -0.0101,0.0289 -0.0421,0.0643 -0.032,0.0354 -0.0655,0.0643 -0.0743,0.0643 -0.009,0 0.0101,-0.029 0.0421,-0.0643 z m -42.76878,-0.0563 -0.078,-0.0885 0.0885,0.078 c 0.0487,0.0429 0.0885,0.0827 0.0885,0.0885 0,0.0252 -0.026,0.005 -0.0989,-0.078 z m 42.99395,-0.16888 c 0.032,-0.0354 0.0655,-0.0643 0.0743,-0.0643 0.009,0 -0.0101,0.029 -0.0421,0.0643 -0.032,0.0354 -0.0655,0.0643 -0.0743,0.0643 -0.009,0 0.0101,-0.0289 0.0421,-0.0643 z m 7.37827,-2.46883 c -0.04,-0.051 -0.0389,-0.0522 0.0121,-0.0122 0.0536,0.042 0.0706,0.0684 0.0442,0.0684 -0.007,0 -0.032,-0.0253 -0.0563,-0.0563 z m -6.29321,-0.10454 c 0,-0.0619 0.007,-0.0873 0.0147,-0.0563 0.008,0.031 0.008,0.0816 0,0.11259 -0.008,0.031 -0.0147,0.006 -0.0147,-0.0563 z m -48.53818,-0.0965 c 0,-0.0973 0.006,-0.13711 0.0134,-0.0885 0.007,0.0487 0.007,0.12827 0,0.17692 -0.007,0.0487 -0.0134,0.009 -0.0134,-0.0885 z m 3.27769,-0.0161 c 6.6e-4,-0.0531 0.008,-0.0709 0.016,-0.0396 0.008,0.0313 0.008,0.0747 -10e-4,0.0965 -0.009,0.0218 -0.0155,-0.004 -0.0148,-0.0569 z m 51.28133,-0.0563 -0.0613,-0.0724 0.0724,0.0613 c 0.068,0.0576 0.087,0.0835 0.0613,0.0835 -0.006,0 -0.0387,-0.0326 -0.0724,-0.0724 z m -6.02203,-0.0402 c 6.4e-4,-0.0531 0.008,-0.0709 0.016,-0.0396 0.008,0.0313 0.008,0.0747 -10e-4,0.0965 -0.009,0.0218 -0.0155,-0.004 -0.0148,-0.0569 z m 8.77295,-2.51709 -0.078,-0.0885 0.0885,0.078 c 0.0827,0.0729 0.10321,0.0989 0.078,0.0989 -0.006,0 -0.0456,-0.0398 -0.0885,-0.0885 z m -15.61476,-0.20104 c 0.0871,-0.0885 0.16566,-0.16084 0.1745,-0.16084 0.009,0 -0.0552,0.0724 -0.14233,0.16084 -0.0871,0.0885 -0.16566,0.16083 -0.1745,0.16083 -0.009,0 0.0552,-0.0724 0.14233,-0.16083 z m 5.64125,0.0402 c -0.04,-0.051 -0.0389,-0.0522 0.0121,-0.0121 0.0536,0.042 0.0706,0.0684 0.0442,0.0684 -0.007,0 -0.032,-0.0253 -0.0563,-0.0563 z m -53.46195,-0.25734 c -0.04,-0.051 -0.0389,-0.0522 0.0121,-0.0121 0.031,0.0243 0.0563,0.0496 0.0563,0.0563 0,0.0265 -0.0264,0.009 -0.0684,-0.0441 z m 29.40496,-1.92199 c 0.0961,-0.0973 0.18196,-0.17692 0.19081,-0.17692 0.009,0 -0.0625,0.0796 -0.15864,0.17692 -0.0961,0.0973 -0.18196,0.17692 -0.19081,0.17692 -0.009,0 0.0625,-0.0796 0.15864,-0.17692 z m 15.82628,0.0965 c 0.0416,-0.0442 0.0828,-0.0804 0.0916,-0.0804 0.009,0 -0.0179,0.0362 -0.0595,0.0804 -0.0415,0.0442 -0.0828,0.0804 -0.0916,0.0804 -0.009,0 0.0179,-0.0362 0.0595,-0.0804 z m 0.36992,-0.36993 c 0.032,-0.0354 0.0655,-0.0643 0.0743,-0.0643 0.009,0 -0.0101,0.029 -0.0421,0.0643 -0.032,0.0354 -0.0655,0.0643 -0.0743,0.0643 -0.009,0 0.0101,-0.0289 0.0421,-0.0643 z m 15.26336,-0.30165 c 0,-0.007 0.0253,-0.032 0.0563,-0.0563 0.051,-0.04 0.0522,-0.0389 0.0121,0.0122 -0.042,0.0536 -0.0684,0.0706 -0.0684,0.0441 z m -63.81176,-1.58622 c 0.031,-0.008 0.0816,-0.008 0.11259,0 0.031,0.008 0.006,0.0147 -0.0563,0.0147 -0.0619,0 -0.0873,-0.007 -0.0563,-0.0147 z m 0.30559,-5.1e-4 c 0.0398,-0.008 0.10495,-0.008 0.14475,0 0.0398,0.008 0.007,0.0139 -0.0724,0.0139 -0.0796,0 -0.11219,-0.006 -0.0724,-0.0139 z m 15.7137,5.1e-4 c 0.031,-0.008 0.0816,-0.008 0.11258,0 0.031,0.008 0.006,0.0147 -0.0563,0.0147 -0.0619,0 -0.0873,-0.007 -0.0563,-0.0147 z m 0.30558,-5.1e-4 c 0.0398,-0.008 0.10495,-0.008 0.14476,0 0.0398,0.008 0.007,0.0139 -0.0724,0.0139 -0.0796,0 -0.11218,-0.006 -0.0724,-0.0139 z m 21.08563,5.1e-4 c 0.031,-0.008 0.0816,-0.008 0.11258,0 0.031,0.008 0.006,0.0147 -0.0563,0.0147 -0.0619,0 -0.0872,-0.007 -0.0563,-0.0147 z m 0.30559,-5.1e-4 c 0.0398,-0.008 0.10494,-0.008 0.14475,0 0.0398,0.008 0.007,0.0139 -0.0724,0.0139 -0.0796,0 -0.11218,-0.006 -0.0724,-0.0139 z m 15.52069,5.1e-4 c 0.031,-0.008 0.0816,-0.008 0.11258,0 0.031,0.008 0.006,0.0147 -0.0563,0.0147 -0.0619,0 -0.0872,-0.007 -0.0563,-0.0147 z m 0.30559,-5.1e-4 c 0.0398,-0.008 0.10494,-0.008 0.14475,0 0.0398,0.008 0.007,0.0139 -0.0724,0.0139 -0.0796,0 -0.11218,-0.006 -0.0724,-0.0139 z m 18.91634,-1.22163 c 0.0232,-0.009 0.051,-0.008 0.0617,0.003 0.0107,0.0107 -0.008,0.0183 -0.0422,0.0169 -0.0375,-0.002 -0.0451,-0.009 -0.0194,-0.0194 z m 0.25734,0 c 0.0232,-0.009 0.051,-0.008 0.0616,0.003 0.0107,0.0107 -0.008,0.0183 -0.0422,0.0169 -0.0375,-0.002 -0.0451,-0.009 -0.0194,-0.0194 z m 1.09972,-0.47663 c 0.0416,-0.0442 0.0828,-0.0804 0.0916,-0.0804 0.009,0 -0.0179,0.0362 -0.0595,0.0804 -0.0416,0.0442 -0.0828,0.0804 -0.0916,0.0804 -0.009,0 0.0179,-0.0362 0.0595,-0.0804 z m -2.20652,-0.12063 -0.0613,-0.0724 0.0724,0.0613 c 0.068,0.0576 0.087,0.0835 0.0613,0.0835 -0.006,0 -0.0387,-0.0326 -0.0724,-0.0724 z m 1.94918,-0.008 c 0.0416,-0.0442 0.0828,-0.0804 0.0916,-0.0804 0.009,0 -0.0179,0.0362 -0.0595,0.0804 -0.0416,0.0442 -0.0828,0.0804 -0.0916,0.0804 -0.009,0 0.0179,-0.0362 0.0595,-0.0804 z m -1.48736,-0.16751 c 0.04,-0.008 0.0979,-0.007 0.12867,6.5e-4 0.0308,0.008 -0.002,0.0143 -0.0728,0.014 -0.0708,-3.6e-4 -0.0959,-0.007 -0.0559,-0.0146 z m 0.94856,-3.2e-4 c 0.0487,-0.007 0.12826,-0.007 0.17692,0 0.0487,0.007 0.009,0.0134 -0.0885,0.0134 -0.0973,0 -0.13712,-0.006 -0.0885,-0.0134 z m -1.8365,-0.84544 c 0,-0.0442 0.007,-0.0623 0.0162,-0.0402 0.009,0.0221 0.009,0.0583 0,0.0804 -0.009,0.0221 -0.0162,0.004 -0.0162,-0.0402 z m 2.79855,0 c 0,-0.0442 0.007,-0.0623 0.0162,-0.0402 0.009,0.0221 0.009,0.0583 0,0.0804 -0.009,0.0221 -0.0162,0.004 -0.0162,-0.0402 z m -2.79855,-0.16084 c 0,-0.0442 0.007,-0.0623 0.0162,-0.0402 0.009,0.0221 0.009,0.0583 0,0.0804 -0.009,0.0221 -0.0162,0.004 -0.0162,-0.0402 z m 2.79855,0 c 0,-0.0442 0.007,-0.0623 0.0162,-0.0402 0.009,0.0221 0.009,0.0583 0,0.0804 -0.009,0.0221 -0.0162,0.004 -0.0162,-0.0402 z m -1.6054,0.009 c 0.0663,-0.007 0.17491,-0.007 0.24126,0 0.0663,0.007 0.0121,0.0126 -0.12063,0.0126 -0.13269,0 -0.18697,-0.006 -0.12063,-0.0126 z m 0.57351,-0.2205 c 0.002,-0.0375 0.009,-0.0451 0.0194,-0.0194 0.009,0.0232 0.008,0.051 -0.003,0.0617 -0.0107,0.0107 -0.0183,-0.008 -0.0169,-0.0422 z m -0.58902,-0.42272 c 0.0578,-0.007 0.14467,-0.007 0.19301,3.2e-4 0.0483,0.007 10e-4,0.0132 -0.10512,0.013 -0.10615,-3.2e-4 -0.1457,-0.006 -0.0879,-0.0133 z m -0.76454,-0.37878 c 0.0416,-0.0442 0.0828,-0.0804 0.0916,-0.0804 0.009,0 -0.0179,0.0362 -0.0595,0.0804 -0.0416,0.0442 -0.0828,0.0804 -0.0916,0.0804 -0.009,0 0.0179,-0.0362 0.0595,-0.0804 z m 1.95976,-0.008 -0.078,-0.0885 0.0885,0.078 c 0.0827,0.0729 0.10321,0.0989 0.078,0.0989 -0.006,0 -0.0456,-0.0398 -0.0885,-0.0885 z m -2.2171,-0.0563 c 0.0416,-0.0442 0.0828,-0.0804 0.0916,-0.0804 0.009,0 -0.0179,0.0362 -0.0595,0.0804 -0.0415,0.0442 -0.0828,0.0804 -0.0916,0.0804 -0.009,0 0.0179,-0.0362 0.0595,-0.0804 z m 2.40844,-0.13671 c -0.04,-0.051 -0.0389,-0.0521 0.0121,-0.0121 0.0536,0.042 0.0706,0.0684 0.0442,0.0684 -0.007,0 -0.032,-0.0253 -0.0563,-0.0563 z"
         id="path100760" />
    </g>
    <path
       style="fill:url(#linearGradient123876);fill-opacity:1;stroke:none;stroke-width:0.765;stroke-linecap:butt;stroke-linejoin:miter;stroke-miterlimit:4;stroke-dasharray:none;stroke-opacity:1"
       d="m 63.713982,39.073632 c -22.296759,10.22638 -34.762034,6.544629 -45.684887,0 -1.528197,-0.915647 2.300848,20.957199 22.309314,21.097233 18.689552,0.130804 23.794724,-21.289476 23.375573,-21.097233 z"
       id="path120326"
       sodipodi:nodetypes="ssss" />
  </g>
</svg>
