<?xml version="1.0" encoding="UTF-8" standalone="no"?>
<svg
   version="1.0"
   width="80pt"
   height="80pt"
   viewBox="0 0 80 80"
   preserveAspectRatio="xMidYMid meet"
   id="svg1424"
   sodipodi:docname="schere.svg"
   inkscape:version="1.1.1 (c3084ef, 2021-09-22)"
   xmlns:inkscape="http://www.inkscape.org/namespaces/inkscape"
   xmlns:sodipodi="http://sodipodi.sourceforge.net/DTD/sodipodi-0.dtd"
   xmlns="http://www.w3.org/2000/svg"
   xmlns:svg="http://www.w3.org/2000/svg">
  <defs
     id="defs1428" />
  <sodipodi:namedview
     id="namedview1426"
     pagecolor="#505050"
     bordercolor="#eeeeee"
     borderopacity="1"
     inkscape:pageshadow="0"
     inkscape:pageopacity="0"
     inkscape:pagecheckerboard="0"
     inkscape:document-units="pt"
     showgrid="false"
     inkscape:zoom="2.6223519"
     inkscape:cx="81.415465"
     inkscape:cy="110.39708"
     inkscape:window-width="1366"
     inkscape:window-height="819"
     inkscape:window-x="1800"
     inkscape:window-y="2556"
     inkscape:window-maximized="0"
     inkscape:current-layer="svg1424" />
  <metadata
     id="metadata1414">
Created by potrace 1.15, written by Peter Selinger 2001-2017
</metadata>
  <g
     transform="matrix(0.00552049,0.00251522,0.00251522,-0.00552049,-12.382167,56.770924)"
     fill="#000000"
     stroke="none"
     id="g1422"
     style="fill:#cccccc">
    <path
       d="m 1404,10328 c -20,-12 49,-93 1370,-1589 765,-867 1396,-1574 1402,-1572 6,2 23,-12 38,-32 30,-39 18,-48 -17,-12 -12,13 -15,14 -7,4 14,-18 13,-19 -15,-14 -16,4 -66,11 -110,17 -44,5 -570,75 -1170,155 -599,79 -1481,196 -1960,260 -478,63 -885,118 -902,121 -28,5 -33,3 -33,-13 0,-32 53,-104 126,-173 227,-212 704,-448 1329,-656 287,-95 625,-197 631,-191 3,2 -16,10 -41,17 -25,7 -44,15 -42,17 2,2 161,-41 353,-95 192,-55 645,-180 1006,-278 361,-99 649,-182 640,-185 -27,-10 926,-238 1330,-319 l 57,-11 174,-197 c 188,-212 403,-437 1067,-1114 792,-808 1227,-1284 1324,-1448 71,-119 109,-222 110,-296 1,-85 -24,-120 -120,-163 -110,-50 -216,-124 -323,-226 -264,-254 -402,-575 -403,-935 0,-271 72,-491 252,-769 81,-124 255,-302 374,-382 109,-73 262,-148 369,-183 150,-48 232,-60 397,-61 165,0 239,12 390,62 285,95 559,324 699,583 51,96 106,262 122,368 18,130 7,345 -24,465 -31,115 -98,262 -163,355 -136,194 -413,512 -920,1057 -583,625 -668,719 -935,1040 -388,465 -675,832 -780,1000 -131,208 -249,491 -249,595 0,26 5,73 11,106 11,55 17,65 93,142 44,46 95,91 111,102 48,30 173,67 312,92 115,21 157,23 423,22 303,0 452,-10 1040,-70 543,-55 577,-60 1875,-268 411,-66 468,-73 785,-102 340,-30 523,-7 737,96 335,159 560,447 639,812 25,117 29,314 10,446 -64,432 -319,761 -748,967 -127,61 -209,86 -381,115 -293,50 -645,-3 -887,-132 -286,-152 -519,-430 -619,-738 -61,-186 -82,-431 -52,-595 13,-67 12,-73 -8,-113 -38,-74 -133,-113 -326,-133 -127,-13 -145,-12 -525,42 -407,57 -888,140 -1655,284 -800,150 -1055,194 -1360,235 -126,17 -243,36 -260,42 -32,12 -137,107 -130,118 7,12 -369,372 -716,685 -258,233 -1394,1215 -1759,1521 -727,609 -1244,949 -1648,1084 -136,46 -269,62 -308,38 z M 11561,7689 c 160,-16 232,-34 344,-87 193,-93 330,-207 434,-363 172,-256 200,-643 66,-916 -113,-229 -321,-380 -625,-454 -159,-38 -330,-32 -610,22 -197,38 -338,100 -471,207 -274,221 -370,559 -257,912 108,337 412,613 749,679 63,13 250,13 370,0 z M 5827,7006 c 9,-15 -79,65 -224,206 -68,65 -123,121 -123,124 0,7 338,-314 347,-330 z M 4057,6104 c -3,-3 -12,-4 -19,-1 -8,3 -5,6 6,6 11,1 17,-2 13,-5 z M 8605,2321 c 111,-29 264,-107 363,-186 87,-70 264,-257 340,-360 25,-33 67,-105 93,-160 123,-256 143,-535 54,-757 -106,-261 -392,-478 -713,-539 -99,-19 -287,-6 -397,26 -112,33 -269,109 -356,174 -113,84 -281,290 -368,452 -70,130 -86,207 -86,409 0,152 3,186 23,260 98,360 372,633 697,696 91,18 247,11 350,-15 z"
       id="path1416"
       style="fill:#cccccc" />
    <path
       d="m 3918,6123 c 7,-3 16,-2 19,1 4,3 -2,6 -13,5 -11,0 -14,-3 -6,-6 z"
       id="path1418"
       style="fill:#cccccc" />
    <path
       d="m 3958,6113 c 7,-3 16,-2 19,1 4,3 -2,6 -13,5 -11,0 -14,-3 -6,-6 z"
       id="path1420"
       style="fill:#cccccc" />
  </g>
</svg>
