<?xml version="1.0" encoding="UTF-8" standalone="no"?>
<!-- Created with Inkscape (http://www.inkscape.org/) -->

<svg
   width="80mm"
   height="80mm"
   viewBox="0 0 80 80"
   version="1.1"
   id="svg1678"
   inkscape:version="1.1.1 (c3084ef, 2021-09-22)"
   sodipodi:docname="water.svg"
   xmlns:inkscape="http://www.inkscape.org/namespaces/inkscape"
   xmlns:sodipodi="http://sodipodi.sourceforge.net/DTD/sodipodi-0.dtd"
   xmlns="http://www.w3.org/2000/svg"
   xmlns:svg="http://www.w3.org/2000/svg">
  <sodipodi:namedview
     id="namedview1680"
     pagecolor="#505050"
     bordercolor="#eeeeee"
     borderopacity="1"
     inkscape:pageshadow="0"
     inkscape:pageopacity="0"
     inkscape:pagecheckerboard="0"
     inkscape:document-units="mm"
     showgrid="false"
     inkscape:zoom="0.55678311"
     inkscape:cx="396.02494"
     inkscape:cy="561.25984"
     inkscape:window-width="2560"
     inkscape:window-height="1305"
     inkscape:window-x="1440"
     inkscape:window-y="2185"
     inkscape:window-maximized="0"
     inkscape:current-layer="layer1" />
  <defs
     id="defs1675" />
  <g
     inkscape:label="Layer 1"
     inkscape:groupmode="layer"
     id="layer1">
    <path
       style="color:#000000;display:inline;overflow:visible;visibility:visible;fill:#008000;fill-opacity:1;fill-rule:nonzero;stroke:none;stroke-width:1.62299;marker:none;enable-background:accumulate"
       d="m 23.68911,17.456721 c -3.542246,0.04654 -6.795484,0.325132 -9.10116,0.884094 -3.91026,0.947961 -7.3041006,3.679168 -8.9346146,7.197556 -1.0170126,2.194562 -1.1532021,6.826081 -0.2939019,10.016267 0.5633163,2.091346 2.8428407,8.232253 6.2111245,14.447129 l 1.704631,3.151529 -0.215528,4.576484 c -0.221158,6.078839 -0.108676,6.924968 0.979672,7.426391 0.82281,0.379074 9.929455,1.071493 12.471234,0.946502 1.206957,-0.05938 4.592706,-0.194053 7.523887,-0.301634 6.951281,-0.255139 13.985246,-1.461988 14.587327,-2.49627 0.120689,-0.207325 0.306485,-0.229289 0.411463,-1.674572 0.210962,-2.904491 -0.342867,-3.152686 6.887099,-14.956791 4.680772,-7.642119 7.623135,-12.517921 8.689697,-14.415919 1.059081,-1.884688 3.066027,-4.229575 5.143281,-6.063845 3.328364,-1.410726 7.324306,-3.367986 8.05291,-4.867713 1.283418,-2.641716 -12.392314,-4.337521 -12.089161,-1.830596 0.165036,1.364773 -0.04162,3.750507 -0.264511,5.658203 -1.411849,1.2801 -2.957434,2.786243 -4.457512,4.378858 -5.135131,5.451923 -6.656303,9.151017 -9.571402,9.19458 -1.247858,0.01862 -2.088048,-0.124664 -2.361012,-0.416045 -0.303617,-0.324063 -0.464534,-4.565325 -0.578006,-8.227272 -0.133562,-4.310072 -0.270293,-5.340002 -0.832723,-6.573495 -0.818513,-1.795134 -2.474715,-3.29471 -4.359544,-3.942018 -3.62997,-1.246639 -11.189147,-2.079546 -18.065164,-2.111423 -0.515703,-0.0025 -1.032051,-0.0063 -1.538086,0 z m 1.792801,3.681986 c 4.141517,-0.0088 8.681346,0.198242 12.774932,0.634464 3.045388,0.324529 3.70316,0.499259 4.310561,1.144127 0.772987,0.820681 0.94352,1.931761 0.352682,2.31944 -0.201572,0.132261 -5.456533,0.260926 -11.677699,0.280839 -11.924997,0.03812 -14.863611,0.319899 -16.536876,1.570563 -1.091657,0.815938 -1.294256,1.872448 -1.332355,7.176762 -0.02863,3.984286 -0.08809,5.774414 -0.65638,6.23026 -0.927991,0.744373 -1.666541,0.633295 -2.63532,-0.395251 C 7.7869272,37.663834 6.9149277,29.641987 8.4551988,26.28726 c 0.8552787,-1.862812 2.6824732,-3.394039 4.8493792,-4.077237 2.187549,-0.689714 6.852524,-1.060712 12.177333,-1.071316 z"
       id="rect2914"
       sodipodi:nodetypes="cssscccssssssscsscsssssssccssssssssssc" />
  </g>
</svg>
